<svg enable-background="new 0 0 520 520" viewBox="0 0 520 520" xmlns="http://www.w3.org/2000/svg"><g fill="#919191"><path d="m514.4 487.6-282.8-282.9 26.4-8.2c15.6-4.9 27-17.9 29.5-34.1 2.6-16.2-4.2-32.1-17.5-41.6l-38.1-26.9c-1.3-.9-2-2.4-2-3.9l.6-46.6c.2-16.4-8.7-31.2-23.3-38.6s-31.8-6-45 3.8l-37.4 27.9c-1.3.9-2.9 1.2-4.4.7l-44.2-15c-15.4-5.3-32.2-1.4-43.8 10.2s-15.5 28.4-10.3 43.9l15 44.1c.5 1.5.2 3.1-.7 4.4l-27.9 37.4c-9.8 13.1-11.3 30.4-3.8 45 7.4 14.6 22.2 23.5 38.6 23.3l46.6-.6c1.6 0 3.1.8 4 2l26.9 38.1c9.5 13.4 25.4 20.1 41.6 17.5s29.3-13.9 34.1-29.5l8.2-26.4 282.9 282.9c3.6 3.6 8.4 5.6 13.4 5.6 5.1 0 9.8-2 13.4-5.6s5.6-8.4 5.6-13.4c0-5.2-2-9.9-5.6-13.5zm-441.3-379.3-15-44.1c-.6-1.7-.1-3.6 1.1-4.9 1.3-1.3 3.2-1.7 4.9-1.1l44.1 15c13.3 4.5 28 2.2 39.3-6.2l37.4-28c1.5-1.1 3.4-1.2 5-.4s2.6 2.5 2.6 4.3l-.6 46.6c-.2 14.1 6.6 27.3 18.1 35.4l38.1 26.9c1.5 1 2.2 2.8 1.9 4.6s-1.5 3.2-3.3 3.8l-44.5 13.8c-13.4 4.2-23.9 14.7-28.1 28.1l-13.8 44.5c-.5 1.7-2 3-3.8 3.3s-3.6-.5-4.6-1.9l-27-38c-8-11.3-21-18.1-34.9-18.1l-47.2.6c-1.8 0-3.4-1-4.2-2.6s-.7-3.5.4-5l27.9-37.4c8.4-11.2 10.7-25.9 6.2-39.2z"/><path d="m337.4 178.5h31v31c0 10.5 8.5 19 19 19s19-8.5 19-19v-31h31c10.5 0 19-8.5 19-19s-8.5-19-19-19h-31v-31c0-10.5-8.5-19-19-19s-19 8.5-19 19v31h-31c-10.5 0-19 8.5-19 19s8.5 19 19 19z"/><path d="m194.4 368.5h-16v-16c0-10.5-8.5-19-19-19s-19 8.5-19 19v16h-16c-10.5 0-19 8.5-19 19s8.5 19 19 19h16v16c0 10.5 8.5 19 19 19s19-8.5 19-19v-16h16c10.5 0 19-8.5 19-19s-8.5-19-19-19z"/></g></svg>