<svg enable-background="new 0 0 253.3 197.2" viewBox="0 0 253.3 197.2" xmlns="http://www.w3.org/2000/svg"><g opacity=".5"><path d="m174.7 41c-4.6-9.5-11.4-17.5-20.2-23.8-15.6-11.3-37.5-17.2-63.5-17.2s-47.9 5.9-63.5 17.2c-8.8 6.3-15.6 14.4-20.2 23.8-4.8 9.9-7.3 21.5-7.3 34.4 0 27.8 11.5 49.1 33.3 61.9-3 10.6-6.9 17.1-7 17.1l-6.8 10.8h12.8.1c4 0 22.5-.9 37.6-16 6.6.9 13.7 1.4 20.9 1.4 26 0 47.9-5.9 63.5-17.2 8.8-6.3 15.6-14.4 20.2-23.8 4.9-9.9 7.3-21.5 7.3-34.3s-2.3-24.4-7.2-34.3z" fill="#8dffc8"/><path d="m253.3 107.3c0-12.9-2.5-24.4-7.3-34.3-4.6-9.5-11.4-17.5-20.2-23.8-10.4-7.5-23.6-12.6-39-15.2.2.3.3.7.5 1 5.8 11.8 8.7 25.4 8.7 40.5s-2.9 28.7-8.7 40.5c-5.7 11.6-13.9 21.4-24.6 29-16.5 12-38.9 18.7-65 19.7.4.3.7.6 1.1.8 15.6 11.3 37.5 17.2 63.5 17.2 7.3 0 14.3-.5 20.9-1.4 15 15.1 33.6 16 37.6 16h.1 12.8l-6.8-10.8s-3.9-6.5-7-17.1c21.9-13 33.4-34.3 33.4-62.1z" fill="#dbfff0"/></g></svg>