<?xml version="1.0" encoding="UTF-8"?>
<svg xmlns="http://www.w3.org/2000/svg" xmlns:xlink="http://www.w3.org/1999/xlink" width="45px" height="40px" viewBox="0 0 40 40" version="1.1">
<defs>
<linearGradient id="linear0" gradientUnits="userSpaceOnUse" x1="93.710037" y1="291.450012" x2="418.319916" y2="291.450012" gradientTransform="matrix(0.078125,0,0,-0.078125,0,40)">
<stop offset="0" style="stop-color:rgb(28.627451%,85.490196%,54.509804%);stop-opacity:1;"/>
<stop offset="1" style="stop-color:rgb(22.352941%,71.764706%,43.529412%);stop-opacity:1;"/>
</linearGradient>
<linearGradient id="linear1" gradientUnits="userSpaceOnUse" x1="123.470001" y1="185.75" x2="296.290008" y2="185.75" gradientTransform="matrix(0.078125,0,0,-0.078125,0,40)">
<stop offset="0" style="stop-color:rgb(28.627451%,85.490196%,54.509804%);stop-opacity:1;"/>
<stop offset="1" style="stop-color:rgb(22.352941%,71.764706%,43.529412%);stop-opacity:1;"/>
</linearGradient>
<linearGradient id="linear2" gradientUnits="userSpaceOnUse" x1="170.460007" y1="203.669998" x2="264.450012" y2="203.669998" gradientTransform="matrix(0.078125,0,0,-0.078125,0,40)">
<stop offset="0" style="stop-color:rgb(86.27451%,88.627451%,88.235294%);stop-opacity:1;"/>
<stop offset="1" style="stop-color:rgb(75.294118%,80%,80.784314%);stop-opacity:1;"/>
</linearGradient>
</defs>
<g id="surface1">
<path style=" stroke:none;fill-rule:nonzero;fill:rgb(70.196078%,70.196078%,70.196078%);fill-opacity:1;" d="M 26.796875 24.722656 C 25.195312 24.722656 23.492188 24.078125 22.007812 22.851562 C 19.785156 21.015625 17.757812 17.539062 18.75 13.296875 C 19.273438 11.042969 20.71875 9.121094 22.820312 7.890625 C 24.882812 6.679688 27.355469 6.257812 29.78125 6.707031 L 29.542969 8.003906 C 25.132812 7.1875 20.957031 9.644531 20.035156 13.59375 C 19.179688 17.253906 20.929688 20.25 22.847656 21.835938 C 24.65625 23.328125 26.808594 23.800781 28.460938 23.0625 L 28.996094 24.265625 C 28.304688 24.574219 27.554688 24.726562 26.796875 24.722656 Z M 26.796875 24.722656 "/>
<path style=" stroke:none;fill-rule:nonzero;fill:url(#linear0);" d="M 11.808594 24.632812 C 11.644531 24.535156 7.832031 22.183594 7.367188 18.757812 C 7.140625 17.082031 7.746094 15.46875 9.164062 13.957031 C 12.941406 9.941406 20.039062 8.679688 26.039062 10.949219 C 28.191406 11.765625 29.867188 12.886719 31.023438 14.277344 C 32.0625 15.535156 32.636719 16.980469 32.679688 18.460938 C 32.746094 20.964844 31.292969 23.261719 29 24.265625 L 28.464844 23.0625 C 30.265625 22.269531 31.410156 20.46875 31.359375 18.5 C 31.28125 15.851562 29.171875 13.550781 25.570312 12.183594 C 20.050781 10.09375 13.558594 11.21875 10.128906 14.863281 C 8.996094 16.066406 8.507812 17.320312 8.675781 18.582031 C 9.058594 21.386719 12.460938 23.484375 12.496094 23.503906 Z M 11.808594 24.632812 "/>
<path style=" stroke:none;fill-rule:nonzero;fill:url(#linear1);" d="M 17.992188 29.824219 L 9.644531 24.621094 L 14.800781 21.152344 L 23.148438 26.355469 Z M 17.992188 29.824219 "/>
<path style=" stroke:none;fill-rule:nonzero;fill:rgb(18.039216%,55.686275%,33.333333%);fill-opacity:1;" d="M 23.148438 26.355469 L 23.148438 30.003906 L 17.992188 33.46875 L 17.992188 29.824219 Z M 23.148438 26.355469 "/>
<path style=" stroke:none;fill-rule:nonzero;fill:rgb(20%,63.921569%,38.039216%);fill-opacity:1;" d="M 9.644531 24.621094 L 9.644531 28.265625 L 17.992188 33.46875 L 17.992188 29.824219 Z M 9.644531 24.621094 "/>
<path style=" stroke:none;fill-rule:nonzero;fill:rgb(70.196078%,70.196078%,70.196078%);fill-opacity:1;" d="M 31.304688 17.910156 C 31.304688 17.910156 31.574219 19.976562 31.132812 21.652344 C 30.691406 23.328125 29.425781 24.1875 28.367188 24.5 C 27.308594 24.816406 26.882812 23.40625 26.882812 23.40625 C 26.882812 23.40625 28.699219 23.457031 30.121094 21.859375 C 31.691406 20.09375 31.304688 17.910156 31.304688 17.910156 Z M 31.304688 17.910156 "/>
<path style=" stroke:none;fill-rule:nonzero;fill:url(#linear2);" d="M 18.425781 27.929688 L 13.316406 21.195312 L 15.246094 20.246094 L 20.660156 26.472656 Z M 18.425781 27.929688 "/>
<path style=" stroke:none;fill-rule:nonzero;fill:rgb(79.607843%,78.039216%,23.921569%);fill-opacity:1;" d="M 18.664062 33.015625 L 18.96875 32.8125 L 18.96875 31.011719 L 18.664062 31.214844 Z M 18.664062 33.015625 "/>
<path style=" stroke:none;fill-rule:nonzero;fill:rgb(79.607843%,78.039216%,23.921569%);fill-opacity:1;" d="M 19.410156 32.515625 L 19.714844 32.308594 L 19.714844 30.507812 L 19.410156 30.714844 Z M 19.410156 32.515625 "/>
<path style=" stroke:none;fill-rule:nonzero;fill:rgb(79.607843%,78.039216%,23.921569%);fill-opacity:1;" d="M 20.160156 32.011719 L 20.464844 31.808594 L 20.464844 30.003906 L 20.160156 30.210938 Z M 20.160156 32.011719 "/>
<path style=" stroke:none;fill-rule:nonzero;fill:rgb(79.607843%,78.039216%,23.921569%);fill-opacity:1;" d="M 21.65625 31.007812 L 21.960938 30.800781 L 21.960938 29 L 21.65625 29.203125 Z M 21.65625 31.007812 "/>
<path style=" stroke:none;fill-rule:nonzero;fill:rgb(79.607843%,78.039216%,23.921569%);fill-opacity:1;" d="M 20.90625 31.507812 L 21.210938 31.304688 L 21.210938 29.503906 L 20.90625 29.707031 Z M 20.90625 31.507812 "/>
<path style=" stroke:none;fill-rule:nonzero;fill:rgb(79.607843%,78.039216%,23.921569%);fill-opacity:1;" d="M 22.402344 30.503906 L 22.707031 30.296875 L 22.707031 28.496094 L 22.402344 28.703125 Z M 22.402344 30.503906 "/>
</g>
</svg>
