<?xml version="1.0" encoding="UTF-8"?>
<svg xmlns="http://www.w3.org/2000/svg" xmlns:xlink="http://www.w3.org/1999/xlink" width="45px" height="40px" viewBox="0 0 40 40" version="1.1">
<defs>
<linearGradient id="linear0" gradientUnits="userSpaceOnUse" x1="107.540001" y1="363.320007" x2="311.640015" y2="363.320007" gradientTransform="matrix(0.078125,0,0,-0.078125,0,40)">
<stop offset="0" style="stop-color:rgb(28.627451%,85.490196%,54.509804%);stop-opacity:1;"/>
<stop offset="1" style="stop-color:rgb(22.352941%,71.764706%,43.529412%);stop-opacity:1;"/>
</linearGradient>
<linearGradient id="linear1" gradientUnits="userSpaceOnUse" x1="134.580002" y1="374.494995" x2="338.589996" y2="374.494995" gradientTransform="matrix(0.078125,0,0,-0.078125,0,40)">
<stop offset="0" style="stop-color:rgb(28.627451%,85.490196%,54.509804%);stop-opacity:1;"/>
<stop offset="1" style="stop-color:rgb(22.352941%,71.764706%,43.529412%);stop-opacity:1;"/>
</linearGradient>
<linearGradient id="linear2" gradientUnits="userSpaceOnUse" x1="391.610626" y1="132.18132" x2="324.300629" y2="164.531326" gradientTransform="matrix(0.078125,0,0,-0.078125,0,40)">
<stop offset="0" style="stop-color:rgb(28.627451%,85.490196%,54.509804%);stop-opacity:1;"/>
<stop offset="1" style="stop-color:rgb(22.352941%,71.764706%,43.529412%);stop-opacity:1;"/>
</linearGradient>
<linearGradient id="linear3" gradientUnits="userSpaceOnUse" x1="332.790008" y1="201.054993" x2="470.179993" y2="201.054993" gradientTransform="matrix(0.078125,0,0,-0.078125,0,40)">
<stop offset="0" style="stop-color:rgb(28.627451%,85.490196%,54.509804%);stop-opacity:1;"/>
<stop offset="1" style="stop-color:rgb(22.352941%,71.764706%,43.529412%);stop-opacity:1;"/>
</linearGradient>
</defs>
<g id="surface1">
<path style=" stroke:none;fill-rule:nonzero;fill:rgb(100%,72.54902%,15.686275%);fill-opacity:1;" d="M 3.265625 28.777344 L 17.316406 22.960938 L 17.316406 5.410156 L 3.265625 11.222656 Z M 3.265625 28.777344 "/>
<path style=" stroke:none;fill-rule:nonzero;fill:rgb(92.156863%,69.019608%,45.490196%);fill-opacity:1;" d="M 17.316406 34.589844 L 3.265625 28.777344 L 3.265625 11.222656 L 17.316406 17.039062 Z M 17.316406 34.589844 "/>
<path style=" stroke:none;fill-rule:nonzero;fill:rgb(100%,84.313725%,31.372549%);fill-opacity:1;" d="M 31.367188 28.777344 L 17.316406 22.960938 L 17.316406 5.410156 L 31.367188 11.222656 Z M 31.367188 28.777344 "/>
<path style=" stroke:none;fill-rule:nonzero;fill:rgb(84.313725%,58.823529%,36.862745%);fill-opacity:1;" d="M 17.316406 34.589844 L 31.367188 28.777344 L 31.367188 11.222656 L 17.316406 17.039062 Z M 17.316406 34.589844 "/>
<path style=" stroke:none;fill-rule:nonzero;fill:rgb(93.72549%,75.294118%,56.470588%);fill-opacity:1;" d="M 17.320312 5.410156 L 3.269531 11.222656 L 17.320312 17.039062 L 31.371094 11.222656 Z M 17.320312 5.410156 "/>
<path style=" stroke:none;fill-rule:nonzero;fill:rgb(22.352941%,71.764706%,43.529412%);fill-opacity:1;" d="M 24.554688 14.046875 L 10.515625 8.226562 L 10.304688 8.3125 L 24.347656 14.128906 Z M 24.554688 14.046875 "/>
<path style=" stroke:none;fill-rule:nonzero;fill:url(#linear0);" d="M 22.441406 14.917969 L 24.347656 14.128906 L 10.304688 8.3125 L 8.402344 9.097656 Z M 22.441406 14.917969 "/>
<path style=" stroke:none;fill-rule:nonzero;fill:url(#linear1);" d="M 26.453125 13.257812 L 12.410156 7.441406 L 10.515625 8.226562 L 24.554688 14.046875 Z M 26.453125 13.257812 "/>
<path style=" stroke:none;fill-rule:nonzero;fill:rgb(22.352941%,71.764706%,43.529412%);fill-opacity:1;" d="M 26.453125 13.257812 L 26.449219 13.257812 L 22.457031 14.910156 L 22.457031 21.210938 L 26.453125 19.554688 Z M 26.453125 13.257812 "/>
<path style=" stroke:none;fill-rule:nonzero;fill:rgb(56.862745%,37.254902%,25.490196%);fill-opacity:1;" d="M 28.460938 25.511719 L 27.953125 26.59375 L 28.277344 26.464844 L 28.277344 28.152344 L 28.644531 28.007812 L 28.644531 26.316406 L 28.96875 26.1875 Z M 28.460938 25.511719 "/>
<path style=" stroke:none;fill-rule:nonzero;fill:rgb(56.862745%,37.254902%,25.490196%);fill-opacity:1;" d="M 29.738281 24.996094 L 29.234375 26.082031 L 29.558594 25.953125 L 29.558594 27.644531 L 29.921875 27.5 L 29.921875 25.804688 L 30.246094 25.675781 Z M 29.738281 24.996094 "/>
<path style=" stroke:none;fill-rule:nonzero;fill:rgb(56.862745%,37.254902%,25.490196%);fill-opacity:1;" d="M 30.246094 27.707031 L 27.953125 28.617188 L 27.953125 28.386719 L 30.246094 27.476562 Z M 30.246094 27.707031 "/>
<path style=" stroke:none;fill-rule:nonzero;fill:rgb(56.862745%,37.254902%,25.490196%);fill-opacity:1;" d="M 27.371094 25.667969 L 27.371094 29.128906 L 30.832031 27.761719 L 30.832031 24.273438 Z M 30.71875 27.691406 L 27.480469 28.972656 L 27.480469 25.734375 L 30.71875 24.429688 Z M 30.71875 27.691406 "/>
<path style=" stroke:none;fill-rule:nonzero;fill:rgb(100%,72.54902%,15.686275%);fill-opacity:1;" d="M 36.734375 30.996094 L 31.367188 28.773438 L 31.367188 22.070312 L 36.734375 24.292969 Z M 36.734375 30.996094 "/>
<path style=" stroke:none;fill-rule:nonzero;fill:rgb(22.352941%,71.764706%,43.529412%);fill-opacity:1;" d="M 31.367188 33.21875 L 36.734375 30.996094 L 36.734375 24.292969 L 31.367188 26.515625 Z M 31.367188 33.21875 "/>
<path style=" stroke:none;fill-rule:nonzero;fill:rgb(100%,84.313725%,31.372549%);fill-opacity:1;" d="M 26 30.996094 L 31.367188 28.773438 L 31.367188 22.070312 L 26 24.292969 Z M 26 30.996094 "/>
<path style=" stroke:none;fill-rule:nonzero;fill:url(#linear2);" d="M 31.367188 33.21875 L 26 30.996094 L 26 24.292969 L 31.367188 26.515625 Z M 31.367188 33.21875 "/>
<path style=" stroke:none;fill-rule:nonzero;fill:url(#linear3);" d="M 31.367188 22.070312 L 36.734375 24.292969 L 31.367188 26.515625 L 26 24.292969 Z M 31.367188 22.070312 "/>
<path style=" stroke:none;fill-rule:nonzero;fill:rgb(45.882353%,29.803922%,14.117647%);fill-opacity:1;" d="M 28.601562 25.371094 L 33.964844 23.148438 L 34.042969 23.179688 L 28.683594 25.402344 Z M 28.601562 25.371094 "/>
<path style=" stroke:none;fill-rule:nonzero;fill:rgb(70.196078%,70.196078%,70.196078%);fill-opacity:1;" d="M 29.410156 25.703125 L 28.683594 25.402344 L 34.042969 23.179688 L 34.773438 23.480469 Z M 29.410156 25.703125 "/>
<path style=" stroke:none;fill-rule:nonzero;fill:rgb(70.196078%,70.196078%,70.196078%);fill-opacity:1;" d="M 27.878906 25.070312 L 33.242188 22.847656 L 33.964844 23.148438 L 28.601562 25.371094 Z M 27.878906 25.070312 "/>
<path style=" stroke:none;fill-rule:nonzero;fill:rgb(55.294118%,56.078431%,56.862745%);fill-opacity:1;" d="M 27.878906 25.070312 L 29.402344 25.699219 L 29.402344 28.105469 L 27.878906 27.476562 Z M 27.878906 25.070312 "/>
</g>
</svg>
