<?xml version="1.0" encoding="UTF-8"?>
<svg xmlns="http://www.w3.org/2000/svg" xmlns:xlink="http://www.w3.org/1999/xlink" width="45px" height="40px" viewBox="0 0 40 40" version="1.1">
<defs>
<linearGradient id="linear0" gradientUnits="userSpaceOnUse" x1="270.248413" y1="293.843231" x2="343.394745" y2="293.843231" gradientTransform="matrix(0.078125,0,0,-0.078125,-0.00303598,40.000153)">
<stop offset="0" style="stop-color:rgb(86.27451%,88.627451%,88.235294%);stop-opacity:1;"/>
<stop offset="1" style="stop-color:rgb(75.294118%,80%,80.784314%);stop-opacity:1;"/>
</linearGradient>
<linearGradient id="linear1" gradientUnits="userSpaceOnUse" x1="171.399994" y1="207.165008" x2="442.230011" y2="207.165008" gradientTransform="matrix(0.078125,0,0,-0.078125,0,40)">
<stop offset="0" style="stop-color:rgb(28.627451%,85.490196%,54.509804%);stop-opacity:1;"/>
<stop offset="1" style="stop-color:rgb(22.352941%,71.764706%,43.529412%);stop-opacity:1;"/>
</linearGradient>
<linearGradient id="linear2" gradientUnits="userSpaceOnUse" x1="198.460007" y1="207.154999" x2="347.429993" y2="207.154999" gradientTransform="matrix(0.078125,0,0,-0.078125,0,40)">
<stop offset="0" style="stop-color:rgb(86.27451%,88.627451%,88.235294%);stop-opacity:1;"/>
<stop offset="1" style="stop-color:rgb(75.294118%,80%,80.784314%);stop-opacity:1;"/>
</linearGradient>
<linearGradient id="linear3" gradientUnits="userSpaceOnUse" x1="367.217468" y1="179.839981" x2="420.226593" y2="179.839981" gradientTransform="matrix(0.078125,0,0,-0.078125,0,40)">
<stop offset="0" style="stop-color:rgb(86.27451%,88.627451%,88.235294%);stop-opacity:1;"/>
<stop offset="1" style="stop-color:rgb(75.294118%,80%,80.784314%);stop-opacity:1;"/>
</linearGradient>
<linearGradient id="linear4" gradientUnits="userSpaceOnUse" x1="272.952759" y1="330.237793" x2="300.61087" y2="330.237793" gradientTransform="matrix(0.078125,0,0,-0.078125,0,40)">
<stop offset="0" style="stop-color:rgb(86.27451%,88.627451%,88.235294%);stop-opacity:1;"/>
<stop offset="1" style="stop-color:rgb(75.294118%,80%,80.784314%);stop-opacity:1;"/>
</linearGradient>
<linearGradient id="linear5" gradientUnits="userSpaceOnUse" x1="272.952759" y1="329.789093" x2="295.519989" y2="329.789093" gradientTransform="matrix(0.078125,0,0,-0.078125,0,40)">
<stop offset="0" style="stop-color:rgb(86.27451%,88.627451%,88.235294%);stop-opacity:1;"/>
<stop offset="1" style="stop-color:rgb(75.294118%,80%,80.784314%);stop-opacity:1;"/>
</linearGradient>
</defs>
<g id="surface1">
<path style=" stroke:none;fill-rule:nonzero;fill:rgb(48.627451%,21.960784%,0%);fill-opacity:1;" d="M 14.671875 27.996094 L 18.222656 27.996094 L 18.222656 29.964844 L 14.671875 29.964844 Z M 14.671875 27.996094 "/>
<path style=" stroke:none;fill-rule:nonzero;fill:rgb(97.254902%,67.45098%,27.843137%);fill-opacity:1;" d="M 18.457031 27.207031 C 18.457031 29.257812 17 29.964844 14.988281 29.964844 L 9.3125 29.964844 C 7.261719 29.964844 5.449219 29.257812 5.449219 27.207031 L 5.449219 9.394531 C 5.449219 7.382812 7.304688 5.53125 9.3125 5.53125 L 14.949219 5.53125 C 17 5.53125 18.417969 7.382812 18.417969 9.394531 L 18.417969 27.207031 Z M 18.457031 27.207031 "/>
<path style=" stroke:none;fill-rule:nonzero;fill:rgb(92.941176%,56.078431%,12.54902%);fill-opacity:1;" d="M 9.390625 5.527344 L 14.988281 5.527344 C 17.039062 5.527344 18.457031 7.378906 18.457031 9.390625 L 18.457031 27.207031 C 18.457031 29.257812 17 29.964844 14.988281 29.964844 L 9.390625 29.964844 "/>
<path style=" stroke:none;fill-rule:nonzero;fill:rgb(100%,100%,99.215686%);fill-opacity:1;" d="M 8.210938 15.066406 C 8.199219 15.382812 7.933594 15.628906 7.617188 15.617188 C 7.304688 15.625 7.042969 15.378906 7.03125 15.066406 L 7.03125 11.757812 C 7.042969 11.441406 7.304688 11.195312 7.621094 11.203125 C 7.9375 11.195312 8.203125 11.441406 8.214844 11.757812 Z M 8.210938 15.066406 "/>
<path style=" stroke:none;fill-rule:nonzero;fill:rgb(95.686275%,95.294118%,84.313725%);fill-opacity:1;" d="M 7.617188 11.203125 C 7.933594 11.195312 8.199219 11.441406 8.210938 11.757812 L 8.210938 15.066406 C 8.199219 15.382812 7.933594 15.628906 7.617188 15.617188 "/>
<path style=" stroke:none;fill-rule:nonzero;fill:rgb(87.843137%,48.627451%,5.490196%);fill-opacity:1;" d="M 9.390625 5.527344 L 14.988281 5.527344 C 17.039062 5.527344 18.457031 7.378906 18.457031 9.390625 L 18.457031 27.207031 C 18.457031 29.257812 17.039062 30.003906 14.671875 29.964844 "/>
<path style=" stroke:none;fill-rule:nonzero;fill:rgb(100%,100%,99.215686%);fill-opacity:1;" d="M 8.210938 23.1875 C 8.199219 23.503906 7.933594 23.75 7.617188 23.738281 C 7.304688 23.746094 7.042969 23.5 7.03125 23.1875 L 7.03125 19.875 C 7.042969 19.558594 7.304688 19.3125 7.621094 19.324219 C 7.9375 19.3125 8.203125 19.558594 8.214844 19.875 Z M 8.210938 23.1875 "/>
<path style=" stroke:none;fill-rule:nonzero;fill:rgb(95.686275%,95.294118%,84.313725%);fill-opacity:1;" d="M 7.617188 19.324219 C 7.933594 19.3125 8.199219 19.558594 8.210938 19.875 L 8.210938 23.1875 C 8.199219 23.503906 7.933594 23.75 7.617188 23.738281 "/>
<path style=" stroke:none;fill-rule:nonzero;fill:rgb(65.882353%,31.372549%,0%);fill-opacity:1;" d="M 5.449219 17.351562 L 18.457031 17.351562 L 18.457031 18.140625 L 5.449219 18.140625 Z M 5.449219 17.351562 "/>
<path style=" stroke:none;fill-rule:nonzero;fill:rgb(48.627451%,21.960784%,0%);fill-opacity:1;" d="M 9.390625 17.351562 L 18.457031 17.351562 L 18.457031 18.140625 L 9.390625 18.140625 Z M 9.390625 17.351562 "/>
<path style=" stroke:none;fill-rule:nonzero;fill:rgb(98.823529%,63.137255%,16.470588%);fill-opacity:1;" d="M 16.882812 11.242188 C 16.886719 11.347656 16.808594 11.433594 16.707031 11.441406 C 16.699219 11.441406 16.691406 11.441406 16.683594 11.441406 L 14.320312 11.441406 C 14.214844 11.445312 14.128906 11.367188 14.121094 11.265625 C 14.121094 11.257812 14.121094 11.25 14.121094 11.242188 C 14.117188 11.140625 14.195312 11.050781 14.296875 11.046875 C 14.304688 11.046875 14.3125 11.046875 14.320312 11.046875 L 16.683594 11.046875 C 16.785156 11.039062 16.875 11.117188 16.882812 11.222656 C 16.882812 11.230469 16.882812 11.234375 16.882812 11.242188 Z M 16.882812 11.242188 "/>
<path style=" stroke:none;fill-rule:nonzero;fill:rgb(98.823529%,63.137255%,16.470588%);fill-opacity:1;" d="M 16.882812 12.425781 C 16.886719 12.527344 16.808594 12.617188 16.707031 12.625 C 16.699219 12.625 16.691406 12.625 16.683594 12.625 L 14.320312 12.625 C 14.214844 12.628906 14.128906 12.550781 14.121094 12.449219 C 14.121094 12.441406 14.121094 12.433594 14.121094 12.425781 C 14.117188 12.324219 14.195312 12.234375 14.296875 12.230469 C 14.304688 12.226562 14.3125 12.226562 14.320312 12.230469 L 16.683594 12.230469 C 16.785156 12.222656 16.875 12.300781 16.882812 12.402344 C 16.882812 12.410156 16.882812 12.417969 16.882812 12.425781 Z M 16.882812 12.425781 "/>
<path style=" stroke:none;fill-rule:nonzero;fill:rgb(98.823529%,63.137255%,16.470588%);fill-opacity:1;" d="M 16.882812 13.609375 C 16.886719 13.710938 16.808594 13.800781 16.707031 13.804688 C 16.699219 13.804688 16.691406 13.804688 16.683594 13.804688 L 14.320312 13.804688 C 14.214844 13.8125 14.128906 13.734375 14.121094 13.632812 C 14.121094 13.625 14.121094 13.617188 14.121094 13.609375 C 14.117188 13.507812 14.195312 13.417969 14.296875 13.410156 C 14.304688 13.410156 14.3125 13.410156 14.320312 13.410156 L 16.683594 13.410156 C 16.785156 13.40625 16.875 13.484375 16.882812 13.585938 C 16.882812 13.59375 16.882812 13.601562 16.882812 13.609375 Z M 16.882812 13.609375 "/>
<path style=" stroke:none;fill-rule:nonzero;fill:url(#linear0);" d="M 26.824219 17.042969 C 26.824219 18.621094 25.546875 19.902344 23.96875 19.902344 C 22.390625 19.902344 21.109375 18.621094 21.109375 17.042969 C 21.109375 15.464844 22.390625 14.1875 23.96875 14.1875 C 25.546875 14.1875 26.824219 15.464844 26.824219 17.042969 Z M 26.824219 17.042969 "/>
<path style=" stroke:none;fill-rule:nonzero;fill:rgb(70.196078%,70.196078%,70.196078%);fill-opacity:1;" d="M 23.96875 14.222656 C 25.546875 14.199219 26.847656 15.457031 26.871094 17.03125 C 26.898438 18.609375 25.640625 19.910156 24.0625 19.9375 C 24.03125 19.9375 24 19.9375 23.96875 19.9375 "/>
<path style=" stroke:none;fill-rule:nonzero;fill:rgb(70.196078%,70.196078%,70.196078%);fill-opacity:1;" d="M 16.070312 34.042969 C 15.992188 34.324219 15.722656 34.503906 15.433594 34.46875 C 15.15625 34.390625 14.972656 34.121094 15.011719 33.832031 L 15.363281 29.425781 C 15.433594 29.140625 16.316406 29.070312 16.597656 29.140625 C 16.878906 29.210938 17.691406 29.636719 17.621094 29.917969 Z M 16.070312 34.042969 "/>
<path style=" stroke:none;fill-rule:nonzero;fill:rgb(70.196078%,70.196078%,70.196078%);fill-opacity:1;" d="M 16.597656 29.105469 C 16.878906 29.175781 17.691406 29.601562 17.621094 29.882812 L 16.070312 34.042969 C 15.992188 34.324219 15.722656 34.503906 15.433594 34.46875 "/>
<path style=" stroke:none;fill-rule:nonzero;fill:rgb(70.196078%,70.196078%,70.196078%);fill-opacity:1;" d="M 31.871094 34.042969 C 31.945312 34.324219 32.214844 34.503906 32.503906 34.46875 C 32.785156 34.390625 32.964844 34.121094 32.925781 33.832031 L 32.578125 29.425781 C 32.507812 29.140625 31.625 29.070312 31.34375 29.140625 C 31.0625 29.210938 30.25 29.636719 30.320312 29.917969 Z M 31.871094 34.042969 "/>
<path style=" stroke:none;fill-rule:nonzero;fill:rgb(70.196078%,70.196078%,70.196078%);fill-opacity:1;" d="M 31.304688 29.105469 C 31.023438 29.175781 30.210938 29.601562 30.28125 29.882812 L 31.832031 34.007812 C 31.910156 34.289062 32.179688 34.46875 32.46875 34.433594 "/>
<path style=" stroke:none;fill-rule:nonzero;fill:url(#linear1);" d="M 34.550781 29.070312 C 34.550781 30.941406 32.855469 31.398438 30.988281 31.398438 L 16.953125 31.398438 C 15.082031 31.398438 13.390625 30.976562 13.390625 29.070312 L 13.390625 19.6875 C 13.390625 17.816406 15.082031 16.230469 16.953125 16.230469 L 31.339844 16.230469 C 33.210938 16.230469 34.550781 17.816406 34.550781 19.6875 Z M 34.550781 29.070312 "/>
<path style=" stroke:none;fill-rule:nonzero;fill:rgb(20%,63.921569%,38.039216%);fill-opacity:1;" d="M 16.914062 16.234375 L 31.339844 16.234375 C 33.210938 16.234375 34.550781 17.820312 34.550781 19.691406 L 34.550781 29.070312 C 34.550781 30.941406 32.855469 31.398438 30.988281 31.398438 "/>
<path style=" stroke:none;fill-rule:nonzero;fill:url(#linear2);" d="M 27.144531 27.167969 C 27.144531 29.140625 25.554688 29.636719 23.550781 29.636719 L 19.066406 29.636719 C 17.054688 29.636719 15.503906 29.140625 15.503906 27.167969 L 15.503906 21.628906 C 15.503906 19.65625 17.054688 17.996094 19.066406 17.996094 L 23.582031 17.996094 C 25.554688 17.996094 27.144531 19.65625 27.144531 21.628906 Z M 27.144531 27.167969 "/>
<path style=" stroke:none;fill-rule:nonzero;fill:rgb(70.196078%,70.196078%,70.196078%);fill-opacity:1;" d="M 32.890625 18.703125 C 32.890625 18.898438 32.730469 19.054688 32.539062 19.054688 L 29.046875 19.054688 C 28.863281 19.066406 28.707031 18.925781 28.695312 18.742188 C 28.695312 18.730469 28.695312 18.714844 28.695312 18.703125 C 28.695312 18.507812 28.851562 18.351562 29.046875 18.351562 L 32.539062 18.351562 C 32.722656 18.339844 32.878906 18.476562 32.890625 18.660156 C 32.894531 18.675781 32.894531 18.6875 32.890625 18.703125 Z M 32.890625 18.703125 "/>
<path style=" stroke:none;fill-rule:nonzero;fill:rgb(70.196078%,70.196078%,70.196078%);fill-opacity:1;" d="M 32.890625 20.46875 C 32.890625 20.664062 32.730469 20.820312 32.539062 20.820312 L 29.046875 20.820312 C 28.863281 20.832031 28.707031 20.691406 28.695312 20.511719 C 28.695312 20.496094 28.695312 20.484375 28.695312 20.46875 C 28.695312 20.273438 28.851562 20.117188 29.046875 20.117188 L 32.539062 20.117188 C 32.722656 20.105469 32.878906 20.246094 32.890625 20.429688 C 32.890625 20.441406 32.890625 20.457031 32.890625 20.46875 Z M 32.890625 20.46875 "/>
<path style=" stroke:none;fill-rule:nonzero;fill:rgb(70.196078%,70.196078%,70.196078%);fill-opacity:1;" d="M 32.890625 22.230469 C 32.890625 22.421875 32.730469 22.582031 32.539062 22.582031 L 29.046875 22.582031 C 28.863281 22.59375 28.707031 22.453125 28.695312 22.269531 C 28.695312 22.257812 28.695312 22.242188 28.695312 22.230469 C 28.695312 22.035156 28.851562 21.875 29.046875 21.875 L 32.539062 21.875 C 32.722656 21.863281 32.878906 22.003906 32.890625 22.1875 C 32.894531 22.203125 32.894531 22.214844 32.890625 22.230469 Z M 32.890625 22.230469 "/>
<path style=" stroke:none;fill-rule:nonzero;fill:url(#linear3);" d="M 32.222656 27.414062 C 31.414062 28.222656 30.101562 28.222656 29.296875 27.414062 C 28.488281 26.605469 28.488281 25.296875 29.292969 24.488281 C 30.101562 23.679688 31.414062 23.679688 32.222656 24.488281 C 33.03125 25.289062 33.035156 26.597656 32.230469 27.40625 C 32.226562 27.410156 32.222656 27.410156 32.222656 27.414062 Z M 32.222656 27.414062 "/>
<path style=" stroke:none;fill-rule:nonzero;fill:rgb(70.196078%,70.196078%,70.196078%);fill-opacity:1;" d="M 32.222656 24.488281 C 33.050781 25.273438 33.085938 26.582031 32.296875 27.414062 C 31.511719 28.242188 30.203125 28.277344 29.371094 27.488281 C 29.347656 27.464844 29.320312 27.4375 29.296875 27.414062 "/>
<path style=" stroke:none;fill-rule:nonzero;fill:url(#linear4);" d="M 21.359375 13.269531 C 21.285156 13.125 21.332031 12.945312 21.464844 12.847656 C 21.613281 12.773438 21.792969 12.820312 21.886719 12.953125 L 23.476562 14.824219 C 23.546875 14.964844 23.226562 15.316406 23.085938 15.421875 C 22.941406 15.527344 22.484375 15.667969 22.382812 15.527344 Z M 21.359375 13.269531 "/>
<path style=" stroke:none;fill-rule:nonzero;fill:url(#linear5);" d="M 23.085938 15.421875 C 22.945312 15.527344 22.488281 15.667969 22.382812 15.527344 L 21.359375 13.304688 C 21.285156 13.160156 21.332031 12.980469 21.464844 12.882812 "/>
<path style=" stroke:none;fill-rule:nonzero;fill:rgb(70.196078%,70.196078%,70.196078%);fill-opacity:1;" d="M 26.578125 13.269531 C 26.652344 13.125 26.605469 12.945312 26.472656 12.847656 C 26.324219 12.773438 26.144531 12.820312 26.050781 12.953125 L 24.460938 14.824219 C 24.390625 14.964844 24.710938 15.316406 24.851562 15.421875 C 24.996094 15.527344 25.453125 15.667969 25.554688 15.527344 Z M 26.578125 13.269531 "/>
<path style=" stroke:none;fill-rule:nonzero;fill:rgb(70.196078%,70.196078%,70.196078%);fill-opacity:1;" d="M 24.851562 15.421875 C 24.992188 15.527344 25.449219 15.667969 25.554688 15.527344 L 26.578125 13.304688 C 26.648438 13.160156 26.605469 12.980469 26.472656 12.882812 "/>
</g>
</svg>
