<?xml version="1.0" encoding="UTF-8"?>
<svg xmlns="http://www.w3.org/2000/svg" xmlns:xlink="http://www.w3.org/1999/xlink" width="45px" height="40px" viewBox="0 0 40 40" version="1.1">
<defs>
<linearGradient id="linear0" gradientUnits="userSpaceOnUse" x1="20.75" y1="156.550003" x2="492.730011" y2="156.550003" gradientTransform="matrix(0.078125,0,0,-0.078125,0,40)">
<stop offset="0" style="stop-color:rgb(28.627451%,85.490196%,54.509804%);stop-opacity:1;"/>
<stop offset="1" style="stop-color:rgb(22.352941%,71.764706%,43.529412%);stop-opacity:1;"/>
</linearGradient>
</defs>
<g id="surface1">
<path style=" stroke:none;fill-rule:nonzero;fill:url(#linear0);" d="M 1.621094 27.769531 L 20.019531 17.089844 L 38.496094 27.769531 L 20.117188 38.449219 Z M 1.621094 27.769531 "/>
<path style=" stroke:none;fill-rule:nonzero;fill:rgb(78.431373%,51.764706%,12.941176%);fill-opacity:1;" d="M 20.058594 34 L 16.890625 32.164062 L 16.898438 34.933594 L 20.058594 36.769531 Z M 20.058594 34 "/>
<path style=" stroke:none;fill-rule:nonzero;fill:rgb(95.686275%,67.058824%,16.470588%);fill-opacity:1;" d="M 35.769531 24.929688 L 32.605469 23.089844 L 16.890625 32.164062 L 20.058594 34 Z M 35.769531 24.929688 "/>
<path style=" stroke:none;fill-rule:nonzero;fill:rgb(87.058824%,59.607843%,14.901961%);fill-opacity:1;" d="M 20.058594 34 L 20.058594 36.769531 L 35.777344 27.695312 L 35.769531 24.929688 Z M 20.058594 34 "/>
<path style=" stroke:none;fill-rule:nonzero;fill:rgb(78.431373%,51.764706%,12.941176%);fill-opacity:1;" d="M 7.507812 26.820312 L 4.335938 24.984375 L 4.34375 27.75 L 7.507812 29.589844 Z M 7.507812 26.820312 "/>
<path style=" stroke:none;fill-rule:nonzero;fill:rgb(95.686275%,67.058824%,16.470588%);fill-opacity:1;" d="M 23.21875 17.746094 L 20.054688 15.910156 L 4.335938 24.984375 L 7.507812 26.820312 Z M 23.21875 17.746094 "/>
<path style=" stroke:none;fill-rule:nonzero;fill:rgb(87.058824%,59.607843%,14.901961%);fill-opacity:1;" d="M 7.507812 26.820312 L 7.507812 29.589844 L 23.226562 20.515625 L 23.21875 17.746094 Z M 7.507812 26.820312 "/>
<path style=" stroke:none;fill-rule:nonzero;fill:rgb(87.058824%,59.607843%,14.901961%);fill-opacity:1;" d="M 20.058594 31.3125 L 23.226562 29.476562 L 23.21875 32.242188 L 20.058594 34.082031 Z M 20.058594 31.3125 "/>
<path style=" stroke:none;fill-rule:nonzero;fill:rgb(95.686275%,67.058824%,16.470588%);fill-opacity:1;" d="M 4.34375 22.238281 L 7.507812 20.398438 L 23.226562 29.476562 L 20.058594 31.3125 Z M 4.34375 22.238281 "/>
<path style=" stroke:none;fill-rule:nonzero;fill:rgb(78.431373%,51.764706%,12.941176%);fill-opacity:1;" d="M 20.058594 31.3125 L 20.058594 34.082031 L 4.335938 25.007812 L 4.34375 22.238281 Z M 20.058594 31.3125 "/>
<path style=" stroke:none;fill-rule:nonzero;fill:rgb(87.058824%,59.607843%,14.901961%);fill-opacity:1;" d="M 26.332031 27.691406 L 29.5 25.855469 L 29.492188 28.621094 L 26.332031 30.460938 Z M 26.332031 27.691406 "/>
<path style=" stroke:none;fill-rule:nonzero;fill:rgb(95.686275%,67.058824%,16.470588%);fill-opacity:1;" d="M 10.621094 18.617188 L 13.78125 16.78125 L 29.5 25.855469 L 26.332031 27.691406 Z M 10.621094 18.617188 "/>
<path style=" stroke:none;fill-rule:nonzero;fill:rgb(78.431373%,51.764706%,12.941176%);fill-opacity:1;" d="M 26.332031 27.691406 L 26.332031 30.460938 L 10.613281 21.382812 L 10.621094 18.617188 Z M 26.332031 27.691406 "/>
<path style=" stroke:none;fill-rule:nonzero;fill:rgb(87.058824%,59.607843%,14.901961%);fill-opacity:1;" d="M 32.605469 24.070312 L 35.773438 22.230469 L 35.765625 25 L 32.605469 26.839844 Z M 32.605469 24.070312 "/>
<path style=" stroke:none;fill-rule:nonzero;fill:rgb(95.686275%,67.058824%,16.470588%);fill-opacity:1;" d="M 16.894531 14.996094 L 20.054688 13.15625 L 35.773438 22.230469 L 32.605469 24.070312 Z M 16.894531 14.996094 "/>
<path style=" stroke:none;fill-rule:nonzero;fill:rgb(78.431373%,51.764706%,12.941176%);fill-opacity:1;" d="M 32.605469 24.070312 L 32.605469 26.839844 L 16.886719 17.765625 L 16.894531 14.996094 Z M 32.605469 24.070312 "/>
<path style=" stroke:none;fill-rule:nonzero;fill:rgb(100%,85.882353%,58.039216%);fill-opacity:1;" d="M 17.042969 4.253906 L 6.980469 10.085938 L 17.042969 15.898438 L 27.09375 10.085938 Z M 17.042969 4.253906 "/>
<path style=" stroke:none;fill-rule:nonzero;fill:rgb(98.823529%,77.647059%,45.882353%);fill-opacity:1;" d="M 6.980469 10.085938 L 6.980469 21.835938 L 17.042969 27.5625 L 17.042969 15.898438 Z M 6.980469 10.085938 "/>
<path style=" stroke:none;fill-rule:nonzero;fill:rgb(89.411765%,63.137255%,33.333333%);fill-opacity:1;" d="M 17.042969 5.824219 L 24.371094 10.082031 L 22.425781 11.234375 L 17.042969 14.332031 L 13.253906 12.144531 L 9.695312 10.085938 Z M 17.042969 5.824219 "/>
<path style=" stroke:none;fill-rule:nonzero;fill:rgb(84.705882%,57.254902%,29.803922%);fill-opacity:1;" d="M 8.34375 21.046875 L 8.34375 12.4375 L 15.679688 16.683594 L 15.679688 25.226562 Z M 8.34375 21.046875 "/>
<path style=" stroke:none;fill-rule:nonzero;fill:rgb(98.823529%,77.647059%,45.882353%);fill-opacity:1;" d="M 8.632812 20.875 L 9.152344 21.171875 L 15.386719 17.464844 L 15.386719 16.851562 L 14.871094 16.554688 L 8.632812 20.265625 Z M 8.632812 20.875 "/>
<path style=" stroke:none;fill-rule:nonzero;fill:rgb(89.411765%,63.137255%,33.333333%);fill-opacity:1;" d="M 27.09375 10.085938 L 27.09375 21.835938 L 17.042969 27.5625 L 17.042969 15.898438 Z M 27.09375 10.085938 "/>
<path style=" stroke:none;fill-rule:nonzero;fill:rgb(73.333333%,45.490196%,23.921569%);fill-opacity:1;" d="M 18.394531 25.226562 L 18.394531 16.683594 L 25.734375 12.4375 L 25.734375 21.046875 Z M 18.394531 25.226562 "/>
<path style=" stroke:none;fill-rule:nonzero;fill:rgb(89.411765%,63.137255%,33.333333%);fill-opacity:1;" d="M 18.6875 23.675781 L 18.6875 24.722656 L 19.585938 24.210938 L 25.441406 14.09375 L 25.441406 12.949219 L 24.625 13.417969 Z M 18.6875 23.675781 "/>
<path style=" stroke:none;fill-rule:nonzero;fill:rgb(100%,85.882353%,58.039216%);fill-opacity:1;" d="M 16.515625 13.6875 L 17.046875 13.992188 L 17.710938 13.609375 L 17.710938 6.550781 L 17.042969 6.160156 L 16.515625 6.46875 Z M 16.515625 13.6875 "/>
</g>
</svg>
