<?xml version="1.0" encoding="UTF-8"?>
<svg xmlns="http://www.w3.org/2000/svg" xmlns:xlink="http://www.w3.org/1999/xlink" width="45px" height="40px" viewBox="0 0 40 40" version="1.1">
<defs>
<linearGradient id="linear0" gradientUnits="userSpaceOnUse" x1="214.830002" y1="204.550491" x2="448.140015" y2="204.550491" gradientTransform="matrix(0.078125,0,0,-0.078125,0,40)">
<stop offset="0" style="stop-color:rgb(28.627451%,85.490196%,54.509804%);stop-opacity:1;"/>
<stop offset="1" style="stop-color:rgb(22.352941%,71.764706%,43.529412%);stop-opacity:1;"/>
</linearGradient>
<linearGradient id="linear1" gradientUnits="userSpaceOnUse" x1="221.710007" y1="307.165039" x2="427.591095" y2="307.165039" gradientTransform="matrix(0.078125,0,0,-0.078125,0,40)">
<stop offset="0" style="stop-color:rgb(28.627451%,85.490196%,54.509804%);stop-opacity:1;"/>
<stop offset="1" style="stop-color:rgb(22.352941%,71.764706%,43.529412%);stop-opacity:1;"/>
</linearGradient>
<linearGradient id="linear2" gradientUnits="userSpaceOnUse" x1="386.379974" y1="139.339996" x2="441.279999" y2="139.339996" gradientTransform="matrix(0.078125,0,0,-0.078125,0,40)">
<stop offset="0" style="stop-color:rgb(86.27451%,88.627451%,88.235294%);stop-opacity:1;"/>
<stop offset="1" style="stop-color:rgb(75.294118%,80%,80.784314%);stop-opacity:1;"/>
</linearGradient>
<linearGradient id="linear3" gradientUnits="userSpaceOnUse" x1="221.690002" y1="139.339996" x2="276.589996" y2="139.339996" gradientTransform="matrix(0.078125,0,0,-0.078125,0,40)">
<stop offset="0" style="stop-color:rgb(86.27451%,88.627451%,88.235294%);stop-opacity:1;"/>
<stop offset="1" style="stop-color:rgb(75.294118%,80%,80.784314%);stop-opacity:1;"/>
</linearGradient>
</defs>
<g id="surface1">
<path style=" stroke:none;fill-rule:nonzero;fill:rgb(27.843137%,27.843137%,27.843137%);fill-opacity:1;" d="M 34.957031 28.582031 C 34.996094 28.757812 35.011719 28.933594 35.011719 29.113281 C 35.011719 30.59375 33.808594 31.792969 32.328125 31.792969 C 30.851562 31.792969 29.652344 30.59375 29.648438 29.113281 C 29.648438 28.9375 29.667969 28.757812 29.703125 28.582031 C 29.996094 27.132812 31.414062 26.195312 32.863281 26.488281 C 33.917969 26.703125 34.742188 27.527344 34.957031 28.582031 Z M 34.957031 28.582031 "/>
<path style=" stroke:none;fill-rule:nonzero;fill:rgb(27.843137%,27.843137%,27.843137%);fill-opacity:1;" d="M 22.089844 28.582031 C 22.128906 28.757812 22.144531 28.9375 22.144531 29.113281 C 22.144531 30.59375 20.941406 31.792969 19.464844 31.792969 C 17.984375 31.792969 16.785156 30.59375 16.785156 29.113281 C 16.78125 28.9375 16.800781 28.757812 16.835938 28.582031 C 17.132812 27.132812 18.546875 26.195312 19.996094 26.488281 C 21.050781 26.703125 21.875 27.527344 22.089844 28.582031 Z M 22.089844 28.582031 "/>
<path style=" stroke:none;fill-rule:nonzero;fill:rgb(27.843137%,27.843137%,27.843137%);fill-opacity:1;" d="M 15.175781 25.359375 L 15.175781 27.503906 L 13.03125 27.503906 L 13.03125 25.359375 Z M 15.175781 25.359375 "/>
<path style=" stroke:none;fill-rule:nonzero;fill:rgb(98.823529%,98.823529%,98.823529%);fill-opacity:1;" d="M 11.421875 17.320312 L 11.421875 26.96875 L 9.277344 26.96875 L 9.277344 17.855469 Z M 11.421875 17.320312 "/>
<path style=" stroke:none;fill-rule:nonzero;fill:rgb(27.843137%,27.843137%,27.843137%);fill-opacity:1;" d="M 13.03125 27.503906 L 13.03125 28.578125 L 3.378906 28.578125 L 3.378906 26.96875 L 13.03125 26.96875 Z M 13.03125 27.503906 "/>
<path style=" stroke:none;fill-rule:nonzero;fill:rgb(70.196078%,70.196078%,70.196078%);fill-opacity:1;" d="M 13.03125 25.359375 L 13.03125 26.96875 L 11.421875 26.96875 L 11.421875 8.207031 L 13.03125 8.207031 Z M 13.03125 25.359375 "/>
<path style=" stroke:none;fill-rule:nonzero;fill:rgb(92.941176%,26.27451%,0%);fill-opacity:1;" d="M 16.785156 22.144531 L 16.785156 23.75 L 15.175781 23.75 L 15.175781 23.214844 C 15.179688 22.621094 15.660156 22.144531 16.25 22.144531 Z M 16.785156 22.144531 "/>
<path style=" stroke:none;fill-rule:nonzero;fill:rgb(92.941176%,26.27451%,0%);fill-opacity:1;" d="M 36.621094 23.214844 L 35.011719 23.214844 L 35.011719 21.140625 C 35.957031 21.386719 36.621094 22.238281 36.621094 23.214844 Z M 36.621094 23.214844 "/>
<path style=" stroke:none;fill-rule:nonzero;fill:rgb(27.843137%,27.843137%,27.843137%);fill-opacity:1;" d="M 22.144531 23.214844 L 25.894531 23.214844 L 25.894531 24.289062 C 25.894531 24.878906 25.414062 25.359375 24.824219 25.359375 L 22.144531 25.359375 C 22.144531 24.824219 21.609375 24.019531 20.804688 23.351562 C 19.984375 22.625 18.945312 22.199219 17.855469 22.144531 C 17.855469 21.96875 18.257812 20.636719 18.800781 18.929688 L 22.144531 18.929688 Z M 22.144531 23.214844 "/>
<path style=" stroke:none;fill-rule:nonzero;fill:rgb(70.196078%,70.196078%,70.196078%);fill-opacity:1;" d="M 30.722656 18.125 L 30.722656 21.074219 L 28.042969 21.074219 L 28.042969 18.125 C 28.058594 17.386719 28.671875 16.800781 29.414062 16.816406 C 30.128906 16.835938 30.703125 17.410156 30.722656 18.125 Z M 30.722656 18.125 "/>
<path style=" stroke:none;fill-rule:nonzero;fill:rgb(20%,63.921569%,38.039216%);fill-opacity:1;" d="M 17.855469 22.144531 C 18.945312 22.199219 19.984375 22.625 20.804688 23.351562 C 21.609375 24.019531 22.144531 24.824219 22.144531 25.359375 L 24.824219 25.359375 C 25.417969 25.359375 25.894531 24.878906 25.898438 24.289062 L 25.898438 23.214844 C 25.898438 22.03125 26.855469 21.070312 28.042969 21.070312 L 34.476562 21.070312 C 34.65625 21.070312 34.835938 21.09375 35.011719 21.140625 L 35.011719 23.214844 L 36.621094 23.214844 L 36.621094 28.578125 L 35.011719 28.578125 L 34.957031 28.582031 C 34.664062 27.132812 33.246094 26.195312 31.796875 26.488281 C 30.742188 26.703125 29.917969 27.527344 29.703125 28.582031 L 29.648438 28.578125 L 22.144531 28.578125 L 22.089844 28.582031 C 21.796875 27.132812 20.382812 26.195312 18.929688 26.488281 C 17.875 26.703125 17.050781 27.527344 16.835938 28.582031 L 16.785156 28.578125 L 15.175781 28.578125 L 15.175781 23.75 L 16.785156 23.75 L 16.785156 22.144531 Z M 17.855469 22.144531 "/>
<path style=" stroke:none;fill-rule:nonzero;fill:url(#linear0);" d="M 17.855469 23.75 C 18.945312 23.808594 19.984375 24.230469 20.804688 24.957031 C 21.609375 25.625 22.144531 26.429688 22.144531 26.96875 L 24.824219 26.96875 C 25.417969 26.964844 25.894531 26.484375 25.898438 25.894531 L 25.898438 24.824219 C 25.898438 23.640625 26.855469 22.679688 28.042969 22.679688 L 34.476562 22.679688 C 34.65625 22.679688 34.835938 22.703125 35.011719 22.75 L 35.011719 21.140625 C 34.835938 21.09375 34.65625 21.070312 34.476562 21.070312 L 28.042969 21.070312 C 26.855469 21.070312 25.898438 22.03125 25.898438 23.214844 L 25.898438 24.289062 C 25.894531 24.878906 25.417969 25.359375 24.824219 25.359375 L 22.144531 25.359375 C 22.144531 24.824219 21.609375 24.019531 20.804688 23.351562 C 19.984375 22.625 18.945312 22.199219 17.855469 22.144531 L 16.785156 22.144531 L 16.785156 23.75 Z M 17.855469 23.75 "/>
<path style=" stroke:none;fill-rule:nonzero;fill:rgb(20%,63.921569%,38.039216%);fill-opacity:1;" d="M 34.957031 27.511719 C 34.664062 26.058594 33.246094 25.121094 31.796875 25.417969 C 30.742188 25.632812 29.917969 26.457031 29.703125 27.511719 L 29.648438 27.503906 L 22.144531 27.503906 L 22.089844 27.511719 C 21.796875 26.058594 20.382812 25.121094 18.929688 25.417969 C 17.875 25.632812 17.050781 26.457031 16.835938 27.511719 L 16.785156 27.503906 L 15.175781 27.503906 L 15.175781 28.578125 L 16.785156 28.578125 L 16.835938 28.582031 C 17.132812 27.132812 18.546875 26.195312 19.996094 26.488281 C 21.050781 26.703125 21.875 27.527344 22.089844 28.582031 L 22.144531 28.578125 L 29.648438 28.578125 L 29.703125 28.582031 C 29.996094 27.132812 31.414062 26.195312 32.863281 26.488281 C 33.917969 26.703125 34.742188 27.527344 34.957031 28.582031 L 35.011719 28.578125 L 36.621094 28.578125 L 36.621094 27.503906 L 35.011719 27.503906 Z M 34.957031 27.511719 "/>
<path style=" stroke:none;fill-rule:nonzero;fill:rgb(27.843137%,27.843137%,27.843137%);fill-opacity:1;" d="M 21.742188 18.929688 L 22.648438 17.722656 L 21.824219 17.03125 L 20.644531 18.601562 C 20.578125 18.695312 20.542969 18.808594 20.546875 18.925781 Z M 21.742188 18.929688 "/>
<path style=" stroke:none;fill-rule:nonzero;fill:rgb(27.843137%,27.843137%,27.843137%);fill-opacity:1;" d="M 23.207031 16.792969 L 22.574219 16.265625 L 21.414062 15.300781 L 20.730469 16.121094 L 21.824219 17.035156 L 22.648438 17.722656 L 23.945312 18.804688 L 24.632812 17.980469 Z M 23.207031 16.792969 "/>
<path style=" stroke:none;fill-rule:nonzero;fill:rgb(27.843137%,27.843137%,27.843137%);fill-opacity:1;" d="M 11.421875 17.871094 L 11.421875 16.796875 C 11.378906 16.792969 11.335938 16.796875 11.292969 16.804688 L 9.148438 17.335938 C 8.910156 17.394531 8.742188 17.609375 8.742188 17.855469 L 8.742188 26.96875 L 9.8125 26.96875 L 9.8125 18.273438 Z M 11.421875 17.871094 "/>
<path style=" stroke:none;fill-rule:nonzero;fill:rgb(70.196078%,70.196078%,70.196078%);fill-opacity:1;" d="M 30.1875 20 C 29.59375 20 29.113281 19.519531 29.113281 18.929688 L 29.113281 16.808594 C 28.488281 16.9375 28.039062 17.488281 28.042969 18.125 L 28.042969 21.074219 L 30.722656 21.074219 L 30.722656 20 Z M 30.1875 20 "/>
<path style=" stroke:none;fill-rule:nonzero;fill:rgb(34.901961%,34.901961%,34.901961%);fill-opacity:1;" d="M 22.144531 23.214844 L 22.144531 18.929688 L 18.800781 18.929688 C 18.679688 19.308594 18.566406 19.667969 18.464844 20 L 21.070312 20 L 21.070312 23.59375 C 21.300781 23.804688 21.507812 24.039062 21.691406 24.289062 L 25.898438 24.289062 L 25.898438 23.214844 Z M 22.144531 23.214844 "/>
<path style=" stroke:none;fill-rule:nonzero;fill:url(#linear1);" d="M 18.386719 22.191406 L 18.386719 22.179688 C 18.402344 22.085938 18.515625 21.589844 19.308594 19.089844 C 20.128906 16.527344 21.265625 13.074219 21.875 11.253906 C 21.945312 11.035156 22.148438 10.886719 22.378906 10.886719 L 28.25 10.886719 C 30.25 10.882812 31.902344 12.453125 32 14.449219 L 32.332031 21.070312 L 33.402344 21.070312 C 33.402344 21.0625 33.40625 21.054688 33.40625 21.046875 L 33.074219 14.398438 C 32.949219 11.828125 30.824219 9.808594 28.253906 9.8125 L 22.378906 9.8125 C 21.6875 9.8125 21.074219 10.257812 20.859375 10.914062 C 20.253906 12.742188 19.109375 16.195312 18.289062 18.765625 C 17.320312 21.824219 17.320312 22.011719 17.320312 22.144531 L 17.855469 22.144531 C 18.035156 22.144531 18.210938 22.160156 18.386719 22.191406 Z M 18.386719 22.191406 "/>
<path style=" stroke:none;fill-rule:nonzero;fill:rgb(21.960784%,21.960784%,21.960784%);fill-opacity:1;" d="M 14.640625 25.359375 L 14.640625 25.898438 C 14.640625 26.191406 14.398438 26.433594 14.101562 26.433594 L 13.03125 26.433594 L 13.03125 27.503906 L 15.175781 27.503906 L 15.175781 25.359375 Z M 14.640625 25.359375 "/>
<path style=" stroke:none;fill-rule:nonzero;fill:rgb(43.137255%,43.137255%,43.137255%);fill-opacity:1;" d="M 11.957031 8.203125 L 11.957031 24.824219 C 11.957031 25.417969 12.4375 25.898438 13.03125 25.898438 L 13.03125 26.96875 L 11.421875 26.96875 L 11.421875 8.203125 Z M 11.957031 8.203125 "/>
<path style=" stroke:none;fill-rule:nonzero;fill:rgb(34.901961%,34.901961%,34.901961%);fill-opacity:1;" d="M 3.378906 26.96875 L 11.421875 26.96875 L 11.421875 27.503906 L 3.378906 27.503906 Z M 3.378906 26.96875 "/>
<path style=" stroke:none;fill-rule:nonzero;fill:url(#linear2);" d="M 34.476562 29.113281 C 34.476562 30.296875 33.515625 31.257812 32.332031 31.257812 C 31.144531 31.257812 30.1875 30.296875 30.1875 29.113281 C 30.1875 27.929688 31.144531 26.96875 32.332031 26.96875 C 33.515625 26.96875 34.476562 27.929688 34.476562 29.113281 Z M 34.476562 29.113281 "/>
<path style=" stroke:none;fill-rule:nonzero;fill:url(#linear3);" d="M 21.609375 29.113281 C 21.609375 30.296875 20.648438 31.257812 19.464844 31.257812 C 18.28125 31.257812 17.320312 30.296875 17.320312 29.113281 C 17.320312 27.929688 18.28125 26.96875 19.464844 26.96875 C 20.648438 26.96875 21.609375 27.929688 21.609375 29.113281 Z M 21.609375 29.113281 "/>
<path style=" stroke:none;fill-rule:nonzero;fill:rgb(27.843137%,27.843137%,27.843137%);fill-opacity:1;" d="M 19.636719 28.054688 C 19.050781 27.960938 18.5 28.359375 18.40625 28.941406 C 18.3125 29.527344 18.707031 30.078125 19.292969 30.171875 C 19.875 30.265625 20.425781 29.871094 20.523438 29.285156 C 20.617188 28.703125 20.21875 28.152344 19.636719 28.054688 Z M 19.636719 28.054688 "/>
<path style=" stroke:none;fill-rule:nonzero;fill:rgb(27.843137%,27.843137%,27.843137%);fill-opacity:1;" d="M 33.402344 29.113281 C 33.402344 29.707031 32.921875 30.1875 32.332031 30.1875 C 31.738281 30.1875 31.257812 29.707031 31.257812 29.113281 C 31.257812 28.523438 31.738281 28.042969 32.332031 28.042969 C 32.921875 28.042969 33.402344 28.523438 33.402344 29.113281 Z M 33.402344 29.113281 "/>
<path style=" stroke:none;fill-rule:nonzero;fill:rgb(96.470588%,98.039216%,99.215686%);fill-opacity:1;" d="M 35.464844 24.039062 C 34.984375 23.558594 34.320312 23.449219 33.976562 23.792969 C 33.632812 24.136719 33.742188 24.804688 34.21875 25.285156 C 34.699219 25.761719 35.367188 25.871094 35.710938 25.527344 C 36.054688 25.183594 35.941406 24.515625 35.464844 24.039062 Z M 35.464844 24.039062 "/>
</g>
</svg>
