<?xml version="1.0" encoding="UTF-8"?>
<svg xmlns="http://www.w3.org/2000/svg" xmlns:xlink="http://www.w3.org/1999/xlink" width="45px" height="40px" viewBox="0 0 40 40" version="1.1">
<defs>
<linearGradient id="linear0" gradientUnits="userSpaceOnUse" x1="43.639999" y1="151.019989" x2="77.080002" y2="151.019989" gradientTransform="matrix(0.078125,0,0,-0.078125,0,40)">
<stop offset="0" style="stop-color:rgb(86.27451%,88.627451%,88.235294%);stop-opacity:1;"/>
<stop offset="1" style="stop-color:rgb(75.294118%,80%,80.784314%);stop-opacity:1;"/>
</linearGradient>
<linearGradient id="linear1" gradientUnits="userSpaceOnUse" x1="38.559998" y1="315.869995" x2="384.860016" y2="315.869995" gradientTransform="matrix(0.078125,0,0,-0.078125,0,40)">
<stop offset="0" style="stop-color:rgb(86.27451%,88.627451%,88.235294%);stop-opacity:1;"/>
<stop offset="1" style="stop-color:rgb(75.294118%,80%,80.784314%);stop-opacity:1;"/>
</linearGradient>
<linearGradient id="linear2" gradientUnits="userSpaceOnUse" x1="88.919998" y1="188.450012" x2="379.809998" y2="188.450012" gradientTransform="matrix(0.078125,0,0,-0.078125,0,40)">
<stop offset="0" style="stop-color:rgb(86.27451%,88.627451%,88.235294%);stop-opacity:1;"/>
<stop offset="1" style="stop-color:rgb(75.294118%,80%,80.784314%);stop-opacity:1;"/>
</linearGradient>
<linearGradient id="linear3" gradientUnits="userSpaceOnUse" x1="43.630001" y1="349.700012" x2="379.809998" y2="349.700012" gradientTransform="matrix(0.078125,0,0,-0.078125,0,40)">
<stop offset="0" style="stop-color:rgb(28.627451%,85.490196%,54.509804%);stop-opacity:1;"/>
<stop offset="1" style="stop-color:rgb(22.352941%,71.764706%,43.529412%);stop-opacity:1;"/>
</linearGradient>
<linearGradient id="linear4" gradientUnits="userSpaceOnUse" x1="39.32" y1="152.914993" x2="77.080002" y2="152.914993" gradientTransform="matrix(0.078125,0,0,-0.078125,0,40)">
<stop offset="0" style="stop-color:rgb(86.27451%,88.627451%,88.235294%);stop-opacity:1;"/>
<stop offset="1" style="stop-color:rgb(75.294118%,80%,80.784314%);stop-opacity:1;"/>
</linearGradient>
<linearGradient id="linear5" gradientUnits="userSpaceOnUse" x1="38.59" y1="161.585007" x2="384.859985" y2="161.585007" gradientTransform="matrix(0.078125,0,0,-0.078125,0,40)">
<stop offset="0" style="stop-color:rgb(28.627451%,85.490196%,54.509804%);stop-opacity:1;"/>
<stop offset="1" style="stop-color:rgb(22.352941%,71.764706%,43.529412%);stop-opacity:1;"/>
</linearGradient>
<filter id="alpha" filterUnits="objectBoundingBox" x="0%" y="0%" width="100%" height="100%">
  <feColorMatrix type="matrix" in="SourceGraphic" values="0 0 0 0 1 0 0 0 0 1 0 0 0 0 1 0 0 0 1 0"/>
</filter>
<mask id="mask0">
  <g filter="url(#alpha)">
<rect x="0" y="0" width="40" height="40" style="fill:rgb(0%,0%,0%);fill-opacity:0.490196;stroke:none;"/>
  </g>
</mask>
<linearGradient id="linear6" gradientUnits="userSpaceOnUse" x1="430.970001" y1="261.909973" x2="234.619995" y2="221.039993" gradientTransform="matrix(0.078125,0,0,-0.078125,0,40)">
<stop offset="0" style="stop-color:rgb(0%,0%,0%);stop-opacity:1;"/>
<stop offset="1" style="stop-color:rgb(0%,0%,0%);stop-opacity:0;"/>
</linearGradient>
<clipPath id="clip1">
  <rect x="0" y="0" width="40" height="40"/>
</clipPath>
<g id="surface5" clip-path="url(#clip1)">
<path style=" stroke:none;fill-rule:nonzero;fill:url(#linear6);" d="M 26.597656 8.835938 C 25.832031 9.757812 24.175781 9.972656 23.125 10.429688 C 20.625 11.523438 19.445312 14.351562 18.921875 16.871094 C 18.035156 21.121094 18.820312 25.886719 21.382812 29.441406 C 22.511719 31.011719 24.261719 31.984375 25.554688 33.402344 L 28.632812 16.390625 Z M 26.597656 8.835938 "/>
</g>
<linearGradient id="linear7" gradientUnits="userSpaceOnUse" x1="293.73999" y1="-2236.810059" x2="466.979981" y2="-2236.810059" gradientTransform="matrix(0.078125,0,0,0.078125,0,207.359371)">
<stop offset="0" style="stop-color:rgb(86.27451%,88.627451%,88.235294%);stop-opacity:1;"/>
<stop offset="1" style="stop-color:rgb(75.294118%,80%,80.784314%);stop-opacity:1;"/>
</linearGradient>
<linearGradient id="linear8" gradientUnits="userSpaceOnUse" x1="380.359985" y1="-2234.389893" x2="380.359985" y2="-2251.839844" gradientTransform="matrix(0.078125,0,0,0.078125,0,207.359371)">
<stop offset="0" style="stop-color:rgb(57.254902%,65.098039%,67.843137%);stop-opacity:0;"/>
<stop offset="0.99" style="stop-color:rgb(57.254902%,65.098039%,67.843137%);stop-opacity:1;"/>
</linearGradient>
<linearGradient id="linear9" gradientUnits="userSpaceOnUse" x1="280.331268" y1="-2384.074951" x2="480.212463" y2="-2384.074951" gradientTransform="matrix(0.078125,0,0,0.078125,0,207.359371)">
<stop offset="0" style="stop-color:rgb(92.54902%,37.647059%,42.352941%);stop-opacity:1;"/>
<stop offset="1" style="stop-color:rgb(74.901961%,14.901961%,25.098039%);stop-opacity:1;"/>
</linearGradient>
<linearGradient id="linear10" gradientUnits="userSpaceOnUse" x1="380.269989" y1="-2325.780029" x2="380.269989" y2="-2240.689941" gradientTransform="matrix(0.078125,0,0,0.078125,0,207.359371)">
<stop offset="0" style="stop-color:rgb(74.901961%,14.901961%,25.098039%);stop-opacity:0;"/>
<stop offset="0.99" style="stop-color:rgb(74.901961%,14.901961%,25.098039%);stop-opacity:1;"/>
</linearGradient>
<linearGradient id="linear11" gradientUnits="userSpaceOnUse" x1="321.671631" y1="390.512115" x2="375.251648" y2="129.862106" gradientTransform="matrix(0.078125,0,0,-0.078125,0,40)">
<stop offset="0" style="stop-color:rgb(28.627451%,85.490196%,54.509804%);stop-opacity:1;"/>
<stop offset="1" style="stop-color:rgb(22.352941%,71.764706%,43.529412%);stop-opacity:1;"/>
</linearGradient>
<linearGradient id="linear12" gradientUnits="userSpaceOnUse" x1="284.770019" y1="-2528.905029" x2="475.710022" y2="-2528.905029" gradientTransform="matrix(0.078125,0,0,0.078125,0,207.359371)">
<stop offset="0" style="stop-color:rgb(86.27451%,88.627451%,88.235294%);stop-opacity:1;"/>
<stop offset="1" style="stop-color:rgb(75.294118%,80%,80.784314%);stop-opacity:1;"/>
</linearGradient>
<linearGradient id="linear13" gradientUnits="userSpaceOnUse" x1="380.255005" y1="-2524.310059" x2="380.255005" y2="-2549.52002" gradientTransform="matrix(0.078125,0,0,0.078125,0,207.359371)">
<stop offset="0" style="stop-color:rgb(57.254902%,65.098039%,67.843137%);stop-opacity:0;"/>
<stop offset="0.99" style="stop-color:rgb(57.254902%,65.098039%,67.843137%);stop-opacity:1;"/>
</linearGradient>
<linearGradient id="linear14" gradientUnits="userSpaceOnUse" x1="292.029999" y1="-2555.149902" x2="468.509979" y2="-2555.149902" gradientTransform="matrix(0.078125,0,0,0.078125,0,207.359371)">
<stop offset="0" style="stop-color:rgb(75.294118%,80%,80.784314%);stop-opacity:1;"/>
<stop offset="1" style="stop-color:rgb(86.27451%,88.627451%,88.235294%);stop-opacity:1;"/>
</linearGradient>
<linearGradient id="linear15" gradientUnits="userSpaceOnUse" x1="298.219971" y1="-2555.149902" x2="462.320007" y2="-2555.149902" gradientTransform="matrix(0.078125,0,0,0.078125,0,207.359371)">
<stop offset="0" style="stop-color:rgb(86.27451%,88.627451%,88.235294%);stop-opacity:1;"/>
<stop offset="1" style="stop-color:rgb(75.294118%,80%,80.784314%);stop-opacity:1;"/>
</linearGradient>
<linearGradient id="linear16" gradientUnits="userSpaceOnUse" x1="380.289978" y1="-2555.149902" x2="380.289978" y2="-2569.780029" gradientTransform="matrix(0.078125,0,0,0.078125,0,207.359371)">
<stop offset="0" style="stop-color:rgb(57.254902%,65.098039%,67.843137%);stop-opacity:0;"/>
<stop offset="0.99" style="stop-color:rgb(57.254902%,65.098039%,67.843137%);stop-opacity:1;"/>
</linearGradient>
</defs>
<g id="surface1">
<path style=" stroke:none;fill-rule:nonzero;fill:rgb(22.352941%,71.764706%,43.529412%);fill-opacity:1;" d="M 9.730469 21.867188 L 6.550781 20.660156 L 6.550781 29.304688 L 26.527344 19.316406 L 26.527344 13.558594 L 9.945312 21.855469 C 9.878906 21.886719 9.800781 21.890625 9.730469 21.867188 Z M 9.730469 21.867188 "/>
<path style=" stroke:none;fill-rule:nonzero;fill:url(#linear0);" d="M 6.023438 29.347656 L 6.023438 27.054688 L 3.410156 28.359375 Z M 6.023438 29.347656 "/>
<path style=" stroke:none;fill-rule:nonzero;fill:url(#linear1);" d="M 9.730469 19.398438 L 3.011719 16.851562 L 3.011719 18.75 L 6.378906 20.027344 L 9.8125 21.328125 L 26.675781 12.890625 L 30.066406 11.191406 L 30.066406 9.316406 L 9.945312 19.386719 C 9.878906 19.421875 9.800781 19.425781 9.730469 19.398438 Z M 9.730469 19.398438 "/>
<path style=" stroke:none;fill-rule:nonzero;fill:url(#linear2);" d="M 29.671875 20.855469 L 26.808594 19.769531 L 6.945312 29.699219 L 9.8125 30.785156 Z M 29.671875 20.855469 "/>
<path style=" stroke:none;fill-rule:nonzero;fill:rgb(70.196078%,70.196078%,70.196078%);fill-opacity:1;" d="M 2.535156 16.320312 C 2.554688 16.289062 2.585938 16.261719 2.617188 16.242188 C 2.585938 16.261719 2.554688 16.289062 2.535156 16.320312 Z M 2.535156 16.320312 "/>
<path style=" stroke:none;fill-rule:nonzero;fill:rgb(70.196078%,70.196078%,70.196078%);fill-opacity:1;" d="M 6.039062 20.183594 L 2.75 18.933594 L 2.75 16.75 L 2.65625 16.71875 C 2.523438 16.671875 2.453125 16.523438 2.5 16.390625 C 2.503906 16.375 2.511719 16.363281 2.519531 16.351562 C 2.496094 16.386719 2.484375 16.429688 2.484375 16.472656 L 2.484375 18.9375 C 2.488281 19.046875 2.554688 19.144531 2.65625 19.183594 L 6.023438 20.457031 L 6.023438 20.277344 C 6.023438 20.242188 6.027344 20.210938 6.039062 20.183594 Z M 6.039062 20.183594 "/>
<path style=" stroke:none;fill-rule:nonzero;fill:rgb(70.196078%,70.196078%,70.196078%);fill-opacity:1;" d="M 30.449219 9.128906 L 30.332031 9.1875 L 30.332031 11.359375 L 27.03125 13.011719 C 27.050781 13.050781 27.0625 13.089844 27.0625 13.128906 L 27.0625 13.292969 L 30.453125 11.597656 C 30.542969 11.550781 30.597656 11.460938 30.601562 11.363281 L 30.601562 8.890625 C 30.601562 8.890625 30.601562 8.886719 30.601562 8.882812 C 30.601562 8.988281 30.542969 9.085938 30.449219 9.128906 Z M 30.449219 9.128906 "/>
<path style=" stroke:none;fill-rule:nonzero;fill:rgb(70.196078%,70.196078%,70.196078%);fill-opacity:1;" d="M 30.554688 8.753906 C 30.574219 8.785156 30.585938 8.824219 30.589844 8.863281 C 30.585938 8.824219 30.574219 8.785156 30.554688 8.753906 Z M 30.554688 8.753906 "/>
<path style=" stroke:none;fill-rule:nonzero;fill:rgb(70.196078%,70.196078%,70.196078%);fill-opacity:1;" d="M 30.429688 8.648438 C 30.472656 8.664062 30.507812 8.691406 30.535156 8.726562 C 30.507812 8.691406 30.472656 8.664062 30.429688 8.648438 Z M 30.429688 8.648438 "/>
<path style=" stroke:none;fill-rule:nonzero;fill:rgb(70.196078%,70.196078%,70.196078%);fill-opacity:1;" d="M 6.289062 20.011719 C 6.433594 20.011719 6.550781 20.128906 6.550781 20.277344 L 6.550781 20.660156 L 9.730469 21.867188 C 9.800781 21.890625 9.878906 21.886719 9.945312 21.855469 L 26.527344 13.558594 L 26.527344 13.128906 C 26.527344 12.984375 26.644531 12.867188 26.789062 12.867188 C 26.890625 12.863281 26.984375 12.921875 27.027344 13.011719 L 30.332031 11.359375 L 30.332031 9.1875 L 30.066406 9.320312 L 30.066406 11.195312 L 26.675781 12.890625 L 9.8125 21.328125 L 6.382812 20.027344 L 3.015625 18.75 L 3.015625 16.851562 L 2.75 16.75 L 2.75 18.933594 L 6.039062 20.183594 C 6.078125 20.078125 6.175781 20.011719 6.289062 20.011719 Z M 6.289062 20.011719 "/>
<path style=" stroke:none;fill-rule:nonzero;fill:url(#linear3);" d="M 3.410156 16.433594 L 9.8125 18.863281 L 29.671875 8.925781 L 23.269531 6.496094 Z M 3.410156 16.433594 "/>
<path style=" stroke:none;fill-rule:nonzero;fill:rgb(70.196078%,70.196078%,70.196078%);fill-opacity:1;" d="M 30.597656 8.878906 C 30.597656 8.875 30.59375 8.867188 30.589844 8.863281 C 30.589844 8.871094 30.59375 8.875 30.597656 8.882812 C 30.597656 8.890625 30.597656 8.878906 30.597656 8.878906 Z M 30.597656 8.878906 "/>
<path style=" stroke:none;fill-rule:nonzero;fill:rgb(70.196078%,70.196078%,70.196078%);fill-opacity:1;" d="M 30.214844 8.65625 L 29.996094 8.765625 L 30.085938 8.800781 C 30.109375 8.738281 30.15625 8.6875 30.214844 8.65625 Z M 30.214844 8.65625 "/>
<path style=" stroke:none;fill-rule:nonzero;fill:rgb(70.196078%,70.196078%,70.196078%);fill-opacity:1;" d="M 30.535156 8.726562 C 30.542969 8.734375 30.546875 8.746094 30.554688 8.753906 C 30.546875 8.746094 30.542969 8.734375 30.535156 8.726562 Z M 30.535156 8.726562 "/>
<path style=" stroke:none;fill-rule:nonzero;fill:rgb(70.196078%,70.196078%,70.196078%);fill-opacity:1;" d="M 2.984375 16.351562 L 23.257812 6.207031 L 23.839844 6.429688 L 29.996094 8.765625 L 30.214844 8.65625 C 30.25 8.636719 30.289062 8.625 30.332031 8.625 C 30.363281 8.625 30.394531 8.632812 30.425781 8.644531 L 23.351562 5.960938 C 23.28125 5.933594 23.203125 5.9375 23.136719 5.972656 L 2.628906 16.230469 C 2.625 16.230469 2.625 16.238281 2.617188 16.242188 C 2.738281 16.167969 2.894531 16.203125 2.96875 16.320312 C 2.976562 16.332031 2.980469 16.339844 2.984375 16.351562 Z M 2.984375 16.351562 "/>
<path style=" stroke:none;fill-rule:nonzero;fill:rgb(70.196078%,70.196078%,70.196078%);fill-opacity:1;" d="M 2.515625 16.347656 C 2.523438 16.335938 2.527344 16.328125 2.535156 16.320312 C 2.527344 16.328125 2.523438 16.335938 2.515625 16.347656 Z M 2.515625 16.347656 "/>
<path style=" stroke:none;fill-rule:nonzero;fill:rgb(70.196078%,70.196078%,70.196078%);fill-opacity:1;" d="M 30.011719 9.054688 L 9.824219 19.152344 L 3.015625 16.566406 L 3.015625 16.851562 L 9.734375 19.398438 C 9.804688 19.425781 9.878906 19.421875 9.945312 19.386719 L 30.066406 9.320312 L 30.066406 9.074219 Z M 30.011719 9.054688 "/>
<path style=" stroke:none;fill-rule:nonzero;fill:rgb(70.196078%,70.196078%,70.196078%);fill-opacity:1;" d="M 23.257812 6.207031 L 23.839844 6.429688 L 23.257812 6.207031 L 2.984375 16.351562 Z M 23.257812 6.207031 "/>
<path style=" stroke:none;fill-rule:nonzero;fill:rgb(70.196078%,70.196078%,70.196078%);fill-opacity:1;" d="M 30.066406 9.023438 L 30.011719 9.054688 L 30.066406 9.074219 Z M 30.066406 9.023438 "/>
<path style=" stroke:none;fill-rule:nonzero;fill:rgb(70.196078%,70.196078%,70.196078%);fill-opacity:1;" d="M 2.65625 16.71875 L 2.75 16.753906 L 2.75 16.472656 L 2.984375 16.355469 C 2.925781 16.226562 2.773438 16.171875 2.644531 16.230469 C 2.636719 16.234375 2.628906 16.238281 2.617188 16.246094 C 2.585938 16.265625 2.554688 16.292969 2.535156 16.324219 C 2.527344 16.332031 2.523438 16.339844 2.515625 16.351562 C 2.449219 16.472656 2.492188 16.632812 2.617188 16.699219 C 2.628906 16.707031 2.640625 16.714844 2.65625 16.71875 Z M 2.65625 16.71875 "/>
<path style=" stroke:none;fill-rule:nonzero;fill:rgb(70.196078%,70.196078%,70.196078%);fill-opacity:1;" d="M 30.085938 8.800781 L 30.332031 8.890625 L 30.214844 8.65625 C 30.15625 8.6875 30.109375 8.738281 30.085938 8.800781 Z M 30.085938 8.800781 "/>
<path style=" stroke:none;fill-rule:nonzero;fill:rgb(70.196078%,70.196078%,70.196078%);fill-opacity:1;" d="M 30.425781 8.644531 C 30.394531 8.632812 30.363281 8.628906 30.332031 8.628906 C 30.292969 8.628906 30.25 8.636719 30.214844 8.65625 L 30.332031 8.890625 Z M 30.425781 8.644531 "/>
<path style=" stroke:none;fill-rule:nonzero;fill:rgb(70.196078%,70.196078%,70.196078%);fill-opacity:1;" d="M 30.332031 8.890625 L 30.332031 9.1875 L 30.449219 9.128906 C 30.542969 9.082031 30.601562 8.988281 30.597656 8.882812 C 30.597656 8.875 30.59375 8.871094 30.589844 8.863281 C 30.585938 8.824219 30.574219 8.785156 30.554688 8.753906 C 30.546875 8.746094 30.542969 8.734375 30.535156 8.726562 C 30.507812 8.691406 30.472656 8.664062 30.429688 8.648438 L 30.425781 8.648438 Z M 30.332031 8.890625 "/>
<path style=" stroke:none;fill-rule:nonzero;fill:rgb(70.196078%,70.196078%,70.196078%);fill-opacity:1;" d="M 30.066406 9.074219 L 30.066406 9.320312 L 30.332031 9.1875 L 30.332031 8.890625 L 30.238281 9.140625 Z M 30.066406 9.074219 "/>
<path style=" stroke:none;fill-rule:nonzero;fill:rgb(70.196078%,70.196078%,70.196078%);fill-opacity:1;" d="M 30.066406 9.023438 L 30.066406 9.074219 L 30.238281 9.140625 L 30.332031 8.890625 Z M 30.066406 9.023438 "/>
<path style=" stroke:none;fill-rule:nonzero;fill:rgb(70.196078%,70.196078%,70.196078%);fill-opacity:1;" d="M 3.015625 16.566406 L 2.75 16.46875 L 2.984375 16.351562 L 2.75 16.46875 L 2.75 16.75 L 3.015625 16.851562 Z M 3.015625 16.566406 "/>
<path style=" stroke:none;fill-rule:nonzero;fill:rgb(70.196078%,70.196078%,70.196078%);fill-opacity:1;" d="M 29.996094 8.765625 L 23.839844 6.429688 Z M 29.996094 8.765625 "/>
<path style=" stroke:none;fill-rule:nonzero;fill:rgb(70.196078%,70.196078%,70.196078%);fill-opacity:1;" d="M 30.085938 8.800781 L 29.996094 8.765625 Z M 30.085938 8.800781 "/>
<path style=" stroke:none;fill-rule:nonzero;fill:rgb(70.196078%,70.196078%,70.196078%);fill-opacity:1;" d="M 2.984375 16.351562 C 3.003906 16.386719 3.015625 16.425781 3.015625 16.46875 L 3.015625 16.566406 L 9.824219 19.152344 L 30.011719 9.054688 L 29.671875 8.925781 L 9.8125 18.863281 L 3.410156 16.433594 L 23.269531 6.496094 L 29.671875 8.925781 L 29.996094 8.765625 L 23.839844 6.429688 L 23.257812 6.207031 Z M 2.984375 16.351562 "/>
<path style=" stroke:none;fill-rule:nonzero;fill:rgb(70.196078%,70.196078%,70.196078%);fill-opacity:1;" d="M 30.066406 8.890625 C 30.066406 8.859375 30.074219 8.828125 30.085938 8.800781 L 29.996094 8.765625 L 29.671875 8.925781 L 30.011719 9.054688 L 30.066406 9.023438 Z M 30.066406 8.890625 "/>
<path style=" stroke:none;fill-rule:nonzero;fill:rgb(70.196078%,70.196078%,70.196078%);fill-opacity:1;" d="M 30.085938 8.800781 L 30.332031 8.890625 Z M 30.085938 8.800781 "/>
<path style=" stroke:none;fill-rule:nonzero;fill:rgb(70.196078%,70.196078%,70.196078%);fill-opacity:1;" d="M 30.066406 9.023438 L 30.332031 8.890625 L 30.085938 8.800781 C 30.074219 8.828125 30.066406 8.859375 30.066406 8.890625 Z M 30.066406 9.023438 "/>
<path style=" stroke:none;fill-rule:nonzero;fill:rgb(70.196078%,70.196078%,70.196078%);fill-opacity:1;" d="M 2.984375 16.351562 L 2.75 16.46875 L 3.015625 16.566406 L 3.015625 16.46875 C 3.015625 16.425781 3.003906 16.386719 2.984375 16.351562 Z M 2.984375 16.351562 "/>
<path style=" stroke:none;fill-rule:nonzero;fill:rgb(70.196078%,70.196078%,70.196078%);fill-opacity:1;" d="M 27.03125 19.570312 L 29.992188 20.695312 L 30.210938 20.585938 C 30.285156 20.546875 30.371094 20.546875 30.445312 20.585938 C 30.4375 20.585938 30.433594 20.574219 30.425781 20.570312 L 27.058594 19.296875 L 27.058594 19.480469 C 27.054688 19.511719 27.046875 19.542969 27.03125 19.570312 Z M 27.03125 19.570312 "/>
<path style=" stroke:none;fill-rule:nonzero;fill:rgb(70.196078%,70.196078%,70.196078%);fill-opacity:1;" d="M 30.597656 20.808594 C 30.597656 20.796875 30.585938 20.785156 30.585938 20.773438 C 30.589844 20.789062 30.59375 20.800781 30.59375 20.816406 C 30.59375 20.816406 30.597656 20.8125 30.597656 20.808594 Z M 30.597656 20.808594 "/>
<path style=" stroke:none;fill-rule:nonzero;fill:rgb(70.196078%,70.196078%,70.196078%);fill-opacity:1;" d="M 2.519531 28.265625 C 2.523438 28.253906 2.535156 28.246094 2.542969 28.238281 C 2.535156 28.246094 2.523438 28.253906 2.519531 28.265625 Z M 2.519531 28.265625 "/>
<path style=" stroke:none;fill-rule:nonzero;fill:rgb(70.196078%,70.196078%,70.196078%);fill-opacity:1;" d="M 2.84375 28.144531 L 3.070312 28.230469 L 6.023438 26.757812 L 6.023438 26.460938 L 2.632812 28.15625 C 2.625 28.15625 2.625 28.164062 2.617188 28.164062 C 2.6875 28.125 2.769531 28.117188 2.84375 28.144531 Z M 2.84375 28.144531 "/>
<path style=" stroke:none;fill-rule:nonzero;fill:rgb(70.196078%,70.196078%,70.196078%);fill-opacity:1;" d="M 30.515625 20.640625 C 30.527344 20.652344 30.539062 20.667969 30.550781 20.679688 C 30.539062 20.664062 30.527344 20.652344 30.515625 20.640625 Z M 30.515625 20.640625 "/>
<path style=" stroke:none;fill-rule:nonzero;fill:url(#linear4);" d="M 6.023438 29.347656 L 3.410156 28.359375 L 6.023438 27.054688 L 6.023438 26.757812 L 3.070312 28.230469 Z M 6.023438 29.347656 "/>
<path style=" stroke:none;fill-rule:nonzero;fill:rgb(70.196078%,70.196078%,70.196078%);fill-opacity:1;" d="M 26.914062 19.71875 L 26.808594 19.769531 L 29.671875 20.859375 L 9.8125 30.785156 L 29.996094 20.695312 L 27.03125 19.570312 C 27.011719 19.632812 26.96875 19.683594 26.914062 19.71875 Z M 26.914062 19.71875 "/>
<path style=" stroke:none;fill-rule:nonzero;fill:url(#linear5);" d="M 9.730469 31.324219 L 6.191406 29.980469 L 3.015625 28.777344 L 3.015625 30.925781 L 6.382812 32.203125 L 9.8125 33.503906 L 30.066406 23.375 L 30.066406 21.25 L 9.945312 31.3125 C 9.878906 31.347656 9.800781 31.351562 9.730469 31.324219 Z M 9.730469 31.324219 "/>
<path style=" stroke:none;fill-rule:nonzero;fill:rgb(7.45098%,86.27451%,59.607843%);fill-opacity:1;" d="M 3.015625 28.777344 L 6.191406 29.980469 Z M 3.015625 28.777344 "/>
<path style=" stroke:none;fill-rule:nonzero;fill:rgb(70.196078%,70.196078%,70.196078%);fill-opacity:1;" d="M 30.449219 21.058594 L 30.332031 21.117188 L 30.332031 23.539062 L 9.824219 33.792969 L 7.902344 33.0625 L 6.289062 32.449219 L 2.75 31.105469 L 2.75 28.671875 L 2.65625 28.636719 C 2.519531 28.585938 2.449219 28.4375 2.5 28.300781 C 2.503906 28.285156 2.511719 28.273438 2.519531 28.261719 C 2.496094 28.300781 2.484375 28.34375 2.484375 28.386719 L 2.484375 31.105469 C 2.484375 31.214844 2.550781 31.316406 2.65625 31.355469 L 6.195312 32.699219 L 9.730469 34.039062 C 9.800781 34.066406 9.878906 34.0625 9.945312 34.027344 L 30.449219 23.773438 C 30.539062 23.730469 30.597656 23.640625 30.597656 23.539062 L 30.597656 20.820312 C 30.597656 20.820312 30.597656 20.816406 30.597656 20.816406 C 30.601562 20.917969 30.542969 21.015625 30.449219 21.058594 Z M 30.449219 21.058594 "/>
<path style=" stroke:none;fill-rule:nonzero;fill:rgb(70.196078%,70.196078%,70.196078%);fill-opacity:1;" d="M 2.597656 28.171875 C 2.578125 28.191406 2.558594 28.214844 2.542969 28.238281 C 2.5625 28.207031 2.589844 28.183594 2.621094 28.164062 C 2.613281 28.167969 2.605469 28.167969 2.597656 28.171875 Z M 2.597656 28.171875 "/>
<path style=" stroke:none;fill-rule:nonzero;fill:rgb(70.196078%,70.196078%,70.196078%);fill-opacity:1;" d="M 30.46875 20.597656 C 30.460938 20.589844 30.449219 20.59375 30.441406 20.589844 C 30.46875 20.601562 30.492188 20.621094 30.511719 20.640625 C 30.5 20.625 30.484375 20.609375 30.46875 20.597656 Z M 30.46875 20.597656 "/>
<path style=" stroke:none;fill-rule:nonzero;fill:rgb(70.196078%,70.196078%,70.196078%);fill-opacity:1;" d="M 30.550781 20.679688 C 30.570312 20.710938 30.582031 20.742188 30.585938 20.773438 C 30.582031 20.742188 30.570312 20.710938 30.550781 20.679688 Z M 30.550781 20.679688 "/>
<path style=" stroke:none;fill-rule:nonzero;fill:rgb(70.196078%,70.196078%,70.196078%);fill-opacity:1;" d="M 2.75 31.105469 L 2.75 28.675781 L 2.75 31.109375 L 6.289062 32.449219 L 7.902344 33.0625 L 6.289062 32.449219 Z M 2.75 31.105469 "/>
<path style=" stroke:none;fill-rule:nonzero;fill:rgb(70.196078%,70.196078%,70.196078%);fill-opacity:1;" d="M 30.214844 20.585938 L 30.449219 21.054688 C 30.542969 21.007812 30.597656 20.914062 30.59375 20.808594 C 30.59375 20.796875 30.589844 20.78125 30.585938 20.769531 C 30.570312 20.691406 30.515625 20.621094 30.445312 20.582031 C 30.371094 20.546875 30.285156 20.546875 30.214844 20.585938 Z M 30.214844 20.585938 "/>
<path style=" stroke:none;fill-rule:nonzero;fill:rgb(70.196078%,70.196078%,70.196078%);fill-opacity:1;" d="M 2.65625 28.640625 L 2.75 28.675781 L 2.75 28.390625 L 3.074219 28.230469 L 2.84375 28.144531 C 2.769531 28.117188 2.6875 28.125 2.621094 28.164062 C 2.589844 28.183594 2.5625 28.207031 2.542969 28.238281 C 2.535156 28.246094 2.523438 28.253906 2.519531 28.265625 C 2.445312 28.390625 2.488281 28.550781 2.617188 28.621094 C 2.628906 28.628906 2.640625 28.632812 2.65625 28.640625 Z M 2.65625 28.640625 "/>
<path style=" stroke:none;fill-rule:nonzero;fill:rgb(70.196078%,70.196078%,70.196078%);fill-opacity:1;" d="M 30.449219 21.058594 L 30.332031 20.820312 L 30.332031 21.117188 Z M 30.449219 21.058594 "/>
<path style=" stroke:none;fill-rule:nonzero;fill:rgb(70.196078%,70.196078%,70.196078%);fill-opacity:1;" d="M 30.332031 20.820312 L 30.214844 20.585938 L 29.996094 20.695312 Z M 30.332031 20.820312 "/>
<path style=" stroke:none;fill-rule:nonzero;fill:rgb(70.196078%,70.196078%,70.196078%);fill-opacity:1;" d="M 6.945312 29.699219 L 6.625 29.863281 L 9.824219 31.074219 L 30.066406 20.953125 L 30.066406 20.820312 L 30.332031 20.820312 L 29.996094 20.695312 L 9.8125 30.785156 Z M 6.945312 29.699219 "/>
<path style=" stroke:none;fill-rule:nonzero;fill:rgb(70.196078%,70.196078%,70.196078%);fill-opacity:1;" d="M 2.75 28.390625 L 6.023438 29.632812 L 6.023438 29.347656 L 3.070312 28.230469 L 2.75 28.390625 L 2.75 28.675781 Z M 2.75 28.390625 "/>
<path style=" stroke:none;fill-rule:nonzero;fill:rgb(70.196078%,70.196078%,70.196078%);fill-opacity:1;" d="M 30.332031 20.820312 L 30.066406 20.820312 L 30.066406 20.953125 Z M 30.332031 20.820312 "/>
<path style=" stroke:none;fill-rule:nonzero;fill:rgb(70.196078%,70.196078%,70.196078%);fill-opacity:1;" d="M 30.332031 23.539062 L 9.824219 33.792969 L 7.902344 33.0625 L 9.824219 33.792969 L 30.332031 23.539062 L 30.332031 21.117188 Z M 30.332031 23.539062 "/>
<path style=" stroke:none;fill-rule:nonzero;fill:rgb(70.196078%,70.196078%,70.196078%);fill-opacity:1;" d="M 30.332031 23.539062 L 30.332031 21.117188 L 30.066406 21.25 L 30.066406 23.375 L 9.8125 33.503906 L 6.382812 32.203125 L 3.015625 30.925781 L 3.015625 28.777344 L 2.75 28.675781 L 2.75 31.105469 L 6.289062 32.449219 L 7.902344 33.0625 L 9.824219 33.792969 Z M 30.332031 23.539062 "/>
<path style=" stroke:none;fill-rule:nonzero;fill:rgb(70.196078%,70.196078%,70.196078%);fill-opacity:1;" d="M 30.332031 21.117188 L 30.332031 20.820312 L 30.066406 20.953125 L 30.066406 21.25 Z M 30.332031 21.117188 "/>
<path style=" stroke:none;fill-rule:nonzero;fill:rgb(70.196078%,70.196078%,70.196078%);fill-opacity:1;" d="M 6.148438 29.960938 C 6.070312 29.910156 6.023438 29.824219 6.023438 29.734375 L 6.023438 29.632812 L 2.75 28.390625 L 2.75 28.675781 L 3.015625 28.777344 L 6.191406 29.980469 L 9.730469 31.324219 C 9.800781 31.351562 9.878906 31.347656 9.945312 31.3125 L 30.066406 21.25 L 30.066406 20.953125 L 9.824219 31.074219 L 6.621094 29.859375 L 6.40625 29.96875 C 6.324219 30.011719 6.226562 30.007812 6.148438 29.960938 Z M 6.148438 29.960938 "/>
<path style=" stroke:none;fill-rule:nonzero;fill:rgb(70.196078%,70.196078%,70.196078%);fill-opacity:1;" d="M 6.289062 26.363281 L 6.289062 20.558594 L 6.191406 20.523438 L 6.023438 20.457031 L 6.023438 26.460938 L 6.167969 26.386719 C 6.207031 26.371094 6.246094 26.363281 6.289062 26.363281 Z M 6.289062 26.363281 "/>
<path style=" stroke:none;fill-rule:nonzero;fill:rgb(70.196078%,70.196078%,70.196078%);fill-opacity:1;" d="M 26.914062 13.367188 L 26.792969 13.425781 L 26.792969 19.21875 C 26.828125 19.21875 26.859375 19.222656 26.886719 19.234375 L 27.058594 19.300781 L 27.058594 13.292969 Z M 26.914062 13.367188 "/>
<path style=" stroke:none;fill-rule:nonzero;fill:rgb(70.196078%,70.196078%,70.196078%);fill-opacity:1;" d="M 26.527344 19.316406 L 6.550781 29.304688 L 6.550781 20.660156 L 6.289062 20.558594 L 6.289062 26.363281 C 6.433594 26.359375 6.550781 26.476562 6.554688 26.621094 C 6.554688 26.726562 6.496094 26.816406 6.40625 26.863281 L 6.023438 27.054688 L 6.023438 29.347656 L 6.382812 29.484375 L 6.945312 29.699219 L 26.808594 19.765625 L 26.699219 19.726562 C 26.566406 19.667969 26.503906 19.511719 26.5625 19.378906 C 26.601562 19.285156 26.695312 19.222656 26.796875 19.21875 L 26.796875 13.429688 L 26.53125 13.5625 Z M 26.527344 19.316406 "/>
<path style=" stroke:none;fill-rule:nonzero;fill:rgb(70.196078%,70.196078%,70.196078%);fill-opacity:1;" d="M 6.289062 20.558594 L 6.289062 20.277344 L 6.039062 20.183594 C 6.027344 20.210938 6.023438 20.242188 6.023438 20.277344 L 6.023438 20.457031 L 6.191406 20.523438 Z M 6.289062 20.558594 "/>
<path style=" stroke:none;fill-rule:nonzero;fill:rgb(70.196078%,70.196078%,70.196078%);fill-opacity:1;" d="M 27.03125 13.011719 L 26.796875 13.128906 L 26.796875 13.425781 L 27.0625 13.292969 L 27.0625 13.128906 C 27.0625 13.089844 27.050781 13.050781 27.03125 13.011719 Z M 27.03125 13.011719 "/>
<path style=" stroke:none;fill-rule:nonzero;fill:rgb(70.196078%,70.196078%,70.196078%);fill-opacity:1;" d="M 6.550781 20.277344 C 6.554688 20.128906 6.4375 20.011719 6.289062 20.007812 C 6.179688 20.007812 6.078125 20.078125 6.039062 20.183594 L 6.289062 20.277344 L 6.289062 20.558594 L 6.550781 20.660156 Z M 6.550781 20.277344 "/>
<path style=" stroke:none;fill-rule:nonzero;fill:rgb(70.196078%,70.196078%,70.196078%);fill-opacity:1;" d="M 27.03125 13.011719 C 26.96875 12.882812 26.808594 12.828125 26.679688 12.890625 C 26.589844 12.9375 26.53125 13.027344 26.53125 13.128906 L 26.53125 13.558594 L 26.796875 13.425781 L 26.796875 13.128906 Z M 27.03125 13.011719 "/>
<path style=" stroke:none;fill-rule:nonzero;fill:rgb(70.196078%,70.196078%,70.196078%);fill-opacity:1;" d="M 6.023438 26.757812 L 6.289062 26.625 L 6.289062 26.363281 C 6.246094 26.363281 6.207031 26.371094 6.167969 26.386719 L 6.023438 26.460938 C 6.023438 26.460938 6.023438 26.757812 6.023438 26.757812 Z M 6.023438 26.757812 "/>
<path style=" stroke:none;fill-rule:nonzero;fill:rgb(70.196078%,70.196078%,70.196078%);fill-opacity:1;" d="M 26.796875 19.21875 L 26.796875 19.484375 L 27.035156 19.574219 C 27.050781 19.542969 27.058594 19.515625 27.0625 19.480469 L 27.0625 19.296875 L 26.890625 19.230469 C 26.859375 19.222656 26.828125 19.21875 26.796875 19.21875 Z M 26.796875 19.21875 "/>
<path style=" stroke:none;fill-rule:nonzero;fill:rgb(70.196078%,70.196078%,70.196078%);fill-opacity:1;" d="M 6.382812 29.484375 L 6.023438 29.347656 Z M 6.382812 29.484375 "/>
<path style=" stroke:none;fill-rule:nonzero;fill:rgb(70.196078%,70.196078%,70.196078%);fill-opacity:1;" d="M 26.546875 19.386719 C 26.496094 19.523438 26.566406 19.675781 26.703125 19.726562 L 26.8125 19.769531 L 26.914062 19.71875 C 26.972656 19.683594 27.015625 19.632812 27.035156 19.570312 L 26.796875 19.480469 L 26.796875 19.21875 C 26.6875 19.214844 26.585938 19.285156 26.546875 19.386719 Z M 26.546875 19.386719 "/>
<path style=" stroke:none;fill-rule:nonzero;fill:rgb(70.196078%,70.196078%,70.196078%);fill-opacity:1;" d="M 6.40625 26.863281 C 6.535156 26.800781 6.589844 26.640625 6.527344 26.511719 C 6.484375 26.417969 6.390625 26.363281 6.289062 26.363281 L 6.289062 26.625 L 6.023438 26.757812 L 6.023438 27.054688 Z M 6.40625 26.863281 "/>
<path style=" stroke:none;fill-rule:nonzero;fill:rgb(70.196078%,70.196078%,70.196078%);fill-opacity:1;" d="M 6.023438 29.632812 L 6.289062 29.734375 L 6.625 29.863281 L 6.945312 29.699219 L 6.382812 29.484375 L 6.023438 29.347656 Z M 6.023438 29.632812 "/>
<path style=" stroke:none;fill-rule:nonzero;fill:rgb(70.196078%,70.196078%,70.196078%);fill-opacity:1;" d="M 6.023438 29.632812 L 6.023438 29.734375 C 6.023438 29.878906 6.140625 29.996094 6.289062 29.996094 C 6.328125 29.996094 6.371094 29.988281 6.40625 29.96875 L 6.625 29.859375 L 6.289062 29.730469 Z M 6.023438 29.632812 "/>
<use xlink:href="#surface5" mask="url(#mask0)"/>
<path style=" stroke:none;fill-rule:nonzero;fill:url(#linear7);" d="M 22.949219 31.46875 C 23.0625 31.742188 23.160156 32.019531 23.238281 32.304688 L 23.246094 32.304688 C 23.363281 33.125 26.214844 33.78125 29.707031 33.78125 C 33.203125 33.78125 36.054688 33.125 36.171875 32.304688 L 36.179688 32.304688 C 36.257812 32.007812 36.363281 31.71875 36.484375 31.433594 Z M 22.949219 31.46875 "/>
<path style=" stroke:none;fill-rule:nonzero;fill:url(#linear8);" d="M 23.238281 32.304688 L 23.246094 32.304688 C 23.308594 32.523438 23.460938 32.703125 23.664062 32.796875 L 35.75 32.796875 C 35.957031 32.703125 36.109375 32.523438 36.171875 32.304688 L 36.179688 32.304688 C 36.257812 32.007812 36.363281 31.71875 36.484375 31.433594 L 22.949219 31.46875 C 23.0625 31.742188 23.160156 32.019531 23.238281 32.304688 Z M 23.238281 32.304688 "/>
<path style=" stroke:none;fill-rule:nonzero;fill:url(#linear9);" d="M 22.25 9.902344 C 21.796875 16.8125 21.785156 23.75 22.214844 30.664062 C 22.234375 30.980469 22.457031 31.253906 22.761719 31.339844 C 25.027344 31.964844 27.359375 32.289062 29.707031 32.304688 C 32.054688 32.289062 34.390625 31.964844 36.652344 31.339844 C 36.960938 31.253906 37.179688 30.984375 37.199219 30.664062 C 37.632812 23.75 37.621094 16.8125 37.167969 9.902344 Z M 22.25 9.902344 "/>
<path style=" stroke:none;fill-rule:nonzero;fill:url(#linear10);" d="M 21.980469 25.65625 C 22.035156 27.339844 22.113281 29.015625 22.214844 30.664062 C 22.234375 30.980469 22.457031 31.253906 22.761719 31.339844 C 25.027344 31.964844 27.359375 32.289062 29.707031 32.304688 C 32.054688 32.289062 34.390625 31.964844 36.652344 31.339844 C 36.960938 31.253906 37.179688 30.984375 37.199219 30.664062 C 37.304688 29.015625 37.382812 27.339844 37.433594 25.65625 Z M 21.980469 25.65625 "/>
<path style=" stroke:none;fill-rule:nonzero;fill:url(#linear11);" d="M 31.382812 13.007812 C 31.417969 12.050781 31.703125 10.992188 32.632812 10.574219 L 30.402344 10.8125 C 28.683594 11.839844 28.300781 13.996094 28.441406 15.90625 C 28.566406 17.636719 29.023438 19.355469 28.839844 21.078125 C 28.644531 22.917969 27.71875 24.617188 26.496094 26.007812 C 25.253906 27.425781 23.714844 28.546875 22.15625 29.605469 C 22.175781 29.957031 22.191406 30.3125 22.210938 30.664062 C 22.230469 30.984375 22.453125 31.253906 22.757812 31.339844 C 24.308594 31.765625 25.894531 32.054688 27.492188 32.199219 C 28.664062 31.316406 29.722656 30.296875 30.648438 29.160156 C 32.171875 27.238281 33.214844 24.855469 33.167969 22.402344 C 33.117188 19.203125 31.257812 16.207031 31.382812 13.007812 Z M 31.382812 13.007812 "/>
<path style=" stroke:none;fill-rule:nonzero;fill:url(#linear12);" d="M 23.082031 8.179688 C 22.898438 8.683594 22.65625 9.164062 22.355469 9.609375 C 22.289062 9.679688 22.25 9.773438 22.246094 9.871094 C 22.246094 10.714844 25.585938 11.398438 29.707031 11.398438 C 33.824219 11.398438 37.164062 10.714844 37.164062 9.871094 C 37.160156 9.773438 37.121094 9.679688 37.054688 9.609375 C 36.753906 9.164062 36.511719 8.683594 36.328125 8.179688 Z M 23.082031 8.179688 "/>
<path style=" stroke:none;fill-rule:nonzero;fill:url(#linear13);" d="M 37.058594 9.609375 C 36.761719 9.164062 36.515625 8.683594 36.332031 8.179688 L 23.082031 8.179688 C 22.898438 8.683594 22.65625 9.164062 22.355469 9.609375 C 22.289062 9.679688 22.25 9.773438 22.246094 9.871094 C 22.253906 9.976562 22.300781 10.078125 22.375 10.152344 L 37.039062 10.152344 C 37.117188 10.078125 37.160156 9.976562 37.167969 9.871094 C 37.164062 9.773438 37.125 9.679688 37.058594 9.609375 Z M 37.058594 9.609375 "/>
<path style=" stroke:none;fill-rule:nonzero;fill:url(#linear14);" d="M 36.601562 7.738281 C 36.601562 6.894531 33.515625 6.207031 29.707031 6.207031 C 25.902344 6.207031 22.816406 6.894531 22.816406 7.738281 C 22.816406 8.582031 25.902344 9.269531 29.707031 9.269531 C 33.515625 9.269531 36.601562 8.582031 36.601562 7.738281 Z M 36.601562 7.738281 "/>
<path style=" stroke:none;fill-rule:nonzero;fill:url(#linear15);" d="M 36.117188 7.738281 C 36.117188 7.105469 33.25 6.59375 29.707031 6.59375 C 26.167969 6.59375 23.296875 7.105469 23.296875 7.738281 C 23.296875 8.371094 26.167969 8.882812 29.707031 8.882812 C 33.25 8.882812 36.117188 8.371094 36.117188 7.738281 Z M 36.117188 7.738281 "/>
<path style=" stroke:none;fill-rule:nonzero;fill:url(#linear16);" d="M 29.707031 6.59375 C 26.167969 6.59375 23.300781 7.105469 23.300781 7.738281 L 36.117188 7.738281 C 36.117188 7.109375 33.25 6.59375 29.707031 6.59375 Z M 29.707031 6.59375 "/>
<path style=" stroke:none;fill-rule:nonzero;fill:rgb(22.352941%,71.764706%,43.529412%);fill-opacity:1;" d="M 34.140625 7.738281 C 34.140625 7.464844 33.589844 7.246094 32.910156 7.246094 C 32.230469 7.246094 31.675781 7.464844 31.675781 7.738281 C 31.675781 8.011719 32.230469 8.230469 32.910156 8.230469 C 33.589844 8.230469 34.140625 8.011719 34.140625 7.738281 Z M 34.140625 7.738281 "/>
</g>
</svg>
