<?xml version="1.0" encoding="UTF-8"?>
<svg xmlns="http://www.w3.org/2000/svg" xmlns:xlink="http://www.w3.org/1999/xlink" width="45px" height="40px" viewBox="0 0 40 40" version="1.1">
<defs>
<linearGradient id="linear0" gradientUnits="userSpaceOnUse" x1="370.76001" y1="358.934998" x2="379.640015" y2="358.934998" gradientTransform="matrix(0.078125,0,0,-0.078125,0,40)">
<stop offset="0" style="stop-color:rgb(28.627451%,85.490196%,54.509804%);stop-opacity:1;"/>
<stop offset="1" style="stop-color:rgb(22.352941%,71.764706%,43.529412%);stop-opacity:1;"/>
</linearGradient>
<linearGradient id="linear1" gradientUnits="userSpaceOnUse" x1="335.25" y1="358.934998" x2="344.130005" y2="358.934998" gradientTransform="matrix(0.078125,0,0,-0.078125,0,40)">
<stop offset="0" style="stop-color:rgb(28.627451%,85.490196%,54.509804%);stop-opacity:1;"/>
<stop offset="1" style="stop-color:rgb(22.352941%,71.764706%,43.529412%);stop-opacity:1;"/>
</linearGradient>
<linearGradient id="linear2" gradientUnits="userSpaceOnUse" x1="67.739998" y1="272.919983" x2="306" y2="272.919983" gradientTransform="matrix(0.078125,0,0,-0.078125,0,40)">
<stop offset="0" style="stop-color:rgb(28.627451%,85.490196%,54.509804%);stop-opacity:1;"/>
<stop offset="1" style="stop-color:rgb(22.352941%,71.764706%,43.529412%);stop-opacity:1;"/>
</linearGradient>
<linearGradient id="linear3" gradientUnits="userSpaceOnUse" x1="101.089996" y1="189.529999" x2="272.640015" y2="189.529999" gradientTransform="matrix(0.078125,0,0,-0.078125,0,40)">
<stop offset="0" style="stop-color:rgb(86.27451%,88.627451%,88.235294%);stop-opacity:1;"/>
<stop offset="1" style="stop-color:rgb(75.294118%,80%,80.784314%);stop-opacity:1;"/>
</linearGradient>
</defs>
<g id="surface1">
<path style=" stroke:none;fill-rule:nonzero;fill:rgb(100%,90.980392%,67.843137%);fill-opacity:1;" d="M 21.09375 8.664062 C 19.886719 8.664062 18.90625 9.644531 18.90625 10.851562 L 18.90625 15.257812 L 27.925781 15.257812 L 27.925781 8.664062 Z M 21.09375 8.664062 "/>
<path style=" stroke:none;fill-rule:nonzero;fill:rgb(98.823529%,87.45098%,62.352941%);fill-opacity:1;" d="M 22.132812 8.664062 L 21.09375 8.664062 C 19.886719 8.664062 18.90625 9.644531 18.90625 10.851562 L 18.90625 15.257812 L 19.945312 15.257812 L 19.945312 10.847656 C 19.949219 9.640625 20.925781 8.664062 22.132812 8.664062 Z M 22.132812 8.664062 "/>
<path style=" stroke:none;fill-rule:nonzero;fill:rgb(100%,94.509804%,80.784314%);fill-opacity:1;" d="M 36.941406 10.847656 L 36.941406 15.253906 L 27.925781 15.253906 L 27.925781 8.664062 L 34.757812 8.664062 C 35.964844 8.664062 36.941406 9.640625 36.941406 10.847656 Z M 36.941406 10.847656 "/>
<path style=" stroke:none;fill-rule:nonzero;fill:rgb(88.235294%,53.333333%,20.784314%);fill-opacity:1;" d="M 18.90625 15.253906 L 18.90625 27.980469 C 18.90625 29.1875 19.886719 30.167969 21.09375 30.167969 L 27.925781 30.167969 L 27.925781 15.253906 Z M 18.90625 15.253906 "/>
<path style=" stroke:none;fill-rule:nonzero;fill:rgb(86.666667%,43.921569%,9.019608%);fill-opacity:1;" d="M 19.949219 27.980469 L 19.949219 15.253906 L 18.90625 15.253906 L 18.90625 27.980469 C 18.90625 29.1875 19.886719 30.167969 21.09375 30.167969 L 22.132812 30.167969 C 20.925781 30.167969 19.949219 29.1875 19.949219 27.980469 Z M 19.949219 27.980469 "/>
<path style=" stroke:none;fill-rule:nonzero;fill:rgb(97.254902%,67.45098%,27.843137%);fill-opacity:1;" d="M 36.941406 15.253906 L 36.941406 27.980469 C 36.941406 29.1875 35.960938 30.167969 34.753906 30.167969 L 27.925781 30.167969 L 27.925781 15.253906 Z M 36.941406 15.253906 "/>
<path style=" stroke:none;fill-rule:nonzero;fill:rgb(100%,90.980392%,67.843137%);fill-opacity:1;" d="M 28.964844 20.800781 L 29.660156 20.800781 L 29.660156 23.230469 L 28.964844 23.230469 Z M 28.964844 20.800781 "/>
<path style=" stroke:none;fill-rule:nonzero;fill:rgb(100%,90.980392%,67.843137%);fill-opacity:1;" d="M 26.191406 20.800781 L 26.886719 20.800781 L 26.886719 23.230469 L 26.191406 23.230469 Z M 26.191406 20.800781 "/>
<path style=" stroke:none;fill-rule:nonzero;fill:url(#linear0);" d="M 28.964844 11.089844 L 29.660156 11.089844 L 29.660156 12.824219 L 28.964844 12.824219 Z M 28.964844 11.089844 "/>
<path style=" stroke:none;fill-rule:nonzero;fill:url(#linear1);" d="M 26.191406 11.089844 L 26.886719 11.089844 L 26.886719 12.824219 L 26.191406 12.824219 Z M 26.191406 11.089844 "/>
<path style=" stroke:none;fill-rule:nonzero;fill:rgb(70.196078%,70.196078%,70.196078%);fill-opacity:1;" d="M 22.789062 30.164062 L 23.90625 30.164062 L 23.90625 31.335938 L 22.789062 31.335938 Z M 22.789062 30.164062 "/>
<path style=" stroke:none;fill-rule:nonzero;fill:rgb(70.196078%,70.196078%,70.196078%);fill-opacity:1;" d="M 5.664062 30.195312 L 6.78125 30.195312 L 6.78125 31.335938 L 5.664062 31.335938 Z M 5.664062 30.195312 "/>
<path style=" stroke:none;fill-rule:nonzero;fill:url(#linear2);" d="M 5.292969 23.144531 L 5.292969 16.675781 C 5.292969 14.769531 7.027344 14.210938 9.164062 14.210938 L 20.035156 14.210938 C 22.171875 14.210938 23.90625 14.769531 23.90625 16.675781 L 23.90625 23.144531 Z M 5.292969 23.144531 "/>
<path style=" stroke:none;fill-rule:nonzero;fill:rgb(22.352941%,71.764706%,43.529412%);fill-opacity:1;" d="M 10.28125 14.210938 L 9.164062 14.210938 C 7.027344 14.210938 5.292969 14.769531 5.292969 16.675781 L 5.292969 23.144531 L 6.40625 23.144531 L 6.40625 16.675781 C 6.40625 14.765625 8.140625 14.210938 10.28125 14.210938 Z M 10.28125 14.210938 "/>
<path style=" stroke:none;fill-rule:nonzero;fill:url(#linear3);" d="M 7.898438 23.144531 L 21.300781 23.144531 L 21.300781 27.242188 L 7.898438 27.242188 Z M 7.898438 23.144531 "/>
<path style=" stroke:none;fill-rule:nonzero;fill:rgb(70.196078%,70.196078%,70.196078%);fill-opacity:1;" d="M 9.015625 25.070312 L 9.015625 23.144531 L 7.898438 23.144531 L 7.898438 27.242188 L 21.300781 27.242188 L 21.300781 26.125 L 10.066406 26.125 C 9.484375 26.125 9.015625 25.652344 9.015625 25.070312 Z M 9.015625 25.070312 "/>
<path style=" stroke:none;fill-rule:nonzero;fill:rgb(22.352941%,71.764706%,43.529412%);fill-opacity:1;" d="M 21.300781 27.242188 L 21.300781 22.164062 C 21.34375 21.222656 22.136719 20.496094 23.074219 20.539062 L 24.367188 20.539062 C 25.304688 20.496094 26.097656 21.222656 26.140625 22.164062 L 26.140625 28.699219 C 26.105469 29.535156 25.402344 30.183594 24.566406 30.15625 C 20.347656 30.183594 8.839844 30.25 4.621094 30.199219 C 3.792969 30.222656 3.097656 29.574219 3.058594 28.742188 L 3.058594 22.164062 C 3.097656 21.230469 3.886719 20.503906 4.820312 20.539062 L 6.136719 20.539062 C 7.070312 20.503906 7.859375 21.230469 7.898438 22.164062 L 7.898438 27.242188 Z M 21.300781 27.242188 "/>
<path style=" stroke:none;fill-rule:nonzero;fill:rgb(20%,63.921569%,38.039216%);fill-opacity:1;" d="M 22.417969 22.160156 C 22.460938 21.222656 23.253906 20.5 24.191406 20.539062 L 23.074219 20.539062 C 22.136719 20.5 21.34375 21.222656 21.300781 22.160156 L 21.300781 27.238281 L 22.417969 27.238281 Z M 22.417969 22.160156 "/>
<path style=" stroke:none;fill-rule:nonzero;fill:rgb(20%,63.921569%,38.039216%);fill-opacity:1;" d="M 25.679688 29.410156 C 21.460938 29.4375 9.957031 29.503906 5.738281 29.453125 C 4.910156 29.476562 4.214844 28.828125 4.175781 27.996094 L 4.175781 21.417969 C 4.179688 21.121094 4.269531 20.828125 4.433594 20.582031 C 3.660156 20.714844 3.085938 21.378906 3.058594 22.164062 L 3.058594 28.742188 C 3.097656 29.574219 3.792969 30.222656 4.621094 30.199219 C 8.839844 30.253906 20.347656 30.183594 24.5625 30.15625 C 25.128906 30.160156 25.65625 29.867188 25.945312 29.382812 C 25.859375 29.398438 25.769531 29.410156 25.679688 29.410156 Z M 25.679688 29.410156 "/>
</g>
</svg>
