<?xml version="1.0" encoding="UTF-8"?>
<svg xmlns="http://www.w3.org/2000/svg" xmlns:xlink="http://www.w3.org/1999/xlink" width="45px" height="40px" viewBox="0 0 40 40" version="1.1">
<defs>
<linearGradient id="linear0" gradientUnits="userSpaceOnUse" x1="74.880005" y1="277.979981" x2="401.399994" y2="277.979981" gradientTransform="matrix(0.078125,0,0,-0.078125,0,40)">
<stop offset="0" style="stop-color:rgb(28.627451%,85.490196%,54.509804%);stop-opacity:1;"/>
<stop offset="1" style="stop-color:rgb(22.352941%,71.764706%,43.529412%);stop-opacity:1;"/>
</linearGradient>
<linearGradient id="linear1" gradientUnits="userSpaceOnUse" x1="105.279999" y1="178.954987" x2="239.550003" y2="178.954987" gradientTransform="matrix(0.078125,0,0,-0.078125,0,40)">
<stop offset="0" style="stop-color:rgb(86.27451%,88.627451%,88.235294%);stop-opacity:1;"/>
<stop offset="1" style="stop-color:rgb(75.294118%,80%,80.784314%);stop-opacity:1;"/>
</linearGradient>
<linearGradient id="linear2" gradientUnits="userSpaceOnUse" x1="182.25" y1="314.285004" x2="263.940002" y2="314.285004" gradientTransform="matrix(0.078125,0,0,-0.078125,0,40)">
<stop offset="0" style="stop-color:rgb(86.27451%,88.627451%,88.235294%);stop-opacity:1;"/>
<stop offset="1" style="stop-color:rgb(75.294118%,80%,80.784314%);stop-opacity:1;"/>
</linearGradient>
<linearGradient id="linear3" gradientUnits="userSpaceOnUse" x1="191.550003" y1="299.244995" x2="261.5" y2="299.244995" gradientTransform="matrix(0.078125,0,0,-0.078125,0,40)">
<stop offset="0" style="stop-color:rgb(28.627451%,85.490196%,54.509804%);stop-opacity:1;"/>
<stop offset="1" style="stop-color:rgb(22.352941%,71.764706%,43.529412%);stop-opacity:1;"/>
</linearGradient>
</defs>
<g id="surface1">
<path style=" stroke:none;fill-rule:nonzero;fill:url(#linear0);" d="M 31.359375 18.28125 C 31.359375 25.328125 25.648438 31.039062 18.605469 31.039062 C 11.558594 31.039062 5.851562 25.328125 5.851562 18.28125 C 5.851562 11.238281 11.558594 5.527344 18.605469 5.527344 C 25.648438 5.527344 31.359375 11.238281 31.359375 18.28125 Z M 31.359375 18.28125 "/>
<path style=" stroke:none;fill-rule:nonzero;fill:rgb(20%,63.921569%,38.039216%);fill-opacity:1;" d="M 10.289062 27.910156 L 19.949219 33.488281 L 18.714844 34.199219 L 20.742188 34.460938 C 20.972656 34.496094 21.207031 34.449219 21.40625 34.328125 L 33.617188 27.277344 C 34.125 26.984375 34.296875 26.335938 34.003906 25.828125 C 33.910156 25.664062 33.777344 25.53125 33.617188 25.4375 L 24.09375 19.941406 Z M 10.289062 27.910156 "/>
<path style=" stroke:none;fill-rule:nonzero;fill:rgb(70.196078%,70.196078%,70.196078%);fill-opacity:1;" d="M 32.101562 16.164062 L 32.101562 26.46875 L 18.714844 34.199219 L 8.226562 28.144531 L 8.226562 17.839844 L 21.613281 10.109375 Z M 32.101562 16.164062 "/>
<path style=" stroke:none;fill-rule:nonzero;fill:url(#linear1);" d="M 18.714844 34.199219 L 8.226562 28.144531 L 8.226562 17.839844 L 18.714844 23.894531 Z M 18.714844 34.199219 "/>
<path style=" stroke:none;fill-rule:nonzero;fill:rgb(96.078431%,96.078431%,96.078431%);fill-opacity:1;" d="M 8.226562 17.839844 L 18.714844 23.894531 L 32.101562 16.164062 L 21.613281 10.109375 Z M 8.226562 17.839844 "/>
<path style=" stroke:none;fill-rule:nonzero;fill:rgb(96.078431%,96.078431%,96.078431%);fill-opacity:1;" d="M 20.292969 25.574219 L 26.203125 22.164062 L 22.074219 26.425781 Z M 20.292969 25.574219 "/>
<path style=" stroke:none;fill-rule:nonzero;fill:rgb(96.078431%,96.078431%,96.078431%);fill-opacity:1;" d="M 26.261719 27.707031 L 31.386719 24.75 L 31.632812 25.675781 Z M 26.261719 27.707031 "/>
<path style=" stroke:none;fill-rule:nonzero;fill:rgb(90.196078%,90.196078%,90.196078%);fill-opacity:1;" d="M 9.464844 26.574219 L 14.355469 29.398438 L 14.28125 29.523438 L 9.390625 26.699219 Z M 18.871094 27.828125 L 15.457031 25.859375 L 15.53125 25.734375 L 18.945312 27.703125 L 18.871094 27.832031 Z M 15.683594 30.328125 L 14.730469 29.78125 L 14.804688 29.65625 L 15.753906 30.203125 Z M 15.683594 30.328125 "/>
<path style=" stroke:none;fill-rule:nonzero;fill:rgb(90.196078%,90.196078%,90.196078%);fill-opacity:1;" d="M 10.65625 21.523438 L 10.222656 21.273438 L 10.296875 21.148438 L 10.726562 21.398438 Z M 8.570312 20.152344 L 10.035156 20.996094 L 9.964844 21.125 L 8.496094 20.277344 Z M 8.570312 20.152344 "/>
<path style=" stroke:none;fill-rule:nonzero;fill:rgb(100%,100%,100%);fill-opacity:1;" d="M 6.605469 16.667969 L 17.605469 21.738281 C 22.359375 19.648438 26.28125 16.3125 29.75 12.136719 L 18.75 7.070312 C 15.882812 11.363281 10.980469 14.617188 6.605469 16.667969 Z M 6.605469 16.667969 "/>
<path style=" stroke:none;fill-rule:nonzero;fill:rgb(70.196078%,70.196078%,70.196078%);fill-opacity:1;" d="M 19.019531 8.457031 L 22.089844 9.769531 L 22.007812 9.96875 L 18.933594 8.65625 Z M 19.019531 8.457031 "/>
<path style=" stroke:none;fill-rule:nonzero;fill:rgb(70.196078%,70.196078%,70.196078%);fill-opacity:1;" d="M 18.753906 9.058594 L 20.632812 9.863281 L 20.546875 10.0625 L 18.667969 9.257812 Z M 18.753906 9.058594 "/>
<path style=" stroke:none;fill-rule:nonzero;fill:url(#linear2);" d="M 17.429688 13.09375 C 19.191406 13.09375 20.621094 14.148438 20.621094 15.445312 C 20.621094 16.746094 19.191406 17.800781 17.429688 17.800781 C 15.667969 17.800781 14.238281 16.746094 14.238281 15.445312 C 14.238281 14.148438 15.667969 13.09375 17.429688 13.09375 Z M 17.429688 13.09375 "/>
<path style=" stroke:none;fill-rule:nonzero;fill:url(#linear3);" d="M 20.429688 16.25 C 19.984375 17.152344 18.808594 17.796875 17.429688 17.796875 C 16.4375 17.796875 15.550781 17.464844 14.964844 16.9375 L 17.429688 15.445312 Z M 20.429688 16.25 "/>
<path style=" stroke:none;fill-rule:nonzero;fill:rgb(20%,63.921569%,38.039216%);fill-opacity:1;" d="M 20.1875 14.261719 C 20.460938 14.597656 20.613281 15.015625 20.621094 15.445312 C 20.621094 15.726562 20.554688 16 20.429688 16.25 L 17.429688 15.445312 Z M 20.1875 14.261719 "/>
</g>
</svg>
