<?xml version="1.0" encoding="UTF-8"?>
<svg xmlns="http://www.w3.org/2000/svg" xmlns:xlink="http://www.w3.org/1999/xlink" width="45px" height="40px" viewBox="0 0 40 40" version="1.1">
<defs>
<linearGradient id="linear0" gradientUnits="userSpaceOnUse" x1="311.110016" y1="218.124954" x2="421.370026" y2="218.124954" gradientTransform="matrix(0.078125,0,0,-0.078125,0,40)">
<stop offset="0" style="stop-color:rgb(28.627451%,85.490196%,54.509804%);stop-opacity:1;"/>
<stop offset="1" style="stop-color:rgb(22.352941%,71.764706%,43.529412%);stop-opacity:1;"/>
</linearGradient>
<linearGradient id="linear1" gradientUnits="userSpaceOnUse" x1="359.320007" y1="290.440002" x2="420.320007" y2="290.440002" gradientTransform="matrix(0.078125,0,0,-0.078125,0,40)">
<stop offset="0" style="stop-color:rgb(28.627451%,85.490196%,54.509804%);stop-opacity:1;"/>
<stop offset="1" style="stop-color:rgb(22.352941%,71.764706%,43.529412%);stop-opacity:1;"/>
</linearGradient>
<linearGradient id="linear2" gradientUnits="userSpaceOnUse" x1="359.320007" y1="262.890015" x2="421.309998" y2="262.890015" gradientTransform="matrix(0.078125,0,0,-0.078125,0,40)">
<stop offset="0" style="stop-color:rgb(28.627451%,85.490196%,54.509804%);stop-opacity:1;"/>
<stop offset="1" style="stop-color:rgb(22.352941%,71.764706%,43.529412%);stop-opacity:1;"/>
</linearGradient>
<linearGradient id="linear3" gradientUnits="userSpaceOnUse" x1="359.299988" y1="235.335022" x2="421.299988" y2="235.335022" gradientTransform="matrix(0.078125,0,0,-0.078125,0,40)">
<stop offset="0" style="stop-color:rgb(28.627451%,85.490196%,54.509804%);stop-opacity:1;"/>
<stop offset="1" style="stop-color:rgb(22.352941%,71.764706%,43.529412%);stop-opacity:1;"/>
</linearGradient>
<linearGradient id="linear4" gradientUnits="userSpaceOnUse" x1="359.320007" y1="166.460007" x2="421.309998" y2="166.460007" gradientTransform="matrix(0.078125,0,0,-0.078125,0,40)">
<stop offset="0" style="stop-color:rgb(28.627451%,85.490196%,54.509804%);stop-opacity:1;"/>
<stop offset="1" style="stop-color:rgb(22.352941%,71.764706%,43.529412%);stop-opacity:1;"/>
</linearGradient>
<linearGradient id="linear5" gradientUnits="userSpaceOnUse" x1="359.320007" y1="138.900009" x2="421.309998" y2="138.900009" gradientTransform="matrix(0.078125,0,0,-0.078125,0,40)">
<stop offset="0" style="stop-color:rgb(28.627451%,85.490196%,54.509804%);stop-opacity:1;"/>
<stop offset="1" style="stop-color:rgb(22.352941%,71.764706%,43.529412%);stop-opacity:1;"/>
</linearGradient>
<linearGradient id="linear6" gradientUnits="userSpaceOnUse" x1="359.320007" y1="111.349991" x2="421.309998" y2="111.349991" gradientTransform="matrix(0.078125,0,0,-0.078125,0,40)">
<stop offset="0" style="stop-color:rgb(28.627451%,85.490196%,54.509804%);stop-opacity:1;"/>
<stop offset="1" style="stop-color:rgb(22.352941%,71.764706%,43.529412%);stop-opacity:1;"/>
</linearGradient>
<linearGradient id="linear7" gradientUnits="userSpaceOnUse" x1="90.690002" y1="221.565002" x2="269.770019" y2="221.565002" gradientTransform="matrix(0.078125,0,0,-0.078125,0,40)">
<stop offset="0" style="stop-color:rgb(28.627451%,85.490196%,54.509804%);stop-opacity:1;"/>
<stop offset="1" style="stop-color:rgb(22.352941%,71.764706%,43.529412%);stop-opacity:1;"/>
</linearGradient>
</defs>
<g id="surface1">
<path style=" stroke:none;fill-rule:nonzero;fill:rgb(28.235294%,67.843137%,85.098039%);fill-opacity:1;" d="M 24.796875 35.148438 C 25.097656 35.441406 25.5 35.605469 25.917969 35.605469 L 26.902344 35.605469 C 26.617188 35.605469 26.34375 35.492188 26.140625 35.292969 C 25.785156 34.933594 25.222656 34.871094 24.796875 35.148438 Z M 24.796875 35.148438 "/>
<path style=" stroke:none;fill-rule:nonzero;fill:url(#linear0);" d="M 30.222656 13.003906 L 30.222656 10.3125 L 26.996094 10.3125 L 26.996094 13.003906 L 25.511719 15.085938 C 24.730469 16.179688 24.308594 17.492188 24.308594 18.835938 L 24.308594 21.070312 C 24.308594 21.429688 24.367188 21.78125 24.476562 22.121094 L 24.675781 22.714844 C 24.789062 23.054688 24.84375 23.410156 24.84375 23.765625 C 24.84375 24.125 24.785156 24.476562 24.671875 24.816406 L 24.476562 25.410156 C 24.363281 25.746094 24.304688 26.101562 24.304688 26.457031 L 24.304688 33.992188 C 24.304688 34.882812 25.027344 35.605469 25.917969 35.605469 C 25.917969 35.605469 25.917969 35.605469 25.921875 35.605469 L 27.09375 35.605469 C 27.378906 35.605469 27.652344 35.492188 27.851562 35.292969 C 28.273438 34.871094 28.957031 34.871094 29.375 35.292969 C 29.578125 35.492188 29.851562 35.605469 30.136719 35.605469 L 31.304688 35.605469 C 32.195312 35.605469 32.917969 34.882812 32.917969 33.992188 L 32.917969 26.457031 C 32.917969 26.101562 32.863281 25.746094 32.75 25.410156 L 32.550781 24.816406 C 32.4375 24.476562 32.382812 24.121094 32.382812 23.765625 C 32.382812 23.410156 32.4375 23.054688 32.550781 22.71875 L 32.75 22.125 C 32.863281 21.785156 32.917969 21.433594 32.917969 21.078125 L 32.917969 18.839844 C 32.917969 17.496094 32.5 16.183594 31.714844 15.089844 Z M 30.222656 13.003906 "/>
<path style=" stroke:none;fill-rule:nonzero;fill:rgb(22.352941%,71.764706%,43.529412%);fill-opacity:1;" d="M 32.746094 22.125 C 32.855469 21.785156 32.914062 21.433594 32.914062 21.078125 L 32.914062 18.839844 C 32.914062 17.496094 32.492188 16.183594 31.710938 15.089844 L 30.226562 13.007812 L 30.226562 10.3125 L 26.996094 10.3125 L 26.996094 13.003906 L 28.480469 15.085938 C 29.261719 16.179688 29.679688 17.492188 29.683594 18.835938 L 29.683594 21.070312 C 29.683594 21.429688 29.625 21.78125 29.511719 22.121094 L 29.3125 22.714844 C 29.085938 23.394531 29.085938 24.128906 29.3125 24.8125 L 29.511719 25.402344 C 29.628906 25.742188 29.6875 26.097656 29.6875 26.457031 L 29.6875 33.992188 C 29.6875 34.425781 29.511719 34.84375 29.195312 35.148438 C 29.261719 35.1875 29.320312 35.238281 29.371094 35.289062 C 29.574219 35.492188 29.847656 35.601562 30.132812 35.601562 L 31.300781 35.601562 C 32.191406 35.601562 32.914062 34.878906 32.917969 33.988281 L 32.917969 26.457031 C 32.917969 26.101562 32.859375 25.746094 32.746094 25.410156 L 32.546875 24.816406 C 32.320312 24.136719 32.320312 23.398438 32.546875 22.71875 Z M 32.746094 22.125 "/>
<path style=" stroke:none;fill-rule:nonzero;fill:url(#linear1);" d="M 28.070312 16.769531 L 28.070312 17.847656 L 32.835938 17.847656 C 32.78125 17.480469 32.691406 17.121094 32.570312 16.769531 Z M 28.070312 16.769531 "/>
<path style=" stroke:none;fill-rule:nonzero;fill:url(#linear2);" d="M 28.070312 18.921875 L 32.914062 18.921875 L 32.914062 20 L 28.070312 20 Z M 28.070312 18.921875 "/>
<path style=" stroke:none;fill-rule:nonzero;fill:url(#linear3);" d="M 28.070312 22.152344 L 32.734375 22.152344 L 32.742188 22.125 C 32.855469 21.785156 32.914062 21.433594 32.914062 21.078125 L 28.070312 21.078125 Z M 28.070312 22.152344 "/>
<path style=" stroke:none;fill-rule:nonzero;fill:url(#linear4);" d="M 28.070312 26.457031 L 32.914062 26.457031 L 32.914062 27.535156 L 28.070312 27.535156 Z M 28.070312 26.457031 "/>
<path style=" stroke:none;fill-rule:nonzero;fill:url(#linear5);" d="M 28.070312 28.609375 L 32.914062 28.609375 L 32.914062 29.6875 L 28.070312 29.6875 Z M 28.070312 28.609375 "/>
<path style=" stroke:none;fill-rule:nonzero;fill:url(#linear6);" d="M 28.070312 30.761719 L 32.914062 30.761719 L 32.914062 31.839844 L 28.070312 31.839844 Z M 28.070312 30.761719 "/>
<path style=" stroke:none;fill-rule:nonzero;fill:rgb(22.352941%,71.764706%,43.529412%);fill-opacity:1;" d="M 24.304688 21.078125 C 24.304688 21.433594 24.363281 21.785156 24.476562 22.125 L 24.671875 22.71875 C 24.898438 23.398438 24.898438 24.136719 24.671875 24.816406 L 24.476562 25.410156 C 24.363281 25.746094 24.304688 26.101562 24.304688 26.457031 L 24.304688 33.992188 C 24.304688 34.425781 24.484375 34.84375 24.796875 35.148438 C 25.222656 34.871094 25.785156 34.929688 26.140625 35.289062 C 26.289062 35.4375 26.476562 35.539062 26.679688 35.582031 C 27.175781 35.476562 27.53125 35.039062 27.535156 34.53125 L 27.535156 32.375 L 26.996094 31.300781 L 27.535156 30.222656 L 27.535156 29.148438 L 26.996094 28.070312 L 27.535156 26.996094 L 27.535156 25.917969 L 26.996094 24.84375 L 27.535156 23.765625 L 27.535156 21.203125 C 27.535156 20.796875 27.304688 20.421875 26.9375 20.242188 L 25.382812 19.460938 L 25.382812 17.308594 L 24.492188 17.308594 C 24.367188 17.808594 24.304688 18.324219 24.304688 18.839844 Z M 24.304688 21.078125 "/>
<path style=" stroke:none;fill-rule:nonzero;fill:rgb(30.196078%,71.764706%,89.803922%);fill-opacity:1;" d="M 16.234375 9.039062 L 16.234375 4.394531 L 11.929688 4.394531 L 11.929688 9.039062 C 9.042969 9.972656 7.085938 12.660156 7.085938 15.695312 L 7.085938 31.972656 C 7.082031 33.980469 8.710938 35.605469 10.714844 35.605469 C 11.5 35.605469 12.265625 35.351562 12.894531 34.878906 C 13.597656 34.351562 14.5625 34.351562 15.265625 34.878906 C 16.867188 36.082031 19.144531 35.757812 20.347656 34.152344 C 20.820312 33.523438 21.074219 32.757812 21.074219 31.972656 L 21.074219 15.695312 C 21.074219 12.660156 19.121094 9.972656 16.234375 9.039062 Z M 16.234375 9.039062 "/>
<path style=" stroke:none;fill-rule:nonzero;fill:rgb(47.45098%,77.647059%,90.980392%);fill-opacity:1;" d="M 11.6875 12.117188 L 11.09375 11.21875 C 11.503906 10.945312 11.953125 10.730469 12.421875 10.578125 L 12.753906 11.601562 C 12.375 11.722656 12.019531 11.894531 11.6875 12.117188 Z M 11.6875 12.117188 "/>
<path style=" stroke:none;fill-rule:nonzero;fill:rgb(47.45098%,77.647059%,90.980392%);fill-opacity:1;" d="M 9.800781 15.214844 L 8.730469 15.097656 C 8.863281 13.921875 9.378906 12.824219 10.195312 11.96875 L 10.972656 12.714844 C 10.316406 13.398438 9.90625 14.277344 9.800781 15.214844 Z M 9.800781 15.214844 "/>
<path style=" stroke:none;fill-rule:nonzero;fill:rgb(47.45098%,77.647059%,90.980392%);fill-opacity:1;" d="M 10.851562 6.546875 L 17.308594 6.546875 L 17.308594 7.625 L 10.851562 7.625 Z M 10.851562 6.546875 "/>
<path style=" stroke:none;fill-rule:nonzero;fill:url(#linear7);" d="M 7.085938 16.769531 L 21.074219 16.769531 L 21.074219 28.609375 L 7.085938 28.609375 Z M 7.085938 16.769531 "/>
<path style=" stroke:none;fill-rule:nonzero;fill:rgb(22.352941%,71.764706%,43.529412%);fill-opacity:1;" d="M 8.699219 18.386719 L 9.777344 18.386719 L 9.777344 19.460938 L 8.699219 19.460938 Z M 8.699219 18.386719 "/>
<path style=" stroke:none;fill-rule:nonzero;fill:rgb(22.352941%,71.764706%,43.529412%);fill-opacity:1;" d="M 8.699219 20.539062 L 9.777344 20.539062 L 9.777344 25.382812 L 8.699219 25.382812 Z M 8.699219 20.539062 "/>
<path style=" stroke:none;fill-rule:nonzero;fill:rgb(28.235294%,67.843137%,85.098039%);fill-opacity:1;" d="M 11.929688 7.625 L 16.234375 7.625 L 16.234375 9.238281 L 11.929688 9.238281 Z M 11.929688 7.625 "/>
<path style=" stroke:none;fill-rule:nonzero;fill:rgb(28.235294%,67.843137%,85.098039%);fill-opacity:1;" d="M 7.152344 32.671875 C 7.539062 34.640625 9.445312 35.921875 11.414062 35.539062 C 11.953125 35.433594 12.457031 35.207031 12.898438 34.878906 C 13.597656 34.351562 14.5625 34.351562 15.265625 34.878906 C 16.871094 36.082031 19.144531 35.757812 20.351562 34.152344 C 20.820312 33.523438 21.078125 32.757812 21.078125 31.972656 L 21.078125 28.613281 L 11.609375 28.613281 C 10.257812 30.109375 8.765625 31.464844 7.152344 32.671875 Z M 7.152344 32.671875 "/>
<path style=" stroke:none;fill-rule:nonzero;fill:rgb(28.235294%,67.843137%,85.098039%);fill-opacity:1;" d="M 20.082031 12.109375 C 19.730469 13.691406 19.28125 15.246094 18.730469 16.769531 L 21.074219 16.769531 L 21.074219 15.695312 C 21.074219 14.433594 20.734375 13.191406 20.082031 12.109375 Z M 20.082031 12.109375 "/>
<path style=" stroke:none;fill-rule:nonzero;fill:rgb(22.352941%,71.764706%,43.529412%);fill-opacity:1;" d="M 11.609375 28.609375 L 21.078125 28.609375 L 21.078125 16.769531 L 18.734375 16.769531 C 17.15625 21.144531 14.734375 25.167969 11.609375 28.609375 Z M 11.609375 28.609375 "/>
<path style=" stroke:none;fill-rule:nonzero;fill:rgb(37.647059%,81.960784%,87.843137%);fill-opacity:1;" d="M 24.304688 19.460938 L 24.304688 17.308594 L 21.078125 17.308594 L 21.078125 19.460938 L 19.519531 20.242188 C 19.152344 20.425781 18.921875 20.796875 18.921875 21.207031 L 18.921875 23.769531 L 19.460938 24.84375 L 18.921875 25.921875 L 18.921875 26.996094 L 19.460938 28.074219 L 18.921875 29.148438 L 18.921875 30.226562 L 19.460938 31.300781 L 18.921875 32.378906 L 18.921875 34.53125 C 18.925781 35.125 19.40625 35.605469 20 35.605469 L 25.382812 35.605469 C 25.976562 35.605469 26.457031 35.125 26.457031 34.53125 L 26.457031 32.375 L 25.917969 31.300781 L 26.457031 30.222656 L 26.457031 29.148438 L 25.917969 28.070312 L 26.457031 26.996094 L 26.457031 25.917969 L 25.917969 24.84375 L 26.457031 23.765625 L 26.457031 21.203125 C 26.457031 20.792969 26.226562 20.421875 25.859375 20.242188 Z M 24.304688 19.460938 "/>
<path style=" stroke:none;fill-rule:nonzero;fill:rgb(35.294118%,77.647059%,83.137255%);fill-opacity:1;" d="M 26.457031 21.203125 C 26.457031 20.792969 26.226562 20.421875 25.859375 20.242188 L 24.300781 19.460938 L 24.300781 17.308594 L 22.152344 17.308594 L 22.152344 19.460938 L 23.710938 20.242188 C 24.074219 20.425781 24.304688 20.796875 24.304688 21.207031 L 24.304688 23.769531 L 23.765625 24.84375 L 24.304688 25.921875 L 24.304688 26.996094 L 23.765625 28.074219 L 24.304688 29.148438 L 24.304688 30.226562 L 23.765625 31.300781 L 24.304688 32.378906 L 24.304688 34.53125 C 24.304688 35.125 23.824219 35.605469 23.230469 35.609375 L 25.382812 35.609375 C 25.976562 35.609375 26.457031 35.125 26.457031 34.53125 L 26.457031 32.375 L 25.917969 31.300781 L 26.457031 30.222656 L 26.457031 29.148438 L 25.917969 28.070312 L 26.457031 26.996094 L 26.457031 25.917969 L 25.917969 24.84375 L 26.457031 23.765625 Z M 26.457031 21.203125 "/>
<path style=" stroke:none;fill-rule:nonzero;fill:rgb(24.705882%,71.764706%,78.039216%);fill-opacity:1;" d="M 21.078125 24.304688 L 25.917969 24.304688 L 25.917969 25.382812 L 21.078125 25.382812 Z M 21.078125 24.304688 "/>
<path style=" stroke:none;fill-rule:nonzero;fill:rgb(24.705882%,71.764706%,78.039216%);fill-opacity:1;" d="M 21.078125 27.535156 L 25.917969 27.535156 L 25.917969 28.609375 L 21.078125 28.609375 Z M 21.078125 27.535156 "/>
<path style=" stroke:none;fill-rule:nonzero;fill:rgb(24.705882%,71.764706%,78.039216%);fill-opacity:1;" d="M 21.078125 30.761719 L 25.917969 30.761719 L 25.917969 31.839844 L 21.078125 31.839844 Z M 21.078125 30.761719 "/>
<path style=" stroke:none;fill-rule:nonzero;fill:rgb(62.352941%,89.411765%,92.941176%);fill-opacity:1;" d="M 20.539062 21.613281 L 21.613281 21.613281 L 21.613281 23.226562 L 20.539062 23.226562 Z M 20.539062 21.613281 "/>
<path style=" stroke:none;fill-rule:nonzero;fill:rgb(24.705882%,71.764706%,78.039216%);fill-opacity:1;" d="M 24.304688 17.308594 C 24.304688 16.714844 23.582031 16.234375 22.691406 16.234375 C 21.800781 16.234375 21.078125 16.714844 21.078125 17.308594 C 21.078125 17.902344 21.800781 18.386719 22.691406 18.386719 C 23.582031 18.386719 24.304688 17.902344 24.304688 17.308594 Z M 24.304688 17.308594 "/>
</g>
</svg>
