<?xml version="1.0" encoding="UTF-8"?>
<svg xmlns="http://www.w3.org/2000/svg" xmlns:xlink="http://www.w3.org/1999/xlink" width="45px" height="40px" viewBox="0 0 40 40" version="1.1">
<defs>
<linearGradient id="linear0" gradientUnits="userSpaceOnUse" x1="41.18" y1="126.619995" x2="91.239998" y2="126.619995" gradientTransform="matrix(0.078125,0,0,-0.078125,0,40)">
<stop offset="0" style="stop-color:rgb(28.627451%,85.490196%,54.509804%);stop-opacity:1;"/>
<stop offset="1" style="stop-color:rgb(22.352941%,71.764706%,43.529412%);stop-opacity:1;"/>
</linearGradient>
<linearGradient id="linear1" gradientUnits="userSpaceOnUse" x1="153.820007" y1="126.619995" x2="203.880005" y2="126.619995" gradientTransform="matrix(0.078125,0,0,-0.078125,0,40)">
<stop offset="0" style="stop-color:rgb(28.627451%,85.490196%,54.509804%);stop-opacity:1;"/>
<stop offset="1" style="stop-color:rgb(22.352941%,71.764706%,43.529412%);stop-opacity:1;"/>
</linearGradient>
<linearGradient id="linear2" gradientUnits="userSpaceOnUse" x1="122.534996" y1="357.350006" x2="122.534996" y2="137.529999" gradientTransform="matrix(0.078125,0,0,-0.078125,0,40)">
<stop offset="0" style="stop-color:rgb(86.27451%,88.627451%,88.235294%);stop-opacity:1;"/>
<stop offset="1" style="stop-color:rgb(75.294118%,80%,80.784314%);stop-opacity:1;"/>
</linearGradient>
<filter id="alpha" filterUnits="objectBoundingBox" x="0%" y="0%" width="100%" height="100%">
  <feColorMatrix type="matrix" in="SourceGraphic" values="0 0 0 0 1 0 0 0 0 1 0 0 0 0 1 0 0 0 1 0"/>
</filter>
<mask id="mask0">
  <g filter="url(#alpha)">
<rect x="0" y="0" width="40" height="40" style="fill:rgb(0%,0%,0%);fill-opacity:0.701961;stroke:none;"/>
  </g>
</mask>
<linearGradient id="linear3" gradientUnits="userSpaceOnUse" x1="250.389999" y1="256.23999" x2="154.320007" y2="256.23999" gradientTransform="matrix(0.078125,0,0,-0.078125,0,40)">
<stop offset="0" style="stop-color:rgb(0%,0%,0%);stop-opacity:1;"/>
<stop offset="1" style="stop-color:rgb(0%,0%,0%);stop-opacity:0;"/>
</linearGradient>
<clipPath id="clip1">
  <rect x="0" y="0" width="40" height="40"/>
</clipPath>
<g id="surface5" clip-path="url(#clip1)">
<path style=" stroke:none;fill-rule:nonzero;fill:url(#linear3);" d="M 15.996094 10.355469 L 11.234375 17.925781 L 12.941406 29.609375 L 16.472656 29.609375 L 16.753906 10.355469 Z M 15.996094 10.355469 "/>
</g>
<linearGradient id="linear4" gradientUnits="userSpaceOnUse" x1="324.5" y1="406.059998" x2="324.5" y2="98.429993" gradientTransform="matrix(0.078125,0,0,-0.078125,0,40)">
<stop offset="0" style="stop-color:rgb(28.627451%,85.490196%,54.509804%);stop-opacity:1;"/>
<stop offset="1" style="stop-color:rgb(22.352941%,71.764706%,43.529412%);stop-opacity:1;"/>
</linearGradient>
<linearGradient id="linear5" gradientUnits="userSpaceOnUse" x1="324.484985" y1="178.980011" x2="324.484985" y2="96.910004" gradientTransform="matrix(0.078125,0,0,-0.078125,0,40)">
<stop offset="0" style="stop-color:rgb(12.54902%,72.156863%,13.72549%);stop-opacity:0;"/>
<stop offset="1" style="stop-color:rgb(22.352941%,71.764706%,43.529412%);stop-opacity:1;"/>
</linearGradient>
</defs>
<g id="surface1">
<path style=" stroke:none;fill-rule:nonzero;fill:url(#linear0);" d="M 3.21875 29.132812 L 7.128906 29.132812 L 7.128906 31.007812 C 7.128906 31.050781 7.09375 31.085938 7.050781 31.085938 L 3.296875 31.085938 C 3.253906 31.085938 3.21875 31.050781 3.21875 31.007812 Z M 3.21875 29.132812 "/>
<path style=" stroke:none;fill-rule:nonzero;fill:url(#linear1);" d="M 12.015625 29.132812 L 15.929688 29.132812 L 15.929688 31.007812 C 15.929688 31.050781 15.894531 31.085938 15.851562 31.085938 L 12.09375 31.085938 C 12.050781 31.085938 12.015625 31.050781 12.015625 31.007812 Z M 12.015625 29.132812 "/>
<path style=" stroke:none;fill-rule:nonzero;fill:rgb(70.196078%,70.196078%,70.196078%);fill-opacity:1;" d="M 3.296875 9.578125 L 15.851562 9.578125 C 15.894531 9.578125 15.929688 9.613281 15.929688 9.65625 L 15.929688 12.511719 L 3.21875 12.511719 L 3.21875 9.65625 C 3.21875 9.613281 3.253906 9.578125 3.296875 9.578125 Z M 3.296875 9.578125 "/>
<path style=" stroke:none;fill-rule:nonzero;fill:rgb(70.196078%,70.196078%,70.196078%);fill-opacity:1;" d="M 3.21875 10.066406 L 15.929688 10.066406 L 15.929688 12.507812 L 3.21875 12.507812 Z M 3.21875 10.066406 "/>
<path style=" stroke:none;fill-rule:nonzero;fill:url(#linear2);" d="M 15.929688 12.019531 L 3.21875 12.019531 C 3.21875 12.019531 2.238281 13.488281 2.238281 15.933594 L 2.707031 29.148438 C 2.71875 29.410156 2.933594 29.617188 3.195312 29.617188 L 7.199219 29.617188 C 7.441406 29.617188 7.644531 29.441406 7.683594 29.207031 L 9.574219 17.398438 L 11.460938 29.207031 C 11.5 29.445312 11.703125 29.621094 11.945312 29.621094 L 15.945312 29.621094 C 16.207031 29.621094 16.421875 29.414062 16.433594 29.152344 L 16.90625 15.933594 C 16.90625 13.488281 15.929688 12.019531 15.929688 12.019531 Z M 15.929688 12.019531 "/>
<path style=" stroke:none;fill-rule:nonzero;fill:rgb(22.352941%,71.764706%,43.529412%);fill-opacity:1;" d="M 7.617188 14.953125 C 7.574219 14.953125 7.527344 14.949219 7.484375 14.933594 C 7.222656 14.859375 7.074219 14.589844 7.148438 14.332031 L 8.125 10.910156 C 8.21875 10.65625 8.5 10.527344 8.753906 10.621094 C 8.980469 10.703125 9.109375 10.941406 9.0625 11.175781 L 8.085938 14.597656 C 8.023438 14.808594 7.835938 14.953125 7.617188 14.953125 Z M 7.617188 14.953125 "/>
<path style=" stroke:none;fill-rule:nonzero;fill:rgb(22.352941%,71.764706%,43.529412%);fill-opacity:1;" d="M 11.527344 14.953125 C 11.308594 14.953125 11.121094 14.808594 11.058594 14.597656 L 10.078125 11.175781 C 9.984375 10.925781 10.113281 10.644531 10.367188 10.546875 C 10.621094 10.453125 10.902344 10.582031 10.996094 10.835938 C 11.003906 10.859375 11.011719 10.882812 11.015625 10.910156 L 11.992188 14.332031 C 12.066406 14.589844 11.917969 14.859375 11.65625 14.933594 C 11.613281 14.945312 11.570312 14.953125 11.527344 14.953125 Z M 11.527344 14.953125 "/>
<use xlink:href="#surface5" mask="url(#mask0)"/>
<path style=" stroke:none;fill-rule:nonzero;fill:rgb(22.352941%,71.764706%,43.529412%);fill-opacity:1;" d="M 25.351562 8.738281 C 24.386719 8.738281 23.472656 8.328125 22.832031 7.609375 L 21.964844 7.609375 L 21.964844 13.25 L 28.734375 13.25 L 28.734375 7.609375 L 27.867188 7.609375 C 27.226562 8.328125 26.3125 8.738281 25.351562 8.738281 Z M 25.351562 8.738281 "/>
<path style=" stroke:none;fill-rule:nonzero;fill:rgb(22.352941%,71.764706%,43.529412%);fill-opacity:1;" d="M 16.328125 9.863281 C 16.328125 9.863281 12.945312 14.742188 12.945312 16.632812 C 12.945312 18.890625 14.070312 29.609375 14.070312 29.609375 L 17.453125 29.609375 L 17.453125 18.890625 Z M 16.328125 9.863281 "/>
<path style=" stroke:none;fill-rule:nonzero;fill:rgb(22.352941%,71.764706%,43.529412%);fill-opacity:1;" d="M 34.375 9.863281 C 34.375 9.863281 37.757812 14.742188 37.757812 16.632812 C 37.757812 18.890625 36.632812 29.609375 36.632812 29.609375 L 33.246094 29.609375 L 33.246094 18.890625 Z M 34.375 9.863281 "/>
<path style=" stroke:none;fill-rule:nonzero;fill:url(#linear4);" d="M 34.375 9.828125 L 30.425781 7.570312 L 28.734375 7.570312 C 28.707031 9.441406 27.167969 10.933594 25.300781 10.90625 C 23.46875 10.875 21.992188 9.402344 21.964844 7.570312 L 20.273438 7.570312 L 16.328125 9.828125 L 17.453125 18.851562 L 17.453125 31.261719 C 17.453125 31.886719 17.957031 32.390625 18.582031 32.390625 L 32.121094 32.390625 C 32.742188 32.390625 33.246094 31.886719 33.246094 31.261719 L 33.246094 18.851562 Z M 34.375 9.828125 "/>
<path style=" stroke:none;fill-rule:nonzero;fill:url(#linear5);" d="M 17.453125 25.09375 L 17.453125 31.300781 C 17.453125 31.921875 17.957031 32.429688 18.582031 32.429688 L 32.121094 32.429688 C 32.742188 32.429688 33.246094 31.921875 33.246094 31.300781 L 33.246094 25.09375 Z M 17.453125 25.09375 "/>
<path style=" stroke:none;fill-rule:nonzero;fill:rgb(100%,100%,100%);fill-opacity:1;" d="M 25.71875 22.851562 C 25.539062 23.164062 25.316406 23.347656 25.121094 23.347656 C 24.957031 23.347656 24.769531 23.210938 24.605469 22.972656 L 25.289062 22.578125 L 23.4375 22.085938 L 22.945312 23.9375 L 23.640625 23.53125 C 24.023438 24.125 24.558594 24.464844 25.125 24.464844 C 25.734375 24.464844 26.296875 24.078125 26.6875 23.410156 L 28.0625 21.035156 L 27.09375 20.476562 Z M 25.71875 22.851562 "/>
<path style=" stroke:none;fill-rule:nonzero;fill:rgb(100%,100%,100%);fill-opacity:1;" d="M 28.394531 17.683594 C 28.472656 17.820312 28.453125 18.039062 28.34375 18.285156 L 27.65625 17.890625 L 28.160156 19.738281 L 30.011719 19.238281 L 29.3125 18.835938 C 29.613281 18.222656 29.636719 17.605469 29.359375 17.125 C 29.054688 16.597656 28.4375 16.296875 27.667969 16.296875 L 25.210938 16.296875 L 25.210938 17.414062 L 27.667969 17.414062 C 28.023438 17.417969 28.296875 17.515625 28.394531 17.683594 Z M 28.394531 17.683594 "/>
<path style=" stroke:none;fill-rule:nonzero;fill:rgb(100%,100%,100%);fill-opacity:1;" d="M 21.015625 19.003906 L 22.230469 21.105469 L 23.199219 20.546875 L 21.984375 18.445312 C 21.804688 18.132812 21.757812 17.851562 21.851562 17.683594 C 21.949219 17.515625 22.214844 17.417969 22.566406 17.417969 L 22.566406 18.210938 L 23.921875 16.855469 L 22.566406 15.5 L 22.566406 16.300781 C 21.800781 16.300781 21.1875 16.605469 20.886719 17.125 C 20.585938 17.648438 20.632812 18.335938 21.015625 19.003906 Z M 21.015625 19.003906 "/>
</g>
</svg>
