<svg id="65e515c9-a35a-4f35-9909-90e22fcc8377" data-name="Layer 1" xmlns="http://www.w3.org/2000/svg" xmlns:xlink="http://www.w3.org/1999/xlink" width="30.41861" height="38.55802" viewBox="0 0 30.41861 38.55802">
  <defs>
    <clipPath id="f56a2383-c440-49b3-99a2-db25bd5a2f99">
      <rect id="8c6e4c48-f162-4aba-a7ca-2fb5a75a104d" data-name="SVGID" x="9.14078" y="8.87592" width="12.33299" height="12.33299" style="fill: none"/>
    </clipPath>
    <clipPath id="5c7010b7-b9f1-4cd6-aafb-a4ce852c16aa">
      <path id="849d7fda-5e80-4557-bed8-1606b736b8b9" data-name="SVGID" d="M11.915,15.05361c-.40754,1.1202-.51159,2.11063-.23255,2.21209s.8357-.72426,1.24324-1.84446.51158-2.11056.23248-2.21217a.144.144,0,0,0-.04922-.00842c-.29152.00014-.80932.79527-1.19395,1.853" style="fill: none"/>
    </clipPath>
    <linearGradient id="7cee30fa-c56f-4016-a12b-30028fdd0419" data-name="Degradado sin nombre 4" x1="-67.21758" y1="96.38398" x2="-67.14369" y2="96.38398" gradientTransform="translate(6818.62782 -9746.75965) scale(101.28284)" gradientUnits="userSpaceOnUse">
      <stop offset="0" stop-color="#86d88d"/>
      <stop offset="1" stop-color="#70b573"/>
    </linearGradient>
    <clipPath id="b35552db-fe7d-4163-ac1e-4fdd47fa0324">
      <path id="145586ac-6873-4053-b768-d3f2f7e875eb" data-name="SVGID" d="M17.51719,14.07677a1.117,1.117,0,0,0,.6698.507,3.05835,3.05835,0,0,0,1.44395-.04278.59028.59028,0,0,0,.35366-.55918c-.04337-.26233-.35-.4068-.517-.48535a10.18756,10.18756,0,0,0-1.20222-.17935,1.83659,1.83659,0,0,1-1.05214-.68384c.01973.48121.28428.96235.30393,1.4435" style="fill: none"/>
    </clipPath>
    <linearGradient id="11ef265b-f893-4014-8afd-db0ac7165cae" x1="-66.00463" y1="95.52776" x2="-65.93073" y2="95.52776" gradientTransform="translate(-2459.8665 3602.75715) rotate(180) scale(37.57094)" xlink:href="#7cee30fa-c56f-4016-a12b-30028fdd0419"/>
    <clipPath id="e666b371-9e15-4e66-ac39-b2bfe7653fe1">
      <path id="4c7cd901-5ff7-4afd-9cae-bda76d8ebb27" data-name="SVGID" d="M16.29649,15.075c-.659.1237-.98038,1.35822-.71775,2.75738s1.00972,2.43312,1.66873,2.30942.98039-1.35815.71776-2.75738c-.24829-1.323-.92984-2.31947-1.5604-2.31947a.586.586,0,0,0-.10834.01" style="fill: none"/>
    </clipPath>
    <linearGradient id="fe920d19-6df6-413a-b5be-ff63ed084f62" x1="-66.94405" y1="95.78562" x2="-66.87015" y2="95.78562" gradientTransform="translate(-6576.93792 -4589.57078) rotate(-90) scale(68.8382)" xlink:href="#7cee30fa-c56f-4016-a12b-30028fdd0419"/>
    <clipPath id="9ba2deef-0c3c-4889-8561-d68ec462fd9f">
      <path id="10f82f1a-2bd4-468a-bf40-9f1cc5e4a940" data-name="SVGID" d="M12.63432,17.38446c-.26255,1.39923.05875,2.63368.71783,2.75738s1.40618-.91026,1.66874-2.30942-.05875-2.63368-.71776-2.75738a.587.587,0,0,0-.10833-.01c-.63064,0-1.31211.99649-1.56048,2.31947" style="fill: none"/>
    </clipPath>
    <linearGradient id="a7ca3176-7046-4e2b-adae-21a77e338bf2" x1="-66.95395" y1="96.32165" x2="-66.88006" y2="96.32165" gradientTransform="translate(-6616.78204 -4590.30715) rotate(-90) scale(68.8382)" xlink:href="#7cee30fa-c56f-4016-a12b-30028fdd0419"/>
    <clipPath id="05235b61-30f6-4558-a7da-07ae300bbb09">
      <rect id="83ee3825-a000-4537-ad83-bcfee2bf333b" data-name="SVGID" x="9.32064" y="9.0709" width="12.33299" height="12.33299" style="fill: none"/>
    </clipPath>
  </defs>
  <title>Artboard 1</title>
  <g>
    <path d="M15.20923,0A15.20854,15.20854,0,0,0,0,15.20805c0,8.39983,13.3797,23.2393,15.20923,23.34938,1.82913.10866,15.20938-14.94955,15.20938-23.34938A15.20868,15.20868,0,0,0,15.20923,0Zm0,22.71989a7.51122,7.51122,0,1,1,7.51065-7.51184A7.51271,7.51271,0,0,1,15.20923,22.71989Z" style="fill: #49da8b"/>
    <path d="M15.20923,0V7.69745a7.51122,7.51122,0,0,1,0,15.02244V38.55743c1.82913.10866,15.20938-14.94955,15.20938-23.34938A15.20868,15.20868,0,0,0,15.20923,0Z" style="fill: #39b76f"/>
  </g>
  <circle cx="15.41861" cy="15.06039" r="8" style="fill: #fff"/>
  <g>
    <g style="clip-path: url(#f56a2383-c440-49b3-99a2-db25bd5a2f99)">
      <path d="M-1.34281,40.603H-9.4897a2.093,2.093,0,0,1-2.09305-2.093V30.36309A2.093,2.093,0,0,1-9.4897,28.27h8.14689a2.093,2.093,0,0,1,2.09305,2.093V38.51a2.093,2.093,0,0,1-2.093,2.093" style="fill: #fff"/>
      <path d="M16.09846,11.764l.37207-1.07793a.124.124,0,0,0-.19058-.14033l-.3765.27667a.12391.12391,0,0,1-.1727-.02565L15.12228,9.983a.124.124,0,0,0-.22272.08587l.039.41581a.124.124,0,0,1-.14772.13309l-.40644-.08129a.124.124,0,0,0-.12407.19517l.08543.11572a.124.124,0,0,1-.09969.1976.12393.12393,0,0,0-.07988.21873l.65812.55467a.12385.12385,0,0,0,.07988.02919h1.077a.124.124,0,0,0,.1172-.0835" style="fill: #70b573"/>
    </g>
    <g style="clip-path: url(#5c7010b7-b9f1-4cd6-aafb-a4ce852c16aa)">
      <rect x="10.10508" y="13.53076" width="4.63055" height="3.50637" transform="translate(-6.51268 20.70653) rotate(-66.88346)" style="fill: url(#7cee30fa-c56f-4016-a12b-30028fdd0419)"/>
    </g>
    <g style="clip-path: url(#b35552db-fe7d-4163-ac1e-4fdd47fa0324)">
      <rect x="17.21326" y="12.63327" width="2.80992" height="2.11175" style="fill: #39b76f"/>
    </g>
    <g style="clip-path: url(#e666b371-9e15-4e66-ac39-b2bfe7653fe1)">
      <rect x="15.31611" y="15.06499" width="2.91175" height="5.20055" style="fill: #39b76f"/>
    </g>
    <g style="clip-path: url(#9ba2deef-0c3c-4889-8561-d68ec462fd9f)">
      <rect x="12.37177" y="15.06499" width="2.91175" height="5.20055" style="fill: #39b76f"/>
    </g>
    <g style="clip-path: url(#05235b61-30f6-4558-a7da-07ae300bbb09)">
      <path d="M12.72262,15.288c0,2.18379,1.23437,3.95414,2.75709,3.95414s2.75694-1.77035,2.75694-3.95414-1.2343-3.95421-2.75694-3.95421-2.75709,1.77034-2.75709,3.95421" style="fill: #86d88d"/>
      <path d="M15.76985,13.01162a.42628.42628,0,1,0,.42631-.42631.42626.42626,0,0,0-.42631.42631" style="fill: #a3a3a3"/>
      <path d="M14.337,13.01162a.42624.42624,0,1,0,.42631-.42631.42621.42621,0,0,0-.42631.42631" style="fill: #a3a3a3"/>
      <path d="M16.19612,12.94277a.11451.11451,0,1,0,.11454-.11446.11449.11449,0,0,0-.11454.11446" style="fill: #fff"/>
      <path d="M14.8053,12.94277a.1145.1145,0,1,0,.11446-.11446.11448.11448,0,0,0-.11446.11446" style="fill: #fff"/>
      <path d="M16.52383,14.12786a.12509.12509,0,0,0-.15312-.14291,3.72942,3.72942,0,0,1-1.785-.00067.12266.12266,0,0,0-.15149.13434,1.055,1.055,0,0,0,2.08958.00924" style="fill: #fff"/>
      <path d="M15.37973,17.57478c.04869.08424.10922.13449.16183.13449a.19684.19684,0,0,0,.14114-.102l-.18636-.10819.50434-.13375.134.50442-.18962-.11a.49276.49276,0,0,1-.40348.25332.5067.5067,0,0,1-.42483-.28642l-.37362-.64712.263-.15185Z" style="fill: #fff"/>
      <path d="M14.65136,16.16745a.1895.1895,0,0,0,.01367.16369l.18645-.10664-.13708.50339-.50353-.13693.19021-.10885a.4889.4889,0,0,1-.01272-.46644.50671.50671,0,0,1,.46038-.22479h.66906v.30379h-.66906a.22538.22538,0,0,0-.19738.07278" style="fill: #fff"/>
      <path d="M16.65914,16.52676l-.33032.57233-.26307-.15193.33031-.57233a.1639.1639,0,0,0-.159-.28007v.21608l-.36889-.369.36889-.369V15.791a.458.458,0,0,1,.4221.73579" style="fill: #fff"/>
    </g>
  </g>
</svg>
