<svg enable-background="new 0 0 493.5 493.5" viewBox="0 0 493.5 493.5" xmlns="http://www.w3.org/2000/svg"><g fill="#919191"><path d="m420.5 352h-113v-35.6l-32.5 43-32.5 43 32.5 43 32.5 43v-24.6l60.2-2.3c53.2-3.2 65.9-25.2 65.9-25.2l59.8-111.1c-22 30.9-72.9 26.8-72.9 26.8z"/><path d="m451.5 192.2-96.3 56 48.2 83.5c49.1 4.6 64.2-10.6 64.2-10.6 39.3-22.2 17.5-71.6 17.5-71.6z"/><path d="m67 425.7c-14.9-34.8 15-76.2 15-76.2l58.6-96.6 30.4 18.4-20-50.1-19.9-50.1-53.6 5.5-53.6 5.5 21 12.7-29.2 52.7c-24.9 47.2-12.7 69.5-12.7 69.5z"/><path d="m83.7 408.6c-1.3 45.2 52.2 52 52.2 52l66.4 1.1 2.1-111.4-96.4-2.1c-29.4 39.6-24.3 60.4-24.3 60.4z"/><path d="m324.4 181 53.3 8.2 22.4-49 22.4-49-21.6 11.7-30.6-51.9c-28.1-45.3-53.5-46-53.5-46l-126.2.1c37.5 4.8 58.1 51.5 58.1 51.5l53.7 99.4-31.3 16.9z"/><path d="m236.7 75.6c-19.3-45.4-39.8-51.5-39.8-51.5-38.3-24-71.3 18.7-71.3 18.7l-34.5 56.7 95 58.2z"/></g></svg>