<svg enable-background="new 0 0 512 512" viewBox="0 0 512 512" xmlns="http://www.w3.org/2000/svg"><g fill="#919191"><path d="m423.2 0h-334.4c-20.9 0-37.8 16.9-37.8 37.8v436.4c0 20.9 16.9 37.8 37.8 37.8h334.4c20.9 0 37.8-16.9 37.8-37.8v-436.4c0-20.9-16.9-37.8-37.8-37.8zm-16.6 482h-301.2c-13.5 0-24.4-10.9-24.4-24.4v-403.2c0-13.5 10.9-24.4 24.4-24.4h301.1c13.5 0 24.4 10.9 24.4 24.4v403.1c.1 13.6-10.8 24.5-24.3 24.5z"/><path d="m366 141h-219.5c-8.1 0-15.1 6.2-15.5 14.3-.4 8.6 6.5 15.7 15 15.7h219.5c8.1 0 15.1-6.2 15.5-14.3.4-8.6-6.5-15.7-15-15.7z"/><path d="m296 241h-149.5c-8.1 0-15.1 6.2-15.5 14.3-.4 8.6 6.5 15.7 15 15.7h149.5c8.1 0 15.1-6.2 15.5-14.3.4-8.6-6.5-15.7-15-15.7z"/><path d="m366 341h-219.5c-8.1 0-15.1 6.2-15.5 14.3-.4 8.6 6.5 15.7 15 15.7h219.5c8.1 0 15.1-6.2 15.5-14.3.4-8.6-6.5-15.7-15-15.7z"/></g></svg>