<svg enable-background="new 0 0 512 512" viewBox="0 0 512 512" xmlns="http://www.w3.org/2000/svg"><path d="m511.995 130.898c-.001-.141-.011-.28-.021-.42-.007-.098-.012-.196-.022-.293-.018-.167-.046-.333-.075-.499-.012-.066-.021-.133-.035-.199-.041-.197-.092-.392-.148-.586-.01-.034-.018-.069-.029-.103-.064-.21-.139-.415-.222-.619-.009-.021-.016-.042-.024-.063-.082-.196-.174-.388-.273-.578-.016-.031-.031-.063-.047-.094-.09-.167-.19-.33-.294-.491-.034-.053-.066-.106-.101-.158-.095-.14-.198-.275-.303-.409-.051-.065-.1-.131-.153-.194-.036-.042-.065-.087-.102-.129l-70.007-80.001c-.05-.057-.105-.107-.157-.162-.092-.1-.186-.199-.284-.293-.088-.085-.178-.165-.269-.245-.091-.079-.182-.158-.276-.233-.102-.081-.206-.158-.311-.233-.092-.065-.185-.13-.279-.191-.11-.071-.221-.138-.334-.203-.099-.057-.2-.113-.302-.166-.111-.057-.224-.111-.337-.162-.11-.05-.222-.098-.335-.143-.11-.043-.22-.083-.332-.122-.121-.041-.242-.08-.365-.115-.111-.032-.223-.06-.336-.086-.123-.029-.247-.057-.372-.08-.121-.022-.242-.039-.364-.056-.118-.016-.235-.031-.355-.041-.138-.012-.276-.017-.414-.021-.074-.002-.146-.011-.221-.011h-356.989c-.074 0-.146.009-.221.011-.138.004-.276.009-.414.021-.12.01-.237.025-.355.041-.122.016-.243.034-.364.056-.126.023-.25.05-.373.08-.112.026-.224.054-.335.086-.124.035-.245.074-.366.116-.111.038-.221.078-.33.121-.114.045-.227.093-.337.144-.113.051-.225.104-.335.161-.103.053-.205.109-.305.167-.112.064-.222.131-.332.201-.096.062-.189.127-.282.193-.104.075-.207.15-.309.231-.095.076-.187.155-.278.234-.09.08-.18.159-.268.244-.098.095-.191.194-.284.293-.051.055-.106.105-.157.162l-70.006 80.002c-.035.041-.064.084-.099.125-.057.067-.109.138-.164.207-.102.13-.202.261-.294.396-.038.056-.072.114-.109.171-.101.157-.198.315-.286.478-.019.036-.036.072-.055.108-.097.186-.187.373-.267.564-.01.024-.019.05-.029.075-.081.201-.155.403-.218.609-.011.036-.02.073-.03.109-.056.192-.106.385-.147.581-.014.067-.023.135-.035.202-.029.166-.057.331-.075.497-.011.098-.016.195-.022.293-.01.14-.02.28-.021.42 0 .035-.005.069-.005.104v117c0 4.13 3.36 7.5 7.5 7.5s7.5-3.37 7.5-7.5v-109.5h173.497v72.501c0 .033.004.064.005.097.002.154.012.306.023.458.008.103.014.206.025.308.015.126.037.251.058.376.02.124.04.249.067.371.021.098.049.193.075.29.037.143.074.285.119.424.026.081.059.16.087.239.054.147.107.294.169.437.036.084.079.164.119.247.063.131.125.263.196.391.057.103.122.202.184.302s.122.203.188.3c.082.12.172.234.261.349.056.072.109.147.168.217.101.12.209.234.317.349.057.061.112.123.172.182.105.104.218.202.33.3.073.064.145.131.222.192.099.08.203.154.307.23.101.073.201.147.305.215.088.057.179.11.27.164.129.077.258.152.392.222.03.016.058.034.088.049l20 9.999c.07.035.143.059.213.091.115.053.23.102.347.149.194.078.389.146.586.208.105.032.208.065.314.093.229.06.458.105.688.143.083.014.165.032.249.043.317.041.634.066.951.066.002 0 .004-.001.006-.001s.004.001.006.001c.316 0 .634-.025.951-.066.084-.011.165-.029.248-.043.231-.038.461-.083.69-.144.105-.028.208-.061.311-.092.198-.061.395-.13.589-.208.116-.047.23-.095.344-.147.071-.033.144-.057.215-.092l16.646-8.322 16.646 8.322c.07.035.143.059.213.091.115.053.23.102.347.149.194.078.389.146.586.208.105.032.208.065.314.093.229.06.458.105.688.143.083.014.165.032.249.043.317.041.634.066.951.066.002 0 .004-.001.006-.001s.004.001.006.001c.316 0 .634-.025.951-.066.083-.011.165-.029.248-.043.231-.038.461-.083.69-.144.105-.028.207-.061.311-.092.198-.061.395-.13.589-.208.116-.047.23-.095.344-.147.071-.033.144-.057.215-.092l16.646-8.322 16.646 8.322c.074.037.15.062.225.096.108.05.216.096.326.14.201.082.403.152.607.215.099.03.197.061.298.088.233.062.468.108.704.146.079.013.156.031.236.041.318.041.635.066.952.066.003 0 .004-.001.007-.001.002 0 .004.001.007.001.317 0 .635-.025.952-.066.079-.01.156-.028.235-.041.236-.038.472-.085.706-.147.099-.026.196-.057.295-.087.205-.063.409-.134.61-.216.109-.044.217-.089.323-.138.075-.035.152-.06.227-.097l20-9.999c.028-.014.054-.032.082-.046.141-.073.276-.151.412-.232.084-.05.169-.099.251-.152.112-.074.22-.153.328-.232.096-.07.192-.138.283-.211.086-.069.167-.144.25-.217.102-.09.205-.179.302-.274.071-.07.137-.144.205-.217.097-.103.195-.206.285-.313.071-.085.136-.175.204-.263.076-.1.155-.199.226-.303.079-.115.15-.234.223-.354.05-.082.103-.162.149-.246.081-.146.153-.297.225-.449.03-.063.063-.124.09-.188.071-.161.132-.327.191-.493.022-.061.046-.121.067-.182.051-.156.093-.316.134-.476.02-.079.043-.157.061-.237.031-.138.053-.278.076-.419.018-.108.037-.217.05-.327.014-.116.021-.234.029-.352.01-.138.019-.275.021-.413 0-.038.006-.074.006-.112v-72.501h173.496v315h-482v-175.504c0-4.14-3.36-7.5-7.5-7.5s-7.5 3.36-7.5 7.5v183c0 1.98.8 3.91 2.2 5.3 1.39 1.4 3.33 2.2 5.3 2.2h497c1.97 0 3.9-.8 5.3-2.2 1.4-1.39 2.2-3.32 2.2-5.3v-330c0-.034-.005-.068-.005-.103zm-231.197-72.397 24.378 65.001h-98.357l24.378-65.001zm-89.999 65.001h-166.77l56.881-65.001h134.267zm117.701 82.863-12.502 6.252-16.647-8.323c-.05-.025-.102-.043-.152-.067-.118-.055-.236-.107-.357-.156-.115-.047-.23-.093-.347-.134-.107-.038-.215-.071-.323-.104-.13-.04-.261-.078-.392-.11-.1-.024-.201-.044-.302-.065-.138-.028-.275-.055-.414-.075-.104-.015-.208-.025-.312-.035-.134-.014-.267-.027-.401-.033-.117-.006-.235-.005-.353-.005-.12 0-.239-.001-.359.005-.131.006-.262.02-.393.033-.107.011-.214.021-.32.036-.136.02-.271.046-.406.073-.104.021-.208.041-.31.066-.128.032-.256.069-.383.108-.112.034-.223.068-.333.107-.113.04-.225.085-.337.13-.124.051-.247.104-.368.161-.048.023-.098.041-.146.064l-16.646 8.322-16.646-8.322c-.05-.025-.101-.042-.151-.066-.119-.056-.239-.108-.36-.158-.114-.047-.228-.092-.343-.133-.108-.038-.218-.072-.328-.105-.129-.039-.257-.077-.387-.109-.102-.025-.204-.045-.307-.066-.136-.027-.272-.054-.409-.074-.105-.015-.21-.025-.316-.036-.133-.013-.265-.026-.398-.033-.118-.006-.235-.005-.353-.005-.12 0-.24-.001-.359.005-.13.006-.26.02-.39.032-.108.011-.217.021-.325.037-.133.02-.267.046-.4.072-.106.021-.212.042-.317.068-.126.031-.251.068-.376.105-.114.035-.228.07-.34.11-.111.04-.221.083-.331.128-.126.052-.25.105-.374.164-.047.023-.097.039-.144.063l-16.646 8.322-12.5-6.249v-67.865h105.003zm12.697-82.863-24.378-65.001h134.271l56.88 65.001z"/><path d="m117.5 383.501h-70c-4.142 0-7.5 3.358-7.5 7.5 0 4.143 3.358 7.5 7.5 7.5h70c4.142 0 7.5-3.358 7.5-7.5s-3.358-7.5-7.5-7.5z"/><path d="m87.5 413.501h-40c-4.142 0-7.5 3.358-7.5 7.5 0 4.143 3.358 7.5 7.5 7.5h40c4.142 0 7.5-3.358 7.5-7.5s-3.358-7.5-7.5-7.5z"/><path d="m464.498 383.501h-30c-4.142 0-7.5 3.358-7.5 7.5v30c0 4.142 3.358 7.5 7.5 7.5h30c4.142 0 7.5-3.358 7.5-7.5v-30c0-4.142-3.358-7.5-7.5-7.5zm-7.5 30h-15v-15h15z"/><path d="m404.498 383.501h-30c-4.142 0-7.5 3.358-7.5 7.5v30c0 4.142 3.358 7.5 7.5 7.5h30c4.142 0 7.5-3.358 7.5-7.5v-30c0-4.142-3.358-7.5-7.5-7.5zm-7.5 30h-15v-15h15z"/></svg>