<svg enable-background="new 0 0 512 512" height="512" viewBox="0 0 512 512" width="512" xmlns="http://www.w3.org/2000/svg"><path d="m493.375 160.507h-404.977c-4.143 0-7.5 3.358-7.5 7.5s3.357 7.5 7.5 7.5h67.32l-39.473 56.242h-97.621c-1.998 0-3.624-1.626-3.624-3.625v-48.993c0-1.999 1.626-3.624 3.624-3.624h39.773c4.142 0 7.5-3.358 7.5-7.5s-3.358-7.5-7.5-7.5h-39.773c-10.27 0-18.624 8.355-18.624 18.624v48.993c0 10.27 8.354 18.625 18.624 18.625h474.751c10.27 0 18.624-8.355 18.624-18.625v-48.993c.001-10.269-8.354-18.624-18.624-18.624zm-212.076 71.242 39.472-56.242h32.135l-39.473 56.242zm-96.268 0 39.472-56.242h77.942l-39.472 56.242zm-10.987-56.242h32.135l-39.472 56.242h-32.135zm322.956 52.618c0 1.999-1.626 3.625-3.624 3.625h-161.617l39.472-56.242h122.145c1.998 0 3.624 1.625 3.624 3.624z"/><path d="m493.375 264.861h-474.751c-10.27 0-18.624 8.354-18.624 18.624v48.994c0 10.27 8.354 18.624 18.624 18.624h474.751c10.27 0 18.624-8.354 18.624-18.624v-48.994c.001-10.27-8.354-18.624-18.624-18.624zm-212.076 71.242 39.473-56.242h32.135l-39.472 56.242zm-96.268 0 39.472-56.242h77.942l-39.472 56.242zm-50.46 0 39.472-56.242h32.135l-39.472 56.242zm-119.571-3.624v-48.994c0-1.999 1.626-3.624 3.624-3.624h137.095l-39.472 56.242h-97.623c-1.998 0-3.624-1.626-3.624-3.624zm482 0c0 1.998-1.626 3.624-3.624 3.624h-161.617l39.472-56.242h122.144c1.998 0 3.624 1.625 3.624 3.624v48.994z"/><path d="m493.375 56.543h-474.751c-10.27 0-18.624 8.355-18.624 18.624v48.994c0 10.269 8.354 18.624 18.624 18.624h474.751c10.27 0 18.624-8.355 18.624-18.624v-48.994c.001-10.269-8.354-18.624-18.624-18.624zm-212.076 71.242 39.473-56.242h32.135l-39.472 56.242zm-96.268 0 39.472-56.242h77.942l-39.472 56.242zm-50.46 0 39.472-56.242h32.135l-39.472 56.242zm-119.571-3.624v-48.994c0-1.998 1.626-3.624 3.624-3.624h137.095l-39.472 56.242h-97.623c-1.998 0-3.624-1.626-3.624-3.624zm482 0c0 1.998-1.626 3.624-3.624 3.624h-161.617l39.472-56.242h122.144c1.998 0 3.624 1.626 3.624 3.624v48.994z"/><path d="m493.375 369.214h-474.751c-10.27 0-18.624 8.355-18.624 18.625v48.994c0 10.27 8.354 18.624 18.624 18.624h368.016c4.143 0 7.5-3.358 7.5-7.5s-3.357-7.5-7.5-7.5h-54.881l39.472-56.242h122.144c1.998 0 3.624 1.626 3.624 3.624v48.994c0 1.998-1.626 3.624-3.624 3.624h-76.735c-4.143 0-7.5 3.358-7.5 7.5s3.357 7.5 7.5 7.5h76.735c10.27 0 18.624-8.354 18.624-18.624v-48.994c.001-10.27-8.354-18.625-18.624-18.625zm-308.344 71.242 39.472-56.242h77.942l-39.472 56.242zm-50.46 0 39.472-56.242h32.135l-39.472 56.242zm-119.571-3.624v-48.994c0-1.999 1.626-3.624 3.624-3.624h137.095l-39.472 56.242h-97.623c-1.998 0-3.624-1.626-3.624-3.624zm298.434 3.624h-32.135l39.473-56.242h32.135z"/></svg>