<svg enable-background="new 0 0 21.3 21.1" viewBox="0 0 21.3 21.1" xmlns="http://www.w3.org/2000/svg"><path d="m19.9 1.9c-.1-.5-.7-.7-1.1-.3l-1.1 1.1c-4.1-3.7-10.6-3.6-14.6.4-4.1 4.1-4.1 10.9 0 15.1.1.1.3.2.4.4.2.2.5.3.8.3s.6-.1.8-.4c.4-.5.4-1.2-.1-1.7l-.3-.3c-3.2-3.2-3.2-8.5 0-11.8 3.1-3.1 8.1-3.2 11.4-.4l-1.2 1.2c-.4.4-.2 1 .3 1.1l5.2 1.3c.5.1.9-.3.8-.8z"/><path d="m14.4 11.6-2.6-1.6v-4.2c0-.6-.5-1.1-1.1-1.1s-1.1.5-1.1 1.1v4.8c0 .4.2.8.5 1l3.1 2c.2.1.4.2.6.2.4 0 .7-.2 1-.5.3-.6.1-1.3-.4-1.7z"/><path d="m8.5 18.7-.5-.1c-.6-.2-1.3.1-1.4.7-.2.6.1 1.3.7 1.4.2.1.4.1.5.2h.3c.5 0 1-.3 1.1-.8.2-.6-.1-1.3-.7-1.4z"/><path d="m12.3 18.8-.4.1c-.6.1-1.1.7-1 1.3s.6 1 1.1 1h.2c.2 0 .4-.1.6-.1.6-.1 1-.7.9-1.3-.2-.7-.8-1.1-1.4-1z"/><path d="m15.8 17.2-.4.3c-.5.4-.6 1.1-.3 1.6.2.3.6.5.9.5.2 0 .4-.1.6-.2s.3-.2.4-.3c.5-.4.6-1.1.2-1.6-.2-.6-.9-.7-1.4-.3z"/></svg>