<svg enable-background="new 0 0 20.7 22.3" viewBox="0 0 20.7 22.3" xmlns="http://www.w3.org/2000/svg"><path d="m18.7 5h-2.8c.5-.6.8-1.3.8-2 0-1.7-1.4-3-3.1-3-1.4 0-2.4.8-3.2 2.2-.8-1.4-1.9-2.2-3.2-2.2-1.8 0-3.2 1.3-3.2 3 0 .7.3 1.4.8 2h-2.8c-1.1 0-2 .9-2 2v3c0 1 .7 1.8 1.6 2v8.4c0 1.1.9 2 2 2h13.4c1.1 0 2-.9 2-2v-8.4c.9-.2 1.6-1 1.6-2v-3c.1-1.1-.8-2-1.9-2zm.1 2v3c0 .1 0 .1-.1.1h-7.4v-3.2h7.4s.1.1.1.1zm-4.9-2.8c-.4.3-1.2.6-2.5.7.2-1.1.8-3 2.1-3 .7 0 1.2.6 1.2 1.1s-.3.9-.8 1.2zm3.3 7.8v8.3c0 .1 0 .1-.1.1h-5.8v-8.4zm-7.8 0v8.4h-5.8c-.1 0-.1 0-.1-.1v-8.3zm-7.5-2v-3s.1-.1.1-.1h7.4v3.2h-7.4s-.1-.1-.1-.1zm4.8-5.8c-.5-.3-.7-.7-.7-1.2s.4-1.1 1.2-1.1c1.3 0 1.9 1.9 2.1 3-1.4-.1-2.1-.4-2.6-.7z"/></svg>