<svg enable-background="new 0 0 22.4 22.4" viewBox="0 0 22.4 22.4" xmlns="http://www.w3.org/2000/svg"><path d="m22.3 10.6-1.4-2 .1-2.4c0-.4-.2-.8-.6-1l-2.2-1.1-1.1-2.2c-.2-.4-.6-.6-1-.6l-2.4.1-2.1-1.3c-.4-.2-.8-.2-1.1 0l-2 1.3h-2.3c-.4 0-.8.2-1 .6l-1.1 2.1-2.2 1.1c-.4.2-.6.6-.6 1l.1 2.4-1.3 2.1c-.2.4-.2.8 0 1.1l1.3 2-.1 2.4c0 .4.2.8.6 1l2.2 1.1 1.1 2.2c.2.4.6.6 1 .6l2.4-.1 2 1.3c.2.1.4.2.6.2s.4-.1.6-.2l2-1.3 2.4.1c.4 0 .8-.2 1-.6l1.1-2.2 2.2-1.1c.4-.2.6-.6.6-1l-.1-2.4 1.3-2.1c.2-.3.2-.7 0-1.1zm-3.5 3 .1 2.1-1.8.9c-.2.1-.4.3-.5.5l-.9 1.8-2.1-.1c-.1 0-.4 0-.6.2l-1.8 1.2-1.7-1.2c-.2-.1-.4-.2-.6-.2l-2.1.1-.9-1.8c-.1-.2-.3-.4-.5-.5l-1.8-.9.1-2.1c0-.1 0-.4-.2-.6l-1.1-1.7 1.2-1.8c.1-.2.2-.4.1-.6l-.2-2.1 1.8-.9c.2-.1.4-.3.5-.5l.9-1.8 2.1.1c.1 0 .4 0 .6-.2l1.7-1.2 1.9 1.2c.2.1.4.2.6.1l2.1-.1.9 1.8c.1.2.3.4.5.5l1.8.9-.1 2.1c0 .1 0 .4.2.6l1.2 1.7-1.2 1.9c-.1.2-.2.4-.2.6z"/><path d="m8.6 11c1.5 0 2.8-1.2 2.8-2.8s-1.2-2.8-2.8-2.8-2.8 1.4-2.8 2.9 1.3 2.7 2.8 2.7zm-.9-2.8c0-.5.4-.9.9-.9s.9.4.9.9-.4.9-.9.9-.9-.4-.9-.9z"/><path d="m13.9 11.4c-1.5 0-2.8 1.2-2.8 2.8s1.2 2.8 2.8 2.8c1.5 0 2.8-1.2 2.8-2.8s-1.3-2.8-2.8-2.8zm.9 2.8c0 .5-.4.9-.9.9s-.9-.4-.9-.9.4-.9.9-.9.9.4.9.9z"/><path d="m4.8 10.3h12.8v1.9h-12.8z" transform="matrix(.7071 -.7071 .7071 .7071 -4.6378 11.2282)"/></svg>