<svg enable-background="new 0 0 16 18" viewBox="0 0 16 18" xmlns="http://www.w3.org/2000/svg"><path d="m15.9 2.6c.1-.7-.1-1.3-.5-1.9-.4-.4-1-.7-1.7-.7h-11.4c-.7 0-1.3.3-1.8.8s-.6 1.2-.5 1.9c.5 3 2.2 5.2 4.5 6.4-2.3 1.1-4 3.4-4.5 6.4-.1.7.1 1.3.5 1.9.5.3 1.1.6 1.8.6h11.5c.7 0 1.3-.3 1.7-.8s.6-1.2.5-1.9c-.5-3-2.2-5.2-4.5-6.4 2.3-1 3.9-3.3 4.4-6.3zm-1.5 13c0 .2 0 .4-.2.6-.1.2-.4.3-.6.3h-11.3c-.2 0-.4-.1-.6-.3s-.2-.4-.2-.6c.6-3.6 3.1-5.8 6.5-5.8s5.8 2.2 6.4 5.8zm-6.4-7.4c-3.4 0-5.9-2.2-6.5-5.8 0-.2 0-.5.2-.6.1-.2.3-.3.6-.3h11.5c.2 0 .4.1.6.3s.2.4.2.6c-.8 3.6-3.3 5.8-6.6 5.8zm3.8-3.5c-.8 1.1-2.1 1.9-3.8 1.9s-3-.8-3.8-1.9c-.5-.6 0-1.5.8-1.5h6c.8 0 1.2.9.8 1.5z"/></svg>