<svg enable-background="new 0 0 18.1 17" viewBox="0 0 18.1 17" xmlns="http://www.w3.org/2000/svg"><path d="m0 10.2s2.3 6.8 9.1 6.8 9.1-6.8 9.1-6.8c-.7-1.9-1.9-3.6-3.5-4.8l2.1-2.3-1.3-1.2-2.3 2.5c-1-.5-2.2-.9-3.3-1v-3.4h-1.7v3.4c-1.2.1-2.3.4-3.3 1l-2.3-2.5-1.3 1.2 2.1 2.3c-1.5 1.2-2.7 2.9-3.4 4.8zm16.3 0c-.6 1.4-2.7 5.1-7.2 5.1s-6.6-3.7-7.2-5.1c.6-1.4 2.7-5.1 7.2-5.1s6.6 3.7 7.2 5.1z"/><path d="m9.1 7.1c-1.8 0-3.1 1.4-3.1 3.1s1.4 3.1 3.1 3.1 3.1-1.4 3.1-3.1-1.4-3.1-3.1-3.1zm0 4.5c-.8 0-1.4-.6-1.4-1.4s.6-1.4 1.4-1.4 1.4.6 1.4 1.4-.6 1.4-1.4 1.4z"/></svg>