<?xml version="1.0" encoding="utf-8"?>
<!-- Generator: Adobe Illustrator 22.0.0, SVG Export Plug-In . SVG Version: 6.00 Build 0)  -->
<svg version="1.1" id="Layer_1" xmlns="http://www.w3.org/2000/svg" xmlns:xlink="http://www.w3.org/1999/xlink" x="0px" y="0px"
	 viewBox="0 0 32.1 50.6" style="enable-background:new 0 0 32.1 50.6;" xml:space="preserve">
<style type="text/css">
	.st0{fill:none;stroke:#333333;stroke-width:1.5;}
	.st1{fill:none;stroke:#333333;stroke-width:1.5;stroke-miterlimit:10;}
</style>
<g>
	<path class="st0" d="M25.5,20.2H0.8v4.2h1.1v24.1c0,0.8,0.6,1.4,1.4,1.4H23c0.8,0,1.4-0.6,1.4-1.4V24.4h1.1V20.2z"/>
	<line class="st0" x1="1.2" y1="24.4" x2="14.9" y2="24.4"/>
	<g>
		<g>
			<path class="st1" d="M23.4,0.5l-2.4,3.1L8.1,6.8l-6.4,6.3c0,0,0,0,0.1,0.1l0.5,0.5c0.9,0.9,2.4,0.7,3.4-0.1l3.5-3.5L12,10l7.5,0
				l0,0.7l-4.7,0c-1.2,0-2.1,1.4-2.1,2.6c0,0,0,0.3,0,0.3H21l3.2-2.8L29,6l2.4-5.6"/>
		</g>
	</g>
	<g>
		<g>
			<path class="st0" d="M11.5,43.6c-1.5,0-1.9,0-3.1,0c-2.9,0-4-2-2.6-4.5c1.4-2.5,0.6-1,2-3.4"/>
			<polyline class="st0" points="4.2,37.1 6.1,36.3 7.9,35.5 8.2,37.5 8.4,39.5 			"/>
		</g>
	</g>
	<g>
		<g>
			<path class="st0" d="M18.7,36.5c0.8,1.3,1,1.7,1.5,2.7c1.4,2.5,0.3,4.5-2.6,4.5c-2.9,0-1.1,0-4,0"/>
			<polyline class="st0" points="16.7,46 15.1,44.8 13.5,43.6 15.1,42.4 16.7,41.1 			"/>
		</g>
	</g>
	<g>
		<g>
			<path class="st0" d="M8.9,33.9c0.8-1.3,1-1.7,1.5-2.7c1.4-2.5,3.8-2.5,5.2,0c1.4,2.5,0.6,1,2,3.4"/>
			<polyline class="st0" points="18.2,30.8 17.9,32.8 17.7,34.8 15.8,34 14,33.3 			"/>
		</g>
	</g>
</g>
</svg>
