<?xml version="1.0" encoding="utf-8"?>
<!-- Generator: Adobe Illustrator 27.9.0, SVG Export Plug-In . SVG Version: 6.00 Build 0)  -->
<svg version="1.1" id="Layer_1" xmlns="http://www.w3.org/2000/svg" xmlns:xlink="http://www.w3.org/1999/xlink" x="0px" y="0px"
	 viewBox="0 0 40.8 43" style="enable-background:new 0 0 40.8 43;" xml:space="preserve">
<style type="text/css">
	.st0{fill:#FF33FF;stroke:#1A1A1A;stroke-miterlimit:10;}
	.st1{fill:#333333;}
</style>
<polygon class="st0" points="38.6,31.4 38.6,31.4 38.6,31.4 "/>
<polygon points="6.5,25 6.5,25 6.5,25 "/>
<polygon points="5,24.3 5,24.3 5,24.3 "/>
<polygon points="10.3,20.8 10.3,20.8 10.3,20.8 "/>
<polygon points="7.5,24.9 7.5,24.9 7.5,24.9 "/>
<polygon points="10.6,38.7 10.6,38.7 10.6,38.7 "/>
<path class="st1" d="M12.1,38.1l0.1-0.1c0,0,0.1,0,0.2-0.1l0,0h0.1c0.1,0,0.2,0,0.3,0.1l0.1,0.1c0,0,0,0.1,0.1,0.2v0.1
	c0,0.1,0,0.2-0.1,0.3l-0.1,0.1c0,0-0.1,0-0.2,0.1h-0.1c-0.1,0-0.2,0-0.3-0.1l-0.1-0.1c0,0,0-0.1-0.1-0.2l0,0v-0.1
	C12,38.3,12,38.2,12.1,38.1L12.1,38.1z M10.6,38.7c0,0.2,0.1,0.5,0.2,0.7c0.2,0.3,0.4,0.5,0.7,0.7s0.6,0.3,0.9,0.3
	c0.1,0,0.2,0,0.3,0l0,0c0.2,0,0.4-0.1,0.6-0.2c0.3-0.2,0.5-0.4,0.7-0.7s0.2-0.6,0.2-1c0-0.1,0-0.2,0-0.3l0,0c0-0.2-0.1-0.5-0.2-0.7
	c-0.2-0.3-0.4-0.5-0.7-0.7s-0.6-0.3-0.9-0.3c-0.1,0-0.2,0-0.3,0c-0.2,0-0.4,0.1-0.6,0.2c-0.3,0.2-0.5,0.4-0.7,0.7s-0.2,0.6-0.2,1
	C10.6,38.5,10.6,38.6,10.6,38.7L10.6,38.7z"/>
<polygon points="12.1,36.5 12.1,36.5 12.1,36.5 "/>
<polygon points="7.8,37.6 7.8,37.6 7.8,37.6 "/>
<polygon points="31.5,35.2 31.5,35.2 31.5,35.2 "/>
<path class="st1" d="M35.2,12.1L39.5,9c0.3-0.2,0.4-0.7,0.2-1s-0.6-0.4-1-0.2l-4.3,3.1c-0.3,0.2-0.4,0.7-0.2,1
	C34.4,12.3,34.9,12.3,35.2,12.1L35.2,12.1z"/>
<path class="st1" d="M36.1,20.6l3.7,2.3c0.3,0.2,0.8,0.1,0.9-0.3c0.2-0.3,0.1-0.8-0.2-1l-3.7-2.3c-0.3-0.2-0.8-0.1-1,0.3
	C35.6,19.9,35.8,20.3,36.1,20.6L36.1,20.6z"/>
<path class="st1" d="M36.2,16.1l4-0.8c0.4-0.1,0.6-0.5,0.6-0.9c-0.1-0.4-0.4-0.7-0.8-0.6l-4,0.8c-0.4,0.1-0.6,0.5-0.6,0.9
	S35.8,16.2,36.2,16.1L36.2,16.1z"/>
<path class="st1" d="M24.4,29.6c-0.1-0.2-0.1-0.3-0.2-0.5l0,0c-0.5-1.3-1-2.9-1.5-4.6s-0.9-3.6-1.2-5.6c-0.5-3.1-0.8-6-0.8-8.5
	c0-0.7,0-1.4,0.1-2.1l0,0c0-0.2,0-0.4,0-0.5c0.7-0.9,1.4-1.5,2-1.9l0,0c0,1.9,0.1,5.6,0.7,10.3c0.6,4.3,1.5,9.5,3.3,14.6l0,0
	C26.2,30.5,25.3,30.2,24.4,29.6L24.4,29.6z M21.3,27.8c-1.1-0.6-2.4-1.1-3.7-1.5c-0.6-0.2-1.2-0.3-1.8-0.5c-0.6-0.1-1.1-0.2-1.6-0.2
	h-0.1l0,0l0,0l0,0c-0.1,0-0.4,0-0.7,0.1c-0.4,0-1,0.1-1.5,0.1c-0.2,0-0.5,0-0.7,0.1c-0.1,0-0.2,0-0.3,0s-0.2,0-0.2,0
	c-0.2,0-0.4,0.1-0.5,0.3c-0.1,0.2-0.1,0.4-0.1,0.6s0.1,0.4,0.2,0.5c0.1,0.3,0.3,0.7,0.5,1.1c0.3,0.6,0.7,1.2,1.1,1.8
	c0.4,0.6,0.8,1.2,1.1,1.6l0,0l0,0c0.6,0.8,1.1,1.7,1.5,2.6c0.4,0.9,0.7,1.8,0.9,2.7c0.1,0.3,0.1,0.6,0.1,0.9c0,0.5-0.1,0.9-0.3,1.3
	c-0.2,0.6-0.7,1.1-1.2,1.5s-1.1,0.6-1.8,0.6c-0.2,0-0.4,0-0.7-0.1c-0.4-0.1-0.7-0.2-1-0.4c-0.5-0.3-0.9-0.7-1.1-1.2
	C9.1,39.2,9,38.6,9,38c0-0.1,0-0.2,0-0.3l0,0c0.1-0.6,0.1-1.3,0.1-1.9c0-1-0.1-2-0.3-3s-0.6-1.9-1.1-2.7C7,29,6.5,28,6.2,27.3
	c-0.1-0.3-0.3-0.5-0.6-0.5c-0.7,0-1.3-0.3-1.7-0.8c-0.5-0.4-0.8-1-1-1.7c0-0.1,0-0.1-0.1-0.2l0,0c-0.1-0.2-0.3-0.3-0.5-0.4
	c-0.3-0.1-0.5-0.2-0.7-0.4c-0.2-0.2-0.3-0.5-0.4-0.8l0,0c0-0.1,0-0.2,0-0.3c0-0.3,0.1-0.5,0.2-0.7s0.3-0.4,0.5-0.5s0.4-0.4,0.3-0.7
	l0,0l0,0c0-0.1,0-0.2,0-0.4c0-0.8,0.3-1.5,0.7-2.1c0.2-0.3,0.5-0.5,0.8-0.7s0.6-0.3,1-0.4l0.7-0.1c0,0,0,0,0.1,0
	c0,0,0.7-0.2,1.9-0.6c1.7-0.6,4.4-1.7,6.9-3c1.3-0.7,2.5-1.4,3.6-2.3c0.5-0.4,0.9-0.7,1.3-1.1c0,0.3,0,0.5,0,0.8
	c0,2.6,0.3,5.6,0.8,8.8c0.3,2,0.7,4,1.2,5.8c0.3,1.2,0.7,2.4,1,3.4C22.1,28.2,21.7,28,21.3,27.8L21.3,27.8z M13.6,27.2v0.1
	c0,0.2,0,0.3,0,0.5l0,0c0,0.1,0,0.2,0,0.3c0,0.3,0,0.5,0.1,0.7s0.1,0.4,0.2,0.6c0.1,0.1,0.1,0.3,0.1,0.4c0,0.2,0,0.3-0.1,0.5l0,0
	c0,0,0,0.1-0.1,0.1c-0.1-0.2-0.2-0.3-0.4-0.5c-0.4-0.6-0.8-1.3-1.2-2c-0.1-0.2-0.2-0.4-0.3-0.6l0,0c0.4,0,0.9-0.1,1.3-0.1
	C13.4,27.2,13.5,27.2,13.6,27.2L13.6,27.2z M1,20.5L1,20.5L1,20.5L1,20.5L1,20.5z M25.9,15.1c0.4,0,0.8,0.1,1.1,0.2
	c0.5,0.2,1,0.6,1.3,1.1c0.3,0.5,0.5,1.1,0.5,1.7c0,0.4-0.1,0.8-0.2,1.2c-0.2,0.5-0.6,1-1,1.3c-0.5,0.3-1,0.5-1.6,0.5
	c-0.4-1.8-0.6-3.6-0.8-5.2c0-0.2-0.1-0.5-0.1-0.7C25.3,15.1,25.6,15.1,25.9,15.1L25.9,15.1z M32.7,34.5c0.3-0.3,0.5-0.6,0.7-1
	c0.3-0.6,0.5-1.3,0.7-2.1c0.2-0.8,0.3-1.8,0.4-2.8c0.1-0.8,0.1-1.6,0.1-2.4c0-2.8-0.3-6.1-0.8-9.5c-0.4-2.7-1-5.3-1.7-7.6
	c-0.1-0.4-0.5-0.6-0.9-0.5s-0.6,0.5-0.5,0.9l0,0c0.6,2.2,1.2,4.7,1.6,7.4c0.5,3.3,0.8,6.5,0.8,9.3c0,0.8,0,1.6-0.1,2.3
	c-0.1,0.9-0.2,1.7-0.3,2.3c-0.1,0.5-0.2,0.9-0.3,1.3c-0.1,0.3-0.2,0.5-0.3,0.7c-0.2,0.3-0.3,0.5-0.5,0.6c-0.1,0.1-0.2,0.1-0.2,0.2
	c-0.1,0-0.2,0.1-0.3,0.1l0,0c-0.1,0-0.1,0-0.2,0s-0.3,0-0.5-0.1c-0.1-0.1-0.3-0.1-0.4-0.3c-0.2-0.2-0.5-0.4-0.7-0.8
	c-0.2-0.3-0.5-0.7-0.8-1.2c-1.1-2.9-1.9-5.9-2.5-8.7c0.5,0,0.9-0.2,1.3-0.3c0.8-0.3,1.4-0.9,1.9-1.6s0.7-1.6,0.7-2.5
	c0-0.6-0.1-1.2-0.3-1.8c-0.3-0.8-0.9-1.5-1.5-2c-0.7-0.5-1.5-0.8-2.4-0.8c-0.4,0-0.7,0.1-1.1,0.1c-0.4-3.6-0.4-6.4-0.4-7.9
	c0-0.4,0-0.7,0-0.9c0-0.1,0-0.2,0-0.2l0,0c0.1-0.5,0.2-1,0.3-1.4c0.1-0.3,0.2-0.6,0.3-0.8c0.1-0.2,0.2-0.3,0.3-0.4
	c0.1-0.2,0.3-0.3,0.4-0.4s0.3-0.1,0.4-0.2c0.1,0,0.1,0,0.2,0s0.2,0,0.3,0c0.2,0,0.3,0.1,0.5,0.3c0.3,0.2,0.6,0.6,1,1.1
	C28.3,3.3,28.7,4,29,4.7c0.2,0.4,0.6,0.5,0.9,0.3s0.5-0.6,0.3-1c-0.3-0.6-0.6-1.2-0.9-1.7c-0.2-0.4-0.5-0.7-0.7-1
	c-0.4-0.4-0.7-0.8-1.1-1c-0.2-0.1-0.4-0.2-0.6-0.3c-0.2,0-0.4,0-0.7,0c-0.1,0-0.3,0-0.4,0l0,0c-0.2,0-0.4,0.1-0.6,0.2
	c-0.3,0.1-0.6,0.4-0.8,0.6c-0.4,0.4-0.6,0.9-0.9,1.5C23.3,2.8,23.2,3.4,23,4c-0.1,0-0.2,0.1-0.3,0.1l0,0c-0.2,0.1-0.4,0.2-0.6,0.4
	l0,0c-0.8,0.6-1.7,1.3-2.5,2.4l0,0l0,0l0,0l0,0l0,0c-0.3,0.5-0.8,1.1-1.4,1.6c-1,0.9-2.3,1.8-3.8,2.6c-2.1,1.2-4.4,2.2-6.2,2.8
	c-0.9,0.3-1.6,0.6-2.2,0.8c-0.3,0.1-0.5,0.2-0.6,0.2s-0.1,0-0.2,0l0,0L4.5,15c-0.5,0.1-1,0.3-1.5,0.6c-0.7,0.4-1.2,1-1.6,1.7
	C1.2,18.3,1,19.1,1,20v0.1c-0.2,0.2-0.5,0.5-0.6,0.8C0.1,21.3,0,21.8,0,22.3c0,0.2,0,0.3,0,0.5l0,0c0.1,0.6,0.4,1.2,0.8,1.6
	c0.3,0.3,0.6,0.5,1,0.7c0.3,0.8,0.7,1.6,1.3,2.1s1.3,0.9,2.1,1C5.6,29.1,6,30,6.7,31c0.4,0.6,0.7,1.4,0.9,2.2
	c0.2,0.8,0.2,1.7,0.2,2.6c0,0.6,0,1.2-0.1,1.8c0,0.2,0,0.3,0,0.5c0,1.2,0.4,2.2,1,3.1C9,41.6,9.4,42,9.9,42.3s1,0.5,1.5,0.6
	C11.7,43,12,43,12.3,43c0.6,0,1.2-0.1,1.8-0.4c0.8-0.4,1.5-1,2-1.8c0.5-0.8,0.8-1.7,0.8-2.7c0-0.4-0.1-0.9-0.2-1.3
	c-0.2-0.9-0.6-1.9-1-2.9c-0.3-0.8-0.8-1.5-1.3-2.3c0.2-0.2,0.3-0.4,0.4-0.6l0,0c0.2-0.4,0.3-0.7,0.3-1.1s-0.1-0.7-0.2-1l0,0
	c0-0.1-0.1-0.2-0.1-0.3c0-0.1,0-0.2,0-0.3v-0.1l0,0c0-0.3,0.1-0.5,0.1-0.8v-0.1c0.1,0,0.2,0,0.3,0c0.7,0.1,1.4,0.3,2.2,0.5
	c1.2,0.4,2.4,0.9,3.5,1.4c0.5,0.3,1,0.5,1.5,0.8c0.4,0.3,0.8,0.5,1.1,0.7l0,0l0,0l0,0l0,0c1.1,0.7,2.2,1.1,3.1,1.4l0,0
	c0.4,0.1,0.7,0.2,1,0.2c0.2,0.4,0.4,0.7,0.6,1c0.4,0.6,0.8,1,1.3,1.4c0.2,0.2,0.5,0.3,0.7,0.4c0.3,0.1,0.5,0.1,0.8,0.1
	c0.1,0,0.3,0,0.4,0c0.2,0,0.5-0.1,0.7-0.2C32.4,34.8,32.6,34.7,32.7,34.5L32.7,34.5z"/>
</svg>
