<?xml version="1.0" encoding="utf-8"?>
<!-- Generator: Adobe Illustrator 27.9.0, SVG Export Plug-In . SVG Version: 6.00 Build 0)  -->
<svg version="1.1" id="Layer_1" xmlns="http://www.w3.org/2000/svg" xmlns:xlink="http://www.w3.org/1999/xlink" x="0px" y="0px"
	 viewBox="0 0 40.8 43" style="enable-background:new 0 0 40.8 43;" xml:space="preserve">
<style type="text/css">
	.st0{fill:#FF33FF;stroke:#1A1A1A;stroke-miterlimit:10;}
	.st1{fill:none;stroke:#000000;stroke-miterlimit:10;}
	.st2{fill:#333333;}
</style>
<path class="st0" d="M38.6,31.4L38.6,31.4L38.6,31.4z"/>
<path d="M6.5,25L6.5,25L6.5,25z"/>
<path d="M5,24.3L5,24.3L5,24.3z"/>
<path d="M10.3,20.8L10.3,20.8L10.3,20.8z"/>
<path d="M7.5,24.9L7.5,24.9L7.5,24.9z"/>
<path d="M10.6,38.7L10.6,38.7L10.6,38.7z"/>
<path d="M12.1,36.5L12.1,36.5L12.1,36.5z"/>
<path d="M7.8,37.6L7.8,37.6L7.8,37.6z"/>
<path d="M31.5,35.2L31.5,35.2L31.5,35.2z"/>
<rect x="-426" y="-413.1" class="st1" width="800" height="800"/>
<path class="st2" d="M20.7,6.4c-4.1,0-7.5,3.4-7.5,7.5s3.4,7.5,7.5,7.5s7.5-3.4,7.5-7.5l0,0C28.2,9.7,24.8,6.4,20.7,6.4z M20.7,18.7
	c-2.7,0-4.9-2.2-4.9-4.9S18,9,20.7,9s4.9,2.2,4.9,4.9l0,0C25.6,16.6,23.4,18.7,20.7,18.7L20.7,18.7z"/>
<path class="st2" d="M20.7,0.2C12.2,0.2,5.3,7,5.3,15.5c0,6.1,3.4,11.2,5.9,15l0.5,0.7c2.5,3.6,5.2,7.1,8,10.5l1,1.2l1-1.2
	c2.9-3.4,5.5-6.8,8-10.5l0.5-0.7c2.5-3.7,5.9-8.8,5.9-15C36.1,7,29.2,0.2,20.7,0.2z M28,29l-0.5,0.7c-2.3,3.4-5.2,7.2-6.8,9
	c-1.5-1.9-4.6-5.7-6.8-9L13.4,29c-2.3-3.5-5.5-8.2-5.5-13.5c0-7.1,5.7-12.8,12.8-12.8s12.8,5.7,12.8,12.8l0,0
	C33.5,20.9,30.3,25.6,28,29z"/>
</svg>
