<?xml version="1.0" encoding="utf-8"?>
<!-- Generator: Adobe Illustrator 22.0.0, SVG Export Plug-In . SVG Version: 6.00 Build 0)  -->
<svg version="1.1" id="Layer_1" xmlns="http://www.w3.org/2000/svg" xmlns:xlink="http://www.w3.org/1999/xlink" x="0px" y="0px"
	 viewBox="0 0 48.4 30.1" style="enable-background:new 0 0 48.4 30.1;" xml:space="preserve">
<style type="text/css">
	.st0{fill:#333333;stroke:#000000;stroke-width:0.25;stroke-miterlimit:10;}
</style>
<g>
	<g>
		<path class="st0" d="M17.5,13.1c-0.8,0-1.6-0.3-2.2-1c-1-1.1-1.1-2.8-0.1-3.9l4-4.9c2-2.5,5.3-3.5,8.4-2.5l10.1,3.1
			C38,4,38.2,4.3,38.1,4.6C38,4.8,37.7,5,37.4,4.9L27.3,1.8C24.7,1,21.8,1.9,20,4l-4,4.9c-0.6,0.7-0.6,1.9,0.1,2.6
			c0.7,0.7,1.8,0.8,2.6,0.2l6.2-4.6C25,7,25.3,7,25.5,7.2c0.2,0.2,0.1,0.5-0.1,0.7l-6.2,4.6C18.7,12.9,18.1,13.1,17.5,13.1z"/>
	</g>
	<g>
		<path class="st0" d="M36.6,23.9c-0.7,0-1.4-0.3-1.9-0.7l-8.6-7.6c-0.2-0.2-0.2-0.5,0-0.7c0.2-0.2,0.5-0.2,0.7,0l8.6,7.6
			c0.4,0.3,0.9,0.5,1.4,0.5c0.5,0,1-0.3,1.3-0.6c0.3-0.4,0.5-0.9,0.5-1.4c0-0.5-0.3-1-0.6-1.3L24.8,7.9c-0.2-0.2-0.2-0.5,0-0.7
			c0.2-0.2,0.5-0.2,0.7,0l13.2,11.6c0.6,0.5,0.9,1.2,1,2c0,0.8-0.2,1.5-0.7,2.1c-0.5,0.6-1.2,0.9-2,1C36.8,23.9,36.7,23.9,36.6,23.9
			z"/>
	</g>
	<g>
		<path class="st0" d="M33.4,27.6c-0.7,0-1.4-0.3-1.9-0.7l-8.6-7.6c-0.2-0.2-0.2-0.5,0-0.7c0.2-0.2,0.5-0.2,0.7,0l8.6,7.6
			c0.4,0.3,0.9,0.5,1.4,0.5c0.5,0,1-0.3,1.3-0.6c0.7-0.8,0.6-2-0.2-2.7l-8.6-7.6c-0.2-0.2-0.2-0.5,0-0.7c0.2-0.2,0.5-0.2,0.7,0
			l8.6,7.6c1.2,1.1,1.3,2.9,0.3,4.1c-0.5,0.6-1.2,0.9-2,1C33.6,27.6,33.5,27.6,33.4,27.6z"/>
	</g>
	<g>
		<path class="st0" d="M28.2,29.1c-0.7,0-1.3-0.2-1.9-0.7L19.1,22c-0.2-0.2-0.2-0.5,0-0.7c0.2-0.2,0.5-0.2,0.7,0l7.3,6.4
			c0.7,0.6,1.9,0.6,2.5-0.2c0.6-0.7,0.6-1.9-0.2-2.5l-6.9-6.1c-0.2-0.2-0.2-0.5,0-0.7c0.2-0.2,0.5-0.2,0.7,0l6.9,6.1
			c1.2,1,1.3,2.8,0.2,3.9C29.8,28.8,29,29.1,28.2,29.1z"/>
	</g>
	<g>
		<path class="st0" d="M22.8,30c-0.6,0-1.2-0.2-1.7-0.7L7.2,17.1c-0.2-0.2-0.2-0.5,0-0.7c0.2-0.2,0.5-0.2,0.7,0l13.9,12.3
			c0.7,0.6,1.7,0.5,2.3-0.1c0.6-0.7,0.5-1.7-0.1-2.3L19,21.9c-0.2-0.2-0.2-0.5,0-0.7c0.2-0.2,0.5-0.2,0.7,0l4.8,4.3
			c1.1,1,1.2,2.6,0.2,3.7C24.2,29.7,23.5,30,22.8,30z"/>
	</g>
	<g>
		<path class="st0" d="M10.8,4.9c-0.2,0-0.5-0.2-0.5-0.4c0-0.3,0.1-0.5,0.4-0.6l9.6-1.6c0.3,0,0.5,0.1,0.6,0.4
			c0,0.3-0.1,0.5-0.4,0.6L10.8,4.9C10.9,4.9,10.8,4.9,10.8,4.9z"/>
	</g>
	<g>
		<path class="st0" d="M38.2,19.6c-0.1,0-0.3-0.1-0.4-0.2c-0.2-0.2-0.2-0.5,0-0.7l2.7-2.4c0.2-0.2,0.5-0.2,0.7,0
			c0.2,0.2,0.2,0.5,0,0.7l-2.7,2.4C38.4,19.6,38.3,19.6,38.2,19.6z"/>
	</g>
	<g>
		<path class="st0" d="M6.9,19.7c0,0-0.1,0-0.1,0L0.5,18c-0.3-0.1-0.4-0.4-0.4-0.6L4.6,0.5C4.7,0.2,5,0.1,5.3,0.1l6.2,1.7
			c0.1,0,0.2,0.1,0.3,0.2c0.1,0.1,0.1,0.3,0.1,0.4L7.4,19.3c0,0.1-0.1,0.2-0.2,0.3C7.1,19.6,7,19.7,6.9,19.7z M1.3,17.1l5.3,1.4
			l4.2-15.9L5.5,1.3L1.3,17.1z"/>
	</g>
	<g>
		<path class="st0" d="M41.5,19.7c-0.2,0-0.4-0.2-0.5-0.4L36.5,2.4c0-0.1,0-0.3,0.1-0.4c0.1-0.1,0.2-0.2,0.3-0.2l6.2-1.7
			c0.3-0.1,0.6,0.1,0.6,0.4l4.5,16.8c0,0.1,0,0.3-0.1,0.4c-0.1,0.1-0.2,0.2-0.3,0.2l-6.2,1.7C41.6,19.7,41.6,19.7,41.5,19.7z
			 M37.6,2.7l4.2,15.9l5.3-1.4L42.9,1.3L37.6,2.7z"/>
	</g>
</g>
</svg>
