<?xml version="1.0" encoding="utf-8"?>
<!-- Generator: Adobe Illustrator 27.9.0, SVG Export Plug-In . SVG Version: 6.00 Build 0)  -->
<svg version="1.1" id="Layer_1" xmlns="http://www.w3.org/2000/svg" xmlns:xlink="http://www.w3.org/1999/xlink" x="0px" y="0px"
	 viewBox="0 0 40.8 43" style="enable-background:new 0 0 40.8 43;" xml:space="preserve">
<style type="text/css">
	.st0{fill:#333333;}
</style>
<g id="Calendar">
	<path class="st0" d="M36.1,6.2h-8.4V3.4c0-0.3-0.3-0.5-0.5-0.5c-0.3,0-0.5,0.3-0.5,0.5v2.8H14.8V3.4c0-0.3-0.3-0.5-0.5-0.5
		c-0.3,0-0.5,0.3-0.5,0.5v2.8H4.9c-1.3,0-2.3,1-2.3,2.2v27.9c0,1.2,1,2.2,2.2,2.2H36c1.2,0,2.2-1,2.2-2.2V8.4
		C38.3,7.1,37.3,6.2,36.1,6.2z M4.9,7.2h8.9v1.7c0,0.3,0.3,0.5,0.5,0.5c0.3,0,0.5-0.3,0.5-0.5V7.2h11.7v1.7c0,0.3,0.3,0.5,0.5,0.5
		c0.3,0,0.5-0.3,0.5-0.5V7.2H36c0.6,0,1.1,0.5,1.1,1.1v3.9H3.8l0,0V8.4C3.8,7.8,4.2,7.2,4.9,7.2z M37.1,36.2c0,0.6-0.5,1.1-1.1,1.1
		H4.9c-0.6,0-1.1-0.5-1.1-1.1V13.3l0,0h33.4V36.2z"/>
	<path class="st0" d="M12.7,16.1H8.2v4.5h4.5V16.1z M11.5,19.5H9.3v-2.2h2.2V19.5z"/>
	<path class="st0" d="M22.7,16.1h-4.5v4.5h4.5V16.1z M21.6,19.5h-2.2v-2.2h2.2V19.5z"/>
	<path class="st0" d="M32.7,16.1h-4.5v4.5h4.5V16.1z M31.6,19.5h-2.2v-2.2h2.2V19.5z"/>
	<path class="st0" d="M12.7,22.9H8.2v4.5h4.5V22.9z M11.5,26.2H9.3V24h2.2V26.2z"/>
	<path class="st0" d="M22.7,22.9h-4.5v4.5h4.5V22.9z M21.6,26.2h-2.2V24h2.2V26.2z"/>
	<path class="st0" d="M12.7,29.5H8.2V34h4.5V29.5z M11.5,32.9H9.3v-2.2h2.2V32.9z"/>
	<path class="st0" d="M22.7,29.5h-4.5V34h4.5V29.5z M21.6,32.9h-2.2v-2.2h2.2V32.9z"/>
	<path class="st0" d="M32.7,22.9h-4.5v4.5h4.5V22.9z M31.6,26.2h-2.2V24h2.2V26.2z"/>
	<path class="st0" d="M32.7,29.5h-4.5V34h4.5V29.5z M31.6,32.9h-2.2v-2.2h2.2V32.9z"/>
</g>
</svg>
