<svg enable-background="new 0 0 512 512" viewBox="0 0 512 512" xmlns="http://www.w3.org/2000/svg"><path d="m441.9 361.4c-16.4 0-29.7-13.3-29.7-29.7v-104.3c0-68-43.6-125.9-104.4-147.4v-28.2c.1-28.5-23.2-51.8-51.8-51.8s-51.8 23.3-51.8 51.8v28.2c-60.7 21.4-104.4 79.4-104.4 147.4v104.4c0 16.4-13.3 29.7-29.7 29.7-8.3 0-15 6.7-15 15v58c0 8.3 6.7 15 15 15h129v5.6c0 31.4 25.5 57 57 57s57-25.5 57-57v-5.6h129c8.3 0 15-6.7 15-15v-58c-.2-8.4-6.9-15.1-15.2-15.1zm-207.7-309.6c0-12 9.8-21.9 21.8-21.9s21.9 9.8 21.9 21.9v20.8c-7.1-1-14.4-1.5-21.9-1.5s-14.7.5-21.8 1.5zm48.8 403.2c0 14.9-12.1 27-27 27s-27-12.1-27-27v-5.6h54zm143.9-35.6h-341.8v-29.9c25.7-6.7 44.7-30 44.7-57.8v-104.3c0-69.6 56.6-126.2 126.2-126.2s126.2 56.6 126.2 126.2v104.4c0 27.7 19 51.1 44.7 57.8z" fill="#fff"/></svg>