<?xml version="1.0" encoding="utf-8"?>
<!-- Generator: Adobe Illustrator 22.0.0, SVG Export Plug-In . SVG Version: 6.00 Build 0)  -->
<svg version="1.1" id="Capa_1" xmlns="http://www.w3.org/2000/svg" xmlns:xlink="http://www.w3.org/1999/xlink" x="0px" y="0px"
	 width="512px" height="512px" viewBox="0 0 512 512" style="enable-background:new 0 0 512 512;" xml:space="preserve">
<style type="text/css">
	.st0{fill:#B3B3B3;}
	.st1{fill:url(#SVGID_1_);}
	.st2{fill:url(#SVGID_2_);}
	.st3{fill:#2E8E55;}
	.st4{fill:#33A361;}
	.st5{fill:url(#SVGID_3_);}
	.st6{fill:#CBC73D;}
</style>
<path class="st0" d="M343,316.4599915c-20.480011,0-42.2799988-8.2600098-61.2799988-23.9500122
	c-28.4799957-23.519989-54.3999939-68-41.7299957-122.3200073c6.7299957-28.8500061,25.2299957-53.4199982,52.0900116-69.1999969
	c26.4100037-15.5100021,58.0700073-20.8899994,89.1300049-15.1500015l-3.0700073,16.6100006
	c-56.4400024-10.4300003-109.8999939,21-121.7000122,71.5699997c-10.9199982,46.8099976,11.4599915,85.1699982,36,105.4700165
	c23.1600037,19.1199951,50.6900024,25.1400146,71.8399963,15.7099915l6.8800049,15.4200134
	C362.2901917,314.5307312,352.6934814,316.5209351,343,316.4599915z"/>
<linearGradient id="SVGID_1_" gradientUnits="userSpaceOnUse" x1="93.7100372" y1="291.4500122" x2="418.3199158" y2="291.4500122" gradientTransform="matrix(1 0 0 -1 0 512)">
	<stop  offset="0" style="stop-color:#49DA8B"/>
	<stop  offset="1" style="stop-color:#39B76F"/>
</linearGradient>
<path class="st1" d="M151.1300049,315.2999878c-2.0700073-1.269989-50.8800049-31.3699951-56.8199997-75.1999969
	c-2.9199982-21.4499969,4.8300018-42.1199951,23-61.4400024c48.3600082-51.3899994,139.1900024-67.5800018,216-38.4900055
	c27.5599976,10.4400024,49,24.7700043,63.7799988,42.5800018c13.3200073,16.0800018,20.6499939,34.5999908,21.2000122,53.5699921
	c0.8802185,32.0344849-17.7298889,61.4105225-47.0700073,74.3000183l-6.8800049-15.4200134
	c23.0728455-10.1272278,37.7216187-33.2111206,37.0599976-58.3999939c-1-33.8999939-28-63.3600006-74.0799866-80.8399963
	c-70.6499939-26.7599945-153.7899933-12.3500061-197.6699982,34.2799988
	c-14.5200043,15.4199982-20.7700043,31.4400024-18.5800018,47.5899963c4.8799973,35.9299927,48.4199982,62.7600098,48.8600006,63
	L151.1300049,315.2999878z"/>
<linearGradient id="SVGID_2_" gradientUnits="userSpaceOnUse" x1="123.4700012" y1="185.75" x2="296.2900085" y2="185.75" gradientTransform="matrix(1 0 0 -1 0 512)">
	<stop  offset="0" style="stop-color:#49DA8B"/>
	<stop  offset="1" style="stop-color:#39B76F"/>
</linearGradient>
<polygon class="st2" points="230.3000031,381.7399902 123.4700012,315.1300049 189.4499969,270.7600098 296.2900085,337.3699951 "/>
<polygon class="st3" points="296.2900085,337.3699951 296.2900085,384.0400085 230.3000031,428.3999939 230.3000031,381.7399902 "/>
<polygon class="st4" points="123.4700012,315.1300049 123.4700012,361.7900085 230.3000031,428.3999939 230.3000031,381.7399902 "/>
<path class="st0" d="M400.7099915,229.2400055c0,0,3.4200134,26.4600067-2.2099915,47.9000092
	s-21.8599854,32.4400024-35.3999939,36.4700012s-19-14-19-14s23.2399902,0.6300049,41.4400024-19.8099976
	C405.6499939,257.2200012,400.7099915,229.2400055,400.7099915,229.2400055z"/>
<linearGradient id="SVGID_3_" gradientUnits="userSpaceOnUse" x1="170.4600067" y1="203.6699982" x2="264.4500122" y2="203.6699982" gradientTransform="matrix(1 0 0 -1 0 512)">
	<stop  offset="0" style="stop-color:#DCE2E1"/>
	<stop  offset="1" style="stop-color:#C0CCCE"/>
</linearGradient>
<polygon class="st5" points="235.8600006,357.4899902 170.4600067,271.2900085 195.1499939,259.1700134 264.4500122,338.8599854 "/>
<polygon class="st6" points="238.8999939,422.6199951 242.7899933,420 242.7899933,396.9500122 238.8999939,399.5700073 "/>
<polygon class="st6" points="248.4700012,416.1900024 252.3699951,413.5700073 252.3699951,390.5100098 248.4700012,393.1300049 "/>
<polygon class="st6" points="258.0400085,409.75 261.9400024,407.1300049 261.9400024,384.0700073 258.0400085,386.6900024 "/>
<polygon class="st6" points="277.1799927,396.8800049 281.0799866,394.2600098 281.0799866,371.2000122 277.1799927,373.8200073 "/>
<polygon class="st6" points="267.6099854,403.3099976 271.5100098,400.6900024 271.5100098,377.6400146 267.6099854,380.2600098 "/>
<polygon class="st6" points="286.7600098,390.4400024 290.6499939,387.8200073 290.6499939,364.7600098 286.7600098,367.3900146 "/>
</svg>
