<?xml version="1.0" encoding="utf-8"?>
<!-- Generator: Adobe Illustrator 22.0.0, SVG Export Plug-In . SVG Version: 6.00 Build 0)  -->
<svg version="1.1" id="Layer_1" xmlns="http://www.w3.org/2000/svg" xmlns:xlink="http://www.w3.org/1999/xlink" x="0px" y="0px"
	 width="512px" height="512px" viewBox="0 0 512 512" style="enable-background:new 0 0 512 512;" xml:space="preserve">
<style type="text/css">
	.st0{fill:#FFB928;}
	.st1{fill:#EBB074;}
	.st2{fill:#FFD750;}
	.st3{fill:#D7965E;}
	.st4{fill:#EFC090;}
	.st5{fill:#39B76F;}
	.st6{fill:url(#SVGID_1_);}
	.st7{fill:url(#SVGID_2_);}
	.st8{fill:#915F41;}
	.st9{fill:url(#SVGID_3_);}
	.st10{fill:url(#SVGID_4_);}
	.st11{fill:#754C24;}
	.st12{fill:#B3B3B3;}
	.st13{fill:#8D8F91;}
</style>
<g>
	<g id="Capa_1">
		<polygon class="st0" points="41.8100014,368.3299866 221.6499939,293.8999939 221.6499939,69.2300034 41.8100014,143.6699982 		
			"/>
		<polygon class="st1" points="221.6499939,442.769989 41.8100014,368.3299866 41.8100014,143.6699982 221.6499939,218.1000061 		
			"/>
		<polygon class="st2" points="401.4899902,368.3299866 221.6499939,293.8999939 221.6499939,69.2300034 401.4899902,143.6699982 		
			"/>
		<polygon class="st3" points="221.6499939,442.769989 401.4899902,368.3299866 401.4899902,143.6699982 221.6499939,218.1000061 		
			"/>
		<polygon class="st4" points="221.6900024,69.2300034 41.8499985,143.6699982 221.6900024,218.1000061 401.5299988,143.6699982 		
			"/>
		<polygon class="st5" points="314.2999878,179.7799988 134.5800018,105.2799988 131.9199982,106.3899994 311.6400146,180.8699951 
					"/>
		
			<linearGradient id="SVGID_1_" gradientUnits="userSpaceOnUse" x1="107.5400009" y1="363.3200073" x2="311.6400146" y2="363.3200073" gradientTransform="matrix(1 0 0 -1 0 512)">
			<stop  offset="0" style="stop-color:#49DA8B"/>
			<stop  offset="1" style="stop-color:#39B76F"/>
		</linearGradient>
		<polygon class="st6" points="287.2600098,190.9700012 311.6400146,180.8699951 131.9199982,106.3899994 107.5400009,116.4700012 
					"/>
		
			<linearGradient id="SVGID_2_" gradientUnits="userSpaceOnUse" x1="134.5800018" y1="374.4949951" x2="338.5899963" y2="374.4949951" gradientTransform="matrix(1 0 0 -1 0 512)">
			<stop  offset="0" style="stop-color:#49DA8B"/>
			<stop  offset="1" style="stop-color:#39B76F"/>
		</linearGradient>
		<polygon class="st7" points="338.5899963,169.7200012 158.8699951,95.2300034 134.5800018,105.2799988 314.2999878,179.7799988 		
			"/>
		<polygon class="st5" points="338.5899963,169.7200012 338.5700073,169.7100067 287.4700012,190.8600006 287.4700012,271.480011 
			338.5899963,250.3200073 		"/>
		<polygon class="st8" points="364.2999878,326.5299988 357.8099976,340.4100037 361.9700012,338.7399902 361.9700012,360.3500061 
			366.6300049,358.4899902 366.6300049,336.8699951 370.7999878,335.2000122 		"/>
		<polygon class="st8" points="380.6700134,319.9500122 374.1799927,333.8500061 378.3399963,332.1799927 378.3399963,353.8500061 
			383.0100098,352 383.0100098,330.3200073 387.1700134,328.6600037 		"/>
		<polygon class="st8" points="387.1700134,354.6400146 357.8099976,366.2799988 357.8099976,363.3299866 387.1700134,351.6799927 
					"/>
		<path class="st8" d="M350.3299866,328.5499878v44.3099976l44.3099976-17.519989v-44.6300049L350.3299866,328.5499878z
			 M393.2099915,354.4499817l-41.4500122,16.4100037v-41.4599915l41.4500122-16.6799927V354.4499817z"/>
		<polygon class="st0" points="470.1900024,396.75 401.5,368.3200073 401.5,282.5100098 470.1900024,310.9400024 		"/>
		<polygon class="st5" points="401.5,425.1900024 470.1900024,396.75 470.1900024,310.9400024 401.5,339.3800049 		"/>
		<polygon class="st2" points="332.8099976,396.75 401.5,368.3200073 401.5,282.5100098 332.8099976,310.9400024 		"/>
		
			<linearGradient id="SVGID_3_" gradientUnits="userSpaceOnUse" x1="391.6106262" y1="132.1813202" x2="324.3006287" y2="164.5313263" gradientTransform="matrix(1 0 0 -1 0 512)">
			<stop  offset="0" style="stop-color:#49DA8B"/>
			<stop  offset="1" style="stop-color:#39B76F"/>
		</linearGradient>
		<polygon class="st9" points="401.5,425.1900024 332.8099976,396.75 332.8099976,310.9400024 401.5,339.3800049 		"/>
		
			<linearGradient id="SVGID_4_" gradientUnits="userSpaceOnUse" x1="332.7900085" y1="201.0549927" x2="470.1799927" y2="201.0549927" gradientTransform="matrix(1 0 0 -1 0 512)">
			<stop  offset="0" style="stop-color:#49DA8B"/>
			<stop  offset="1" style="stop-color:#39B76F"/>
		</linearGradient>
		<polygon class="st10" points="401.480011,282.5100098 470.1799927,310.9400024 401.480011,339.3800049 332.7900085,310.9400024 		
			"/>
		<polygon class="st11" points="366.1099854,324.7399902 434.75,296.2799988 435.769989,296.7000122 367.1300049,325.1499939 		"/>
		<polygon class="st12" points="376.4400024,329.0100098 367.1300049,325.1499939 435.769989,296.7000122 445.0899963,300.5599976 
					"/>
		<polygon class="st12" points="356.8299866,320.8900146 425.480011,292.4400024 434.75,296.2799988 366.1099854,324.7399902 		"/>
		<polygon class="st13" points="356.8299866,320.8900146 356.8399963,320.8900146 376.3599854,328.9700012 376.3599854,359.7600098 
			356.8299866,351.6799927 		"/>
	</g>
</g>
</svg>
