<?xml version="1.0" encoding="utf-8"?>
<!-- Generator: Adobe Illustrator 22.0.0, SVG Export Plug-In . SVG Version: 6.00 Build 0)  -->
<svg version="1.1" id="Capa_1" xmlns="http://www.w3.org/2000/svg" xmlns:xlink="http://www.w3.org/1999/xlink" x="0px" y="0px"
	 width="512px" height="512px" viewBox="0 0 512 512" style="enable-background:new 0 0 512 512;" xml:space="preserve">
<style type="text/css">
	.st0{fill:#7C3800;}
	.st1{fill:#F8AC47;}
	.st2{fill:#ED8F20;}
	.st3{fill:#FFFFFD;}
	.st4{fill:#F4F3D7;}
	.st5{fill:#E07C0E;}
	.st6{fill:#A85000;}
	.st7{fill:#FCA12A;}
	.st8{fill:url(#SVGID_1_);}
	.st9{fill:#B3B3B3;}
	.st10{fill:url(#SVGID_2_);}
	.st11{fill:#33A361;}
	.st12{fill:url(#SVGID_3_);}
	.st13{fill:url(#SVGID_4_);}
	.st14{fill:url(#SVGID_5_);}
	.st15{fill:url(#SVGID_6_);}
</style>
<rect x="187.8200073" y="358.3399963" class="st0" width="45.4100037" height="25.230011"/>
<path class="st1" d="M236.2599945,348.25c0,26.230011-18.6699982,35.3200073-44.4000092,35.3200073h-72.6499863
	c-26.2399979,0-49.4399948-9.0899963-49.4399948-35.3200073v-228c0-25.7299957,23.7099991-49.4400024,49.4400024-49.4400024
	h72.1500092c26.2299957,0,44.3899994,23.7099991,44.3899994,49.4400024v228H236.2599945z"/>
<path class="st2" d="M120.2200012,70.7600021h71.6399994c26.2299957,0,44.4000092,23.7099991,44.4000092,49.4399948V348.25
	c0,26.230011-18.6699982,35.3200073-44.3999939,35.3200073h-71.6400146"/>
<path class="st3" d="M105.0800018,192.8600006c-0.1465607,4.0373535-3.5322418,7.194931-7.5699997,7.0599976l0,0
	c-4.0146637,0.1013031-7.3633499-3.0467377-7.5100021-7.0599976v-42.3800049
	c0.1412201-4.0372772,3.522316-7.199234,7.5599976-7.0700073l0,0c4.0415268-0.1348724,7.4288177,3.0287018,7.5699997,7.0700073
	L105.0800018,192.8600006z"/>
<path class="st4" d="M97.5100021,143.4100037L97.5100021,143.4100037c4.0415268-0.1348724,7.4288177,3.0287018,7.5699997,7.0700073
	v42.3800049c-0.1465607,4.0373535-3.5322418,7.194931-7.5699997,7.0599976l0,0"/>
<path class="st5" d="M120.2200012,70.7600021h71.6399994c26.2299957,0,44.4000092,23.7099991,44.4000092,49.4399948V348.25
	c0,26.230011-18.1699982,35.8200073-48.4400024,35.3200073"/>
<path class="st3" d="M105.0800018,296.7900085c-0.1465607,4.0373535-3.5322418,7.1949463-7.5699997,7.0599976l0,0
	c-4.0146637,0.1012878-7.3633499-3.0467224-7.5100021-7.0599976v-42.3800049
	c0.1412201-4.0372772,3.522316-7.199234,7.5599976-7.0700073l0,0c4.0415268-0.1348724,7.4288177,3.0287018,7.5699997,7.0700073
	L105.0800018,296.7900085z"/>
<path class="st4" d="M97.5100021,247.3399963L97.5100021,247.3399963c4.0415268-0.1348724,7.4288177,3.0287018,7.5699997,7.0700073
	v42.3800049c-0.1465607,4.0373535-3.5322418,7.1949463-7.5699997,7.0599976l0,0"/>
<rect x="69.7699966" y="222.1199951" class="st6" width="166.4900208" height="10.0899963"/>
<rect x="120.2200012" y="222.1199951" class="st0" width="116.0400085" height="10.0899963"/>
<path class="st7" d="M216.0800018,143.9199982c0.0741882,1.3178711-0.934021,2.4463654-2.2518921,2.5205536
	c-0.0926361,0.0052185-0.1854858,0.0050354-0.2781067-0.0005493h-30.2700043
	c-1.3120117,0.0797424-2.4402618-0.9192047-2.5200043-2.2312317c-0.0058441-0.0961609-0.0058441-0.1925964,0-0.2887726l0,0
	c-0.0794067-1.3175659,0.9243317-2.4500427,2.2418976-2.5294495c0.0926056-0.0055847,0.1854706-0.0057678,0.2781067-0.0005493
	h30.2700043c1.3175507-0.0797272,2.4502716,0.9237213,2.5299988,2.241272
	C216.0858154,143.7274323,216.0858154,143.8238373,216.0800018,143.9199982z"/>
<path class="st7" d="M216.0800018,159.0500031c0.0797272,1.3175507-0.9237213,2.4502716-2.241272,2.5299988
	c-0.0961609,0.0058136-0.1925659,0.0058136-0.2887268,0h-30.2700043c-1.3178711,0.0741882-2.4463654-0.934021-2.5205536-2.2518921
	c-0.0052185-0.0926361-0.0050354-0.1854858,0.0005493-0.2781067l0,0c-0.0797424-1.3120117,0.9192047-2.4402618,2.2312317-2.5200043
	c0.0961609-0.0058441,0.1925964-0.0058441,0.2887726,0h30.2700043c1.3175659-0.0794067,2.4500427,0.9243317,2.5294495,2.2418976
	C216.0850372,158.864502,216.0852203,158.9573669,216.0800018,159.0500031z"/>
<path class="st7" d="M216.0800018,174.1900024c0.0741882,1.3178711-0.934021,2.4463654-2.2518921,2.5205536
	c-0.0926361,0.0052185-0.1854858,0.0050354-0.2781067-0.0005493h-30.2700043
	c-1.3120117,0.0797424-2.4402618-0.9192047-2.5200043-2.2312317c-0.0058441-0.0961609-0.0058441-0.1925964,0-0.2887726l0,0
	c-0.0797424-1.3120117,0.9192047-2.4402618,2.2312317-2.5200043c0.0961609-0.0058441,0.1925964-0.0058441,0.2887726,0h30.2700043
	c1.3116608-0.0852814,2.4441223,0.9088898,2.5294037,2.2205658
	C216.0858917,173.9902649,216.0860901,174.090271,216.0800018,174.1900024z"/>
<linearGradient id="SVGID_1_" gradientUnits="userSpaceOnUse" x1="270.2484131" y1="293.8432312" x2="343.3947449" y2="293.8432312" gradientTransform="matrix(1 0 0 -1 -0.0388606 512.0019531)">
	<stop  offset="0" style="stop-color:#DCE2E1"/>
	<stop  offset="1" style="stop-color:#C0CCCE"/>
</linearGradient>
<circle class="st8" cx="306.7827148" cy="218.1587067" r="36.5699997"/>
<path class="st9" d="M306.7999878,182.0599976c20.1943054-0.3338776,36.8356628,15.7661743,37.1695251,35.9604645
	c0.3338928,20.1942902-15.7661438,36.8356628-35.9604492,37.1695404c-0.4029846,0.0066681-0.8060913,0.0066681-1.2090759,0"/>
<path class="st9" d="M205.6799927,435.7600098c-0.9658203,3.5863647-4.4374847,5.903656-8.1199951,5.4200134l0,0
	c-3.5836182-0.969635-5.8990936-4.4385681-5.4199982-8.1199951l4.5099945-56.4299927
	c0.9100037-3.6199951,12.1900024-4.519989,15.8000031-3.6199951l0,0c3.6199951,0.9100037,14,6.3200073,13.1000061,9.9400024
	L205.6799927,435.7600098z"/>
<path class="st9" d="M212.4499969,372.5599976L212.4499969,372.5599976c3.6199951,0.9100037,14,6.3200073,13.1000061,9.9299927
	l-19.8699951,53.269989c-0.9658203,3.5863647-4.4374847,5.903656-8.1199951,5.4200134l0,0"/>
<path class="st9" d="M407.9299927,435.7600098c0.9658203,3.5863647,4.4375,5.903656,8.1199951,5.4200134l0,0
	c3.5836182-0.969635,5.8991089-4.4385681,5.4200134-8.1199951L417,376.6300049
	c-0.8999939-3.6199951-12.1799927-4.519989-15.7999878-3.6199951l0,0c-3.6099854,0.9100037-14,6.3200073-13.0899963,9.9400024
	L407.9299927,435.7600098z"/>
<path class="st9" d="M400.7000122,372.5599976L400.7000122,372.5599976c-3.6099854,0.9100037-14,6.3200073-13.0899963,9.9299927
	l19.8600159,52.8200073c0.9776611,3.5823975,4.4471436,5.8954163,8.1300049,5.4200134l0,0"/>
<linearGradient id="SVGID_2_" gradientUnits="userSpaceOnUse" x1="171.3999939" y1="207.1650085" x2="442.230011" y2="207.1650085" gradientTransform="matrix(1 0 0 -1 0 512)">
	<stop  offset="0" style="stop-color:#49DA8B"/>
	<stop  offset="1" style="stop-color:#39B76F"/>
</linearGradient>
<path class="st10" d="M442.230011,372.1099854c0,23.9299927-21.6600037,29.7999878-45.5899963,29.7999878H217
	c-23.9299927,0-45.6000061-5.4200134-45.6000061-29.7999878V252c0-23.9299927,21.6699982-44.2400055,45.6000061-44.2400055
	h184.1499939c23.9299927,0,41.0799866,20.3099976,41.0799866,44.2400055L442.230011,372.1099854z"/>
<path class="st11" d="M216.5200043,207.7899933h184.6299896c23.9299927,0,41.0799866,20.3099976,41.0799866,44.2400055v120.0799866
	c0,23.9299927-21.6600037,29.7999878-45.5899963,29.7999878"/>
<linearGradient id="SVGID_3_" gradientUnits="userSpaceOnUse" x1="198.4600067" y1="207.1549988" x2="347.4299927" y2="207.1549988" gradientTransform="matrix(1 0 0 -1 0 512)">
	<stop  offset="0" style="stop-color:#DCE2E1"/>
	<stop  offset="1" style="stop-color:#C0CCCE"/>
</linearGradient>
<path class="st12" d="M347.4299927,347.730011c0,25.2799988-20.3099976,31.6000061-46,31.6000061h-57.3799896
	c-25.7299957,0-45.5899963-6.3200073-45.5899963-31.6000061v-70.8700256c0-25.2799988,19.8600006-46.5,45.5899963-46.5h57.7899933
	c25.2799988,0,45.5899963,21.2200012,45.5899963,46.5V347.730011z"/>
<path class="st9" d="M421,239.3899994c-0.0055237,2.4924164-2.0275574,4.5099945-4.519989,4.5099945h-44.6700134
	c-2.3484192,0.142395-4.3676147-1.6459503-4.5100098-3.9943695c-0.0104065-0.1717224-0.0104065-0.3439026,0-0.515625l0,0
	c0-2.490799,2.0191956-4.5099945,4.5100098-4.5099945l0,0H416.5c2.3480835-0.1479187,4.3714905,1.6356659,4.5194092,3.9837341
	c0.0110474,0.1752472,0.0112305,0.3509979,0.0005798,0.5262604H421z"/>
<path class="st9" d="M421,262c-0.0054932,2.4940491-2.0259399,4.5144958-4.519989,4.519989h-44.6700134
	c-2.3483887,0.1427307-4.3678589-1.6453247-4.5105896-3.9937134c-0.0106506-0.1752625-0.0104675-0.3510437,0.0005798-0.5262756l0,0
	c0-2.4908142,2.0191956-4.5100098,4.5099792-4.5100098c0.0000305,0,0.0000305,0,0.0000305,0H416.5
	c2.3487549-0.1368408,4.3637085,1.6562805,4.5005493,4.0050049C421.0103455,261.663208,421.0101624,261.8318176,421,262z"/>
<path class="st9" d="M421,284.5299988c-0.0054932,2.4940491-2.0259399,4.5144958-4.519989,4.519989h-44.6700134
	c-2.3483887,0.1427307-4.3678589-1.6453247-4.5105896-3.9937134c-0.0106506-0.1752625-0.0104675-0.3510437,0.0005798-0.5262756l0,0
	c0-2.4908142,2.0191956-4.5100098,4.5099792-4.5100098c0.0000305,0,0.0000305,0,0.0000305,0H416.5
	c2.3480835-0.1479187,4.3714905,1.6356506,4.5194092,3.9837341c0.0110474,0.1752625,0.0112305,0.3510132,0.0005798,0.5262756H421z"
	/>
<linearGradient id="SVGID_4_" gradientUnits="userSpaceOnUse" x1="367.2174683" y1="179.8399811" x2="420.226593" y2="179.8399811" gradientTransform="matrix(1 0 0 -1 0 512)">
	<stop  offset="0" style="stop-color:#DCE2E1"/>
	<stop  offset="1" style="stop-color:#C0CCCE"/>
</linearGradient>
<path class="st13" d="M412.4400024,350.8900146c-10.3442993,10.3456726-27.1168213,10.3468018-37.4625244,0.002533
	c-10.3456726-10.3442993-10.3468018-27.1168518-0.002533-37.4625244
	c10.3442993-10.3456726,27.1168518-10.3468018,37.4625244-0.002533c0.0008545,0.0008545,0.0016785,0.0016785,0.002533,0.002533
	c10.3442993,10.2909546,10.3875427,27.019104,0.0965881,37.3634033
	C412.5044861,350.8257141,412.47229,350.8579102,412.4400024,350.8900146z"/>
<path class="st9" d="M412.4400024,313.4299927c10.6114807,10.0714417,11.0492859,26.8382568,0.9778137,37.4497681
	c-10.0714417,10.6114807-26.8382568,11.0492554-37.4497375,0.9778137c-0.3309631-0.3141174-0.6537781-0.6367493-0.9680786-0.9675598
	"/>
<linearGradient id="SVGID_5_" gradientUnits="userSpaceOnUse" x1="272.9527588" y1="330.237793" x2="300.6108704" y2="330.237793" gradientTransform="matrix(1 0 0 -1 0 512)">
	<stop  offset="0" style="stop-color:#DCE2E1"/>
	<stop  offset="1" style="stop-color:#C0CCCE"/>
</linearGradient>
<path class="st14" d="M273.3999939,169.8699951c-0.9355469-1.8937531-0.3645325-4.1863251,1.3500061-5.4199982l0,0
	c1.8956299-0.937912,4.1917419-0.3617706,5.4200134,1.3600006l20.3099976,23.9199982
	c0.9100037,1.8099976-3.1600037,6.3200073-5,7.6799927l0,0c-1.8099976,1.3500061-7.6799927,3.1600037-9,1.3500061
	L273.3999939,169.8699951z"/>
<linearGradient id="SVGID_6_" gradientUnits="userSpaceOnUse" x1="272.9527588" y1="329.789093" x2="295.519989" y2="329.789093" gradientTransform="matrix(1 0 0 -1 0 512)">
	<stop  offset="0" style="stop-color:#DCE2E1"/>
	<stop  offset="1" style="stop-color:#C0CCCE"/>
</linearGradient>
<path class="st15" d="M295.519989,197.4100037L295.519989,197.4100037c-1.8099976,1.3500061-7.6799927,3.1600037-9,1.3500061
	l-13.1199951-28.4400024c-0.9355469-1.8937531-0.3645325-4.1863251,1.3500061-5.4199982l0,0"/>
<path class="st9" d="M340.2099915,169.8699951c0.9355469-1.8937531,0.3645325-4.1863251-1.3500061-5.4199982l0,0
	c-1.8956299-0.937912-4.1917419-0.3617706-5.4200134,1.3600006l-20.3200073,23.9199982
	c-0.8999939,1.8099976,3.1600037,6.3200073,5,7.6799927l0,0c1.8099976,1.3500061,7.6700134,3.1600037,9,1.3500061
	L340.2099915,169.8699951z"/>
<path class="st9" d="M318.0899963,197.4100037L318.0899963,197.4100037c1.8099976,1.3500061,7.6700134,3.1600037,9,1.3500061
	l13.0899963-28.4400024c0.9355469-1.8937531,0.3645325-4.1863251-1.3500061-5.4199982l0,0"/>
</svg>
