<?xml version="1.0" encoding="utf-8"?>
<!-- Generator: Adobe Illustrator 22.0.0, SVG Export Plug-In . SVG Version: 6.00 Build 0)  -->
<svg version="1.1" id="Capa_1" xmlns="http://www.w3.org/2000/svg" xmlns:xlink="http://www.w3.org/1999/xlink" x="0px" y="0px"
	 width="512px" height="512px" viewBox="0 0 512 512" style="enable-background:new 0 0 512 512;" xml:space="preserve">
<style type="text/css">
	.st0{fill:url(#SVGID_1_);}
	.st1{fill:#C88421;}
	.st2{fill:#F4AB2A;}
	.st3{fill:#DE9826;}
	.st4{fill:#FFDB94;}
	.st5{fill:#FCC675;}
	.st6{fill:#E4A155;}
	.st7{fill:#D8924C;}
	.st8{fill:#BB743D;}
</style>
<linearGradient id="SVGID_1_" gradientUnits="userSpaceOnUse" x1="20.75" y1="156.5500031" x2="492.730011" y2="156.5500031" gradientTransform="matrix(1 0 0 -1 0 512)">
	<stop  offset="0" style="stop-color:#49DA8B"/>
	<stop  offset="1" style="stop-color:#39B76F"/>
</linearGradient>
<polygon class="st0" points="20.75,355.4500122 256.230011,218.75 492.730011,355.4599915 257.480011,492.1499939 "/>
<g>
	<polygon class="st1" points="256.7399902,435.2200012 216.1799927,411.7000122 216.2799988,447.1300049 256.7399902,470.6600037 	
		"/>
	<polygon class="st2" points="457.8599854,319.0799866 417.3699951,295.5400085 216.1799927,411.7000122 256.7399902,435.2200012 	
		"/>
	<polygon class="st3" points="256.7399902,435.2200012 256.7399902,470.6600037 457.9500122,354.5 457.8599854,319.0799866 	"/>
</g>
<g>
	<polygon class="st1" points="96.0899963,343.3099976 55.5200005,319.7900085 55.6199989,355.2099915 96.0899963,378.7399902 	"/>
	<polygon class="st2" points="297.2000122,227.1600037 256.7099915,203.6300049 55.5200005,319.7900085 96.0899963,343.3099976 	"/>
	<polygon class="st3" points="96.0899963,343.3099976 96.0899963,378.7399902 297.3099976,262.6000061 297.2000122,227.1600037 	"/>
</g>
<g>
	<polygon class="st3" points="256.7399902,400.8099976 297.3099976,377.2799988 297.2000122,412.7099915 256.7399902,436.2399902 	
		"/>
	<polygon class="st2" points="55.6199989,284.6499939 96.1100006,261.1199951 297.3099976,377.2799988 256.7399902,400.8099976 	"/>
	<polygon class="st1" points="256.7399902,400.8099976 256.7399902,436.2399902 55.5200005,320.0899963 55.6199989,284.6499939 	"/>
</g>
<g>
	<polygon class="st3" points="337.0400085,354.4599915 377.6000061,330.9299927 377.5100098,366.3599854 337.0400085,389.8900146 	
		"/>
	<polygon class="st2" points="135.9299927,238.3099976 176.4199982,214.7799988 377.6000061,330.9299927 337.0400085,354.4599915 	
		"/>
	<polygon class="st1" points="337.0400085,354.4599915 337.0400085,389.8900146 135.8300018,273.7200012 135.9299927,238.3099976 	
		"/>
</g>
<g>
	<polygon class="st3" points="417.3500061,308.1000061 457.9200134,284.5700073 457.7999878,320 417.3500061,343.5400085 	"/>
	<polygon class="st2" points="216.2400055,191.9499969 256.7200012,168.4199982 457.9200134,284.5700073 417.3500061,308.1000061 	
		"/>
	<polygon class="st1" points="417.3500061,308.1000061 417.3500061,343.5400085 216.1300049,227.3800049 216.2400055,191.9499969 	
		"/>
</g>
<polygon class="st4" points="218.1699982,54.4599991 89.3700027,129.0800018 218.1699982,203.5099945 346.7799988,129.0800018 "/>
<polygon class="st5" points="89.3700027,129.0800018 89.3700027,279.5100098 218.1699982,352.8099976 218.1699982,203.5099945 "/>
<polygon class="st6" points="218.1699982,74.5500031 311.9599915,129.0599976 287.0299988,143.7899933 218.1699982,183.4499969 
	169.6699982,155.4299927 124.1100006,129.0899963 "/>
<polygon class="st7" points="106.7900009,269.4100037 106.7900009,159.2200012 200.7200012,213.5500031 200.7200012,322.8999939 "/>
<path class="st5" d="M110.5100021,267.2200012L117.1399994,271l79.7899933-47.4499969v-7.8300018l-6.5599976-3.8000031
	l-79.859993,47.4799957V267.2200012z"/>
<polygon class="st6" points="346.7799988,129.0800018 346.7799988,279.5100098 218.1699982,352.8099976 218.1699982,203.5099945 "/>
<polygon class="st8" points="235.4600067,322.8999939 235.4600067,213.5500031 329.3900146,159.2200012 329.3900146,269.4100037 "/>
<path class="st6" d="M239.2200012,303.0700073v13.3699951l11.4799957-6.5400085l74.9400177-129.5v-14.6699982l-10.4400024,6
	L239.2200012,303.0700073z"/>
<path class="st4" d="M211.3899994,175.1900024l6.7899933,3.9199982l8.5399933-4.9299927V83.8600006l-8.5500031-5
	l-6.7799988,3.9300003L211.3899994,175.1900024z"/>
</svg>
