<?xml version="1.0" encoding="utf-8"?>
<!-- Generator: Adobe Illustrator 22.0.0, SVG Export Plug-In . SVG Version: 6.00 Build 0)  -->
<svg version="1.1" id="Capa_1" xmlns="http://www.w3.org/2000/svg" xmlns:xlink="http://www.w3.org/1999/xlink" x="0px" y="0px"
	 width="512px" height="512px" viewBox="0 0 512 512" style="enable-background:new 0 0 512 512;" xml:space="preserve">
<style type="text/css">
	.st0{fill:#474747;}
	.st1{fill:#FCFCFC;}
	.st2{fill:#B3B3B3;}
	.st3{fill:#ED4300;}
	.st4{fill:#33A361;}
	.st5{fill:url(#SVGID_1_);}
	.st6{fill:#595959;}
	.st7{fill:url(#SVGID_2_);}
	.st8{fill:#383838;}
	.st9{fill:#6E6E6E;}
	.st10{fill:url(#SVGID_3_);}
	.st11{fill:url(#SVGID_4_);}
	.st12{fill:#F6FAFD;}
</style>
<g id="_27-forklift">
	<path class="st0" d="M447.4500122,365.8599854c0.4793091,2.2344055,0.7106934,4.5148621,0.6900024,6.7999878
		c-0.0080872,18.9488831-15.3757629,34.3034363-34.324646,34.2953491
		c-18.937439-0.0081177-34.287262-15.3579102-34.2953491-34.2953491c-0.019043-2.2845459,0.2089539-4.5644531,0.6799927-6.7999878
		c3.7675171-18.5705872,21.8761292-30.5708313,40.4466858-26.8033142
		C434.1535339,341.796875,444.7098083,352.3531494,447.4500122,365.8599854z"/>
	<path class="st0" d="M282.7600098,365.8599854c0.4693909,2.2359619,0.7006836,4.5153198,0.6900024,6.7999878
		c-0.0080872,18.9488831-15.3757629,34.3034363-34.3246613,34.2953491
		c-18.937439-0.0081177-34.2872467-15.3579102-34.2953339-34.2953491c-0.019043-2.2845459,0.2089539-4.5644531,0.6799927-6.7999878
		c3.7675171-18.5705872,21.8761139-30.5708313,40.446701-26.8033142
		C269.4635315,341.796875,280.0198059,352.3531494,282.7600098,365.8599854z"/>
	<polygon class="st0" points="194.2400055,324.6199951 194.2400055,352.0700073 166.7899933,352.0700073 166.7899933,345.2099915 
		166.7899933,324.6199951 	"/>
	<polygon class="st1" points="146.2100067,221.6900024 146.2100067,345.2099915 118.7600021,345.2099915 118.7600021,228.5500031 	
		"/>
	<polygon class="st0" points="166.7899933,352.0700073 166.7899933,365.7900085 43.2700005,365.7900085 43.2700005,345.2099915 
		118.7600021,345.2099915 146.2100067,345.2099915 166.7899933,345.2099915 	"/>
	<polygon class="st2" points="166.7899933,324.6199951 166.7899933,345.2099915 146.2100067,345.2099915 146.2100067,221.6900024 
		146.2100067,105.0299988 166.7899933,105.0299988 	"/>
	<path class="st3" d="M214.8300018,283.4500122V304h-20.5899963v-6.8599854
		c0.0385132-7.5720825,6.1878052-13.690094,13.7599945-13.6900024H214.8300018z"/>
	<path class="st3" d="M468.730011,297.1700134h-20.5899963v-26.5500183
		C460.2607422,273.730072,468.7344666,284.6566467,468.730011,297.1700134z"/>
	<path class="st0" d="M283.4500122,297.1700134h48v13.7299805c-0.0219727,7.5682373-6.1517639,13.6980286-13.7200012,13.7200012
		h-34.2799988c0-6.8599854-6.8599854-17.1499939-17.1600037-25.730011
		c-10.4674988-9.2736206-23.7740784-14.7175598-37.7400055-15.4400024c0-2.269989,5.1499939-19.2799988,12.0800018-41.1699982
		h42.8200073V297.1700134z"/>
	<path class="st2" d="M393.2399902,232v37.7399902h-34.3099976V232c0.2287903-9.4744415,8.0948181-16.9695282,17.5692749-16.7407227
		C385.6517944,215.4803009,393.0189514,222.8474731,393.2399902,232z"/>
	<path class="st4" d="M228.5500031,283.4500122c13.9659271,0.7224426,27.2724915,6.1663818,37.7400055,15.4400024
		c10.2999878,8.5799866,17.1600037,18.8699951,17.1600037,25.730011h34.3099976
		c7.5682373-0.0219727,13.6980286-6.1517639,13.7200012-13.7200012v-13.730011
		c0-15.1602173,12.2897644-27.4500122,27.4499817-27.4500122c0.0000305,0,0.0000305,0,0.0000305,0h82.3500061
		c2.3173828-0.0205688,4.6263123,0.2823486,6.8599854,0.8999939v26.5499878h20.5899963v68.6199951h-20.5899963l-0.6900024,0.0700073
		c-3.7675171-18.5705872-21.8761292-30.5708313-40.4466858-26.8033142
		c-13.5068359,2.7402039-24.0631104,13.2964783-26.8033142,26.8033142l-0.6799927-0.0700073h-96.0700073l-0.6900024,0.0700073
		c-3.7675171-18.5705872-21.8761292-30.5708313-40.446701-26.8033142
		c-13.5068359,2.7402039-24.0630951,13.2964783-26.803299,26.8033142l-0.6799927-0.0700073h-20.5900116V304h20.5899963v-20.5499878
		H228.5500031z"/>
	
		<linearGradient id="SVGID_1_" gradientUnits="userSpaceOnUse" x1="214.8300018" y1="204.5504913" x2="448.1400146" y2="204.5504913" gradientTransform="matrix(1 0 0 -1 0 512)">
		<stop  offset="0" style="stop-color:#49DA8B"/>
		<stop  offset="1" style="stop-color:#39B76F"/>
	</linearGradient>
	<path class="st5" d="M228.5500031,304c13.9648743,0.7271423,27.2699585,6.1704712,37.7400055,15.4400024
		c10.2999878,8.5799866,17.1600037,18.8800049,17.1600037,25.7399902h34.3099976
		c7.5698547-0.0274658,13.6980591-6.1601562,13.7200012-13.730011v-13.6899719
		c0-15.1602173,12.2897644-27.4500122,27.4499817-27.4500122c0.0000305,0,0.0000305,0,0.0000305,0h82.3500061
		c2.3166199-0.0189209,4.6248779,0.2805481,6.8599854,0.8900146v-20.5800171
		c-2.2336731-0.6176453-4.5426025-0.9205627-6.8599854-0.8999939h-82.3500366
		c-15.1602173,0-27.4500122,12.2897644-27.4500122,27.4499817c0,0.0000305,0,0.0000305,0,0.0000305v13.7299805
		c-0.0219727,7.5682373-6.1517639,13.6980286-13.7200012,13.7200012h-34.309967
		c0-6.8599854-6.8599854-17.1499939-17.1600037-25.730011c-10.4674988-9.2736206-23.7740784-14.7175598-37.7400055-15.4400024
		h-13.7200012V304H228.5500031z"/>
	<path class="st4" d="M447.4500122,352.1400146c-3.7675171-18.5705872-21.8761292-30.5708313-40.4466858-26.8033142
		c-13.5068359,2.7402039-24.0631104,13.2964783-26.8033142,26.8033142l-0.6799927-0.0700073h-96.0700073l-0.6900024,0.0700073
		c-3.7675171-18.5705872-21.8761292-30.5708313-40.446701-26.8033142
		c-13.5068359,2.7402039-24.0630951,13.2964783-26.803299,26.8033142l-0.6799927-0.0700073h-20.5900116v13.7200012h20.5899963
		l0.6799927,0.0700073c3.7675018-18.5705872,21.8760834-30.5708618,40.4466705-26.8033447
		c13.5068665,2.7402039,24.0631409,13.2964783,26.8033447,26.8033447l0.6900024-0.0700073h96.0700073l0.6799927,0.0700073
		c3.7675171-18.5705872,21.8761292-30.5708313,40.4466858-26.8033142
		c13.5068359,2.7402039,24.0631104,13.2964783,26.8033142,26.8033142l0.6900024-0.0700073h20.5899963v-13.7200012h-20.5899963
		L447.4500122,352.1400146z"/>
	<path class="st0" d="M278.2999878,242.2799988l11.5799866-15.4499969L279.3299866,218l-15.1000061,20.1199951
		c-0.8518982,1.2016907-1.2905579,2.647522-1.25,4.1199951L278.2999878,242.2799988z"/>
	<polygon class="st0" points="297.0499878,214.9400024 288.9299927,208.1799927 274.1199951,195.8300018 265.3299866,206.3699951 
		279.3299866,218.0399933 289.8800049,226.8300018 306.5,240.6900024 315.2900085,230.1399994 	"/>
	<path class="st0" d="M146.2100067,228.7599945V215c-0.5544891-0.0438232-1.1123047-0.0169373-1.6600037,0.0800018
		l-27.4500046,6.8199921c-3.055542,0.7583313-5.2007751,3.5017548-5.1999969,6.6499939v116.6600037h13.7200012V233.9100037
		L146.2100067,228.7599945z"/>
	<path class="st2" d="M386.3800049,256c-7.5773621,0-13.7200012-6.1426544-13.7200012-13.7200012l0,0v-27.1100006
		c-7.9964905,1.6312714-13.7377625,8.6688232-13.730011,16.8300018v37.7399902h34.3099976V256H386.3800049z"/>
	<path class="st6" d="M283.4500122,297.1700134v-54.8900146h-42.8200073
		c-1.5466766,4.8733215-2.9799957,9.4466705-4.3000031,13.7200012h33.3899994v46
		c2.9171753,2.7151794,5.5691528,5.7019958,7.9200134,8.9200134h53.8399963v-13.75H283.4500122z"/>
	
		<linearGradient id="SVGID_2_" gradientUnits="userSpaceOnUse" x1="221.7100067" y1="307.1650391" x2="427.591095" y2="307.1650391" gradientTransform="matrix(1 0 0 -1 0 512)">
		<stop  offset="0" style="stop-color:#49DA8B"/>
		<stop  offset="1" style="stop-color:#39B76F"/>
	</linearGradient>
	<path class="st7" d="M235.3600006,284.0499878v-0.1300049c0.1699982-1.230011,1.6499939-7.5499878,11.7700043-39.5500031
		c10.5-32.8399963,25.0899963-77,32.8500061-100.3300018c0.9178467-2.8063812,3.5373535-4.7033997,6.4899902-4.6999969h75.1399841
		c25.6110535-0.0312347,46.7354736,20.0501709,48,45.6300049l4.25,84.7499847h13.6799927
		c0-0.1099854,0.0599976-0.2200012,0.0499878-0.3399963l-4.2600098-85.0899963
		c-1.6018372-32.8901978-28.7608643-58.7196655-61.6900024-58.6699982h-75.1699524
		c-8.855957-0.0039368-16.7111816,5.6847534-19.4700012,14.1000214c-7.769989,23.3899994-22.3800049,67.5599976-32.8899994,100.5
		c-12.3999939,39.1499939-12.3999939,41.5100098-12.3999939,43.230011h6.8600006
		C230.8456116,283.4707947,233.1160126,283.6714172,235.3600006,284.0499878z"/>
	<path class="st8" d="M187.3800049,324.6199951v6.8599854c0,3.7902832-3.0697174,6.8644714-6.8600006,6.8699951h-13.730011
		v13.7200012h27.4499969v-27.4499817H187.3800049z"/>
	<path class="st9" d="M153.0700073,105v212.7600098c0,7.5773621,6.1426544,13.7200012,13.7200012,13.7200012l0,0l0,0v13.730011
		h-20.5800018V105H153.0700073z"/>
	<rect x="43.2700005" y="345.2099915" class="st6" width="102.9299927" height="6.8599854"/>
	
		<linearGradient id="SVGID_3_" gradientUnits="userSpaceOnUse" x1="386.3799744" y1="139.3399963" x2="441.2799988" y2="139.3399963" gradientTransform="matrix(1 0 0 -1 0 512)">
		<stop  offset="0" style="stop-color:#DCE2E1"/>
		<stop  offset="1" style="stop-color:#C0CCCE"/>
	</linearGradient>
	<circle class="st10" cx="413.8299866" cy="372.6600037" r="27.4500122"/>
	
		<linearGradient id="SVGID_4_" gradientUnits="userSpaceOnUse" x1="221.6900024" y1="139.3399963" x2="276.5899963" y2="139.3399963" gradientTransform="matrix(1 0 0 -1 0 512)">
		<stop  offset="0" style="stop-color:#DCE2E1"/>
		<stop  offset="1" style="stop-color:#C0CCCE"/>
	</linearGradient>
	<circle class="st11" cx="249.1399994" cy="372.6600037" r="27.4500046"/>
	
		<ellipse transform="matrix(0.1601823 -0.9870874 0.9870874 0.1601823 -158.6158295 558.8894653)" class="st0" cx="249.1399994" cy="372.6600037" rx="13.7200012" ry="13.7199898"/>
	<circle class="st0" cx="413.8299866" cy="372.6600037" r="13.7200012"/>
	
		<ellipse transform="matrix(0.7068599 -0.7073536 0.7073536 0.7068599 -92.5503082 407.9977112)" class="st12" cx="445.9786072" cy="315.6618347" rx="11.269989" ry="15.6900024"/>
</g>
</svg>
