<?xml version="1.0" encoding="utf-8"?>
<!-- Generator: Adobe Illustrator 22.0.0, SVG Export Plug-In . SVG Version: 6.00 Build 0)  -->
<svg version="1.1" id="Capa_1" xmlns="http://www.w3.org/2000/svg" xmlns:xlink="http://www.w3.org/1999/xlink" x="0px" y="0px"
	 width="512px" height="512px" viewBox="0 0 512 512" style="enable-background:new 0 0 512 512;" xml:space="preserve">
<style type="text/css">
	.st0{fill:#39B76F;}
	.st1{fill:url(#SVGID_1_);}
	.st2{fill:url(#SVGID_2_);}
	.st3{fill:url(#SVGID_3_);}
	.st4{fill:#B3B3B3;}
	.st5{fill:url(#SVGID_4_);}
	.st6{fill:url(#SVGID_5_);}
	.st7{fill:url(#SVGID_6_);}
	.st8{fill:#13DC98;}
	.st9{opacity:0.49;fill:url(#SVGID_7_);enable-background:new    ;}
	.st10{fill:url(#SVGID_8_);}
	.st11{fill:url(#SVGID_9_);}
	.st12{fill:url(#SVGID_10_);}
	.st13{fill:url(#SVGID_11_);}
	.st14{fill:url(#SVGID_12_);}
	.st15{fill:url(#SVGID_13_);}
	.st16{fill:url(#SVGID_14_);}
	.st17{fill:url(#SVGID_15_);}
	.st18{fill:url(#SVGID_16_);}
	.st19{fill:url(#SVGID_17_);}
</style>
<path class="st0" d="M124.5599976,279.8800049l-40.6899948-15.4299927v110.6399841l255.7000122-127.8500061v-73.6699829
	L127.2799988,279.7399902C126.4340744,280.1697693,125.4455795,280.2206421,124.5599976,279.8800049z"/>
<linearGradient id="SVGID_1_" gradientUnits="userSpaceOnUse" x1="43.6399994" y1="151.019989" x2="77.0800018" y2="151.019989" gradientTransform="matrix(1 0 0 -1 0 512)">
	<stop  offset="0" style="stop-color:#DCE2E1"/>
	<stop  offset="1" style="stop-color:#C0CCCE"/>
</linearGradient>
<polygon class="st1" points="77.0800018,375.6700134 77.0800018,346.2900085 43.6399994,362.9899902 "/>
<linearGradient id="SVGID_2_" gradientUnits="userSpaceOnUse" x1="38.5599976" y1="315.8699951" x2="384.8600159" y2="315.8699951" gradientTransform="matrix(1 0 0 -1 0 512)">
	<stop  offset="0" style="stop-color:#DCE2E1"/>
	<stop  offset="1" style="stop-color:#C0CCCE"/>
</linearGradient>
<path class="st2" d="M124.5599976,248.3099976l-86-32.6100006V240l43.0899963,16.3399963L125.5800018,273l215.8700104-108
	l43.4100037-21.7400055v-24L127.2799988,248.1699982C126.4315109,248.5900574,125.4471283,248.6407318,124.5599976,248.3099976z"/>
<linearGradient id="SVGID_3_" gradientUnits="userSpaceOnUse" x1="88.9199982" y1="188.4500122" x2="379.8099976" y2="188.4500122" gradientTransform="matrix(1 0 0 -1 0 512)">
	<stop  offset="0" style="stop-color:#DCE2E1"/>
	<stop  offset="1" style="stop-color:#C0CCCE"/>
</linearGradient>
<polygon class="st3" points="379.8099976,266.9500122 343.1499939,253.0399933 88.9199982,380.1600037 125.5800018,394.0599976 "/>
<path class="st4" d="M32.4399986,208.8899994c0.2828369-0.4044647,0.6473465-0.7451324,1.0699997-1
	C33.0849228,208.1416473,32.7197876,208.4828949,32.4399986,208.8899994z"/>
<path class="st4" d="M77.3199997,258.3299866l-42.1300011-16v-27.9199829L34,214
	c-1.7164536-0.6127319-2.6112022-2.5009003-1.9984741-4.2173615c0.0619812-0.1736298,0.1384087-0.3417664,0.2284737-0.5026398
	c-0.2670574,0.4735565-0.411438,1.0063934-0.4200001,1.5500031v31.5699921
	c0.0166988,1.3944702,0.8856831,2.6364441,2.1900005,3.1300049l43.0899963,16.3399963v-2.3399963
	C77.0940094,259.1194458,77.1719208,258.7129517,77.3199997,258.3299866z"/>
<path class="st4" d="M389.769989,116.8600006L388.25,117.6200027v27.7799911L346,166.5700073
	c0.2468872,0.4620819,0.3805542,0.976181,0.3900146,1.5v2.1000061l43.4100037-21.7400055
	c1.1421509-0.565567,1.8690796-1.7255249,1.8800049-3v-31.6100082c0,0,0-0.0699997,0-0.0999985
	C391.7177429,115.0516129,390.9698181,116.2811813,389.769989,116.8600006z"/>
<path class="st4" d="M391.0799866,112.0500031c0.2643738,0.4249191,0.4316711,0.9029617,0.4899902,1.4000015
	C391.5116577,112.9529648,391.3443604,112.4749222,391.0799866,112.0500031z"/>
<path class="st4" d="M389.5,110.6800003c0.5257874,0.2115784,0.9875488,0.5561752,1.3399963,1
	C390.4888306,111.2348328,390.0267029,110.889946,389.5,110.6800003z"/>
<path class="st4" d="M80.4800034,256.1300049c1.8738556,0.0055237,3.390007,1.526123,3.3899994,3.3999939v4.9200134
	l40.6899948,15.4299927c0.885582,0.3406372,1.8740768,0.2897644,2.7200012-0.1400146l212.2900085-106.1699829v-5.5
	c-0.0138245-1.861145,1.4837036-3.3811188,3.3448486-3.3949585c1.2984009-0.0096588,2.4868469,0.7274933,3.0551453,1.8949585
	L388.25,145.4000092v-27.7800064l-3.3900146,1.6999969v24.0000076L341.4500122,165L125.5800018,273l-43.9000015-16.6499939
	L38.5900002,240v-24.3000031l-3.4000015-1.2899933v27.9400024l42.1300011,16
	C77.8076782,257.0237122,79.066925,256.1390686,80.4800034,256.1300049z"/>
<linearGradient id="SVGID_4_" gradientUnits="userSpaceOnUse" x1="43.6300011" y1="349.7000122" x2="379.8099976" y2="349.7000122" gradientTransform="matrix(1 0 0 -1 0 512)">
	<stop  offset="0" style="stop-color:#49DA8B"/>
	<stop  offset="1" style="stop-color:#39B76F"/>
</linearGradient>
<polygon class="st5" points="43.6300011,210.3500061 125.5800018,241.4299927 379.8099976,114.25 297.8699951,83.1699982 "/>
<path class="st4" d="M391.6400146,113.6500015c0-0.0699997-0.0599976-0.1299973-0.0700073-0.1999969
	c0,0.0899963,0.0499878,0.1699982,0.0599976,0.2699966S391.6400146,113.6699982,391.6400146,113.6500015z"/>
<path class="st4" d="M386.75,110.8199997L386.75,110.8199997l-2.7900085,1.4000015l1.1600037,0.4400024
	C385.408783,111.8612366,385.9918823,111.2030106,386.75,110.8199997z"/>
<path class="st4" d="M390.8399963,111.7099991c0.091156,0.1050262,0.1715698,0.2189255,0.2399902,0.3399963
	C391.0091248,111.930481,390.928894,111.8167877,390.8399963,111.7099991z"/>
<path class="st4" d="M38.2000008,209.2799988L297.6799927,79.4700012l7.4599915,2.8300018l78.8000183,29.8899994
	l2.7900085-1.4000015l0,0c0.4624939-0.2458115,0.9763489-0.3794098,1.5-0.3899994
	c0.4111938,0.0072021,0.817688,0.088501,1.2000122,0.2399979l0,0l-90.5500183-34.3499985
	c-0.8873291-0.3295288-1.8712158-0.2788925-2.7200012,0.1399994L33.6699982,207.7400055
	c-0.0600014,0-0.0900002,0.1100006-0.1599998,0.1499939c1.5251389-0.9568481,3.5371895-0.49617,4.4940453,1.0289612
	C38.0768852,209.0350647,38.142334,209.1556549,38.2000008,209.2799988z"/>
<path class="st4" d="M32.2200012,209.2299957c0.0675468-0.1169739,0.1409721-0.2304535,0.2200012-0.3399963
	C32.3609734,208.9995422,32.2875481,209.1130219,32.2200012,209.2299957z"/>
<path class="st4" d="M389.5,110.6800003L389.5,110.6800003L389.5,110.6800003z"/>
<path class="st4" d="M384.1300049,115.8899994L125.7600021,245.1300049l-87.1699982-33.0599976v3.6300049l86,32.6100006
	c0.8871307,0.3307343,1.8715134,0.2800598,2.7200012-0.1399994l257.5499878-128.8500061v-3.1500015L384.1300049,115.8899994z"/>
<polygon class="st4" points="297.6799927,79.4700012 305.1400146,82.3000031 297.6799927,79.4700012 38.2000008,209.2799988 
	38.2000008,209.2799988 "/>
<polygon class="st4" points="384.8599854,115.5199966 384.1300049,115.8899994 384.8599854,116.1699982 "/>
<path class="st4" d="M34,214l1.2000008,0.4600067v-3.6300049l3-1.5c-0.7574615-1.6333618-2.6956062-2.3434143-4.3289642-1.5859528
	c-0.1243477,0.057663-0.2449303,0.1231079-0.3610344,0.1959534c-0.4226532,0.2548676-0.7871628,0.5955353-1.0699997,1
	c-0.0790291,0.1095428-0.1524544,0.2230225-0.2200012,0.3399963c-0.8886929,1.5911865-0.3192081,3.601532,1.2719765,4.4902191
	C33.6545334,213.8610077,33.824482,213.9378815,34,214z"/>
<path class="st4" d="M385.1000061,112.6299973L388.25,113.8199997l-1.5-3
	C385.9900513,111.1918182,385.400116,111.8389664,385.1000061,112.6299973z"/>
<path class="st4" d="M389.4500122,110.6699982c-0.3823242-0.1514969-0.7888184-0.2327957-1.2000122-0.2399979
	c-0.5236511,0.0105896-1.0375061,0.1441879-1.5,0.3899994l1.5,3L389.4500122,110.6699982z"/>
<polygon class="st4" points="388.25,113.8199997 388.25,113.8199997 388.25,113.8199997 "/>
<path class="st4" d="M388.25,113.8199997L388.25,113.8199997v3.8000031l1.519989-0.7600021
	c1.1803284-0.5932541,1.9068909-1.8197861,1.8599854-3.1399994c0-0.0999985-0.0499878-0.1800003-0.0599976-0.2699966
	c-0.0583191-0.4970398-0.2256165-0.9750824-0.4899902-1.4000015c-0.0684204-0.1210709-0.1488342-0.2349701-0.2399902-0.3399963
	c-0.3524475-0.4438248-0.814209-0.7884216-1.3399963-1h-0.0499878L388.25,113.8199997z"/>
<polygon class="st4" points="384.8599854,116.1699982 384.8599854,119.3199997 388.25,117.6200027 388.25,113.8199997 
	388.25,113.8199997 387.0499878,117 "/>
<polygon class="st4" points="384.8599854,115.5199966 384.8599854,116.1699982 387.0499878,117 388.25,113.8199997 
	388.25,113.8199997 "/>
<polygon class="st4" points="38.5900002,212.0700073 35.1899986,210.7799988 38.2000008,209.2799988 38.2000008,209.2799988 
	35.1899986,210.7799988 35.1899986,214.4100037 38.5900002,215.6999969 "/>
<polygon class="st4" points="383.9400024,112.1900024 305.1400146,82.3000031 383.9400024,112.1900024 "/>
<polygon class="st4" points="385.1000061,112.6299973 385.1000061,112.6299973 383.9400024,112.1900024 383.9400024,112.1900024 "/>
<path class="st4" d="M38.2000008,209.2799988c0.2479591,0.4616699,0.381691,0.9760284,0.3899994,1.5v1.2899933
	l87.1699982,33.0599976l258.3699951-129.2399902L379.8099976,114.25L125.5800018,241.4299927l-81.9400024-31.0799866
	L297.8699951,83.1699982L379.8099976,114.25l4.1199951-2.0599976l-78.789978-29.8899994l-7.4599915-2.8300018
	L38.2000008,209.2799988z"/>
<path class="st4" d="M384.8599854,113.8199997c0.0072937-0.4079208,0.088623-0.8111343,0.2399902-1.1900024l-1.1700134-0.4400024
	l-4.1199951,2.0599976l4.3200073,1.6399994l0.730011-0.3700027V113.8199997z"/>
<polygon class="st4" points="385.1000061,112.6299973 388.25,113.8199997 388.25,113.8199997 385.1000061,112.6299973 "/>
<path class="st4" d="M384.8599854,115.5199966L388.25,113.8199997l-3.1499939-1.1900024
	c-0.1513672,0.3788681-0.2326965,0.7820816-0.2399902,1.1900024L384.8599854,115.5199966z"/>
<path class="st4" d="M38.2000008,209.2799988l-3,1.5l3.4000015,1.2899933v-1.2899933
	C38.5886192,210.255188,38.4514427,209.7407837,38.2000008,209.2799988z"/>
<path class="st4" d="M346,250.5099945l37.9100037,14.3799896l2.7900085-1.3999939c0.9429932-0.4775696,2.0570068-0.4775696,3,0
	c-0.0899963,0-0.1400146-0.1400146-0.230011-0.1799927L346.3599854,247v2.3399963
	C346.3164062,249.749527,346.1941528,250.1467896,346,250.5099945z"/>
<path class="st4" d="M391.6400146,266.3500061c0-0.1600037-0.1199951-0.2799988-0.1499939-0.4299927
	c0.0619812,0.1647034,0.1055908,0.3357239,0.1300049,0.5100098
	C391.6200256,266.4300232,391.6499939,266.3800049,391.6400146,266.3500061z"/>
<path class="st4" d="M32.2400017,361.7799988c0.0699997-0.1400146,0.2099991-0.2200012,0.2999992-0.3399963
	C32.4500008,361.5599976,32.3100014,361.6400146,32.2400017,361.7799988z"/>
<path class="st4" d="M36.4000015,360.2399902l2.9199982,1.1099854L77.0800018,342.5v-3.7900085l-43.4000015,21.6700134
	c-0.0699997,0-0.0999985,0.1099854-0.1599998,0.1400146C34.389946,360.0010681,35.4463806,359.8983459,36.4000015,360.2399902z"/>
<path class="st4" d="M390.5899963,264.2099915c0.1742859,0.1491699,0.3318787,0.316803,0.4700012,0.5
	C390.9246521,264.5244751,390.7667847,264.3565369,390.5899963,264.2099915z"/>
<linearGradient id="SVGID_5_" gradientUnits="userSpaceOnUse" x1="39.3199997" y1="152.9149933" x2="77.0800018" y2="152.9149933" gradientTransform="matrix(1 0 0 -1 0 512)">
	<stop  offset="0" style="stop-color:#DCE2E1"/>
	<stop  offset="1" style="stop-color:#C0CCCE"/>
</linearGradient>
<polygon class="st6" points="77.0800018,375.6700134 43.6399994,362.9899902 77.0800018,346.2900085 77.0800018,342.5 
	39.3199997,361.3500061 77.0800018,375.6700134 "/>
<path class="st4" d="M344.4899902,252.3800049l-1.3399963,0.6600037L379.8099976,267L125.5800018,394.0599976
	l258.3599854-129.1699829L346,250.5099945C345.7478943,251.3000488,345.2092285,251.9671326,344.4899902,252.3800049z"/>
<linearGradient id="SVGID_6_" gradientUnits="userSpaceOnUse" x1="38.5900002" y1="161.5850067" x2="384.8599854" y2="161.5850067" gradientTransform="matrix(1 0 0 -1 0 512)">
	<stop  offset="0" style="stop-color:#49DA8B"/>
	<stop  offset="1" style="stop-color:#39B76F"/>
</linearGradient>
<path class="st7" d="M124.5599976,400.9400024l-45.2900009-17.1799927l-40.6799965-15.4300232v27.5l43.0900002,16.3500061
	l43.9000015,16.6499939l259.2799683-129.6399841V272L127.2799988,400.7999878
	C126.4340744,401.2297668,125.4455795,401.2806396,124.5599976,400.9400024z"/>
<polygon class="st8" points="38.5900002,368.3299866 38.5900002,368.3299866 79.2699966,383.7600098 "/>
<path class="st4" d="M389.769989,269.5599976L388.25,270.3200073v31L125.7600021,432.5299988l-24.5999985-9.3299866
	l-20.6800003-7.8500061l-45.2900047-17.1799927V367l-1.2000008-0.4500122
	c-1.7364273-0.6386719-2.6263351-2.5640564-1.9876709-4.3004761c0.0648079-0.1762085,0.14431-0.3466492,0.2376709-0.5095215
	c-0.2859573,0.4958191-0.4376163,1.0576477-0.4400005,1.6300049v34.7600098
	C31.780756,399.5599365,32.6609001,400.8481445,34,401.3500061l45.2799988,17.1799927l45.2900009,17.1700134
	c0.8849869,0.3387146,1.8713531,0.2915955,2.7200012-0.1300049l262.4799805-131.25
	c1.140564-0.5673523,1.8667603-1.7261963,1.8800049-3V266.519989c0.0042419-0.0298462,0.0042419-0.0601501,0-0.0899963
	C391.6917725,267.7518311,390.956543,268.9759216,389.769989,269.5599976z"/>
<path class="st4" d="M33.2599983,360.6199951c-0.2835846,0.2317505-0.5268707,0.5088196-0.7200012,0.8200073
	c0.2690468-0.3699341,0.6089706-0.6826782,1-0.9200134C33.4399986,360.5700073,33.3400002,360.5700073,33.2599983,360.6199951z"/>
<path class="st4" d="M390,263.6300049c-0.1099854-0.0599976-0.2399902-0.0499878-0.3500061-0.1000061
	c0.3380127,0.1714172,0.6427612,0.4016724,0.8999939,0.6799927C390.3876648,263.9977722,390.2033081,263.8033447,390,263.6300049z"
	/>
<path class="st4" d="M391.0599976,264.7099915c0.223877,0.3700256,0.3701477,0.7816772,0.4299927,1.2099915
	C391.4301453,265.4916687,391.2838745,265.0800171,391.0599976,264.7099915z"/>
<polygon class="st4" points="35.1899986,398.1700134 35.1899986,367.0499878 35.1899986,367.0499878 35.1899986,398.1799927 
	80.4800034,415.3500061 101.1600037,423.2000122 80.4800034,415.3500061 "/>
<path class="st4" d="M386.730011,263.4899902l1.519989,3l1.519989,3c1.1748657-0.5926514,1.8973083-1.8149719,1.8500061-3.1300049
	c-0.0244141-0.1742859-0.0680237-0.3453064-0.1300049-0.5100098c-0.2146912-1.0247192-0.8744202-1.9006653-1.7999878-2.3900146
	C388.7532349,263.0052185,387.6573792,263.0163269,386.730011,263.4899902z"/>
<path class="st4" d="M34,366.5899963l1.2000008,0.4500122v-3.6300049l4.1300011-2.0599976l-2.9199982-1.1099854
	c-0.9536171-0.3416443-2.0100479-0.2389221-2.8800011,0.2799988c-0.3910294,0.2373352-0.7309532,0.5500793-1,0.9200134
	c-0.0900002,0.1199951-0.2299995,0.2000122-0.2999992,0.3399963c-0.9167156,1.6070862-0.3570652,3.6530151,1.2500153,4.5697327
	C33.6461678,366.4445496,33.8201332,366.5249023,34,366.5899963z"/>
<polygon class="st4" points="389.769989,269.5599976 388.25,266.519989 388.25,270.3200073 "/>
<polygon class="st4" points="388.25,266.519989 388.25,266.519989 388.25,266.519989 "/>
<polygon class="st4" points="388.25,266.519989 386.7399902,263.4899902 383.9400024,264.8800049 388.25,266.519989 "/>
<polygon class="st4" points="88.9199982,380.1600037 84.7900009,382.230011 125.7600021,397.769989 384.8599854,268.2200012 
	384.8599854,266.519989 388.25,266.519989 383.9400024,264.8800049 125.5800018,394.0599976 "/>
<polygon class="st4" points="35.1899986,363.4100037 77.0800018,379.2999878 77.0800018,375.6700134 39.3199997,361.3500061 
	35.1899986,363.4100037 35.1899986,367.0499878 35.1899986,367.0499878 "/>
<polygon class="st4" points="388.25,266.519989 384.8599854,266.519989 384.8599854,268.2200012 388.25,266.519989 "/>
<polygon class="st4" points="388.25,301.2900085 125.7699966,432.5299988 101.1600037,423.2000122 125.7600021,432.5299988 
	388.25,301.2900085 388.25,270.3200073 388.25,270.3200073 "/>
<polygon class="st4" points="388.25,301.2900085 388.25,270.3200073 384.8599854,272.019989 384.8599854,299.1900024 
	125.5800018,428.8299866 81.6800003,412.1799927 38.5900002,395.8299866 38.5900002,368.3299866 35.1899986,367.0499878 
	35.1899986,398.1700134 80.4800034,415.3500061 101.1600037,423.2000122 125.7699966,432.5299988 "/>
<polygon class="st4" points="388.25,266.519989 388.25,270.3200073 388.25,270.3200073 388.25,266.519989 388.25,266.519989 "/>
<polygon class="st4" points="388.25,270.3200073 388.25,266.519989 388.25,266.519989 384.8599854,268.2200012 
	384.8599854,272.019989 "/>
<path class="st4" d="M78.6900024,383.480011c-0.9993134-0.6210632-1.6078568-1.7134399-1.6100006-2.8900146v-1.2900085
	l-41.8900032-15.8899841v3.6400146l3.4000015,1.2799988l0,0l40.6800041,15.4299927l45.2900009,17.1799927
	c0.885582,0.3406372,1.8740768,0.2897644,2.7200012-0.1400146L384.8599854,272v-3.7999878L125.7600021,397.769989l-41-15.5499878
	L82,383.6199951C80.9474487,384.1523438,79.6938477,384.0993347,78.6900024,383.480011z"/>
<path class="st4" d="M80.4800034,337.4400024v-74.2799988l-1.2099991-0.4599915l-2.1900024-0.8299866v76.8399963
	l1.8799973-0.9400024C79.4330063,337.5401001,79.9542389,337.4269409,80.4800034,337.4400024z"/>
<path class="st4" d="M344.4899902,171.1100006l-1.519989,0.7599945V246c0.408844-0.0069122,0.8155212,0.0608673,1.2000122,0.1999969
	l2.1900024,0.8300018v-76.8600006L344.4899902,171.1100006z"/>
<path class="st4" d="M339.5700073,247.2400055L83.8700027,375.0899963V264.4500122l-3.3899994-1.2900085v74.2799988
	c1.8610992-0.0194702,3.3855972,1.4734802,3.4050598,3.3345642c0.0136185,1.302124-0.7241745,2.495575-1.8950577,3.0654297
	l-4.9100037,2.4500122v29.3800049l4.5999985,1.7399902l7.2399979,2.75L343.1499939,253l-1.3900146-0.5200043
	c-1.7129517-0.7419128-2.5001221-2.7319794-1.7582092-4.4449463C340.5223999,246.8330231,341.6906738,246.0400543,343,246
	v-74.1000061l-3.3999939,1.6999969L339.5700073,247.2400055z"/>
<path class="st4" d="M80.4800034,263.1600037v-3.6300049l-3.1600037-1.2000122
	c-0.1514969,0.3823242-0.2327957,0.7888184-0.2399979,1.2000122v2.3399963l2.1900024,0.8299866L80.4800034,263.1600037z"/>
<path class="st4" d="M346,166.5700073l-3,1.5v3.8000031l1.519989-0.7599945l1.8699951-0.9400024v-2.1000061
	C346.3805237,167.5461884,346.2468567,167.0321045,346,166.5700073z"/>
<path class="st4" d="M83.8700027,259.5299988c0.0151901-1.8666687-1.4857254-3.3922119-3.3523788-3.4073792
	c-1.4245529-0.0115967-2.7034378,0.8712463-3.1976242,2.2073669l3.1600037,1.2000122v3.6300049l3.3899994,1.2900085V259.5299988z"/>
<path class="st4" d="M346,166.5700073c-0.8146057-1.6734772-2.8315735-2.3697357-4.5050354-1.5551453
	c-1.1674805,0.5682983-1.9046021,1.7567444-1.8949585,3.0551453v5.5L343,171.8700104v-3.8000031L346,166.5700073z"/>
<path class="st4" d="M77.0800018,342.5l3.4000015-1.7000122v-3.3599854
	c-0.5257568-0.0130615-1.0469894,0.1000977-1.5199966,0.3299866l-1.8799973,0.9400024
	C77.0800095,338.7099915,77.0800095,342.5,77.0800018,342.5z"/>
<path class="st4" d="M343,246v3.3800049l3.0599976,1.1600037c0.1837463-0.3653259,0.2957458-0.7624969,0.3299866-1.1699982V247
	l-2.1900024-0.8300018C343.8135986,246.0410614,343.4069824,245.9834595,343,246z"/>
<polygon class="st4" points="81.6800003,377.4100037 77.0800018,375.6700134 77.0800018,375.6700134 "/>
<path class="st4" d="M339.7900085,248.1399994c-0.6540833,1.761673,0.2403564,3.7204895,2,4.3800049l1.3900146,0.5200043
	l1.3399963-0.6600037c0.7305298-0.4071198,1.2805176-1.0749512,1.5400085-1.8699951L343,249.3500061V246
	C341.5880127,245.9726715,340.3078613,246.8260956,339.7900085,248.1399994z"/>
<path class="st4" d="M82,343.8399963c1.6735229-0.8144836,2.3699036-2.8314209,1.5554199-4.5049438
	c-0.5698624-1.1708679-1.7633057-1.9086609-3.0654221-1.89505v3.3599854L77.0899963,342.5v3.7900085L82,343.8399963z"/>
<polygon class="st4" points="77.0800018,379.2999878 80.4800034,380.5899963 84.7900009,382.230011 88.9199982,380.1600037 
	81.6800003,377.4100037 77.0800018,375.6700134 "/>
<path class="st4" d="M77.0800018,379.2999878v1.2900085c0.0138321,1.8721924,1.5427628,3.3786926,3.4149551,3.3648682
	c0.5231171-0.0038757,1.0382309-0.1287537,1.505043-0.3648682l2.7900009-1.3999939l-4.3099976-1.6300049L77.0800018,379.2999878z"/>
<linearGradient id="SVGID_7_" gradientUnits="userSpaceOnUse" x1="430.9700012" y1="261.9099731" x2="234.6199951" y2="221.0399933" gradientTransform="matrix(1 0 0 -1 0 512)">
	<stop  offset="0" style="stop-color:#000000"/>
	<stop  offset="1" style="stop-color:#000000;stop-opacity:0"/>
</linearGradient>
<path class="st9" d="M340.4500122,113.0899963c-9.8200073,11.8300018-31,14.5500031-44.4400024,20.4199982
	c-32,14-47.1300049,50.1999969-53.8300018,82.4499969c-11.3199921,54.3899841-1.3000031,115.3800049,31.5099945,160.8899841
	c14.480011,20.0799866,36.8699951,32.5499878,53.4199829,50.7000122l39.3800049-217.7299957L340.4500122,113.0899963z"/>
<linearGradient id="SVGID_8_" gradientUnits="userSpaceOnUse" x1="293.7399902" y1="-2236.8100586" x2="466.9799805" y2="-2236.8100586" gradientTransform="matrix(1 0 0 1 0 2654.1999512)">
	<stop  offset="0" style="stop-color:#DCE2E1"/>
	<stop  offset="1" style="stop-color:#C0CCCE"/>
</linearGradient>
<path class="st10" d="M293.7399902,402.7900085c1.4687805,3.4898071,2.7113647,7.0705261,3.7200012,10.7200012h0.0700073
	c1.5100098,10.5,38,18.9100037,82.7399902,18.9100037S461.5,424,463,413.5100098h0.0799866
	c1.0432129-3.8015747,2.346283-7.5269775,3.8999939-11.1499939L293.7399902,402.7900085z"/>
<linearGradient id="SVGID_9_" gradientUnits="userSpaceOnUse" x1="380.3599854" y1="-2234.3898926" x2="380.3599854" y2="-2251.8398438" gradientTransform="matrix(1 0 0 1 0 2654.1999512)">
	<stop  offset="0" style="stop-color:#92A6AD;stop-opacity:0"/>
	<stop  offset="0.99" style="stop-color:#92A6AD"/>
</linearGradient>
<path class="st11" d="M297.4599915,413.5100098h0.0700073c0.7982178,2.7790222,2.7602234,5.0765381,5.3800049,6.2999878h154.7099915
	c2.6197815-1.2234497,4.5817871-3.5209656,5.3800049-6.2999878h0.0799866
	c1.0432129-3.8015747,2.346283-7.5269775,3.8999939-11.1499939l-173.2399902,0.4299927
	C295.2087708,406.2798157,296.451355,409.8605347,297.4599915,413.5100098z"/>
<linearGradient id="SVGID_10_" gradientUnits="userSpaceOnUse" x1="280.3312683" y1="-2384.0749512" x2="480.2124634" y2="-2384.0749512" gradientTransform="matrix(1 0 0 1 0 2654.1999512)">
	<stop  offset="0" style="stop-color:#EC606C"/>
	<stop  offset="1" style="stop-color:#BF2640"/>
</linearGradient>
<path class="st12" d="M284.7799988,126.7399979c-5.7915344,88.4843521-5.9284668,177.2481995-0.4100037,265.75
	c0.2545776,4.0836182,3.0617676,7.5605164,7,8.6700134c28.9611206,8.0090332,58.8524475,12.1615601,88.8999939,12.3500061
	c30.0475464-0.188446,59.9388733-4.3409729,88.8999939-12.3500061c3.9434814-1.101532,6.754303-4.5829468,7-8.6700134
	c5.523468-88.5016479,5.3865356-177.2658081-0.4100037-265.75L284.7799988,126.7399979z"/>
<linearGradient id="SVGID_11_" gradientUnits="userSpaceOnUse" x1="380.269989" y1="-2325.7800293" x2="380.269989" y2="-2240.6899414" gradientTransform="matrix(1 0 0 1 0 2654.1999512)">
	<stop  offset="0" style="stop-color:#BF2640;stop-opacity:0"/>
	<stop  offset="0.99" style="stop-color:#BF2640"/>
</linearGradient>
<path class="st13" d="M281.3699951,328.4200134c0.6700134,21.5400085,1.6600037,43,3,64.0700073
	c0.2545776,4.0836182,3.0617676,7.5605164,7,8.6700134c28.9611206,8.0090332,58.8524475,12.1615601,88.8999939,12.3500061
	c30.0475464-0.188446,59.9388733-4.3409729,88.8999939-12.3500061c3.9434814-1.101532,6.754303-4.5829468,7-8.6700134
	c1.3399963-21.1100159,2.3299866-42.5299988,3-64.0700073H281.3699951z"/>
<linearGradient id="SVGID_12_" gradientUnits="userSpaceOnUse" x1="321.6716309" y1="390.5121155" x2="375.2516479" y2="129.8621063" gradientTransform="matrix(1 0 0 -1 0 512)">
	<stop  offset="0" style="stop-color:#49DA8B"/>
	<stop  offset="1" style="stop-color:#39B76F"/>
</linearGradient>
<path class="st14" d="M401.6799927,166.5200043c0.4700012-12.2899933,4.1000061-25.8399963,16-31.1699982l-28.5400085,3.0700073
	c-22,13.1100006-26.8800049,40.7400055-25.0899963,65.1900024c1.6099854,22.1199951,7.4700012,44.1499939,5.1099854,66.1999817
	c-2.5299988,23.519989-14.3800049,45.2999878-30,63.0800171c-15.9100037,18.1400146-35.6199951,32.519989-55.5800171,46.0499878
	c0.25,4.519989,0.4599915,9.0599976,0.7399902,13.5499878c0.2486572,4.085907,3.0582886,7.5658264,7,8.6700134
	c19.8297119,5.4596252,40.1066284,9.1408386,60.5899963,11c14.9691162-11.3108215,28.5231628-24.3813782,40.3699951-38.9299927
	c19.5400085-24.5599976,32.8500061-55.0799866,32.2900085-86.4700012
	C423.8800049,245.8200073,400.0899963,207.4700012,401.6799927,166.5200043z"/>
<linearGradient id="SVGID_13_" gradientUnits="userSpaceOnUse" x1="284.7700195" y1="-2528.9050293" x2="475.710022" y2="-2528.9050293" gradientTransform="matrix(1 0 0 1 0 2654.1999512)">
	<stop  offset="0" style="stop-color:#DCE2E1"/>
	<stop  offset="1" style="stop-color:#C0CCCE"/>
</linearGradient>
<path class="st15" d="M295.4599915,104.6800003c-2.3365479,6.4632797-5.4564819,12.6158142-9.289978,18.3199997l0,0
	c-0.8503723,0.9065475-1.3471375,2.0881729-1.3999939,3.3300018c0,10.8099976,42.7399902,19.5800018,95.4700012,19.5800018
	s95.4700012-8.7700043,95.4700012-19.5800018c-0.0572205-1.2408524-0.5533752-2.4210281-1.3999939-3.3300018l0,0
	c-3.8376465-5.6890488-6.9610901-11.8284607-9.2999878-18.2799988L295.4599915,104.6800003z"/>
<linearGradient id="SVGID_14_" gradientUnits="userSpaceOnUse" x1="380.2550049" y1="-2524.3100586" x2="380.2550049" y2="-2549.5200195" gradientTransform="matrix(1 0 0 1 0 2654.1999512)">
	<stop  offset="0" style="stop-color:#92A6AD;stop-opacity:0"/>
	<stop  offset="0.99" style="stop-color:#92A6AD"/>
</linearGradient>
<path class="st16" d="M474.3699951,123c-3.8376465-5.6890488-6.9610901-11.8284607-9.2999878-18.2799988H295.4599915
	c-2.3395386,6.4494095-5.4593811,12.5883484-9.289978,18.2799988l0,0c-0.8503723,0.9065475-1.3471375,2.0881729-1.3999939,3.3300018
	c0.073822,1.3616638,0.655426,2.6461945,1.6300049,3.6000061h187.6999817
	c0.9815369-0.9499359,1.5674133-2.2359924,1.6400146-3.5999985c-0.0572205-1.2408524-0.5533752-2.4210281-1.3999939-3.3300018
	L474.3699951,123z"/>
<linearGradient id="SVGID_15_" gradientUnits="userSpaceOnUse" x1="292.0299988" y1="-2555.1499023" x2="468.5099792" y2="-2555.1499023" gradientTransform="matrix(1 0 0 1 0 2654.1999512)">
	<stop  offset="0" style="stop-color:#C0CCCE"/>
	<stop  offset="1" style="stop-color:#DCE2E1"/>
</linearGradient>
<ellipse class="st17" cx="380.269989" cy="99.0500031" rx="88.2399902" ry="19.5800018"/>
<linearGradient id="SVGID_16_" gradientUnits="userSpaceOnUse" x1="298.2199707" y1="-2555.1499023" x2="462.3200073" y2="-2555.1499023" gradientTransform="matrix(1 0 0 1 0 2654.1999512)">
	<stop  offset="0" style="stop-color:#DCE2E1"/>
	<stop  offset="1" style="stop-color:#C0CCCE"/>
</linearGradient>
<ellipse class="st18" cx="380.269989" cy="99.0500031" rx="82.0500183" ry="14.6299973"/>
<linearGradient id="SVGID_17_" gradientUnits="userSpaceOnUse" x1="380.289978" y1="-2555.1499023" x2="380.289978" y2="-2569.7800293" gradientTransform="matrix(1 0 0 1 0 2654.1999512)">
	<stop  offset="0" style="stop-color:#92A6AD;stop-opacity:0"/>
	<stop  offset="0.99" style="stop-color:#92A6AD"/>
</linearGradient>
<path class="st19" d="M380.269989,84.4199982c-45.3200073,0-82,6.5500031-82,14.6299973h164.0400085
	C462.3099976,91,425.5799866,84.4199982,380.269989,84.4199982z"/>
<ellipse class="st0" cx="421.230011" cy="99.0500031" rx="15.7600098" ry="6.3000031"/>
</svg>
