<?xml version="1.0" encoding="utf-8"?>
<!-- Generator: Adobe Illustrator 22.0.0, SVG Export Plug-In . SVG Version: 6.00 Build 0)  -->
<svg version="1.1" id="Capa_1" xmlns="http://www.w3.org/2000/svg" xmlns:xlink="http://www.w3.org/1999/xlink" x="0px" y="0px"
	 width="512px" height="512px" viewBox="0 0 512 512" style="enable-background:new 0 0 512 512;" xml:space="preserve">
<style type="text/css">
	.st0{fill:#FFE8AD;}
	.st1{fill:#FCDF9F;}
	.st2{fill:#FFF1CE;}
	.st3{fill:#E18835;}
	.st4{fill:#DD7017;}
	.st5{fill:#F8AC47;}
	.st6{fill:url(#SVGID_1_);}
	.st7{fill:url(#SVGID_2_);}
	.st8{fill:#B3B3B3;}
	.st9{fill:url(#SVGID_3_);}
	.st10{fill:#39B76F;}
	.st11{fill:url(#SVGID_4_);}
	.st12{fill:#33A361;}
</style>
<g id="_06-closet">
	<path class="st0" d="M270,110.9000015c-15.463974,0-28,12.5360184-28,27.9999924v56.3800049h115.4400024v-84.3799973H270z"/>
	<path class="st1" d="M283.3099976,110.9000015H270c-15.463974,0-28,12.5360184-28,27.9999924v56.3800049h13.3200073v-56.4199982
		C255.3420715,123.4155579,267.8655396,110.9055099,283.3099976,110.9000015z"/>
	<path class="st2" d="M472.8599854,138.8600006v56.3800049H357.4400024v-84.340004h87.4500122
		C460.3266602,110.9165421,472.8379517,123.4233704,472.8599854,138.8600006z"/>
	<path class="st3" d="M242,195.2400055v162.9099884c0,15.4639587,12.536026,28,28,28h87.4400024V195.2400055H242z"/>
	<path class="st4" d="M255.3500061,358.1499939V195.2400055H242v162.9099884c0,15.4639587,12.536026,28,28,28h13.3099976
		C267.8616638,386.1279297,255.3499908,373.5983582,255.3500061,358.1499939z"/>
	<path class="st5" d="M472.8599854,195.2400055v162.9099884c0,15.4639587-12.5360413,28-28,28h-87.4199829V195.2400055H472.8599854z
		"/>
	<rect x="370.7600098" y="266.2600098" class="st0" width="8.8800049" height="31.0700073"/>
	<rect x="335.25" y="266.2600098" class="st0" width="8.8800049" height="31.0700073"/>
	
		<linearGradient id="SVGID_1_" gradientUnits="userSpaceOnUse" x1="370.7600098" y1="358.9349976" x2="379.6400146" y2="358.9349976" gradientTransform="matrix(1 0 0 -1 0 512)">
		<stop  offset="0" style="stop-color:#49DA8B"/>
		<stop  offset="1" style="stop-color:#39B76F"/>
	</linearGradient>
	<rect x="370.7600098" y="141.9700012" class="st6" width="8.8800049" height="22.1900024"/>
	
		<linearGradient id="SVGID_2_" gradientUnits="userSpaceOnUse" x1="335.25" y1="358.9349976" x2="344.1300049" y2="358.9349976" gradientTransform="matrix(1 0 0 -1 0 512)">
		<stop  offset="0" style="stop-color:#49DA8B"/>
		<stop  offset="1" style="stop-color:#39B76F"/>
	</linearGradient>
	<rect x="335.25" y="141.9700012" class="st7" width="8.8800049" height="22.1900024"/>
</g>
<rect x="291.7099915" y="386.1099854" class="st8" width="14.2999878" height="14.9899902"/>
<rect x="72.5" y="386.4899902" class="st8" width="14.3000031" height="14.6199951"/>
<linearGradient id="SVGID_3_" gradientUnits="userSpaceOnUse" x1="67.7399979" y1="272.9199829" x2="306" y2="272.9199829" gradientTransform="matrix(1 0 0 -1 0 512)">
	<stop  offset="0" style="stop-color:#49DA8B"/>
	<stop  offset="1" style="stop-color:#39B76F"/>
</linearGradient>
<path class="st9" d="M67.7399979,296.2600098v-82.7900085c0-24.4299927,22.1900024-31.5700073,49.5600052-31.5700073h139.1399994
	c27.3699951,0,49.5599976,7.1399994,49.5599976,31.5700073v82.7900085H67.7399979z"/>
<path class="st10" d="M131.5899963,181.8999939h-14.2899933c-27.3700027,0-49.5599976,7.1399994-49.5599976,31.5700073v82.7900085
	H82v-82.7900085C82,189,104.2200012,181.8999939,131.5899963,181.8999939z"/>
<linearGradient id="SVGID_4_" gradientUnits="userSpaceOnUse" x1="101.0899963" y1="189.5299988" x2="272.6400146" y2="189.5299988" gradientTransform="matrix(1 0 0 -1 0 512)">
	<stop  offset="0" style="stop-color:#DCE2E1"/>
	<stop  offset="1" style="stop-color:#C0CCCE"/>
</linearGradient>
<rect x="101.0899963" y="296.2600098" class="st11" width="171.5500183" height="52.4199829"/>
<path class="st8" d="M115.3899994,320.9200134v-24.6600037h-14.3000031v52.4199829h171.5599976v-14.289978H128.8500061
	C121.4146347,334.384491,115.390007,328.3553772,115.3899994,320.9200134z"/>
<path class="st10" d="M272.6499939,348.6799927v-65c0.5458374-12.0063477,10.7019958-21.3083496,22.7099915-20.7999878h16.519989
	c12.0079956-0.5083618,22.1641541,8.7936401,22.7099915,20.7999878v83.6699829
	c-0.4602356,10.697113-9.4594421,19.0223083-20.1599731,18.6500244c-54,0.3599854-201.2799988,1.2200012-255.2599945,0.5400085
	c-10.6336594,0.2885437-19.5345306-8.0026245-20-18.6300049v-84.2000122
	c0.4981041-11.9598694,10.578701-21.2622681,22.5400009-20.7999878h16.8499985
	c11.9595261-0.4621887,22.0372467,8.8416748,22.5299988,20.7999878v65L272.6499939,348.6799927z"/>
<path class="st12" d="M286.9400024,283.6400146c0.5723267-11.9836121,10.723999-21.2502136,22.7099915-20.730011h-14.2900085
	c-11.9880371-0.5257874-22.1430359,8.743866-22.7099915,20.730011v65h14.2900085V283.6400146z"/>
<path class="st12" d="M328.7200012,376.4500122c-54,0.3599854-201.2799988,1.2200012-255.25,0.5400085
	c-10.6357117,0.2939758-19.5398026-8.0001831-20-18.6300049v-84.2200012
	c0.0320473-3.8123169,1.179203-7.5318909,3.2999992-10.7000122c-9.9320183,1.726593-17.2840462,10.1939697-17.6000023,20.269989
	v84.2099915c0.4654694,10.6273804,9.3663406,18.9185486,20,18.6300049c54,0.6799927,201.280014-0.1799927,255.2499847-0.5400085
	c7.2329712,0.0621033,13.9617615-3.6976624,17.7000122-9.8900146
	C330.9972839,376.3204346,329.860321,376.4308167,328.7200012,376.4500122z"/>
</svg>
