<?xml version="1.0" encoding="utf-8"?>
<!-- Generator: Adobe Illustrator 22.0.0, SVG Export Plug-In . SVG Version: 6.00 Build 0)  -->
<svg version="1.1" id="Capa_1" xmlns="http://www.w3.org/2000/svg" xmlns:xlink="http://www.w3.org/1999/xlink" x="0px" y="0px"
	 width="512px" height="512px" viewBox="0 0 512 512" style="enable-background:new 0 0 512 512;" xml:space="preserve">
<style type="text/css">
	.st0{fill:url(#SVGID_1_);}
	.st1{fill:#33A361;}
	.st2{fill:#B3B3B3;}
	.st3{fill:url(#SVGID_2_);}
	.st4{fill:#F5F5F5;}
	.st5{fill:#E6E6E6;}
	.st6{fill:#FFFFFF;}
	.st7{fill:url(#SVGID_3_);}
	.st8{fill:url(#SVGID_4_);}
</style>
<linearGradient id="SVGID_1_" gradientUnits="userSpaceOnUse" x1="74.8800049" y1="277.9799805" x2="401.3999939" y2="277.9799805" gradientTransform="matrix(1 0 0 -1 0 512)">
	<stop  offset="0" style="stop-color:#49DA8B"/>
	<stop  offset="1" style="stop-color:#39B76F"/>
</linearGradient>
<circle class="st0" cx="238.1399994" cy="234.0200043" r="163.2599945"/>
<path class="st1" d="M131.6900024,357.269989l123.6399994,71.3800049l-15.7799988,9.1099854l25.9399872,3.3500061
	c2.9487915,0.4218445,5.9530334-0.1818237,8.5100098-1.7099915l156.2799988-90.230011
	c6.508667-3.7598267,8.7370605-12.0841064,4.9772339-18.5927734c-1.1939392-2.0668335-2.9104004-3.7832947-4.9772339-4.9772339
	l-121.8699951-70.3699799L131.6900024,357.269989z"/>
<polygon class="st2" points="410.9100037,206.8999939 410.9100037,338.8200073 239.5500031,437.7600098 105.2799988,360.2399902 
	105.2799988,228.3300018 276.6300049,129.3800049 "/>
<linearGradient id="SVGID_2_" gradientUnits="userSpaceOnUse" x1="105.2799988" y1="178.9549866" x2="239.5500031" y2="178.9549866" gradientTransform="matrix(1 0 0 -1 0 512)">
	<stop  offset="0" style="stop-color:#DCE2E1"/>
	<stop  offset="1" style="stop-color:#C0CCCE"/>
</linearGradient>
<polygon class="st3" points="239.5500031,437.7600098 105.2799988,360.2399902 105.2799988,228.3300018 239.5500031,305.8500061 "/>
<polygon class="st4" points="105.2799988,228.3300018 239.5500031,305.8500061 410.9100037,206.8999939 276.6300049,129.3800049 "/>
<polygon class="st4" points="259.75,327.3599854 335.4100037,283.6799927 282.5700073,338.269989 "/>
<polygon class="st4" points="336.1400146,354.6400146 401.730011,316.7799988 404.9100037,328.6700134 "/>
<path class="st5" d="M121.1500015,340.1400146l62.590004,36.1400146l-0.9400024,1.6199951l-62.5800018-36.1400146
	L121.1500015,340.1400146z M241.5700073,356.2000122L197.8500061,331l0.9299927-1.6199951l43.7299957,25.2399902
	l-0.9400024,1.6199951L241.5700073,356.2000122z M200.730011,388.2000122l-12.1699982-7l0.9299927-1.6199951l12.1699982,7
	L200.730011,388.2000122z"/>
<path class="st5" d="M136.3899994,275.5l-5.5200043-3.1900024l0.9299927-1.6199951l5.5200043,3.1900024L136.3899994,275.5z
	 M109.6999969,257.9299927l18.7700043,10.8399963l-0.9400024,1.6099854l-18.7700043-10.8299866L109.6999969,257.9299927z"/>
<path class="st6" d="M84.5299988,213.3500061l140.8200073,64.8800049
	c60.8299866-26.7200012,111.0599976-69.4499969,155.4599915-122.8699951L240,90.4899979
	C203.3200073,145.4400024,140.5399933,187.0800018,84.5299988,213.3500061z"/>
<polygon class="st2" points="243.4499969,108.2600021 282.769989,125.0699997 281.6900024,127.6200027 242.3699951,110.8099976 "/>
<polygon class="st2" points="240.0299988,115.9599991 264.0799866,126.2399979 262.9899902,128.7899933 238.9400024,118.5100021 "/>
<linearGradient id="SVGID_3_" gradientUnits="userSpaceOnUse" x1="182.25" y1="314.2850037" x2="263.9400024" y2="314.2850037" gradientTransform="matrix(1 0 0 -1 0 512)">
	<stop  offset="0" style="stop-color:#DCE2E1"/>
	<stop  offset="1" style="stop-color:#C0CCCE"/>
</linearGradient>
<path class="st7" d="M223.1000061,167.6000061c22.5599976,0,40.8399963,13.4900055,40.8399963,30.1199951
	s-18.2799988,30.1100006-40.8399963,30.1100006S182.25,214.3500061,182.25,197.7200012
	S200.5399933,167.6000061,223.1000061,167.6000061z"/>
<linearGradient id="SVGID_4_" gradientUnits="userSpaceOnUse" x1="191.5500031" y1="299.2449951" x2="261.5" y2="299.2449951" gradientTransform="matrix(1 0 0 -1 0 512)">
	<stop  offset="0" style="stop-color:#49DA8B"/>
	<stop  offset="1" style="stop-color:#39B76F"/>
</linearGradient>
<path class="st8" d="M261.5,208c-5.7100067,11.5599976-20.75,19.8200073-38.3999939,19.8200073
	c-12.7100067,0-24.0599976-4.2700043-31.5500031-11l31.5500031-19.1300049L261.5,208z"/>
<path class="st1" d="M258.3999939,182.5599976c3.5193176,4.2749329,5.4737549,9.6231995,5.5400085,15.1600037
	C263.9288635,201.2888184,263.0938416,204.8068542,261.5,208l-38.3999939-10.2899933L258.3999939,182.5599976z"/>
</svg>
