<?xml version="1.0" encoding="utf-8"?>
<!-- Generator: Adobe Illustrator 22.0.0, SVG Export Plug-In . SVG Version: 6.00 Build 0)  -->
<svg version="1.1" id="Capa_1" xmlns="http://www.w3.org/2000/svg" xmlns:xlink="http://www.w3.org/1999/xlink" x="0px" y="0px"
	 width="512px" height="512px" viewBox="0 0 512 512" style="enable-background:new 0 0 512 512;" xml:space="preserve">
<style type="text/css">
	.st0{fill:#48ADD9;}
	.st1{fill:url(#SVGID_1_);}
	.st2{fill:#39B76F;}
	.st3{fill:url(#SVGID_2_);}
	.st4{fill:url(#SVGID_3_);}
	.st5{fill:url(#SVGID_4_);}
	.st6{fill:url(#SVGID_5_);}
	.st7{fill:url(#SVGID_6_);}
	.st8{fill:url(#SVGID_7_);}
	.st9{fill:#4DB7E5;}
	.st10{fill:#79C6E8;}
	.st11{fill:url(#SVGID_8_);}
	.st12{fill:#60D1E0;}
	.st13{fill:#5AC6D4;}
	.st14{fill:#3FB7C7;}
	.st15{fill:#9FE4ED;}
</style>
<path class="st0" d="M317.3999939,449.8999939c3.8415833,3.7527771,8.9996033,5.8526001,14.3699951,5.8500061h12.5899963
	c-3.6488037,0.0118103-7.1526794-1.4271545-9.7399902-4C330.0365601,447.1453247,322.8569336,446.3739929,317.3999939,449.8999939z"
	/>
<linearGradient id="SVGID_1_" gradientUnits="userSpaceOnUse" x1="311.1100159" y1="218.1249542" x2="421.3700256" y2="218.1249542" gradientTransform="matrix(1 0 0 -1 0 512)">
	<stop  offset="0" style="stop-color:#49DA8B"/>
	<stop  offset="1" style="stop-color:#39B76F"/>
</linearGradient>
<path class="st1" d="M386.8699951,166.4600067V132h-41.3299866v34.4400024l-19,26.6600037
	c-10.0052795,14.0065765-15.3889771,30.7869263-15.3999939,48v28.6199951
	c0.0023193,4.5613098,0.7384033,9.0925293,2.1799927,13.4200134l2.5299988,7.5899963
	c1.442749,4.3470459,2.1689148,8.8998108,2.1499939,13.4799805l0,0c0.003479,4.565033-0.7327271,9.1004639-2.1799927,13.4299927
	l-2.5299988,7.5899963c-1.4415894,4.3274841-2.1776733,8.8587036-2.1799927,13.4200134v96.4299927
	c-0.0055237,11.4101868,9.2397766,20.6644897,20.6499939,20.6700134c0.0066528,0,0.0133362,0,0.0200195,0h15
	c3.649231,0.0140381,7.1539001-1.4252625,9.7399902-4l0,0c5.3839417-5.3773193,14.1060486-5.3773193,19.4899902,0l0,0
	c2.5860901,2.5747375,6.0907593,4.0140381,9.7399902,4h14.9500122c11.4101868,0.0055237,20.6644897-9.2397766,20.6700134-20.6499939
	c0-0.0066528,0-0.0133362,0-0.0200195v-96.4299927c-0.0023193-4.5613098-0.7384033-9.0925293-2.1799927-13.4200134
	l-2.5299988-7.5899963c-1.4425049-4.330719-2.1785583-8.8653564-2.1799927-13.4299927l0,0
	c0.0023193-4.5613098,0.7384033-9.0925293,2.1799927-13.4200134l2.5299988-7.5899963
	c1.4415894-4.3274841,2.1776733-8.8587036,2.1799927-13.4200134v-28.6199646
	c-0.0063477-17.2138062-5.3904724-33.9955444-15.3999939-48L386.8699951,166.4600067z"/>
<path class="st2" d="M419.1300049,283.2000122c1.4415894-4.3274841,2.1776733-8.8587036,2.1799927-13.4200134v-28.6199951
	c-0.0063477-17.2138062-5.3904724-33.9955444-15.3999939-48l-19-26.6600037V132h-41.3699951v34.4400024l19,26.6600037
	c10.0023499,14.0074615,15.3825989,30.7879181,15.3900146,48v28.6199951
	c0.0027466,4.5617065-0.7334595,9.09375-2.1799927,13.4200134l-2.5299988,7.5899963
	c-2.9064636,8.7140503-2.9064636,18.1359558,0,26.8500061l2.5299988,7.5899963
	c1.4767151,4.3414001,2.2366638,8.8943176,2.2499695,13.4799805v96.4299927
	c0.0004578,5.5887146-2.2698364,10.9377441-6.2900085,14.8200073c0.8170166,0.5192261,1.5748291,1.1261597,2.2600098,1.8099976
	c2.5860901,2.5747375,6.0907593,4.0140381,9.7399902,4h14.9500122c11.4101868,0.0055237,20.6644897-9.2397766,20.6700134-20.6499939
	c0-0.0066528,0-0.0133362,0-0.0200195v-96.3899841c-0.0023193-4.5613098-0.7384033-9.0925293-2.1799927-13.4200134
	l-2.5299988-7.5899963c-2.9064636-8.7140503-2.9064636-18.1359558,0-26.8500061L419.1300049,283.2000122z"/>
<linearGradient id="SVGID_2_" gradientUnits="userSpaceOnUse" x1="359.3200073" y1="290.4400024" x2="420.3200073" y2="290.4400024" gradientTransform="matrix(1 0 0 -1 0 512)">
	<stop  offset="0" style="stop-color:#49DA8B"/>
	<stop  offset="1" style="stop-color:#39B76F"/>
</linearGradient>
<path class="st3" d="M359.3200073,214.6699982v13.7799988h61c-0.7437744-4.6817322-1.884552-9.291687-3.4100037-13.7799988
	H359.3200073z"/>
<linearGradient id="SVGID_3_" gradientUnits="userSpaceOnUse" x1="359.3200073" y1="262.8900146" x2="421.3099976" y2="262.8900146" gradientTransform="matrix(1 0 0 -1 0 512)">
	<stop  offset="0" style="stop-color:#49DA8B"/>
	<stop  offset="1" style="stop-color:#39B76F"/>
</linearGradient>
<rect x="359.3200073" y="242.2200012" class="st4" width="61.9899902" height="13.7799988"/>
<linearGradient id="SVGID_4_" gradientUnits="userSpaceOnUse" x1="359.2999878" y1="235.335022" x2="421.2999878" y2="235.335022" gradientTransform="matrix(1 0 0 -1 0 512)">
	<stop  offset="0" style="stop-color:#49DA8B"/>
	<stop  offset="1" style="stop-color:#39B76F"/>
</linearGradient>
<path class="st5" d="M359.3200073,283.5499878H419l0.1199951-0.3500061
	c1.4415894-4.3274841,2.1776733-8.8587036,2.1799927-13.4200134h-62L359.3200073,283.5499878z"/>
<linearGradient id="SVGID_5_" gradientUnits="userSpaceOnUse" x1="359.3200073" y1="166.4600067" x2="421.3099976" y2="166.4600067" gradientTransform="matrix(1 0 0 -1 0 512)">
	<stop  offset="0" style="stop-color:#49DA8B"/>
	<stop  offset="1" style="stop-color:#39B76F"/>
</linearGradient>
<rect x="359.3200073" y="338.6499939" class="st6" width="61.9899902" height="13.7799988"/>
<linearGradient id="SVGID_6_" gradientUnits="userSpaceOnUse" x1="359.3200073" y1="138.9000092" x2="421.3099976" y2="138.9000092" gradientTransform="matrix(1 0 0 -1 0 512)">
	<stop  offset="0" style="stop-color:#49DA8B"/>
	<stop  offset="1" style="stop-color:#39B76F"/>
</linearGradient>
<rect x="359.3200073" y="366.2099915" class="st7" width="61.9899902" height="13.7799988"/>
<linearGradient id="SVGID_7_" gradientUnits="userSpaceOnUse" x1="359.3200073" y1="111.3499908" x2="421.3099976" y2="111.3499908" gradientTransform="matrix(1 0 0 -1 0 512)">
	<stop  offset="0" style="stop-color:#49DA8B"/>
	<stop  offset="1" style="stop-color:#39B76F"/>
</linearGradient>
<rect x="359.3200073" y="393.7600098" class="st8" width="61.9899902" height="13.7799988"/>
<path class="st2" d="M311.1000061,269.7799988c0.0023193,4.5613098,0.7384033,9.0925293,2.1799927,13.4200134l2.5299988,7.5899963
	c2.9064636,8.7140503,2.9064636,18.1359558,0,26.8500061l-2.5299988,7.5899963
	c-1.4415894,4.3274841-2.1776733,8.8587036-2.1799927,13.4200134v96.4299927
	c0.0033264,5.5899353,2.2770996,10.9387817,6.2999878,14.8200073c5.4478149-3.5363464,12.6265259-2.7817993,17.2200012,1.8099976
	c1.8887024,1.8873596,4.286438,3.1835327,6.8999939,3.730011c6.3479614-1.3517151,10.8922119-6.9497681,10.9100037-13.440033
	v-27.5799866l-6.8900146-13.7799988l6.8900146-13.769989v-13.7800293l-6.8900146-13.769989l6.8900146-13.7799988V331.769989
	L345.5400085,318l6.8900146-13.7799988v-32.8200073c-0.0001221-5.2188416-2.9505615-9.9891357-7.6199951-12.3200073l-19.9299927-10
	v-27.519989h-11.3999939c-1.574707,6.4145813-2.3737488,12.9949799-2.3800049,19.6000061L311.1000061,269.7799988z"/>
<path class="st9" d="M207.7899933,115.7200012V56.25h-55.1100006v59.4700012
	c-36.9495697,11.9469376-61.9883728,46.3470154-62,85.1799927V409.25
	c-0.0069122,25.6757202,20.8017731,46.4956055,46.4774933,46.5025024
	c10.0658875,0.0027161,19.8607635-3.2616577,27.9125061-9.3024902c8.9798126-6.7383423,21.3301849-6.7383423,30.3099976,0
	c20.5380859,15.4087524,49.6787567,11.2505798,65.0875092-9.2875061c6.0408325-8.0517273,9.3052063-17.8466187,9.3024902-27.9125061
	V200.8999939C269.7611694,162.0723877,244.7316589,127.6739655,207.7899933,115.7200012z"/>
<path class="st10" d="M149.6100006,155.0800018L142,143.6100006c5.264328-3.5066376,10.9841614-6.2756958,17-8.2299957
	l4.2299957,13.1100006C158.4108276,150.0555573,153.8283844,152.2727509,149.6100006,155.0800018z"/>
<path class="st10" d="M125.4700012,194.7700043L111.7700043,193.25
	c1.6886139-15.0410004,8.2689285-29.1115723,18.7299957-40.0500031L140.4400024,162.75
	C132.0740051,171.4931488,126.8140335,182.7439423,125.4700012,194.7700043z"/>
<rect x="138.9100037" y="83.8000031" class="st10" width="82.6499939" height="13.7799988"/>
<linearGradient id="SVGID_8_" gradientUnits="userSpaceOnUse" x1="90.6900024" y1="221.5650024" x2="269.7700195" y2="221.5650024" gradientTransform="matrix(1 0 0 -1 0 512)">
	<stop  offset="0" style="stop-color:#49DA8B"/>
	<stop  offset="1" style="stop-color:#39B76F"/>
</linearGradient>
<rect x="90.6900024" y="214.6699982" class="st11" width="179.0800171" height="151.530014"/>
<rect x="111.3600006" y="235.3399963" class="st2" width="13.7799988" height="13.7799988"/>
<rect x="111.3600006" y="262.8900146" class="st2" width="13.7799988" height="61.9899902"/>
<rect x="152.6799927" y="97.5800018" class="st0" width="55.1000061" height="20.6600037"/>
<path class="st0" d="M91.5699997,418.1900024c4.9261475,25.1930847,29.3426208,41.6226807,54.5357132,36.6965332
	c6.8800507-1.3452759,13.366684-4.2294312,18.9742889-8.4365234c8.9798126-6.7383423,21.3301849-6.7383423,30.3099976,0
	c20.5380859,15.4087524,49.6787567,11.2505798,65.0875092-9.2875061c6.0408325-8.0517273,9.3052063-17.8466187,9.3024902-27.9125061
	v-43H148.5899963C131.3162689,385.375061,112.2192917,402.7706604,91.5699997,418.1900024z"/>
<path class="st0" d="M257.0599976,155c-4.488327,20.239624-10.2701874,40.1705475-17.3099976,59.6699982h30v-13.7700043
	C269.7719116,184.7307892,265.384552,168.8616486,257.0599976,155z"/>
<path class="st2" d="M148.5899963,366.2099915h121.1900024V214.6699982h-30
	C219.5784607,270.6571655,188.597641,322.1412354,148.5899963,366.2099915z"/>
<path class="st12" d="M311.1000061,249.1100006v-27.5500031h-41.3200073v27.5500031l-19.9400024,9.9999847
	c-4.6694183,2.3308716-7.619873,7.1011658-7.6199951,12.3200073v32.8099976L249.1100006,318l-6.8899994,13.7799988v13.769989
	l6.8899994,13.7799988l-6.8899994,13.769989v13.7799988l6.8899994,13.769989l-6.8899994,13.7799988V442
	c0.0165405,7.5987549,6.1812134,13.7500305,13.7799988,13.75h68.8800049c7.597168,0,13.7589417-6.1528625,13.769989-13.75
	v-27.5799866l-6.8800049-13.7799988l6.8800049-13.769989v-13.7800293l-6.8800049-13.769989l6.8800049-13.7799988V331.769989
	L331.769989,318l6.8800049-13.7799988v-32.8200073c-0.0034485-5.2262268-2.9672852-9.9993591-7.6499939-12.3200073
	L311.1000061,249.1100006z"/>
<path class="st13" d="M338.6499939,271.3999939c-0.0034485-5.2262268-2.9672852-9.9993591-7.6499939-12.3200073l-19.9400024-10
	v-27.519989h-27.5100098v27.5500031l19.9400024,9.9999847c4.6638794,2.3354492,7.609436,7.1040649,7.6099854,12.3200073v32.8099976
	L304.2099915,318l6.8900146,13.7799988v13.769989l-6.8900146,13.7799988l6.8900146,13.769989v13.7799988l-6.8900146,13.769989
	l6.8900146,13.7799988V442c0.0055237,7.60495-6.1550293,13.7744751-13.7600098,13.7799988c-0.0033264,0-0.0066528,0-0.0099792,0
	h27.5499878c7.60495,0,13.769989-6.1650391,13.769989-13.7700195c0-0.0033264,0-0.0066528,0-0.0099792v-27.5799866
	l-6.8800049-13.7799988l6.8800049-13.769989v-13.7800293l-6.8800049-13.769989l6.8800049-13.7799988V331.769989L331.769989,318
	l6.8800049-13.7799988V271.3999939z"/>
<rect x="269.7799988" y="311.1000061" class="st14" width="61.9899902" height="13.7799988"/>
<rect x="269.7799988" y="352.4299927" class="st14" width="61.9899902" height="13.7799988"/>
<rect x="269.7799988" y="393.7600098" class="st14" width="61.9899902" height="13.7799988"/>
<rect x="262.8900146" y="276.6600037" class="st15" width="13.7799988" height="20.6600037"/>
<ellipse class="st14" cx="290.4400024" cy="221.5599976" rx="20.6600037" ry="13.7799988"/>
</svg>
