<?xml version="1.0" encoding="utf-8"?>
<!-- Generator: Adobe Illustrator 22.0.0, SVG Export Plug-In . SVG Version: 6.00 Build 0)  -->
<svg version="1.1" id="Capa_1" xmlns="http://www.w3.org/2000/svg" xmlns:xlink="http://www.w3.org/1999/xlink" x="0px" y="0px"
	 width="512px" height="512px" viewBox="0 0 512 512" style="enable-background:new 0 0 512 512;" xml:space="preserve">
<style type="text/css">
	.st0{fill:url(#SVGID_1_);}
	.st1{fill:url(#SVGID_2_);}
	.st2{fill:#B3B3B3;}
	.st3{fill:url(#SVGID_3_);}
	.st4{fill:#39B76F;}
	.st5{opacity:0.7;fill:url(#SVGID_4_);enable-background:new    ;}
	.st6{fill:url(#SVGID_5_);}
	.st7{fill:url(#SVGID_6_);}
	.st8{fill:#FFFFFF;}
</style>
<linearGradient id="SVGID_1_" gradientUnits="userSpaceOnUse" x1="41.1800003" y1="126.6199951" x2="91.2399979" y2="126.6199951" gradientTransform="matrix(1 0 0 -1 0 512)">
	<stop  offset="0" style="stop-color:#49DA8B"/>
	<stop  offset="1" style="stop-color:#39B76F"/>
</linearGradient>
<path class="st0" d="M41.1800003,372.8800049h50.0599976l0,0v24c0,0.5522766-0.4477158,1-1,1H42.1800003
	c-0.5522842,0-1-0.4477234-1-1V372.8800049L41.1800003,372.8800049z"/>
<linearGradient id="SVGID_2_" gradientUnits="userSpaceOnUse" x1="153.8200073" y1="126.6199951" x2="203.8800049" y2="126.6199951" gradientTransform="matrix(1 0 0 -1 0 512)">
	<stop  offset="0" style="stop-color:#49DA8B"/>
	<stop  offset="1" style="stop-color:#39B76F"/>
</linearGradient>
<path class="st1" d="M153.8200073,372.8800049h50.0599976l0,0v24c0,0.5522766-0.4477081,1-1,1h-48.0599976
	c-0.5522919,0-1-0.4477234-1-1V372.8800049L153.8200073,372.8800049z"/>
<path class="st2" d="M42.1800003,122.5800018h160.7000122c0.5522919,0,1,0.4477158,1,1v36.5500031l0,0H41.1800003l0,0v-36.5500031
	C41.1800003,123.0277176,41.6277161,122.5800018,42.1800003,122.5800018z"/>
<rect x="41.1800003" y="128.8300018" class="st2" width="162.7000122" height="31.2899933"/>
<linearGradient id="SVGID_3_" gradientUnits="userSpaceOnUse" x1="122.534996" y1="357.3500061" x2="122.534996" y2="137.5299988" gradientTransform="matrix(1 0 0 -1 0 512)">
	<stop  offset="0" style="stop-color:#DCE2E1"/>
	<stop  offset="1" style="stop-color:#C0CCCE"/>
</linearGradient>
<path class="st3" d="M203.8800049,153.8600006H41.1800003c0,0-12.5100002,18.7799988-12.5100002,50.0699921l5.9999981,169.1699829
	c0.1342583,3.3537598,2.8935394,6.0026855,6.25,6h51.2400055c3.0762177,0.0036011,5.6976471-2.2318115,6.1800003-5.269989
	l24.1899948-151.1299896l24.1900024,151.1699982c0.4823608,3.0381775,3.103775,5.2735901,6.1799927,5.269989h51.1900024
	c3.3582611,0.0028992,6.1205139-2.6446533,6.2599945-6l6.0500031-169.1699982
	C216.3999939,172.6399994,203.8800049,153.8600006,203.8800049,153.8600006z"/>
<path class="st4" d="M97.5100021,191.4100037c-0.5848846-0.0011902-1.1668854-0.0819397-1.7300034-0.2400055
	c-3.3244171-0.9493103-5.2498169-4.4138641-4.300499-7.7382812c0.0001678-0.0005646,0.0003281-0.0011444,0.0004959-0.0017242
	L104,139.6300049c1.2041016-3.2408447,4.8074341-4.8919525,8.0482864-3.6878662
	c2.8953018,1.0757141,4.5732956,4.1023865,3.9517136,7.1278687l-12.5200043,43.8000031
	C102.7171402,189.5399017,100.2866592,191.3882141,97.5100021,191.4100037z"/>
<path class="st4" d="M147.5599976,191.4100037c-2.7866669-0.0118256-5.2311249-1.8614655-6-4.5399933L129,143.0700073
	c-1.2041016-3.2408447,0.4470062-6.8441925,3.6878662-8.0482788c3.2408447-1.2041016,6.8441772,0.4470062,8.0482788,3.687851
	c0.1113281,0.2996216,0.1995239,0.6073303,0.263855,0.9204254l12.5099945,43.8000031
	c0.9502716,3.3241425-0.9741364,6.7892456-4.2982788,7.7395172c-0.0005646,0.0001526-0.0011444,0.0003204-0.0017242,0.0004883
	C148.6728821,191.3219604,148.1181335,191.4026489,147.5599976,191.4100037z"/>
<linearGradient id="SVGID_4_" gradientUnits="userSpaceOnUse" x1="250.3899994" y1="256.2399902" x2="154.3200073" y2="256.2399902" gradientTransform="matrix(1 0 0 -1 0 512)">
	<stop  offset="0" style="stop-color:#000000"/>
	<stop  offset="1" style="stop-color:#000000;stop-opacity:0"/>
</linearGradient>
<polygon class="st5" points="204.7400055,132.5299988 143.8200073,229.4700012 165.6399994,378.9899902 210.8300018,378.9899902 
	214.4299927,132.5299988 "/>
<path class="st4" d="M324.480011,111.8300018c-12.3081665,0.0033569-24.0316772-5.2507553-32.2200012-14.4400024h-11.1000061
	v72.2100067h86.6499939V97.3899994h-11.1000061C348.5193481,106.5818405,336.7916565,111.8362122,324.480011,111.8300018z"/>
<path class="st4" d="M209,126.2699966c0,0-43.3200073,62.4300003-43.3200073,86.6500015
	c0,28.8800049,14.4400024,166.0699921,14.4400024,166.0699921h43.2799988V241.8000031L209,126.2699966z"/>
<path class="st4" d="M440,126.2699966c0,0,43.3200073,62.4300003,43.3200073,86.6500015
	c0,28.8800049-14.4400024,166.0699921-14.4400024,166.0699921h-43.3099976V241.8000031L440,126.2699966z"/>
<linearGradient id="SVGID_5_" gradientUnits="userSpaceOnUse" x1="324.5" y1="406.0599976" x2="324.5" y2="98.4299927" gradientTransform="matrix(1 0 0 -1 0 512)">
	<stop  offset="0" style="stop-color:#49DA8B"/>
	<stop  offset="1" style="stop-color:#39B76F"/>
</linearGradient>
<path class="st6" d="M440,125.7900009l-50.5299988-28.8799973h-21.6600037
	c-0.363678,23.9277344-20.0557861,43.0301666-43.9835205,42.6664734
	c-23.4150391-0.355896-42.3105774-19.2514343-42.6664734-42.6664734H259.5L209,125.7900009l14.3999939,115.5300064v158.8500061
	c0,7.9750061,6.4650116,14.4400024,14.4400024,14.4400024l0,0h173.2900085c7.9750061,0,14.4400024-6.4649963,14.4400024-14.4400024
	l0,0V241.3200073L440,125.7900009z"/>
<linearGradient id="SVGID_6_" gradientUnits="userSpaceOnUse" x1="324.4849854" y1="178.980011" x2="324.4849854" y2="96.9100037" gradientTransform="matrix(1 0 0 -1 0 512)">
	<stop  offset="0" style="stop-color:#20B823;stop-opacity:0"/>
	<stop  offset="1" style="stop-color:#39B76F"/>
</linearGradient>
<path class="st7" d="M223.3999939,321.2200012v79.4299927c0,7.9750061,6.4650116,14.4400024,14.4400024,14.4400024l0,0h173.2900085
	c7.9727173-0.0055237,14.4344788-6.4672852,14.4400024-14.4400024v-79.4299927H223.3999939z"/>
<path class="st8" d="M329.1799927,292.519989c-2.2900085,4-5.1300049,6.3299866-7.6099854,6.3299866
	c-2.1300049,0-4.5400085-1.769989-6.6300049-4.7999878L323.7000122,289L300,282.6799927l-6.2900085,23.7099915l8.9100037-5.1700134
	c4.8999939,7.5700073,11.7099915,11.9100037,19,11.9100037c7.7600098,0,15-4.9100037,20-13.4700012l17.5700073-30.4200134
	l-12.3699951-7.1499939L329.1799927,292.519989z"/>
<path class="st8" d="M363.4299927,226.3500061c1,1.7700043,0.7600098,4.5599976-0.6400146,7.6999969L354,229l6.4500122,23.6699982
	l23.6799927-6.4400024l-8.9500122-5.1100006c3.8900146-7.8800049,4.1600037-15.7700043,0.6000061-21.9400024
	c-3.8800049-6.7200012-11.769989-10.5700073-21.6499939-10.5700073h-31.4400024v14.2899933h31.4599915
	C358.7200012,222.9299927,362.1900024,224.2100067,363.4299927,226.3500061z"/>
<path class="st8" d="M269,243.2400055l15.5400085,26.9099884L296.9299927,263l-15.539978-26.8999939
	c-2.2799988-4-2.9100037-7.6000061-1.6700134-9.75s4.6499939-3.3999939,9.1499939-3.4199982v10.1600037l17.3500061-17.3500061
	l-17.3500061-17.3500061v10.2599945c-9.8200073,0-17.6600037,3.8800049-21.519989,10.5599976
	S264.0799866,234.6900024,269,243.2400055z"/>
</svg>
