<svg width="24" height="23" viewBox="0 0 24 23" fill="none" xmlns="http://www.w3.org/2000/svg">
<path d="M21.4591 10.1909H18.2792C17.3959 10.1909 16.9542 9.14839 17.5725 8.54024L19.7808 6.36828C20.3991 5.76014 20.3991 4.71762 19.7808 4.10947C19.1625 3.50132 18.1025 3.50132 17.4842 4.10947L15.2759 6.28143C14.6576 6.88957 13.5976 6.45519 13.5976 5.58641V2.45876C13.5976 1.58998 12.8909 0.808105 11.9193 0.808105C11.036 0.808105 10.241 1.5031 10.241 2.45876V5.58641C10.241 6.45519 9.18102 6.88957 8.5627 6.28143L6.3544 4.10947C5.73608 3.50132 4.6761 3.50132 4.05778 4.10947C3.43946 4.71762 3.43946 5.76014 4.05778 6.36828L6.26607 8.54024C6.88439 9.14839 6.44273 10.1909 5.55941 10.1909H2.37948C1.49616 10.1909 0.701172 10.8859 0.701172 11.8416C0.701172 12.7104 1.40783 13.4923 2.37948 13.4923H5.55941C6.44273 13.4923 6.88439 14.5349 6.26607 15.143L4.05778 17.315C3.70445 17.6625 3.61612 18.01 3.61612 18.4444C3.61612 18.8788 3.79278 19.3132 4.05778 19.5738C4.4111 19.9213 4.76443 20.0082 5.20609 20.0082C5.64775 20.0082 6.08941 19.8344 6.3544 19.5738L8.5627 17.4018C9.18102 16.7937 10.241 17.2281 10.241 18.0968V21.2245C10.241 22.0933 10.9476 22.8752 11.9193 22.8752C12.8026 22.8752 13.5976 22.1802 13.5976 21.2245V18.0968C13.5976 17.2281 14.6576 16.7937 15.2759 17.4018L17.4842 19.5738C17.8375 19.9213 18.1908 20.0082 18.6325 20.0082C19.0742 20.0082 19.5158 19.8344 19.7808 19.5738C20.1341 19.2263 20.2225 18.8788 20.2225 18.4444C20.2225 18.01 20.0458 17.5756 19.7808 17.315L17.5725 15.143C16.9542 14.5349 17.3959 13.4923 18.2792 13.4923H21.4591C22.3424 13.4923 23.1374 12.7973 23.1374 11.8416C23.0491 10.8859 22.3424 10.1909 21.4591 10.1909Z" fill="#CCCCCC"/>
</svg>
