<?xml version="1.0" encoding="utf-8"?>
<!-- Generator: Adobe Illustrator 22.0.0, SVG Export Plug-In . SVG Version: 6.00 Build 0)  -->
<svg version="1.1" id="Layer_1" xmlns="http://www.w3.org/2000/svg" xmlns:xlink="http://www.w3.org/1999/xlink" x="0px" y="0px"
	 viewBox="0 0 42.9 32.2" style="enable-background:new 0 0 42.9 32.2;" xml:space="preserve">
<style type="text/css">
	.st0{fill:#006837;}
</style>
<g>
	<path class="st0" d="M21.4,26.1c4.3,0,7.7-3.5,7.7-7.7s-3.5-7.7-7.7-7.7s-7.7,3.5-7.7,7.7S17.2,26.1,21.4,26.1z M21.4,12.2
		c3.4,0,6.2,2.8,6.2,6.2c0,3.4-2.8,6.2-6.2,6.2c-3.4,0-6.2-2.8-6.2-6.2C15.3,15,18,12.2,21.4,12.2z"/>
	<path class="st0" d="M39.3,4.6h-9.8l-1-2.8C28,0.7,26.9,0,25.8,0h-8.7c-1.1,0-2.2,0.7-2.6,1.8l-1,2.8H9.4V4c0-0.4-0.3-0.7-0.7-0.7
		H5.2C4.8,3.4,4.5,3.7,4.5,4v0.5H3.6C1.6,4.6,0,6.2,0,8.1v20.5c0,2,1.6,3.6,3.6,3.6h35.7c2,0,3.6-1.6,3.6-3.6V8.1
		C42.9,6.2,41.2,4.6,39.3,4.6z M3.6,6.1h10c0.5,0,1-0.3,1.2-0.9l1.1-2.9c0.2-0.5,0.7-0.8,1.2-0.8h8.7c0.5,0,1,0.3,1.2,0.8l1.1,2.9
		c0.2,0.5,0.7,0.9,1.2,0.9h10c1.1,0,2.1,0.9,2.1,2.1v2.8H29.5c-0.1-0.1-0.2-0.2-0.3-0.3c-2.1-2.1-4.8-3.2-7.8-3.2
		c-2.9,0-5.7,1.1-7.8,3.2c-0.1,0.1-0.2,0.2-0.3,0.3H1.5V8.1C1.5,7,2.4,6.1,3.6,6.1z M21.4,9c5.2,0,9.4,4.2,9.4,9.4s-4.2,9.4-9.4,9.4
		c-5.2,0-9.4-4.2-9.4-9.4S16.2,9,21.4,9z M39.3,30.7H3.6c-1.1,0-2.1-0.9-2.1-2.1V12.4h10.7c-1.1,1.8-1.7,3.8-1.7,5.9
		c0,2.9,1.1,5.7,3.2,7.8s4.8,3.2,7.8,3.2c2.9,0,5.7-1.1,7.8-3.2s3.2-4.8,3.2-7.8c0-2.1-0.6-4.2-1.7-5.9h10.7v16.2
		C41.3,29.7,40.4,30.7,39.3,30.7z"/>
	<path class="st0" d="M16.8,17.9c0,0,0.1,0,0.1,0c0.3,0,0.5-0.2,0.6-0.5c0.3-1.4,1.4-2.5,2.8-2.9c0.3-0.1,0.5-0.4,0.4-0.8
		c-0.1-0.3-0.4-0.5-0.8-0.4c-1.8,0.5-3.2,2-3.6,3.8C16.3,17.5,16.5,17.8,16.8,17.9z"/>
	<path class="st0" d="M18.1,3.9h6.4c0.4,0,0.7-0.3,0.7-0.7c0-0.4-0.3-0.7-0.7-0.7h-6.4c-0.4,0-0.7,0.3-0.7,0.7
		C17.4,3.6,17.7,3.9,18.1,3.9z"/>
</g>
</svg>
