<?xml version="1.0" encoding="utf-8"?>
<!-- Generator: Adobe Illustrator 22.0.0, SVG Export Plug-In . SVG Version: 6.00 Build 0)  -->
<svg version="1.1" id="Layer_1" xmlns="http://www.w3.org/2000/svg" xmlns:xlink="http://www.w3.org/1999/xlink" x="0px" y="0px"
	 viewBox="0 0 49.2 47.2" style="enable-background:new 0 0 49.2 47.2;" xml:space="preserve">
<style type="text/css">
	.st0{fill:none;stroke:#006837;stroke-width:1.25;stroke-linecap:round;stroke-linejoin:round;stroke-miterlimit:10;}
</style>
<g>
	<g>
		<path class="st0" d="M23.7,13.2c0.3,0.6,1,1.3,2.6,1.3c2.8,0,2.8-1.5,2.8-1.8c0-0.3,0-1.9-2.8-2.2c-2.9-0.3-2.6-1.7-2.6-2
			c0-0.3,0.1-1.9,2.6-1.9c1.5,0,2.1,0.6,2.4,1"/>
		<line class="st0" x1="26.3" y1="14.5" x2="26.3" y2="16"/>
		<line class="st0" x1="26.3" y1="5.2" x2="26.3" y2="6.7"/>
		<ellipse class="st0" cx="26.3" cy="10.5" rx="10.5" ry="9.9"/>
		<g>
			<path class="st0" d="M10.8,46L0.6,33.9l6-4.5c0.9-0.6,2.1-0.5,2.8,0.3l9.8,11.8l-6.5,4.8C12.2,46.7,11.3,46.6,10.8,46z"/>
			<path class="st0" d="M18.6,40.2l14.9-1.1c2.1-0.2,2.6-0.5,4-1.8l10.6-10.7c0.6-0.6,0.6-1.5-0.1-2.1v0c-1.5-1.3-3.7-1.3-5.2,0
				l-4.7,4.1l-0.4,0.3"/>
			<path class="st0" d="M23.4,33.5l10.2-0.7c1.1-0.1,1.9-1,1.9-2l0,0c-0.1-1.6-1.5-2.8-3.1-2.8l-7.4,0.1c0,0-2.7-3-8.1-2.6
				c-3.5,0.3-5.4,1.6-7.4,3.7"/>
			<path class="st0" d="M13,41.1c0,0.2-0.1,0.3-0.3,0.3c-0.2,0-0.3-0.1-0.3-0.3c0-0.2,0.1-0.3,0.3-0.3C12.9,40.9,13,41,13,41.1z"/>
		</g>
	</g>
</g>
</svg>
