<?xml version="1.0" encoding="UTF-8"?>
<svg xmlns="http://www.w3.org/2000/svg" xmlns:xlink="http://www.w3.org/1999/xlink" width="15px" height="16px" viewBox="0 0 15 16" version="1.1">
<g id="surface1">
<path style=" stroke:none;fill-rule:nonzero;fill:rgb(100%,100%,100%);fill-opacity:1;" d="M 7.644531 0 L 7.226562 0.398438 L 5.652344 1.898438 L 2.917969 1.515625 L 2.441406 4.203125 L 0 5.480469 L 1.214844 7.933594 L 0 10.386719 L 2.441406 11.667969 L 2.917969 14.355469 L 5.652344 13.972656 L 7.644531 15.871094 L 9.628906 13.972656 L 12.363281 14.355469 L 12.839844 11.667969 L 15.28125 10.386719 L 14.070312 7.933594 L 15.28125 5.480469 L 12.839844 4.203125 L 12.363281 1.515625 L 9.628906 1.898438 Z M 7.640625 1.648438 L 9.214844 3.152344 L 11.382812 2.847656 L 11.761719 4.980469 L 13.695312 5.992188 L 12.734375 7.933594 L 13.695312 9.878906 L 11.761719 10.890625 L 11.382812 13.019531 L 9.214844 12.71875 L 7.640625 14.222656 L 6.066406 12.71875 L 3.898438 13.019531 L 3.519531 10.890625 L 1.585938 9.878906 L 2.546875 7.933594 L 1.585938 5.992188 L 3.519531 4.980469 L 3.898438 2.847656 L 6.066406 3.152344 Z M 10.609375 5.566406 L 6.859375 9.269531 L 4.910156 7.34375 L 4.070312 8.171875 L 6.859375 10.929688 L 11.449219 6.394531 Z M 10.609375 5.566406 "/>
</g>
</svg>
