<?xml version="1.0" encoding="utf-8"?>
<!-- Generator: Adobe Illustrator 22.0.0, SVG Export Plug-In . SVG Version: 6.00 Build 0)  -->
<svg version="1.1" id="Layer_1" xmlns="http://www.w3.org/2000/svg" xmlns:xlink="http://www.w3.org/1999/xlink" x="0px" y="0px"
	 width="122.9px" height="116.9px" viewBox="0 0 122.9 116.9" style="enable-background:new 0 0 122.9 116.9;" xml:space="preserve"
	>
<style type="text/css">
	.st0{fill:#FFFFFF;}
	.st1{fill:#33CC99;}
</style>
<title>verified-symbol</title>
<polygon class="st0" points="61.4,8.2 80.4,0 90.9,17.8 111.2,22.3 109.2,42.8 122.9,58.4 109.2,73.9 111.2,94.6 91,99 80.4,116.9 
	61.5,108.6 42.5,116.9 32,99.1 11.7,94.6 13.7,74 0,58.4 13.7,43 11.7,22.3 31.9,17.9 42.5,0 61.4,8.2 "/>
<path class="st1" d="M37.9,65c-6.1-6.5,3.2-16.3,10-10.1c2.4,2.2,5.8,5.3,8.2,7.5l18.5-22.7c6.4-6.7,16.6,3.1,10.2,9.8L61.7,77.2
	c-2.6,2.8-7,3-9.9,0.4C47.8,73.9,42,68.5,37.9,65z"/>
</svg>
