<svg id="16fcec18-7cfa-4e55-8f0c-6695ee6267f4" data-name="Layer 1" xmlns="http://www.w3.org/2000/svg" width="25.46875" height="26.78125" viewBox="0 0 25.46875 26.78125">
  <title>checkWhite</title>
  <g id="ceb1d33e-fe9c-4481-af4e-15b08cb6ee20" data-name="surface1297216">
    <path d="M12.73828,0,12.043.67188,9.42188,3.20312l-4.5586-.64843-.793,4.53906L0,9.25l2.02344,4.14062L0,17.52734,4.07031,19.6875l.793,4.53516,4.5586-.64454,3.3164,3.20313,3.3086-3.20313,4.55859.64454.79687-4.53516,4.06641-2.16016-2.01953-4.13672L25.46875,9.25,21.40234,7.09375l-.79687-4.53906-4.55859.64843Zm-.0039,2.78125,2.625,2.53516,3.61328-.50782.6289,3.59375,3.22266,1.71094-1.60156,3.27734L22.82422,16.668l-3.22266,1.71094-.6289,3.59375-3.61328-.50782L12.73438,24l-2.6211-2.53516L6.5,21.97266l-.63281-3.59375L2.64453,16.668l1.60156-3.27735L2.64453,10.11328,5.86719,8.40234,6.5,4.80859l3.61328.50782Zm4.94921,6.60937-6.25,6.25-3.25-3.25L6.78516,13.793l4.64843,4.64844L19.082,10.793Z" style="fill: #fff"/>
  </g>
</svg>
