<?xml version="1.0" encoding="UTF-8"?>
<svg xmlns="http://www.w3.org/2000/svg" xmlns:xlink="http://www.w3.org/1999/xlink" viewBox="0 0 32 32" width="32px" height="32px">
<g id="surface1297216">
<path style=" stroke:none;fill-rule:nonzero;fill:rgb(1.568628%,49.411765%,29.411766%);fill-opacity:1;" d="M 16.003906 2.609375 L 15.308594 3.28125 L 12.6875 5.8125 L 8.128906 5.164062 L 7.335938 9.703125 L 3.265625 11.859375 L 5.289062 16 L 3.265625 20.136719 L 7.335938 22.296875 L 8.128906 26.832031 L 12.6875 26.1875 L 16.003906 29.390625 L 19.3125 26.1875 L 23.871094 26.832031 L 24.667969 22.296875 L 28.734375 20.136719 L 26.714844 16 L 28.734375 11.859375 L 24.667969 9.703125 L 23.871094 5.164062 L 19.3125 5.8125 Z M 16 5.390625 L 18.625 7.925781 L 22.238281 7.417969 L 22.867188 11.011719 L 26.089844 12.722656 L 24.488281 16 L 26.089844 19.277344 L 22.867188 20.988281 L 22.238281 24.582031 L 18.625 24.074219 L 16 26.609375 L 13.378906 24.074219 L 9.765625 24.582031 L 9.132812 20.988281 L 5.910156 19.277344 L 7.511719 16 L 5.910156 12.722656 L 9.132812 11.011719 L 9.765625 7.417969 L 13.378906 7.925781 Z M 20.949219 12 L 14.699219 18.25 L 11.449219 15 L 10.050781 16.402344 L 14.699219 21.050781 L 22.347656 13.402344 Z M 20.949219 12 "/>
</g>
</svg>
