<?xml version="1.0" encoding="UTF-8"?>
<svg xmlns="http://www.w3.org/2000/svg" xmlns:xlink="http://www.w3.org/1999/xlink" width="50px" height="50px" viewBox="0 0 50 60" version="1.1">
<g id="surface1">
<path style=" stroke:none;fill-rule:nonzero;fill:rgb(0%,0%,0%);fill-opacity:1;" d="M 18.082031 60.320312 L 11.6875 60.320312 C 10.222656 60.332031 8.914062 59.40625 8.460938 58.027344 L 7.472656 54.894531 C 7.378906 54.589844 7.433594 54.257812 7.621094 54 C 7.804688 53.738281 8.109375 53.582031 8.433594 53.585938 L 20.417969 53.585938 C 20.972656 53.578125 21.425781 54.015625 21.433594 54.558594 L 21.433594 56.960938 C 21.460938 58.785156 19.988281 60.289062 18.136719 60.320312 C 18.125 60.320312 18.117188 60.320312 18.109375 60.320312 Z M 9.8125 55.625 L 10.40625 57.414062 C 10.589844 57.945312 11.089844 58.308594 11.664062 58.320312 L 18.054688 58.320312 C 18.800781 58.320312 19.40625 57.722656 19.40625 56.988281 L 19.40625 55.652344 Z M 9.8125 55.625 "/>
<path style=" stroke:none;fill-rule:nonzero;fill:rgb(0%,0%,0%);fill-opacity:1;" d="M 38.1875 60.320312 L 31.835938 60.320312 C 29.984375 60.3125 28.488281 58.828125 28.488281 57 L 28.488281 54.667969 C 28.480469 54.121094 28.921875 53.675781 29.472656 53.667969 L 41.488281 53.667969 C 41.808594 53.664062 42.113281 53.816406 42.296875 54.078125 C 42.488281 54.339844 42.542969 54.667969 42.445312 54.972656 L 41.417969 58.066406 C 40.949219 59.429688 39.648438 60.339844 38.1875 60.320312 Z M 30.488281 55.625 L 30.488281 56.960938 C 30.488281 57.695312 31.089844 58.292969 31.835938 58.292969 L 38.1875 58.292969 C 38.78125 58.28125 39.292969 57.894531 39.460938 57.332031 L 40.054688 55.546875 Z M 30.488281 55.625 "/>
<path style=" stroke:none;fill-rule:nonzero;fill:rgb(0%,0%,0%);fill-opacity:1;" d="M 42.917969 55.625 L 7 55.625 C 4.894531 55.636719 3.136719 54.054688 2.945312 51.988281 L 0 22.332031 C -0.257812 19.738281 1.664062 17.429688 4.296875 17.175781 C 4.304688 17.175781 4.316406 17.175781 4.324219 17.171875 L 45.136719 17.171875 C 47.785156 17.136719 49.960938 19.226562 50 21.839844 C 50 21.851562 50 21.867188 50 21.878906 C 50 22.039062 50 22.1875 50 22.332031 L 46.972656 52 C 46.777344 54.0625 45.019531 55.636719 42.917969 55.625 Z M 4.785156 19.148438 C 3.292969 19.136719 2.074219 20.320312 2.0625 21.792969 C 2.0625 21.90625 2.066406 22.019531 2.082031 22.132812 L 4.960938 51.800781 C 5.058594 52.839844 5.941406 53.632812 7 53.625 L 42.917969 53.625 C 43.964844 53.613281 44.835938 52.828125 44.945312 51.800781 L 47.863281 22.132812 C 48.042969 20.671875 46.988281 19.34375 45.507812 19.164062 C 45.390625 19.152344 45.277344 19.144531 45.164062 19.148438 Z M 4.785156 19.148438 "/>
<path style=" stroke:none;fill-rule:nonzero;fill:rgb(0%,0%,0%);fill-opacity:1;" d="M 47.109375 19.707031 C 46.921875 19.707031 46.742188 19.65625 46.582031 19.558594 C 46.148438 19.289062 45.648438 19.148438 45.136719 19.148438 L 4.785156 19.148438 C 4.273438 19.148438 3.773438 19.289062 3.335938 19.546875 C 3.027344 19.734375 2.636719 19.734375 2.324219 19.546875 C 1.996094 19.371094 1.792969 19.035156 1.796875 18.667969 L 1.796875 14.492188 C 1.765625 13.144531 2.851562 12.03125 4.214844 12 C 4.234375 12 4.253906 12 4.269531 12 L 45.648438 12 C 47.015625 12 48.121094 13.09375 48.121094 14.441406 L 48.121094 18.667969 C 48.105469 19.214844 47.660156 19.652344 47.109375 19.667969 Z M 4.269531 14.054688 C 4.023438 14.054688 3.824219 14.25 3.824219 14.492188 L 3.824219 17.253906 C 4.140625 17.183594 4.460938 17.148438 4.785156 17.148438 L 45.136719 17.148438 C 45.457031 17.148438 45.78125 17.183594 46.09375 17.253906 L 46.09375 14.492188 C 46.09375 14.25 45.894531 14.054688 45.648438 14.054688 Z M 4.269531 14.054688 "/>
<path style=" stroke:none;fill-rule:nonzero;fill:rgb(0%,0%,0%);fill-opacity:1;" d="M 9.460938 14.054688 C 9.0625 14.050781 8.703125 13.824219 8.539062 13.464844 L 6.511719 8.972656 C 6.269531 8.480469 6.476562 7.882812 6.972656 7.640625 L 14.460938 3.734375 C 14.800781 3.558594 15.214844 3.589844 15.527344 3.8125 L 17.769531 5.398438 L 20.027344 0.546875 C 20.222656 0.171875 20.628906 -0.046875 21.054688 0 L 30.945312 1.066406 C 31.246094 1.101562 31.511719 1.269531 31.675781 1.519531 C 31.847656 1.769531 31.894531 2.085938 31.796875 2.375 L 30.769531 5.601562 L 33.769531 6.535156 L 37.203125 3.945312 C 37.441406 3.773438 37.738281 3.707031 38.027344 3.761719 L 42.242188 4.625 C 42.445312 4.667969 42.628906 4.769531 42.769531 4.921875 L 45.203125 7.585938 C 45.496094 7.898438 45.558594 8.359375 45.351562 8.734375 L 42.769531 13.601562 C 42.511719 14.082031 41.910156 14.269531 41.417969 14.027344 C 40.9375 13.769531 40.746094 13.179688 40.988281 12.691406 L 43.242188 8.359375 L 41.539062 6.480469 L 38.066406 5.734375 L 34.582031 8.398438 C 34.320312 8.597656 33.976562 8.65625 33.664062 8.558594 L 29.1875 7.121094 C 28.9375 7.050781 28.722656 6.890625 28.59375 6.667969 C 28.488281 6.425781 28.488281 6.148438 28.59375 5.90625 L 29.488281 2.933594 L 21.621094 2.066406 L 19.148438 7.398438 C 19.027344 7.675781 18.78125 7.882812 18.488281 7.960938 C 18.171875 8.050781 17.832031 7.992188 17.566406 7.800781 L 14.863281 5.867188 L 8.757812 9.011719 L 10.390625 12.652344 C 10.632812 13.144531 10.421875 13.734375 9.925781 13.972656 C 9.914062 13.976562 9.902344 13.980469 9.890625 13.988281 C 9.753906 14.039062 9.605469 14.058594 9.460938 14.054688 Z M 9.460938 14.054688 "/>
<path style=" stroke:none;fill-rule:nonzero;fill:rgb(0%,0%,0%);fill-opacity:1;" d="M 20.417969 9.761719 C 20.191406 9.769531 19.964844 9.699219 19.785156 9.558594 L 17.566406 7.734375 C 17.160156 7.402344 17.09375 6.8125 17.417969 6.398438 C 17.769531 5.976562 18.402344 5.910156 18.835938 6.253906 L 21.066406 8 C 21.5 8.351562 21.5625 8.980469 21.207031 9.40625 C 21.015625 9.640625 20.726562 9.773438 20.417969 9.773438 Z M 20.417969 9.761719 "/>
<path style=" stroke:none;fill-rule:nonzero;fill:rgb(0%,0%,0%);fill-opacity:1;" d="M 28.90625 9.761719 L 28.6875 9.761719 C 28.148438 9.648438 27.804688 9.125 27.917969 8.589844 C 27.917969 8.589844 27.917969 8.585938 27.917969 8.585938 L 28.5 5.988281 C 28.625 5.445312 29.167969 5.105469 29.714844 5.226562 C 30.265625 5.347656 30.609375 5.886719 30.488281 6.425781 L 29.890625 9.011719 C 29.777344 9.457031 29.371094 9.765625 28.90625 9.761719 Z M 28.90625 9.761719 "/>
<path style=" stroke:none;fill-rule:nonzero;fill:rgb(0%,0%,0%);fill-opacity:1;" d="M 48.785156 24.292969 L 1.136719 24.292969 C 0.574219 24.292969 0.121094 23.84375 0.121094 23.292969 C 0.121094 22.742188 0.574219 22.292969 1.136719 22.292969 L 48.785156 22.292969 C 49.34375 22.292969 49.796875 22.742188 49.796875 23.292969 C 49.796875 23.84375 49.34375 24.292969 48.785156 24.292969 Z M 48.785156 24.292969 "/>
<path style=" stroke:none;fill-rule:nonzero;fill:rgb(0%,0%,0%);fill-opacity:1;" d="M 10.472656 48.519531 L 3.511719 48.519531 C 2.953125 48.519531 2.5 48.074219 2.5 47.519531 C 2.5 46.96875 2.953125 46.519531 3.511719 46.519531 L 10.472656 46.519531 C 11.03125 46.519531 11.488281 46.96875 11.488281 47.519531 C 11.488281 48.074219 11.03125 48.519531 10.472656 48.519531 Z M 10.472656 48.519531 "/>
<path style=" stroke:none;fill-rule:nonzero;fill:rgb(0%,0%,0%);fill-opacity:1;" d="M 46.40625 48.519531 L 39.445312 48.519531 C 38.886719 48.519531 38.433594 48.074219 38.433594 47.519531 C 38.433594 46.96875 38.886719 46.519531 39.445312 46.519531 L 46.40625 46.519531 C 46.964844 46.519531 47.417969 46.96875 47.417969 47.519531 C 47.417969 48.074219 46.964844 48.519531 46.40625 48.519531 Z M 46.40625 48.519531 "/>
<path style=" stroke:none;fill-rule:nonzero;fill:rgb(0%,0%,0%);fill-opacity:1;" d="M 19.945312 34.894531 C 19.800781 34.894531 19.65625 34.847656 19.539062 34.761719 C 19.230469 34.554688 19.148438 34.144531 19.351562 33.839844 L 22.40625 29.601562 C 22.949219 28.820312 23.851562 28.363281 24.8125 28.375 C 25.773438 28.363281 26.675781 28.824219 27.230469 29.601562 L 29.3125 32.480469 C 29.539062 32.792969 29.464844 33.230469 29.148438 33.453125 C 28.832031 33.679688 28.390625 33.605469 28.164062 33.292969 L 26.082031 30.398438 C 25.535156 29.707031 24.527344 29.582031 23.824219 30.121094 C 23.714844 30.199219 23.621094 30.292969 23.539062 30.398438 L 20.488281 34.625 C 20.359375 34.792969 20.160156 34.894531 19.945312 34.894531 Z M 19.945312 34.894531 "/>
<path style=" stroke:none;fill-rule:nonzero;fill:rgb(0%,0%,0%);fill-opacity:1;" d="M 31.433594 43.214844 L 29.09375 43.214844 C 28.722656 43.109375 28.503906 42.722656 28.613281 42.355469 C 28.679688 42.125 28.859375 41.945312 29.09375 41.878906 L 31.433594 41.878906 C 32.003906 41.878906 32.527344 41.558594 32.785156 41.054688 C 33.054688 40.542969 33.015625 39.925781 32.675781 39.453125 L 30.214844 36 C 29.996094 35.695312 30.066406 35.269531 30.375 35.050781 C 30.382812 35.046875 30.386719 35.042969 30.390625 35.039062 C 30.699219 34.816406 31.128906 34.882812 31.355469 35.1875 C 31.359375 35.191406 31.363281 35.195312 31.363281 35.199219 L 33.785156 38.585938 C 34.738281 39.894531 34.4375 41.71875 33.113281 42.664062 C 32.625 43.007812 32.046875 43.199219 31.445312 43.214844 Z M 31.433594 43.214844 "/>
<path style=" stroke:none;fill-rule:nonzero;fill:rgb(0%,0%,0%);fill-opacity:1;" d="M 25.121094 43.214844 L 18.363281 43.214844 C 17.25 43.226562 16.226562 42.609375 15.730469 41.625 C 15.214844 40.652344 15.296875 39.476562 15.945312 38.585938 L 17.296875 36.652344 C 17.507812 36.328125 17.941406 36.234375 18.269531 36.441406 C 18.597656 36.644531 18.695312 37.074219 18.488281 37.398438 L 18.488281 37.464844 L 17.136719 39.398438 C 16.636719 40.085938 16.796875 41.039062 17.488281 41.535156 C 17.753906 41.726562 18.074219 41.828125 18.40625 41.828125 L 25.164062 41.828125 C 25.535156 41.933594 25.75 42.316406 25.644531 42.683594 C 25.578125 42.914062 25.394531 43.09375 25.164062 43.160156 Z M 25.121094 43.214844 "/>
<path style=" stroke:none;fill-rule:nonzero;fill:rgb(0%,0%,0%);fill-opacity:1;" d="M 19.945312 34.894531 C 19.628906 34.898438 19.351562 34.6875 19.269531 34.386719 L 18.835938 32.828125 C 18.75 32.46875 18.964844 32.105469 19.324219 32 C 19.695312 31.90625 20.078125 32.117188 20.1875 32.480469 L 20.445312 33.425781 L 21.796875 33.1875 C 22.171875 33.039062 22.59375 33.21875 22.742188 33.585938 C 22.890625 33.953125 22.710938 34.371094 22.335938 34.519531 C 22.238281 34.539062 22.140625 34.539062 22.039062 34.519531 L 20.054688 34.921875 Z M 19.945312 34.894531 "/>
<path style=" stroke:none;fill-rule:nonzero;fill:rgb(0%,0%,0%);fill-opacity:1;" d="M 30.230469 38.253906 L 30.039062 38.253906 C 29.671875 38.160156 29.453125 37.789062 29.546875 37.425781 C 29.550781 37.414062 29.550781 37.40625 29.554688 37.398438 L 30.082031 35.480469 C 30.1875 35.128906 30.542969 34.917969 30.90625 34.988281 L 32.5 35.292969 C 32.855469 35.429688 33.027344 35.824219 32.890625 36.175781 C 32.886719 36.183594 32.882812 36.191406 32.878906 36.199219 C 32.765625 36.457031 32.511719 36.625 32.230469 36.625 L 31.257812 36.425781 L 30.878906 37.761719 C 30.796875 38.046875 30.53125 38.246094 30.230469 38.253906 Z M 30.230469 38.253906 "/>
<path style=" stroke:none;fill-rule:nonzero;fill:rgb(0%,0%,0%);fill-opacity:1;" d="M 23.582031 44.71875 C 23.394531 44.722656 23.214844 44.652344 23.082031 44.519531 C 22.808594 44.246094 22.808594 43.808594 23.082031 43.535156 L 24.121094 42.507812 L 22.972656 41.332031 C 22.699219 41.0625 22.703125 40.621094 22.976562 40.351562 C 23.242188 40.09375 23.667969 40.085938 23.945312 40.332031 L 25.675781 42.011719 C 25.9375 42.28125 25.9375 42.707031 25.675781 42.972656 L 24.148438 44.492188 C 24 44.644531 23.792969 44.726562 23.582031 44.71875 Z M 23.582031 44.71875 "/>
</g>
</svg>
