<?xml version="1.0" encoding="UTF-8"?>
<svg xmlns="http://www.w3.org/2000/svg" xmlns:xlink="http://www.w3.org/1999/xlink" width="50px" height="50px" viewBox="0 0 50 47" version="1.1">
<g id="surface1">
<path style="fill:none;stroke-width:2;stroke-linecap:butt;stroke-linejoin:miter;stroke:rgb(0%,0%,0%);stroke-opacity:1;stroke-miterlimit:10;" d="M 43.99875 38.999834 L 45 38.999834 C 46.0725 39.034242 46.965 38.193152 46.99875 37.122673 C 46.99875 37.122673 46.99875 37.11885 46.99875 37.11885 L 46.99875 21.998338 L 43.99875 12.000831 C 43.4325 10.25748 41.83125 9.057015 40.00125 8.999668 L 31.00125 8.999668 L 31.00125 1.001662 L 13.00125 1.001662 L 1.00125 12.99867 L 1.00125 37.000332 L 4.00125 40.001496 L 6 40.001496 M 46.99875 21.998338 L 31.00125 21.998338 L 31.00125 8.999668 " transform="matrix(1.041667,0,0,1.021739,0,0)"/>
<path style="fill:none;stroke-width:2;stroke-linecap:butt;stroke-linejoin:miter;stroke:rgb(0%,0%,0%);stroke-opacity:1;stroke-miterlimit:10;" d="M 30 40.001496 L 19.99875 40.001496 " transform="matrix(1.041667,0,0,1.021739,0,0)"/>
<path style="fill:none;stroke-width:2;stroke-linecap:butt;stroke-linejoin:miter;stroke:rgb(0%,0%,0%);stroke-opacity:1;stroke-miterlimit:10;" d="M 13.00125 44.998338 C 9.135 44.998338 6 41.867187 6 37.998172 C 6 34.132979 9.135 31.001828 13.00125 31.001828 C 16.8675 31.001828 19.99875 34.132979 19.99875 37.998172 C 19.99875 41.867187 16.8675 44.998338 13.00125 44.998338 Z M 13.00125 44.998338 " transform="matrix(1.041667,0,0,1.021739,0,0)"/>
<path style="fill:none;stroke-width:2;stroke-linecap:butt;stroke-linejoin:miter;stroke:rgb(0%,0%,0%);stroke-opacity:1;stroke-miterlimit:10;" d="M 15 37.998172 C 15 39.103059 14.10375 40.001496 13.00125 40.001496 C 11.895 40.001496 10.99875 39.103059 10.99875 37.998172 C 10.99875 36.897108 11.895 35.99867 13.00125 35.99867 C 14.10375 35.99867 15 36.897108 15 37.998172 Z M 15 37.998172 " transform="matrix(1.041667,0,0,1.021739,0,0)"/>
<path style="fill:none;stroke-width:2;stroke-linecap:butt;stroke-linejoin:miter;stroke:rgb(0%,0%,0%);stroke-opacity:1;stroke-miterlimit:10;" d="M 37.00125 44.998338 C 33.135 44.998338 30 41.867187 30 37.998172 C 30 34.132979 33.135 31.001828 37.00125 31.001828 C 40.8675 31.001828 43.99875 34.132979 43.99875 37.998172 C 43.99875 41.867187 40.8675 44.998338 37.00125 44.998338 Z M 37.00125 44.998338 " transform="matrix(1.041667,0,0,1.021739,0,0)"/>
<path style="fill:none;stroke-width:2;stroke-linecap:butt;stroke-linejoin:miter;stroke:rgb(0%,0%,0%);stroke-opacity:1;stroke-miterlimit:10;" d="M 39 37.998172 C 39 39.103059 38.10375 40.001496 37.00125 40.001496 C 35.895 40.001496 34.99875 39.103059 34.99875 37.998172 C 34.99875 36.897108 35.895 35.99867 37.00125 35.99867 C 38.10375 35.99867 39 36.897108 39 37.998172 Z M 39 37.998172 " transform="matrix(1.041667,0,0,1.021739,0,0)"/>
<path style="fill:none;stroke-width:2;stroke-linecap:butt;stroke-linejoin:miter;stroke:rgb(0%,0%,0%);stroke-opacity:1;stroke-miterlimit:10;" d="M 34.15875 8.999668 L 35.16 4.989195 L 38.16 4.989195 L 39.16125 8.999668 " transform="matrix(1.041667,0,0,1.021739,0,0)"/>
<path style=" stroke:none;fill-rule:nonzero;fill:rgb(0%,0%,0%);fill-opacity:1;" d="M 13.957031 14.570312 C 13.84375 14.566406 13.730469 14.53125 13.636719 14.46875 C 13.394531 14.292969 13.339844 13.960938 13.511719 13.722656 L 15.863281 10.484375 C 16.59375 9.476562 18.019531 9.238281 19.046875 9.957031 C 19.253906 10.101562 19.433594 10.277344 19.582031 10.484375 L 21.199219 12.699219 C 21.375 12.941406 21.316406 13.273438 21.074219 13.445312 C 20.828125 13.617188 20.488281 13.5625 20.3125 13.324219 L 18.75 11.105469 C 18.332031 10.574219 17.550781 10.480469 17.011719 10.890625 C 16.925781 10.953125 16.851562 11.023438 16.792969 11.105469 L 14.394531 14.304688 C 14.304688 14.460938 14.140625 14.558594 13.957031 14.570312 Z M 13.957031 14.570312 "/>
<path style=" stroke:none;fill-rule:nonzero;fill:rgb(0%,0%,0%);fill-opacity:1;" d="M 22.75 20.914062 L 21 20.914062 C 20.699219 20.871094 20.488281 20.597656 20.53125 20.300781 C 20.5625 20.0625 20.753906 19.871094 21 19.84375 L 22.75 19.84375 C 23.410156 19.84375 23.945312 19.324219 23.957031 18.675781 C 23.957031 18.429688 23.878906 18.183594 23.730469 17.984375 L 21.875 15.429688 C 21.710938 15.183594 21.769531 14.855469 22.011719 14.683594 C 22.238281 14.511719 22.566406 14.554688 22.738281 14.78125 C 22.742188 14.785156 22.746094 14.789062 22.75 14.792969 L 24.605469 17.371094 C 25.335938 18.382812 25.089844 19.785156 24.054688 20.503906 C 23.671875 20.769531 23.210938 20.914062 22.738281 20.914062 Z M 22.75 20.914062 "/>
<path style=" stroke:none;fill-rule:nonzero;fill:rgb(0%,0%,0%);fill-opacity:1;" d="M 17.9375 20.914062 L 12.730469 20.914062 C 11.46875 20.917969 10.445312 19.917969 10.445312 18.679688 C 10.445312 18.210938 10.59375 17.75 10.875 17.371094 L 11.917969 15.886719 C 12.09375 15.652344 12.429688 15.59375 12.675781 15.753906 C 12.917969 15.929688 12.972656 16.261719 12.800781 16.5 L 11.761719 17.984375 C 11.378906 18.507812 11.5 19.238281 12.03125 19.617188 C 12.234375 19.761719 12.476562 19.839844 12.730469 19.84375 L 17.9375 19.84375 C 18.238281 19.882812 18.449219 20.160156 18.40625 20.453125 C 18.40625 20.453125 18.40625 20.453125 18.40625 20.457031 C 18.375 20.695312 18.183594 20.882812 17.9375 20.914062 Z M 17.9375 20.914062 "/>
<path style=" stroke:none;fill-rule:nonzero;fill:rgb(100%,100%,100%);fill-opacity:1;" d="M 13.957031 14.570312 C 13.710938 14.570312 13.492188 14.40625 13.425781 14.171875 L 13.144531 12.945312 C 13.042969 12.664062 13.191406 12.351562 13.480469 12.25 C 13.765625 12.148438 14.082031 12.296875 14.1875 12.578125 C 14.1875 12.578125 14.1875 12.640625 14.1875 12.667969 L 14.386719 13.394531 L 15.425781 13.199219 C 15.722656 13.15625 16 13.34375 16.0625 13.628906 C 16.140625 13.917969 15.96875 14.214844 15.671875 14.292969 C 15.65625 14.296875 15.640625 14.300781 15.625 14.304688 L 14.050781 14.621094 Z M 13.957031 14.570312 "/>
<path style=" stroke:none;fill-rule:nonzero;fill:rgb(100%,100%,100%);fill-opacity:1;" d="M 21.875 17.105469 L 21.730469 17.105469 C 21.445312 17.03125 21.273438 16.746094 21.347656 16.46875 C 21.351562 16.460938 21.351562 16.457031 21.355469 16.449219 L 21.78125 14.988281 C 21.859375 14.722656 22.128906 14.558594 22.40625 14.609375 L 23.644531 14.855469 C 23.917969 14.960938 24.054688 15.265625 23.945312 15.53125 C 23.941406 15.539062 23.941406 15.542969 23.9375 15.550781 C 23.851562 15.746094 23.65625 15.875 23.4375 15.878906 L 22.6875 15.734375 L 22.394531 16.757812 C 22.320312 16.972656 22.109375 17.113281 21.875 17.105469 Z M 21.875 17.105469 "/>
<path style=" stroke:none;fill-rule:nonzero;fill:rgb(100%,100%,100%);fill-opacity:1;" d="M 16.75 22.070312 C 16.605469 22.070312 16.46875 22.011719 16.375 21.90625 C 16.171875 21.707031 16.167969 21.382812 16.371094 21.183594 C 16.371094 21.183594 16.375 21.179688 16.375 21.179688 L 17.175781 20.394531 L 16.269531 19.527344 C 16.070312 19.320312 16.070312 18.996094 16.269531 18.789062 C 16.480469 18.585938 16.820312 18.585938 17.03125 18.789062 L 18.355469 20.035156 C 18.5625 20.246094 18.5625 20.582031 18.355469 20.792969 L 17.167969 21.945312 C 17.050781 22.046875 16.902344 22.089844 16.75 22.070312 Z M 16.75 22.070312 "/>
</g>
</svg>
