<svg xmlns="http://www.w3.org/2000/svg" width="21.4" height="22.94" viewBox="0 0 21.4 22.94">
  <defs>
    <style>
      .a {
        fill: #ccc;
      }
    </style>
  </defs>
  <title>user_icon-01</title>
  <path class="a" d="M16.66,5.85A5.59,5.59,0,0,1,11,11.41,5.6,5.6,0,0,1,5.35,5.85,5.6,5.6,0,0,1,11,.29,5.53,5.53,0,0,1,16.66,5.85Z" transform="translate(-0.23 -0.28)"/>
  <path class="a" d="M10.92,12.88A11.75,11.75,0,0,0,.67,18.44a3.16,3.16,0,0,0,2.48,4.78H18.69a3.13,3.13,0,0,0,2.48-4.78A11.76,11.76,0,0,0,10.92,12.88Z" transform="translate(-0.23 -0.28)"/>
</svg>
