<svg enable-background="new 0 0 512 512" viewBox="0 0 512 512" xmlns="http://www.w3.org/2000/svg"><path d="m478.87 150.3v-126.23c0-13.27-10.8-24.07-24.07-24.07s-24.07 10.8-24.07 24.07v126.23c-9.61 3.16-16.57 12.21-16.57 22.86v114.01c0 2.44.58 4.88 1.67 7.06l6.53 13.07c.05.11.08.23.08.35v22.89c0 5.99 3.36 11.21 8.28 13.88v103.74c0 8.65-7.04 15.69-15.69 15.69s-15.69-7.04-15.69-15.69v-268.37c0-35.19-28.63-63.83-63.83-63.83s-63.83 28.63-63.83 63.83v19.34c0 4.14 3.36 7.5 7.5 7.5s7.5-3.36 7.5-7.5v-19.34c0-26.92 21.9-48.83 48.83-48.83 26.92 0 48.83 21.9 48.83 48.83v268.38c0 16.92 13.77 30.69 30.69 30.69s30.69-13.77 30.69-30.69v-35.57h18.13v35.57c0 26.92-21.9 48.83-48.83 48.83-26.92 0-48.83-21.9-48.83-48.83v-268.38c0-16.92-13.77-30.69-30.69-30.69s-30.69 13.77-30.69 30.69v268.38c0 26.92-21.9 48.83-48.83 48.83-26.92 0-48.83-21.9-48.83-48.83v-268.38c0-16.92-13.77-30.69-30.69-30.69s-30.69 13.77-30.69 30.69v268.38c0 26.92-21.9 48.83-48.83 48.83-26.92 0-48.83-21.9-48.83-48.83v-35.57h18.13v35.57c0 16.92 13.77 30.69 30.69 30.69s30.69-13.77 30.69-30.69v-268.38c0-26.92 21.9-48.83 48.83-48.83 26.92 0 48.83 21.9 48.83 48.83v268.38c0 16.92 13.77 30.69 30.69 30.69s30.69-13.77 30.69-30.69v-219.17c0-4.14-3.36-7.5-7.5-7.5s-7.5 3.36-7.5 7.5v219.17c0 8.65-7.04 15.69-15.69 15.69s-15.69-7.04-15.69-15.69v-268.38c0-35.19-28.63-63.83-63.83-63.83-35.19 0-63.83 28.63-63.83 63.83v268.38c0 8.65-7.04 15.69-15.69 15.69s-15.69-7.04-15.69-15.69v-103.74c4.93-2.67 8.28-7.89 8.28-13.88v-22.89c0-.12.03-.24.08-.35l6.54-13.07c1.09-2.18 1.67-4.62 1.67-7.06v-114.01c0-10.65-6.96-19.7-16.57-22.86v-126.24c.03-13.27-10.77-24.07-24.04-24.07s-24.07 10.8-24.07 24.07v126.23c-9.61 3.16-16.57 12.21-16.57 22.86v25.97c0 4.14 3.36 7.5 7.5 7.5s7.5-3.36 7.5-7.5v-25.97c0-5 4.07-9.07 9.07-9.07h33.13c5 0 9.07 4.07 9.07 9.07v91.9h-51.26v-35.82c0-4.14-3.36-7.5-7.5-7.5s-7.5 3.36-7.5 7.5v57.93c0 2.44.58 4.88 1.67 7.06l6.53 13.07c.05.11.08.23.08.35v22.89c0 5.99 3.35 11.21 8.28 13.88v103.74c0 35.19 28.63 63.83 63.83 63.83 35.19 0 63.83-28.63 63.83-63.83v-268.37c0-8.65 7.04-15.69 15.69-15.69s15.69 7.04 15.69 15.69v268.38c0 35.19 28.63 63.83 63.83 63.83 35.19 0 63.83-28.63 63.83-63.83v-268.38c0-8.65 7.04-15.69 15.69-15.69s15.69 7.04 15.69 15.69v268.38c0 35.19 28.63 63.83 63.83 63.83s63.83-28.63 63.83-63.83v-103.74c4.93-2.67 8.28-7.89 8.28-13.88v-22.89c0-.12.03-.24.08-.35l6.53-13.07c1.09-2.18 1.67-4.62 1.67-7.06v-114.01c0-10.66-6.96-19.71-16.56-22.87zm-430.74-102.17h18.13v18.13h-18.13zm9.07-33.13c5 0 9.07 4.07 9.07 9.07v9.07h-18.14v-9.07c0-5 4.07-9.07 9.07-9.07zm-9.07 134.1v-67.83h18.13v67.83zm18.14 215.37h-18.14v-18.13h18.13v18.13zm-18.14 33.13v-18.13h18.13v18.13zm-16.56-110.42v-7.11h51.27v7.11c0 .12-.03.24-.08.35l-6.54 13.07c-1.09 2.18-1.67 4.62-1.67 7.06v22.89c0 .43-.35.78-.78.78h-33.14c-.43 0-.78-.35-.78-.78v-22.89c0-2.44-.58-4.88-1.67-7.06l-6.53-13.07c-.06-.11-.08-.23-.08-.35zm432.3-220.91h-18.13v-18.14h18.13zm-18.14 15h18.13v67.83h-18.13zm9.07-66.27c5 0 9.07 4.07 9.07 9.07v9.07h-18.13v-9.07c-.01-5 4.06-9.07 9.06-9.07zm-16.57 149.1h33.13c5 0 9.07 4.07 9.07 9.07v91.9h-51.27v-91.9c.01-5 4.07-9.07 9.07-9.07zm25.64 200.37h-18.13v-18.13h18.13zm-18.14 33.13v-18.13h18.13v18.13zm34.62-110.07-6.53 13.07c-1.09 2.18-1.67 4.62-1.67 7.06v22.89c0 .43-.35.78-.78.78h-33.13c-.43 0-.78-.35-.78-.78v-22.89c0-2.44-.58-4.88-1.67-7.06l-6.53-13.07c-.05-.11-.08-.23-.08-.35v-7.11h51.27v7.11c-.02.12-.04.24-.1.35z" fill="#212121"/></svg>