<svg enable-background="new 0 0 512 425" viewBox="0 0 512 425" xmlns="http://www.w3.org/2000/svg"><g fill="#212121"><path d="m512 87.4c0-.14-.01-.28-.02-.42-.01-.1-.01-.2-.02-.29-.02-.17-.05-.33-.08-.5-.01-.07-.02-.13-.04-.2-.04-.2-.09-.39-.15-.59-.01-.03-.02-.07-.03-.1-.06-.21-.14-.41-.22-.62-.01-.02-.02-.04-.02-.06-.08-.2-.17-.39-.27-.58-.02-.03-.03-.06-.05-.09-.09-.17-.19-.33-.29-.49-.03-.05-.07-.11-.1-.16-.1-.14-.2-.28-.3-.41-.05-.07-.1-.13-.15-.19-.04-.04-.07-.09-.1-.13l-70.01-80c-.05-.06-.11-.11-.16-.16-.09-.1-.19-.2-.28-.29-.09-.08-.18-.17-.27-.24-.09-.08-.18-.16-.28-.23-.1-.08-.21-.16-.31-.23-.09-.06-.18-.13-.28-.19-.11-.07-.22-.14-.33-.2-.1-.06-.2-.11-.3-.17-.11-.06-.22-.11-.34-.16-.11-.05-.22-.1-.33-.14s-.22-.08-.33-.12c-.12-.04-.24-.08-.36-.12-.11-.03-.22-.06-.34-.09s-.25-.06-.37-.08-.24-.04-.36-.06-.23-.03-.36-.04c-.14-.01-.28-.02-.41-.02-.07 0-.15-.01-.22-.01h-357.01c-.07 0-.15.01-.22.01-.14 0-.28.01-.41.02-.12.01-.24.03-.36.04-.12.02-.24.03-.36.06-.13.02-.25.05-.37.08-.11.03-.22.05-.33.09-.12.03-.25.07-.37.12-.11.04-.22.08-.33.12s-.23.09-.34.14-.22.1-.33.16c-.1.05-.21.11-.31.17-.11.06-.22.13-.33.2-.1.06-.19.13-.28.19-.1.08-.21.15-.31.23s-.19.15-.28.23-.18.16-.27.24c-.1.1-.19.19-.28.29-.05.06-.11.1-.16.16l-70.01 80c-.03.04-.06.08-.1.12-.06.07-.11.14-.16.21-.1.13-.2.26-.29.4-.04.06-.07.11-.11.17-.1.16-.2.32-.29.48-.02.04-.04.07-.06.11-.1.19-.19.37-.27.56-.01.02-.02.05-.03.07-.08.2-.16.4-.22.61-.01.04-.02.07-.03.11-.06.19-.11.38-.15.58-.01.07-.02.13-.03.2-.03.17-.06.33-.08.5-.01.1-.02.2-.02.29-.01.14-.02.28-.02.42v.1 117c0 4.13 3.36 7.5 7.5 7.5s7.5-3.37 7.5-7.5v-109.5h173.5v72.5c0 .03 0 .06.01.1 0 .15.01.31.02.46.01.1.01.21.02.31.01.13.04.25.06.38.02.12.04.25.07.37.02.1.05.19.07.29.04.14.07.29.12.42.03.08.06.16.09.24.05.15.11.29.17.44.04.08.08.16.12.25.06.13.12.26.2.39.06.1.12.2.18.3s.12.2.19.3c.08.12.17.23.26.35.06.07.11.15.17.22.1.12.21.23.32.35.06.06.11.12.17.18.1.1.22.2.33.3.07.06.15.13.22.19.1.08.2.15.31.23.1.07.2.15.3.21.09.06.18.11.27.16.13.08.26.15.39.22.03.02.06.03.09.05l20 10c.07.04.14.06.21.09.12.05.23.1.35.15.19.08.39.15.59.21.1.03.21.07.31.09.23.06.46.1.69.14.08.01.16.03.25.04.32.04.63.07.95.07h.01s0 0 .01 0c.32 0 .63-.02.95-.07.08-.01.16-.03.25-.04.23-.04.46-.08.69-.14.1-.03.21-.06.31-.09.2-.06.4-.13.59-.21.12-.05.23-.1.34-.15.07-.03.14-.06.21-.09l16.65-8.32 16.65 8.32c.07.04.14.06.21.09.12.05.23.1.35.15.19.08.39.15.59.21.1.03.21.07.31.09.23.06.46.1.69.14.08.01.16.03.25.04.32.04.63.07.95.07h.01.01c.32 0 .63-.02.95-.07.08-.01.17-.03.25-.04.23-.04.46-.08.69-.14.11-.03.21-.06.31-.09.2-.06.39-.13.59-.21.12-.05.23-.1.34-.15.07-.03.14-.06.21-.09l16.65-8.32 16.65 8.32c.07.04.15.06.23.1.11.05.22.1.33.14.2.08.4.15.61.21l.3.09c.23.06.47.11.7.15.08.01.16.03.24.04.32.04.64.07.95.07h.01.01c.32 0 .64-.02.95-.07.08-.01.16-.03.23-.04.24-.04.47-.09.71-.15l.3-.09c.2-.06.41-.13.61-.22.11-.04.22-.09.32-.14.08-.04.15-.06.23-.1l20-10c.03-.01.05-.03.08-.05.14-.07.28-.15.41-.23.08-.05.17-.1.25-.15.11-.07.22-.15.33-.23.1-.07.19-.14.28-.21s.17-.14.25-.22c.1-.09.2-.18.3-.27.07-.07.14-.14.2-.22.1-.1.2-.21.29-.31.07-.09.14-.18.2-.26.08-.1.15-.2.23-.3.08-.12.15-.23.22-.35.05-.08.1-.16.15-.25.08-.15.15-.3.23-.45.03-.06.06-.12.09-.19.07-.16.13-.33.19-.49.02-.06.05-.12.07-.18.05-.16.09-.32.13-.48.02-.08.04-.16.06-.24.03-.14.05-.28.08-.42.02-.11.04-.22.05-.33.01-.12.02-.23.03-.35.01-.14.02-.27.02-.41 0-.04.01-.07.01-.11v-72.5h173.45v315h-482v-175.5c0-4.14-3.36-7.5-7.5-7.5s-7.5 3.36-7.5 7.5v183c0 1.98.8 3.91 2.2 5.3 1.39 1.4 3.33 2.2 5.3 2.2h497c1.97 0 3.9-.8 5.3-2.2 1.4-1.39 2.2-3.32 2.2-5.3v-330c0-.03-.01-.07 0-.1zm-231.2-72.4 24.38 65h-98.36l24.38-65zm-90 65h-166.77l56.88-65h134.27zm117.7 82.87-12.5 6.25-16.65-8.32c-.05-.02-.1-.04-.15-.07-.12-.05-.24-.11-.36-.16-.11-.05-.23-.09-.35-.13-.11-.04-.21-.07-.32-.1-.13-.04-.26-.08-.39-.11-.1-.02-.2-.04-.3-.07-.14-.03-.27-.05-.41-.07-.1-.01-.21-.02-.31-.04-.13-.01-.27-.03-.4-.03-.12-.01-.23-.01-.35-.01s-.24 0-.36.01c-.13.01-.26.02-.39.03-.11.01-.21.02-.32.04-.14.02-.27.05-.41.07-.1.02-.21.04-.31.07-.13.03-.26.07-.38.11-.11.03-.22.07-.33.11s-.23.09-.34.13c-.12.05-.25.1-.37.16-.05.02-.1.04-.15.06l-16.65 8.32-16.65-8.32c-.05-.02-.1-.04-.15-.07-.12-.06-.24-.11-.36-.16-.11-.05-.23-.09-.34-.13s-.22-.07-.33-.1c-.13-.04-.26-.08-.39-.11-.1-.02-.2-.04-.31-.07-.14-.03-.27-.05-.41-.07-.1-.01-.21-.02-.32-.04-.13-.01-.26-.03-.4-.03-.12-.01-.24-.01-.35-.01-.12 0-.24 0-.36.01-.13.01-.26.02-.39.03-.11.01-.22.02-.32.04-.13.02-.27.05-.4.07-.11.02-.21.04-.32.07-.13.03-.25.07-.38.1-.11.04-.23.07-.34.11s-.22.08-.33.13c-.13.05-.25.1-.37.16-.05.02-.1.04-.14.06l-16.64 8.32-12.5-6.25v-67.86h105zm12.7-82.87-24.38-65h134.27l56.88 65z"/><path d="m117.5 340h-70c-4.14 0-7.5 3.36-7.5 7.5s3.36 7.5 7.5 7.5h70c4.14 0 7.5-3.36 7.5-7.5s-3.36-7.5-7.5-7.5z"/><path d="m87.5 370h-40c-4.14 0-7.5 3.36-7.5 7.5s3.36 7.5 7.5 7.5h40c4.14 0 7.5-3.36 7.5-7.5s-3.36-7.5-7.5-7.5z"/><path d="m464.5 340h-30c-4.14 0-7.5 3.36-7.5 7.5v30c0 4.14 3.36 7.5 7.5 7.5h30c4.14 0 7.5-3.36 7.5-7.5v-30c0-4.14-3.36-7.5-7.5-7.5zm-7.5 30h-15v-15h15z"/><path d="m404.5 340h-30c-4.14 0-7.5 3.36-7.5 7.5v30c0 4.14 3.36 7.5 7.5 7.5h30c4.14 0 7.5-3.36 7.5-7.5v-30c0-4.14-3.36-7.5-7.5-7.5zm-7.5 30h-15v-15h15z"/></g></svg>