<svg enable-background="new 0 0 480 480" viewBox="0 0 480 480" xmlns="http://www.w3.org/2000/svg"><g fill="#212121"><path d="m472 0h-208c-4.42 0-8 3.58-8 8v448c0 4.42 3.58 8 8 8h8v16h16v-16h160v16h16v-16h8c4.42 0 8-3.58 8-8v-448c0-4.42-3.58-8-8-8zm-8 448h-192v-280h192zm0-296h-192v-136h192z"/><path d="m296 56h16v80h-16z"/><path d="m296 184h16v112h-16z"/><path d="m8 464h8v16h16v-16h176v16h16v-16h8c4.42 0 8-3.58 8-8v-280c0-4.42-3.58-8-8-8h-224c-4.42 0-8 3.58-8 8v280c0 4.42 3.58 8 8 8zm8-280h208v48h-208zm0 64h208v200h-208z"/><path d="m120 256c-48.6 0-88 39.4-88 88s39.4 88 88 88 88-39.4 88-88c-.06-48.58-39.42-87.94-88-88zm0 160c-31.62.05-59.58-20.54-68.91-50.75s2.14-62.98 28.28-80.77 60.83-16.44 85.52 3.32l-11.37 11.4c-23.1-17.52-55.75-14.56-75.32 6.84-19.57 21.39-19.62 54.18-.11 75.63 19.51 21.46 52.14 24.52 75.3 7.06l11.5 11.5c-12.73 10.22-28.57 15.79-44.89 15.77zm18.34-42.34 3.62 3.62c-16.7 11.1-39.04 8.12-52.25-6.98-13.21-15.09-13.19-37.63.03-52.71s35.57-18.04 52.25-6.91l-3.66 3.66c-1.5 1.5-2.34 3.54-2.34 5.66v48c.01 2.12.85 4.16 2.35 5.66zm37.86 15.2-24.2-24.17v-41.38l24.2-24.2c21.07 26.21 21.07 63.56 0 89.77z"/><path d="m32 200h16v16h-16z"/><path d="m64 200h16v16h-16z"/><path d="m96 200h16v16h-16z"/><path d="m160 200h48v16h-48z"/><path d="m8 152h224c4.42 0 8-3.58 8-8v-136c0-4.42-3.58-8-8-8h-224c-4.42 0-8 3.58-8 8v136c0 4.42 3.58 8 8 8zm168-136h48v120h-48zm-160 0h144v120h-144z"/><path d="m192 32h16v16h-16z"/><path d="m192 64h16v16h-16z"/><path d="m136 32h-96c-4.42 0-8 3.58-8 8v72c0 4.42 3.58 8 8 8h96c4.42 0 8-3.58 8-8v-72c0-4.42-3.58-8-8-8zm-8 72h-80v-56h80z"/><path d="m200 100c-6.63 0-12 5.37-12 12s5.37 12 12 12 12-5.37 12-12-5.37-12-12-12zm0 16c-2.21 0-4-1.79-4-4s1.79-4 4-4 4 1.79 4 4-1.79 4-4 4z"/></g></svg>