<svg enable-background="new 0 0 480 480" viewBox="0 0 480 480" xmlns="http://www.w3.org/2000/svg"><g fill="#212121"><path d="m383.98 248.04c-4.42 0-8 3.58-8 8v87.99c0 4.42 3.58 8 8 8s8-3.58 8-8v-87.99c0-4.42-3.59-8-8-8z"/><path d="m383.98 368.02c-4.42 0-8 3.58-8 8v16c0 4.42 3.58 8 8 8s8-3.58 8-8v-16c0-4.42-3.59-8-8-8z"/><path d="m380.94 416.65c-.99.37-1.89.94-2.64 1.68-3.09 3.15-3.09 8.2 0 11.36.77.72 1.66 1.29 2.64 1.68.96.41 1.99.63 3.04.64 3.25.02 6.19-1.93 7.43-4.93 1.25-3 .55-6.46-1.75-8.74s-5.75-2.94-8.72-1.69z"/><path d="m327.99 208.04c62.19 0 63.99-28.73 63.99-31.99.02-4.46-3.55-8.1-8-8.18-2.1-.04-4.14.76-5.64 2.23s-2.36 3.48-2.36 5.59c0 .16-2.24 16.36-47.99 16.36-40.72 0-48.17-17.94-48.4-18.52-1.39-4.2-5.93-6.47-10.12-5.07-4.2 1.4-6.47 5.93-5.07 10.13.4 1.19 10.43 29.45 63.59 29.45z"/><path d="m104.02 288.03c4.42 0 8-3.58 8-8v-127.98c0-4.42-3.58-8-8-8s-8 3.58-8 8v127.98c0 4.42 3.59 8 8 8z"/><path d="m152.01 384.02c4.42 0 8-3.58 8-8v-167.98c0-4.42-3.58-8-8-8s-8 3.58-8 8v167.97c.01 4.42 3.59 8.01 8 8.01z"/><path d="m200.01 288.03c4.42 0 8-3.58 8-8v-39.99c0-4.42-3.58-8-8-8s-8 3.58-8 8v39.99c0 4.42 3.58 8 8 8z"/><path d="m10.08 155.35 45.95 32.82v227.84c0 35.88 42.16 63.99 95.98 63.99 39.89 0 73.32-15.45 87.99-38.05 14.66 22.59 48.09 38.05 87.99 38.05 53.82 0 95.98-28.11 95.98-63.99v-59.87l45.95-32.8c6.3-4.52 10.04-11.79 10.05-19.55v-15.76c.54-10.07-4.66-19.58-13.43-24.55-7.49-3.79-16.49-3-23.2 2.05l-.17.11-19.2 14.4v-103.99c0-35.88-42.16-63.99-95.98-63.99-33.77 0-62.94 11.07-79.99 28.18v-76.17c0-35.88-42.16-63.99-95.98-63.99s-95.99 28.11-95.99 63.99v47.99l-19.35-14.51c-6.71-5.04-15.7-5.83-23.2-2.05-8.78 4.97-13.99 14.48-13.44 24.55v15.76c.01 7.76 3.75 15.02 10.04 19.54zm402.31 147.88c2.72 1.33 5.96 1.02 8.38-.8l31.91-23.93c1.84-1.51 4.39-1.82 6.53-.8 3.34 2.33 5.16 6.28 4.75 10.33v15.76c0 2.58-1.25 5-3.34 6.5l-49.3 35.2c-2.11 1.5-3.36 3.94-3.35 6.53v63.99c0 26.01-36.63 47.99-79.99 47.99-5.35 0-10.69-.34-16-1.02v-94.97c0-4.42-3.58-8-8-8s-8 3.58-8 8v91.79c-27.96-7.58-47.99-24.61-47.99-43.8v-204.14c13.4 12.49 30.02 21.01 47.99 24.59v99.57c0 4.42 3.58 8 8 8s8-3.58 8-8v-96.91c5.31.59 10.65.9 16 .92 33.77 0 62.93-11.07 79.99-28.18v84.17c-.01 3.06 1.7 5.85 4.42 7.21zm-84.4-175.17c43.35 0 79.99 21.98 79.99 47.99s-36.63 47.99-79.99 47.99-79.99-21.98-79.99-47.99 36.63-47.99 79.99-47.99zm-175.98-111.98c43.35 0 79.99 21.98 79.99 47.99s-36.63 47.99-79.99 47.99-79.98-21.98-79.98-47.99 36.63-47.99 79.98-47.99zm-135.97 103.98c-.4-4.05 1.41-8 4.75-10.33.79-.4 1.66-.61 2.55-.62 1.41.04 2.77.51 3.9 1.35l31.99 24c2.43 1.82 5.67 2.11 8.38.76s4.42-4.12 4.42-7.16v-28.18c17.05 17.11 46.22 28.18 79.99 28.18s62.93-11.07 79.99-28.18v316.13c0 13.08-9.27 25.14-24 33.89v-121.88c0-4.42-3.58-8-8-8s-8 3.58-8 8v127.98c.05.4.12.8.24 1.19-26.05 9.08-54.41 9.08-80.47 0 .11-.39.2-.79.24-1.19v-87.99c0-4.42-3.58-8-8-8s-8 3.58-8 8v81.88c-14.73-8.75-24-20.8-24-33.89v-231.95c0-2.59-1.25-5.01-3.35-6.51l-49.29-35.19c-2.11-1.5-3.35-3.93-3.35-6.52v-15.77z"/><path d="m308.72 166.51c5.81-3.86 12.55-6.09 19.52-6.46 6.58-1.04 13.28 1.05 18.09 5.66 3.14 3.03 8.13 2.99 11.21-.1s3.13-8.07.1-11.21c-7.94-7.72-18.89-11.51-29.9-10.34-10.21.49-20.08 3.81-28.51 9.6-3.56 2.62-4.32 7.63-1.7 11.19s7.63 4.32 11.19 1.7z"/><path d="m152.01 96.06c62.19 0 63.99-28.73 63.99-31.99.02-4.46-3.55-8.1-8-8.18-2.1-.04-4.14.76-5.64 2.23s-2.36 3.48-2.36 5.59c0 .16-2.24 16.36-47.99 16.36-40.72 0-48.17-17.94-48.4-18.52-1.39-4.2-5.93-6.47-10.12-5.07-4.2 1.4-6.47 5.93-5.07 10.13.41 1.19 10.44 29.45 63.59 29.45z"/><path d="m148.92 64.13c1.23 0 2.35 0 3.34-.06 10.22-.48 20.11-3.81 28.55-9.6 3.56-2.62 4.32-7.63 1.7-11.19s-7.63-4.32-11.19-1.7c-5.82 3.87-12.58 6.12-19.56 6.49-6.58 1.03-13.27-1.05-18.09-5.66-2.01-2.08-4.98-2.91-7.78-2.18s-4.98 2.92-5.71 5.71c-.73 2.8.1 5.77 2.18 7.78 7.01 7.03 16.64 10.8 26.56 10.41z"/></g></svg>