<svg enable-background="new 0 0 511 511" viewBox="0 0 511 511" xmlns="http://www.w3.org/2000/svg"><g fill="#212121"><path d="m225.13 236.5-.18 11.36c-.15 9.85 14.75 10.11 14.9.23l.18-11.36c.15-9.83-14.75-10.13-14.9-.23z"/><path d="m223.3 353.17-.18 11.36c-.16 9.85 14.74 10.11 14.9.23l.18-11.36c.16-9.88-14.74-10.06-14.9-.23z"/><path d="m269.39 271.43c4.86 0 6.37-3.93 13.35-10.01 7.07-6.85-3.29-17.57-10.37-10.7l-8.16 7.91c-4.83 4.68-1.46 12.8 5.18 12.8z"/><path d="m184.44 335.94-4.02 3.89c-7.07 6.85 3.29 17.57 10.37 10.7l4.02-3.89c7.07-6.85-3.29-17.56-10.37-10.7z"/><path d="m192.37 249.47c-6.86-7.07-17.57 3.29-10.7 10.37l3.89 4.02c6.77 6.98 17.65-3.2 10.7-10.37z"/><path d="m262.87 343.63 7.91 8.16c6.86 7.07 17.57-3.29 10.7-10.37l-7.91-8.16c-6.85-7.07-17.56 3.28-10.7 10.37z"/><path d="m295.59 309.08c9.77 0 9.91-14.75.11-14.9-15.27-.24-10.55-.18-11.48-.18-9.77 0-9.91 14.75-.12 14.9 15.28.24 10.56.18 11.49.18z"/><path d="m32.12 190.33c-34.47 5.18-40.91 51.98-9.74 66.56l111.16 52.01c6.42 22.36 34.16 30.68 51.77 15.07l51.46-4.35c21.76-1.84 22.22-33.66.57-36.17l-50.61-5.88c-5.73-5.73-13.62-9.29-22.33-9.35l-55.97-37.62 73.93-28.38c27.34-10.49 37.12-44.03 20.14-67.54v-36.16h13.64c10.62 0 19.26-8.64 19.26-19.26v-17.44h133.25c9.85 0 9.86-14.9 0-14.9h-326.1c-14.04 0-25.46-11.42-25.46-25.47 0-4.16 3.38-7.55 7.55-7.55h463.4c15.12 0 6.8 33.01-17.91 33.01h-71.67c-9.85 0-9.87 14.9 0 14.9h71.67c22.26 0 40.37-18.11 40.37-40.37-.01-12.36-10.08-22.44-22.46-22.44h-463.4c-12.38 0-22.45 10.08-22.45 22.45 0 22.26 18.11 40.37 40.37 40.37h50.92v17.44c0 10.62 8.64 19.26 19.26 19.26h13.63v34.48zm-14.2 40.63c-5.48-18 14.76-33.33 30.62-22.67 17.23 11.58 75.37 50.66 97.55 65.57-6.27 4.34-10.91 10.86-12.82 18.45-103.33-50.72-110.77-46.28-115.35-61.35zm129.46 71.57c-1.5-10.42 6.71-19.4 16.81-19.4 9.36 0 16.98 7.62 16.98 16.98 0 20.7-30.39 23.41-33.79 2.42zm88.24-4.28c3.9.45 3.81 6.19-.11 6.52l-40.48 3.42c1.27-4.85 1.36-9.88.37-14.61zm-41.65-126.76c-3.07 7.83-9.09 13.8-16.94 16.81l-83.71 32.14c-38.82-26.04-36.7-24.79-39.09-26.12 59.1-35.95 89.82-54.65 96.82-58.91 24.31-14.77 53.14 10.02 42.92 36.08zm-85.59-92.23v-17.44h112.12v17.44c0 2.4-1.95 4.35-4.35 4.35h-103.42c-2.4 0-4.35-1.95-4.35-4.35zm32.89 19.25h46.34v23.06c-24.31-13.19-46 2.23-46.34 2.35z"/><path d="m461.85 397.93v-44.65c0-78.49-100.03-111.88-147.37-49.59-5.96 7.84 5.89 16.87 11.86 9.02 38.73-50.97 120.61-23.66 120.61 40.57v44.16h-134.25c.52-41.36-1.29-47.52 2.06-60.73 2.42-9.54-12.02-13.23-14.44-3.66-4.04 15.93-1.94 24.74-2.52 64.4h-239.52c-31.04-.01-56.28 25.24-56.28 56.27 0 31.04 25.24 56.28 56.28 56.28h396.12c31.03 0 56.28-25.25 56.28-56.28 0-28.51-21.3-52.13-48.83-55.79zm-7.45 97.17h-396.12c-22.81 0-41.38-18.56-41.38-41.38 0-22.81 18.56-41.38 41.38-41.38h396.12c22.82 0 41.38 18.57 41.38 41.38 0 22.82-18.56 41.38-41.38 41.38z"/><path d="m454.4 425.29h-396.12c-15.67 0-28.42 12.75-28.42 28.42 0 15.68 12.75 28.43 28.42 28.43h396.13c15.67 0 28.42-12.75 28.42-28.43 0-15.66-12.75-28.41-28.43-28.42zm-284.86 28.43c0-7.46 6.07-13.52 13.52-13.52s13.52 6.07 13.52 13.52c0 7.46-6.07 13.52-13.52 13.52s-13.52-6.06-13.52-13.52zm-11.47 13.52h-74.8c4.53-8.33 4.62-18.55 0-27.04h74.79c-4.52 8.33-4.61 18.54.01 27.04zm49.99-27.04h96.56c-4.53 8.34-4.62 18.55 0 27.04h-96.56c4.53-8.33 4.62-18.54 0-27.04zm108.04 13.52c0-7.46 6.07-13.52 13.52-13.52 7.46 0 13.52 6.07 13.52 13.52 0 7.46-6.07 13.52-13.52 13.52-7.46 0-13.52-6.06-13.52-13.52zm38.51-13.52h74.79c-4.53 8.35-4.61 18.56 0 27.04h-74.79c4.53-8.33 4.62-18.54 0-27.04zm-309.86 13.52c0-7.46 6.07-13.52 13.52-13.52s13.52 6.07 13.52 13.52c0 7.46-6.07 13.52-13.52 13.52s-13.52-6.06-13.52-13.52zm409.65 13.52c-7.46 0-13.52-6.07-13.52-13.52s6.07-13.52 13.52-13.52 13.52 6.07 13.52 13.52c.01 7.46-6.06 13.52-13.52 13.52z"/></g></svg>