<svg enable-background="new 0 0 512 512" viewBox="0 0 512 512" xmlns="http://www.w3.org/2000/svg"><g fill="#212121"><path d="m493.38 160.51h-404.98c-4.14 0-7.5 3.36-7.5 7.5s3.36 7.5 7.5 7.5h67.32l-39.47 56.24h-97.63c-2 0-3.62-1.63-3.62-3.62v-48.99c0-2 1.63-3.62 3.62-3.62h39.78c4.14 0 7.5-3.36 7.5-7.5s-3.36-7.5-7.5-7.5h-39.78c-10.27-.01-18.62 8.34-18.62 18.61v48.99c0 10.27 8.35 18.62 18.62 18.62h474.75c10.27 0 18.62-8.35 18.62-18.62v-48.99c.01-10.27-8.34-18.62-18.61-18.62zm-212.08 71.24 39.47-56.24h32.14l-39.47 56.24zm-96.27 0 39.47-56.24h77.94l-39.47 56.24zm-10.99-56.24h32.13l-39.47 56.24h-32.13zm322.96 52.61c0 2-1.63 3.62-3.62 3.62h-161.62l39.47-56.24h122.14c2 0 3.62 1.62 3.62 3.62v49z"/><path d="m493.38 264.86h-474.76c-10.27 0-18.62 8.35-18.62 18.62v48.99c0 10.27 8.35 18.62 18.62 18.62h474.75c10.27 0 18.62-8.35 18.62-18.62v-48.99c.01-10.27-8.35-18.62-18.61-18.62zm-212.08 71.24 39.47-56.24h32.14l-39.47 56.24zm-96.27 0 39.47-56.24h77.94l-39.47 56.24zm-50.46 0 39.47-56.24h32.13l-39.47 56.24zm-119.57-3.62v-48.99c0-2 1.63-3.62 3.62-3.62h137.1l-39.47 56.24h-97.63c-1.99-.01-3.62-1.63-3.62-3.63zm482 0c0 2-1.63 3.62-3.62 3.62h-161.62l39.47-56.24h122.14c2 0 3.62 1.62 3.62 3.62z"/><path d="m493.38 56.54h-474.76c-10.27 0-18.62 8.36-18.62 18.63v48.99c0 10.27 8.35 18.62 18.62 18.62h474.75c10.27 0 18.62-8.35 18.62-18.62v-48.99c.01-10.27-8.35-18.63-18.61-18.63zm-212.08 71.24 39.47-56.24h32.14l-39.47 56.24zm-96.27 0 39.47-56.24h77.94l-39.47 56.24zm-50.46 0 39.47-56.24h32.13l-39.47 56.24zm-119.57-3.62v-48.99c0-2 1.63-3.62 3.62-3.62h137.1l-39.47 56.24h-97.63c-1.99-.01-3.62-1.63-3.62-3.63zm482 0c0 2-1.63 3.62-3.62 3.62h-161.62l39.47-56.24h122.14c2 0 3.62 1.63 3.62 3.62z"/><path d="m493.38 369.21h-474.76c-10.27 0-18.62 8.36-18.62 18.63v48.99c0 10.27 8.35 18.62 18.62 18.62h368.02c4.14 0 7.5-3.36 7.5-7.5s-3.36-7.5-7.5-7.5h-54.88l39.47-56.24h122.14c2 0 3.62 1.63 3.62 3.62v48.99c0 2-1.63 3.62-3.62 3.62h-76.73c-4.14 0-7.5 3.36-7.5 7.5s3.36 7.5 7.5 7.5h76.73c10.27 0 18.62-8.35 18.62-18.62v-48.99c.01-10.26-8.35-18.62-18.61-18.62zm-308.35 71.25 39.47-56.24h77.94l-39.47 56.24zm-50.46 0 39.47-56.24h32.13l-39.47 56.24zm-119.57-3.63v-48.99c0-2 1.63-3.62 3.62-3.62h137.1l-39.47 56.24h-97.63c-1.99 0-3.62-1.63-3.62-3.63zm298.43 3.63h-32.13l39.47-56.24h32.14z"/></g></svg>