<svg enable-background="new 0 0 491.97 447.32" viewBox="0 0 491.97 447.32" xmlns="http://www.w3.org/2000/svg"><path d="m106.79 185.95h-13.98c-7.14 0-12.95 5.81-12.95 12.95v49.53c0 7.14 5.81 12.95 12.95 12.95h13.98c7.14 0 12.95-5.81 12.95-12.95v-49.53c0-7.14-5.81-12.95-12.95-12.95zm-2.59 59.89h-8.8v-44.35h8.8zm374.82 40.4h-209.75v-273.29c0-7.14-5.81-12.95-12.95-12.95h-243.37c-7.14 0-12.95 5.81-12.95 12.95v421.43c0 7.14 5.81 12.95 12.95 12.95h275.82c7.14 0 12.95-5.81 12.95-12.95v-90.03h142.28v90.03c0 7.14 5.81 12.95 12.95 12.95h22.09c7.14 0 12.95-5.81 12.95-12.95v-135.19c-.02-7.14-5.83-12.95-12.97-12.95zm-463.48-234.36h111.33v343.56h-111.33zm238.2 379.91h-238.2v-20.81h238.2zm0-36.35h-111.34v-343.56h111.33v343.56zm0-359.1h-238.2v-20.8h238.2zm32.44 395.45h-16.91v-87.44h16.91zm190.25 0h-16.91v-87.44h16.91zm0-102.98h-207.16v-27.03h207.16zm-313.95-67.44h13.98c7.14 0 12.95-5.81 12.95-12.95v-49.53c0-7.14-5.81-12.95-12.95-12.95h-13.98c-7.14 0-12.95 5.81-12.95 12.95v49.53c0 7.15 5.81 12.95 12.95 12.95zm2.59-59.89h8.8v44.35h-8.8z" fill="#212121"/></svg>