<svg enable-background="new 0 0 362.74 432.32" viewBox="0 0 362.74 432.32" xmlns="http://www.w3.org/2000/svg"><g fill="#212121"><path d="m226.37 206.37c1.51-1.49 2.37-3.35 2.37-5.11s-.86-3.62-2.37-5.11-3.36-2.33-5.14-2.3h-.1-140.48c-1.7.14-3.45 1.07-4.81 2.59-1.41 1.56-2.16 3.46-2.07 5.21s1.04 3.56 2.6 4.97 3.46 2.16 5.21 2.07l.39-.01h139.27c1.77.05 3.63-.82 5.13-2.31z"/><path d="m221.23 263.43h-.1-90.78c-3.62.29-7.07 4.17-6.88 7.8.19 3.67 4.14 7.21 7.81 7.03l.39-.01h89.57c1.77.03 3.63-.81 5.14-2.3s2.37-3.35 2.37-5.11-.86-3.62-2.37-5.11c-1.51-1.48-3.39-2.31-5.15-2.3z"/><path d="m76.37 137.03c1.56 1.41 3.45 2.15 5.21 2.07l.39-.01h139.27c1.79.02 3.64-.81 5.14-2.3 1.51-1.49 2.37-3.35 2.37-5.11s-.86-3.62-2.37-5.11-3.38-2.29-5.14-2.3h-.11-140.48c-1.7.14-3.45 1.07-4.81 2.59-1.41 1.56-2.16 3.46-2.07 5.21s1.04 3.56 2.6 4.96z"/><path d="m355.33 0c-102.46 0-206.5 0-294.31.01-3.32.52-6.37 4.02-6.35 7.37v47.3h-48.34c-3.31.54-6.35 4.03-6.33 7.38v279.01c.05.34.11.71.19 1.12.03.15.05.3.08.45.6 1.59 1.96 2.87 4.07 4.78l.16.15c4.61 4.38 9.19 8.76 13.76 13.12 27.59 26.36 53.65 51.25 79.43 70.43 1.45 1.05 4.71 1.14 7.36 1.21h190.64c3.67 0 7.41-3.74 7.41-7.41v-42.29h52.23c3.67 0 7.41-3.74 7.41-7.41v-367.81c0-3.67-3.74-7.41-7.41-7.41zm-260.9 408.32-67.49-60.48h67.49zm193.84 9.19h-179.01v-77.08c0-3.67-3.74-7.41-7.41-7.41h-87.03v-263.51h273.45zm59.65-49.7h-44.82v-305.71c0-3.67-3.74-7.41-7.41-7.41h-226.2v-39.86h278.42v352.98z"/></g></svg>