<svg enable-background="new 0 0 512 512" viewBox="0 0 512 512" xmlns="http://www.w3.org/2000/svg"><g fill="#212121"><path d="m512 362.85c0-15.05-5.87-29.2-16.54-39.87l-80.74-80.74c-.09-.1-.18-.21-.27-.3s-.2-.18-.3-.27l-26.97-26.97c-3.91-3.9-10.24-3.9-14.14 0s-3.9 10.24 0 14.14l20.18 20.18-33.39 33.39c-1.73 1.73-2.76 4.03-2.91 6.47-1.06 17.59-8.58 34.25-21.14 46.86-12.64 12.59-29.3 20.11-46.89 21.17-2.44.15-4.74 1.18-6.47 2.91l-33.39 33.39-96.9-96.9 33.38-33.38c1.73-1.73 2.76-4.03 2.91-6.47 1.06-17.63 8.58-34.27 21.18-46.88 12.6-12.6 29.25-20.12 46.88-21.18 2.44-.15 4.74-1.18 6.47-2.91l33.38-33.38 12.66 12.66c1.95 1.95 4.51 2.93 7.07 2.93s5.12-.98 7.07-2.93c3.9-3.9 3.9-10.24 0-14.14l-19.72-19.72s0 0-.01-.01 0 0-.01-.01l-24.17-24.18c-37.11-37.11-72.33-34.95-98.05-33.38-15.26.93-24.15 1.21-29.34-3.98l-12.8-12.8.78-.78c1.88-1.88 2.93-4.42 2.93-7.07s-1.05-5.2-2.93-7.07l-31.08-31.03c-6.83-6.83-15.96-10.6-25.69-10.6s-18.86 3.77-25.69 10.6l-46.75 46.75c-6.83 6.84-10.6 15.96-10.6 25.69s3.77 18.86 10.6 25.69l31.04 31.07c1.88 1.88 4.42 2.93 7.07 2.93s5.2-1.05 7.07-2.93l.78-.78 12.8 12.8c5.19 5.19 4.92 14.08 3.98 29.34-1.57 25.72-3.73 60.94 33.38 98.05l24.18 24.17v.01s0 0 .01 0l110.77 110.77c.09.1.17.19.26.29s.19.17.29.26l80.75 80.76c10.66 10.66 24.82 16.53 39.87 16.53 27.94 0 51.19-20.45 55.61-47.17 23.7-3.92 42.45-22.67 46.37-46.37 26.72-4.42 47.17-27.67 47.17-55.61zm-487.25-268.26c-3.06-3.06-4.75-7.16-4.75-11.55s1.69-8.49 4.75-11.55l46.74-46.74c3.06-3.06 7.16-4.75 11.55-4.75s8.49 1.69 11.56 4.75l23.99 23.97-69.87 69.87zm68.56 87.79c1.04-16.91 2.01-32.89-9.8-44.7l-12.8-12.8 54.17-54.17 12.8 12.8c11.82 11.82 27.79 10.84 44.7 9.8 24.35-1.49 51.95-3.18 82.69 27.56l17.11 17.11-30.78 30.78c-21.07 2.16-40.81 11.55-55.94 26.69-15.14 15.14-24.53 34.88-26.69 55.94l-30.78 30.78-17.11-17.11c-30.75-30.73-29.06-58.33-27.57-82.68zm371.2 215.74c-2.15-10.81-7.44-20.76-15.4-28.75-3.9-3.91-10.23-3.92-14.14-.02s-3.92 10.23-.02 14.14c6.87 6.9 10.66 16.04 10.66 25.74 0 20.06-16.32 36.37-36.37 36.37-9.7 0-18.84-3.79-25.74-10.66-3.91-3.9-10.24-3.89-14.14.02s-3.89 10.24.02 14.14c7.99 7.97 17.94 13.25 28.75 15.4-3.98 15.78-18.28 27.49-35.27 27.49-9.7 0-18.84-3.79-25.73-10.68l-73.96-73.96 30.8-30.8c21.02-2.16 40.76-11.54 55.96-26.68 15.11-15.17 24.48-34.9 26.65-55.93l30.8-30.8 73.96 73.96c6.89 6.89 10.68 16.02 10.68 25.73-.02 17-11.73 31.3-27.51 35.29z"/><path d="m293.73 212.85c-3.91-3.9-10.24-3.9-14.14 0l-65.59 65.59c-3.9 3.9-3.9 10.24 0 14.14 1.95 1.95 4.51 2.93 7.07 2.93s5.12-.98 7.07-2.93l65.58-65.58c3.91-3.91 3.91-10.24.01-14.15z"/><path d="m313.6 246.87-65.6 65.59c-3.9 3.9-3.9 10.24 0 14.14 1.95 1.95 4.51 2.93 7.07 2.93s5.12-.98 7.07-2.93l65.59-65.59c3.9-3.9 3.9-10.24 0-14.14s-10.23-3.9-14.13 0z"/><path d="m340.33 197.04c1.95 1.95 4.49 2.91 7.03 2.91 2.56 0 5.12-.98 7.08-2.94 3.9-3.9 3.88-10.27-.03-14.17s-10.24-3.9-14.14 0-3.9 10.24 0 14.14z"/></g></svg>