<svg enable-background="new 0 0 512 512" viewBox="0 0 512 512" xmlns="http://www.w3.org/2000/svg"><g fill="#212121"><path d="m469.66 290.34-.71-.71-31.9-195.36.61-.61-.85-.85-4.91-30.1c-.63-3.87-3.97-6.71-7.9-6.71h-33.44l-6.71-33.57c-.75-3.74-4.04-6.43-7.85-6.43h-48c-3.81 0-7.1 2.69-7.84 6.43l-6.72 33.57h-33.44c-3.92 0-7.26 2.84-7.9 6.71l-20.9 128 15.79 2.58 2.66-16.31 196.68 196.68.09-.09 8.11 49.67-108.87-108.9-11.31 11.31 42.34 42.35-42.34 42.34 11.31 11.31 42.34-42.34 20.69 20.69-48 48h-28.69v16h112v16h-128v16h136c4.42 0 8-3.58 8-8v-24h8c4.42 0 8-3.58 8-8 0-.43-.03-.86-.1-1.29l-26.75-163.85zm-31.76-91.55-29.9 29.9-20.69-20.69 44.78-44.78zm3.18 19.45 8.49 52.02-30.26-30.26zm-12.16-74.47-52.92 52.92-20.69-20.69 67.8-67.8zm-108.92-71.77h28.69l44 44-16.69 16.69-60.69-60.69zm99.94 16.75-15.94 15.94-32.69-32.69h45.89zm-85.38-56.75h34.88l4.8 24h-44.48zm-41.87 40 72 72-20.69 20.69-62.18-62.18 4.98-30.51zm-19.85 85.52 5.81-35.57 175.33 175.35 8.07 49.45zm130.47 290.48 36.69-36.69 36.69 36.69z"/><path d="m72 496h208c30.91-.04 55.96-25.09 56-56v-32c0-8.19-4.19-15.82-11.1-20.22 5.06-8.95 3.84-20.13-3.03-27.78 6.87-7.65 8.09-18.83 3.03-27.78 6.91-4.4 11.1-12.03 11.1-20.22v-32c-.04-30.91-25.09-55.96-56-56h-208c-30.91.04-55.96 25.09-56 56v32c0 8.19 4.19 15.82 11.1 20.22-5.06 8.95-3.84 20.13 3.03 27.78-6.87 7.65-8.09 18.83-3.03 27.78-6.91 4.4-11.1 12.03-11.1 20.22v32c.04 30.91 25.09 55.96 56 56zm-40-56v-32c0-1.31.32-2.6.94-3.75l19.75 19.75-20.43 20.43c-.17-1.47-.26-2.95-.26-4.43zm8-64c.01-4.42 3.58-7.99 8-8h256c4.42 0 8 3.58 8 8s-3.58 8-8 8h-256c-4.42-.01-7.99-3.58-8-8zm0-32c.01-4.42 3.58-7.99 8-8h256c4.42 0 8 3.58 8 8s-3.58 8-8 8h-256c-4.42-.01-7.99-3.58-8-8zm0-24c-4.42-.01-7.99-3.58-8-8v-20.69l28.69 28.69zm48.69-20-12.69 12.69-42.72-42.72c1.6-6.13 4.63-11.8 8.85-16.52zm146.62-60h33.37l-16.68 16.69zm57.38 80h-25.37l-80-80h25.37zm27.31-40v32c-.01 3.33-2.08 6.32-5.2 7.48l-23.49-23.48 27.11-27.11c1.05 3.61 1.58 7.35 1.58 11.11zm-176-12.69 12.69 12.69-40 40h-25.38zm16 32v20.69h-20.69zm16 0 20.69 20.69h-20.69zm43.31 20.69-64-64 12.69-12.69 76.69 76.69zm-91.31-59.31v-20.69h20.69zm-16 16-12 12-4-4v-44.69h16zm200 123.31c4.42.01 7.99 3.58 8 8v28.69l-36.69-36.69zm-6.17 70.51-50.52-50.51 12.69-12.69 48.66 48.66c-2.46 5.61-6.16 10.58-10.83 14.54zm-105.83-17.82-12.69-12.69 40-40h25.37zm-16-32v-20.69h20.69zm-16 0-20.69-20.69h20.69zm-43.31-20.69 64 64-12.69 12.69-76.69-76.69zm91.31 59.31v20.69h-20.69zm16-16 12-12 4 4v44.69h-16zm-155.31-43.31 80 80h-25.37l-80-80zm32 80h-33.38l16.69-16.69zm-70.58-18.79 25.89-25.9 16.69 16.69-24.66 24.66c-7.39-3.24-13.63-8.62-17.92-15.45zm225.89 18.79v-28.69l27.11 27.11c-3.61 1.05-7.35 1.58-11.11 1.58zm46.51-225.82-30.51 30.51-16.69-16.69 26.72-26.72c8 2.08 15.15 6.59 20.48 12.9zm-230.51-14.18v28.69l-24.92-24.92c5.29-2.49 11.07-3.77 16.92-3.77z"/></g></svg>